<?xml version='1.0' encoding='utf-8'?>
<svg xmlns="http://www.w3.org/2000/svg" xmlns:dc="http://purl.org/dc/elements/1.1/" xmlns:ns3="http://www.w3.org/1999/xlink" xmlns:rdf="http://www.w3.org/1999/02/22-rdf-syntax-ns#" width="393.84pt" height="274.824pt" viewBox="0 0 393.84 274.824" version="1.1">
 <metadata><rdf:RDF><rdf:Description><dc:figure_id>j3-grain-size</dc:figure_id><dc:journal>ocean_engineering</dc:journal><dc:paper>J3</dc:paper><dc:claim_id>j3-grain-size</dc:claim_id><dc:tier>2</dc:tier><dc:git_hash>3ac76982-dirty</dc:git_hash><dc:generated_utc>2026-04-19T12:59:59Z</dc:generated_utc><dc:data_sources>grain-size.parquet:d5f70800; grain-size.schema.yml:23ec75e9; grain-size.provenance.json:ddf6f48d; j3-grain-size.yml:aea46004</dc:data_sources><dc:generator>figgen</dc:generator><dc:description>Particle-size distribution curves for the three SNU silica sands used in this programme, reconstructed from the d10 / d50 / d60 / fines- content anchor points in manuscript @tbl-soil-properties via monotone PCHIP interpolation on log-diameter. No. 7 (d50 = 0.21 mm) is the test-bed sand for T1-T5; No. 8 (0.15 mm) is the silt-fraction sand used in T3; No. 5 (1.99 mm) is the coarse backfill. USCS textural subdivisions (fines/fine/medium/coarse sand/gravel) shown as faint band boundaries.
</dc:description><dc:claim_measured>{"no5_cu_matches_table": 3.33, "no5_d50_at_1_99_mm": 1.99, "no5_fines_zero": 0.0, "no7_cu_matches_table": 2.45, "no7_d50_at_0_21_mm": 0.21, "no7_fines_5_8_pct": 5.8, "no8_cu_matches_table": 2.27, "no8_d50_at_0_15_mm": 0.15, "no8_fines_12_4_pct": 12.4, "row_inventory_three_sands": "{'No. 5': 126, 'No. 7': 126, 'No. 8': 126}"}</dc:claim_measured><dc:claim_id_measured>j3-grain-size</dc:claim_id_measured></rdf:Description></rdf:RDF></metadata><defs>
  <style type="text/css">*{stroke-linejoin: round; stroke-linecap: butt}</style>
 </defs>
 <g id="figure_1">
  <g id="patch_1">
   <path d="M 0 274.824  L 393.84 274.824  L 393.84 0  L 0 0  z " style="fill: #ffffff" />
  </g>
  <g id="axes_1">
   <g id="patch_2">
    <path d="M 26.72125 250.91775  L 392.4 250.91775  L 392.4 1.44  L 26.72125 1.44  z " style="fill: #ffffff" />
   </g>
   <g id="patch_3">
    <path d="M 26.72125 250.91775  L 63.709717 250.91775  L 63.709717 1.44  L 26.72125 1.44  z " clip-path="url(#p0da1ea20d5)" style="fill: #f0f0f0; opacity: 0.6" />
   </g>
   <g id="patch_4">
    <path d="M 63.709717 250.91775  L 165.776772 250.91775  L 165.776772 1.44  L 63.709717 1.44  z " clip-path="url(#p0da1ea20d5)" style="fill: #ffffff; opacity: 0.6" />
   </g>
   <g id="patch_5">
    <path d="M 165.776772 250.91775  L 256.91174 250.91775  L 256.91174 1.44  L 165.776772 1.44  z " clip-path="url(#p0da1ea20d5)" style="fill: #f0f0f0; opacity: 0.6" />
   </g>
   <g id="patch_6">
    <path d="M 256.91174 250.91775  L 307.809749 250.91775  L 307.809749 1.44  L 256.91174 1.44  z " clip-path="url(#p0da1ea20d5)" style="fill: #ffffff; opacity: 0.6" />
   </g>
   <g id="patch_7">
    <path d="M 307.809749 250.91775  L 392.4 250.91775  L 392.4 1.44  L 307.809749 1.44  z " clip-path="url(#p0da1ea20d5)" style="fill: #f0f0f0; opacity: 0.6" />
   </g>
   <g id="matplotlib.axis_1">
    <g id="xtick_1">
     <g id="line2d_1">
      <path d="M 80.637449 250.91775  L 80.637449 1.44  " clip-path="url(#p0da1ea20d5)" style="fill: none; stroke: #b0b0b0; stroke-opacity: 0.5; stroke-width: 0.3; stroke-linecap: square" />
     </g>
     <g id="line2d_2">
      <defs>
       <path id="m74cfdbe741" d="M 0 0  L 0 -3  " style="stroke: #262626; stroke-width: 0.5" />
      </defs>
      <g>
       <use ns3:href="#m74cfdbe741" x="80.637449" y="250.91775" style="fill: #262626; stroke: #262626; stroke-width: 0.5" />
      </g>
     </g>
     <g id="line2d_3">
      <defs>
       <path id="md44bbca723" d="M 0 0  L 0 3  " style="stroke: #262626; stroke-width: 0.5" />
      </defs>
      <g>
       <use ns3:href="#md44bbca723" x="80.637449" y="1.44" style="fill: #262626; stroke: #262626; stroke-width: 0.5" />
      </g>
     </g>
     <g id="text_1">
      
      <g style="fill: #262626" transform="translate(74.302449 260.620406)">
       <text>
        <tspan x="0" y="-0.478063" style="font-size: 7px; font-family: 'Times New Roman'; fill: #262626">1</tspan>
        <tspan x="3.5" y="-0.478063" style="font-size: 7px; font-family: 'Times New Roman'; fill: #262626">0</tspan>
        <tspan x="7.105197" y="-4.685937" style="font-size: 4.9px; font-family: 'Times New Roman'; fill: #262626">−</tspan>
        <tspan x="9.868625" y="-4.685937" style="font-size: 4.9px; font-family: 'Times New Roman'; fill: #262626">1</tspan>
       </text>
      </g>
     </g>
    </g>
    <g id="xtick_2">
     <g id="line2d_4">
      <path d="M 216.12571 250.91775  L 216.12571 1.44  " clip-path="url(#p0da1ea20d5)" style="fill: none; stroke: #b0b0b0; stroke-opacity: 0.5; stroke-width: 0.3; stroke-linecap: square" />
     </g>
     <g id="line2d_5">
      <g>
       <use ns3:href="#m74cfdbe741" x="216.12571" y="250.91775" style="fill: #262626; stroke: #262626; stroke-width: 0.5" />
      </g>
     </g>
     <g id="line2d_6">
      <g>
       <use ns3:href="#md44bbca723" x="216.12571" y="1.44" style="fill: #262626; stroke: #262626; stroke-width: 0.5" />
      </g>
     </g>
     <g id="text_2">
      
      <g style="fill: #262626" transform="translate(211.19071 260.620406)">
       <text>
        <tspan x="0" y="-0.478063" style="font-size: 7px; font-family: 'Times New Roman'; fill: #262626">1</tspan>
        <tspan x="3.5" y="-0.478063" style="font-size: 7px; font-family: 'Times New Roman'; fill: #262626">0</tspan>
        <tspan x="7.105197" y="-4.685937" style="font-size: 4.9px; font-family: 'Times New Roman'; fill: #262626">0</tspan>
       </text>
      </g>
     </g>
    </g>
    <g id="xtick_3">
     <g id="line2d_7">
      <path d="M 351.61397 250.91775  L 351.61397 1.44  " clip-path="url(#p0da1ea20d5)" style="fill: none; stroke: #b0b0b0; stroke-opacity: 0.5; stroke-width: 0.3; stroke-linecap: square" />
     </g>
     <g id="line2d_8">
      <g>
       <use ns3:href="#m74cfdbe741" x="351.61397" y="250.91775" style="fill: #262626; stroke: #262626; stroke-width: 0.5" />
      </g>
     </g>
     <g id="line2d_9">
      <g>
       <use ns3:href="#md44bbca723" x="351.61397" y="1.44" style="fill: #262626; stroke: #262626; stroke-width: 0.5" />
      </g>
     </g>
     <g id="text_3">
      
      <g style="fill: #262626" transform="translate(346.67897 260.620406)">
       <text>
        <tspan x="0" y="-0.478063" style="font-size: 7px; font-family: 'Times New Roman'; fill: #262626">1</tspan>
        <tspan x="3.5" y="-0.478063" style="font-size: 7px; font-family: 'Times New Roman'; fill: #262626">0</tspan>
        <tspan x="7.105197" y="-4.685937" style="font-size: 4.9px; font-family: 'Times New Roman'; fill: #262626">1</tspan>
       </text>
      </g>
     </g>
    </g>
    <g id="xtick_4">
     <g id="line2d_10">
      <path d="M 26.72125 250.91775  L 26.72125 1.44  " clip-path="url(#p0da1ea20d5)" style="fill: none; stroke: #b0b0b0; stroke-opacity: 0.5; stroke-width: 0.3; stroke-linecap: square" />
     </g>
     <g id="line2d_11">
      <defs>
       <path id="md4b310f8c0" d="M 0 0  L 0 -1.8  " style="stroke: #262626; stroke-width: 0.6" />
      </defs>
      <g>
       <use ns3:href="#md4b310f8c0" x="26.72125" y="250.91775" style="fill: #262626; stroke: #262626; stroke-width: 0.6" />
      </g>
     </g>
     <g id="line2d_12">
      <defs>
       <path id="m407926bb90" d="M 0 0  L 0 1.8  " style="stroke: #262626; stroke-width: 0.6" />
      </defs>
      <g>
       <use ns3:href="#m407926bb90" x="26.72125" y="1.44" style="fill: #262626; stroke: #262626; stroke-width: 0.6" />
      </g>
     </g>
    </g>
    <g id="xtick_5">
     <g id="line2d_13">
      <path d="M 39.851419 250.91775  L 39.851419 1.44  " clip-path="url(#p0da1ea20d5)" style="fill: none; stroke: #b0b0b0; stroke-opacity: 0.5; stroke-width: 0.3; stroke-linecap: square" />
     </g>
     <g id="line2d_14">
      <g>
       <use ns3:href="#md4b310f8c0" x="39.851419" y="250.91775" style="fill: #262626; stroke: #262626; stroke-width: 0.6" />
      </g>
     </g>
     <g id="line2d_15">
      <g>
       <use ns3:href="#m407926bb90" x="39.851419" y="1.44" style="fill: #262626; stroke: #262626; stroke-width: 0.6" />
      </g>
     </g>
    </g>
    <g id="xtick_6">
     <g id="line2d_16">
      <path d="M 50.579548 250.91775  L 50.579548 1.44  " clip-path="url(#p0da1ea20d5)" style="fill: none; stroke: #b0b0b0; stroke-opacity: 0.5; stroke-width: 0.3; stroke-linecap: square" />
     </g>
     <g id="line2d_17">
      <g>
       <use ns3:href="#md4b310f8c0" x="50.579548" y="250.91775" style="fill: #262626; stroke: #262626; stroke-width: 0.6" />
      </g>
     </g>
     <g id="line2d_18">
      <g>
       <use ns3:href="#m407926bb90" x="50.579548" y="1.44" style="fill: #262626; stroke: #262626; stroke-width: 0.6" />
      </g>
     </g>
    </g>
    <g id="xtick_7">
     <g id="line2d_19">
      <path d="M 59.650052 250.91775  L 59.650052 1.44  " clip-path="url(#p0da1ea20d5)" style="fill: none; stroke: #b0b0b0; stroke-opacity: 0.5; stroke-width: 0.3; stroke-linecap: square" />
     </g>
     <g id="line2d_20">
      <g>
       <use ns3:href="#md4b310f8c0" x="59.650052" y="250.91775" style="fill: #262626; stroke: #262626; stroke-width: 0.6" />
      </g>
     </g>
     <g id="line2d_21">
      <g>
       <use ns3:href="#m407926bb90" x="59.650052" y="1.44" style="fill: #262626; stroke: #262626; stroke-width: 0.6" />
      </g>
     </g>
    </g>
    <g id="xtick_8">
     <g id="line2d_22">
      <path d="M 67.50728 250.91775  L 67.50728 1.44  " clip-path="url(#p0da1ea20d5)" style="fill: none; stroke: #b0b0b0; stroke-opacity: 0.5; stroke-width: 0.3; stroke-linecap: square" />
     </g>
     <g id="line2d_23">
      <g>
       <use ns3:href="#md4b310f8c0" x="67.50728" y="250.91775" style="fill: #262626; stroke: #262626; stroke-width: 0.6" />
      </g>
     </g>
     <g id="line2d_24">
      <g>
       <use ns3:href="#m407926bb90" x="67.50728" y="1.44" style="fill: #262626; stroke: #262626; stroke-width: 0.6" />
      </g>
     </g>
    </g>
    <g id="xtick_9">
     <g id="line2d_25">
      <path d="M 74.437847 250.91775  L 74.437847 1.44  " clip-path="url(#p0da1ea20d5)" style="fill: none; stroke: #b0b0b0; stroke-opacity: 0.5; stroke-width: 0.3; stroke-linecap: square" />
     </g>
     <g id="line2d_26">
      <g>
       <use ns3:href="#md4b310f8c0" x="74.437847" y="250.91775" style="fill: #262626; stroke: #262626; stroke-width: 0.6" />
      </g>
     </g>
     <g id="line2d_27">
      <g>
       <use ns3:href="#m407926bb90" x="74.437847" y="1.44" style="fill: #262626; stroke: #262626; stroke-width: 0.6" />
      </g>
     </g>
    </g>
    <g id="xtick_10">
     <g id="line2d_28">
      <path d="M 121.42348 250.91775  L 121.42348 1.44  " clip-path="url(#p0da1ea20d5)" style="fill: none; stroke: #b0b0b0; stroke-opacity: 0.5; stroke-width: 0.3; stroke-linecap: square" />
     </g>
     <g id="line2d_29">
      <g>
       <use ns3:href="#md4b310f8c0" x="121.42348" y="250.91775" style="fill: #262626; stroke: #262626; stroke-width: 0.6" />
      </g>
     </g>
     <g id="line2d_30">
      <g>
       <use ns3:href="#m407926bb90" x="121.42348" y="1.44" style="fill: #262626; stroke: #262626; stroke-width: 0.6" />
      </g>
     </g>
    </g>
    <g id="xtick_11">
     <g id="line2d_31">
      <path d="M 145.281778 250.91775  L 145.281778 1.44  " clip-path="url(#p0da1ea20d5)" style="fill: none; stroke: #b0b0b0; stroke-opacity: 0.5; stroke-width: 0.3; stroke-linecap: square" />
     </g>
     <g id="line2d_32">
      <g>
       <use ns3:href="#md4b310f8c0" x="145.281778" y="250.91775" style="fill: #262626; stroke: #262626; stroke-width: 0.6" />
      </g>
     </g>
     <g id="line2d_33">
      <g>
       <use ns3:href="#m407926bb90" x="145.281778" y="1.44" style="fill: #262626; stroke: #262626; stroke-width: 0.6" />
      </g>
     </g>
    </g>
    <g id="xtick_12">
     <g id="line2d_34">
      <path d="M 162.20951 250.91775  L 162.20951 1.44  " clip-path="url(#p0da1ea20d5)" style="fill: none; stroke: #b0b0b0; stroke-opacity: 0.5; stroke-width: 0.3; stroke-linecap: square" />
     </g>
     <g id="line2d_35">
      <g>
       <use ns3:href="#md4b310f8c0" x="162.20951" y="250.91775" style="fill: #262626; stroke: #262626; stroke-width: 0.6" />
      </g>
     </g>
     <g id="line2d_36">
      <g>
       <use ns3:href="#m407926bb90" x="162.20951" y="1.44" style="fill: #262626; stroke: #262626; stroke-width: 0.6" />
      </g>
     </g>
    </g>
    <g id="xtick_13">
     <g id="line2d_37">
      <path d="M 175.339679 250.91775  L 175.339679 1.44  " clip-path="url(#p0da1ea20d5)" style="fill: none; stroke: #b0b0b0; stroke-opacity: 0.5; stroke-width: 0.3; stroke-linecap: square" />
     </g>
     <g id="line2d_38">
      <g>
       <use ns3:href="#md4b310f8c0" x="175.339679" y="250.91775" style="fill: #262626; stroke: #262626; stroke-width: 0.6" />
      </g>
     </g>
     <g id="line2d_39">
      <g>
       <use ns3:href="#m407926bb90" x="175.339679" y="1.44" style="fill: #262626; stroke: #262626; stroke-width: 0.6" />
      </g>
     </g>
    </g>
    <g id="xtick_14">
     <g id="line2d_40">
      <path d="M 186.067808 250.91775  L 186.067808 1.44  " clip-path="url(#p0da1ea20d5)" style="fill: none; stroke: #b0b0b0; stroke-opacity: 0.5; stroke-width: 0.3; stroke-linecap: square" />
     </g>
     <g id="line2d_41">
      <g>
       <use ns3:href="#md4b310f8c0" x="186.067808" y="250.91775" style="fill: #262626; stroke: #262626; stroke-width: 0.6" />
      </g>
     </g>
     <g id="line2d_42">
      <g>
       <use ns3:href="#m407926bb90" x="186.067808" y="1.44" style="fill: #262626; stroke: #262626; stroke-width: 0.6" />
      </g>
     </g>
    </g>
    <g id="xtick_15">
     <g id="line2d_43">
      <path d="M 195.138312 250.91775  L 195.138312 1.44  " clip-path="url(#p0da1ea20d5)" style="fill: none; stroke: #b0b0b0; stroke-opacity: 0.5; stroke-width: 0.3; stroke-linecap: square" />
     </g>
     <g id="line2d_44">
      <g>
       <use ns3:href="#md4b310f8c0" x="195.138312" y="250.91775" style="fill: #262626; stroke: #262626; stroke-width: 0.6" />
      </g>
     </g>
     <g id="line2d_45">
      <g>
       <use ns3:href="#m407926bb90" x="195.138312" y="1.44" style="fill: #262626; stroke: #262626; stroke-width: 0.6" />
      </g>
     </g>
    </g>
    <g id="xtick_16">
     <g id="line2d_46">
      <path d="M 202.99554 250.91775  L 202.99554 1.44  " clip-path="url(#p0da1ea20d5)" style="fill: none; stroke: #b0b0b0; stroke-opacity: 0.5; stroke-width: 0.3; stroke-linecap: square" />
     </g>
     <g id="line2d_47">
      <g>
       <use ns3:href="#md4b310f8c0" x="202.99554" y="250.91775" style="fill: #262626; stroke: #262626; stroke-width: 0.6" />
      </g>
     </g>
     <g id="line2d_48">
      <g>
       <use ns3:href="#m407926bb90" x="202.99554" y="1.44" style="fill: #262626; stroke: #262626; stroke-width: 0.6" />
      </g>
     </g>
    </g>
    <g id="xtick_17">
     <g id="line2d_49">
      <path d="M 209.926107 250.91775  L 209.926107 1.44  " clip-path="url(#p0da1ea20d5)" style="fill: none; stroke: #b0b0b0; stroke-opacity: 0.5; stroke-width: 0.3; stroke-linecap: square" />
     </g>
     <g id="line2d_50">
      <g>
       <use ns3:href="#md4b310f8c0" x="209.926107" y="250.91775" style="fill: #262626; stroke: #262626; stroke-width: 0.6" />
      </g>
     </g>
     <g id="line2d_51">
      <g>
       <use ns3:href="#m407926bb90" x="209.926107" y="1.44" style="fill: #262626; stroke: #262626; stroke-width: 0.6" />
      </g>
     </g>
    </g>
    <g id="xtick_18">
     <g id="line2d_52">
      <path d="M 256.91174 250.91775  L 256.91174 1.44  " clip-path="url(#p0da1ea20d5)" style="fill: none; stroke: #b0b0b0; stroke-opacity: 0.5; stroke-width: 0.3; stroke-linecap: square" />
     </g>
     <g id="line2d_53">
      <g>
       <use ns3:href="#md4b310f8c0" x="256.91174" y="250.91775" style="fill: #262626; stroke: #262626; stroke-width: 0.6" />
      </g>
     </g>
     <g id="line2d_54">
      <g>
       <use ns3:href="#m407926bb90" x="256.91174" y="1.44" style="fill: #262626; stroke: #262626; stroke-width: 0.6" />
      </g>
     </g>
    </g>
    <g id="xtick_19">
     <g id="line2d_55">
      <path d="M 280.770038 250.91775  L 280.770038 1.44  " clip-path="url(#p0da1ea20d5)" style="fill: none; stroke: #b0b0b0; stroke-opacity: 0.5; stroke-width: 0.3; stroke-linecap: square" />
     </g>
     <g id="line2d_56">
      <g>
       <use ns3:href="#md4b310f8c0" x="280.770038" y="250.91775" style="fill: #262626; stroke: #262626; stroke-width: 0.6" />
      </g>
     </g>
     <g id="line2d_57">
      <g>
       <use ns3:href="#m407926bb90" x="280.770038" y="1.44" style="fill: #262626; stroke: #262626; stroke-width: 0.6" />
      </g>
     </g>
    </g>
    <g id="xtick_20">
     <g id="line2d_58">
      <path d="M 297.69777 250.91775  L 297.69777 1.44  " clip-path="url(#p0da1ea20d5)" style="fill: none; stroke: #b0b0b0; stroke-opacity: 0.5; stroke-width: 0.3; stroke-linecap: square" />
     </g>
     <g id="line2d_59">
      <g>
       <use ns3:href="#md4b310f8c0" x="297.69777" y="250.91775" style="fill: #262626; stroke: #262626; stroke-width: 0.6" />
      </g>
     </g>
     <g id="line2d_60">
      <g>
       <use ns3:href="#m407926bb90" x="297.69777" y="1.44" style="fill: #262626; stroke: #262626; stroke-width: 0.6" />
      </g>
     </g>
    </g>
    <g id="xtick_21">
     <g id="line2d_61">
      <path d="M 310.827939 250.91775  L 310.827939 1.44  " clip-path="url(#p0da1ea20d5)" style="fill: none; stroke: #b0b0b0; stroke-opacity: 0.5; stroke-width: 0.3; stroke-linecap: square" />
     </g>
     <g id="line2d_62">
      <g>
       <use ns3:href="#md4b310f8c0" x="310.827939" y="250.91775" style="fill: #262626; stroke: #262626; stroke-width: 0.6" />
      </g>
     </g>
     <g id="line2d_63">
      <g>
       <use ns3:href="#m407926bb90" x="310.827939" y="1.44" style="fill: #262626; stroke: #262626; stroke-width: 0.6" />
      </g>
     </g>
    </g>
    <g id="xtick_22">
     <g id="line2d_64">
      <path d="M 321.556069 250.91775  L 321.556069 1.44  " clip-path="url(#p0da1ea20d5)" style="fill: none; stroke: #b0b0b0; stroke-opacity: 0.5; stroke-width: 0.3; stroke-linecap: square" />
     </g>
     <g id="line2d_65">
      <g>
       <use ns3:href="#md4b310f8c0" x="321.556069" y="250.91775" style="fill: #262626; stroke: #262626; stroke-width: 0.6" />
      </g>
     </g>
     <g id="line2d_66">
      <g>
       <use ns3:href="#m407926bb90" x="321.556069" y="1.44" style="fill: #262626; stroke: #262626; stroke-width: 0.6" />
      </g>
     </g>
    </g>
    <g id="xtick_23">
     <g id="line2d_67">
      <path d="M 330.626573 250.91775  L 330.626573 1.44  " clip-path="url(#p0da1ea20d5)" style="fill: none; stroke: #b0b0b0; stroke-opacity: 0.5; stroke-width: 0.3; stroke-linecap: square" />
     </g>
     <g id="line2d_68">
      <g>
       <use ns3:href="#md4b310f8c0" x="330.626573" y="250.91775" style="fill: #262626; stroke: #262626; stroke-width: 0.6" />
      </g>
     </g>
     <g id="line2d_69">
      <g>
       <use ns3:href="#m407926bb90" x="330.626573" y="1.44" style="fill: #262626; stroke: #262626; stroke-width: 0.6" />
      </g>
     </g>
    </g>
    <g id="xtick_24">
     <g id="line2d_70">
      <path d="M 338.483801 250.91775  L 338.483801 1.44  " clip-path="url(#p0da1ea20d5)" style="fill: none; stroke: #b0b0b0; stroke-opacity: 0.5; stroke-width: 0.3; stroke-linecap: square" />
     </g>
     <g id="line2d_71">
      <g>
       <use ns3:href="#md4b310f8c0" x="338.483801" y="250.91775" style="fill: #262626; stroke: #262626; stroke-width: 0.6" />
      </g>
     </g>
     <g id="line2d_72">
      <g>
       <use ns3:href="#m407926bb90" x="338.483801" y="1.44" style="fill: #262626; stroke: #262626; stroke-width: 0.6" />
      </g>
     </g>
    </g>
    <g id="xtick_25">
     <g id="line2d_73">
      <path d="M 345.414367 250.91775  L 345.414367 1.44  " clip-path="url(#p0da1ea20d5)" style="fill: none; stroke: #b0b0b0; stroke-opacity: 0.5; stroke-width: 0.3; stroke-linecap: square" />
     </g>
     <g id="line2d_74">
      <g>
       <use ns3:href="#md4b310f8c0" x="345.414367" y="250.91775" style="fill: #262626; stroke: #262626; stroke-width: 0.6" />
      </g>
     </g>
     <g id="line2d_75">
      <g>
       <use ns3:href="#m407926bb90" x="345.414367" y="1.44" style="fill: #262626; stroke: #262626; stroke-width: 0.6" />
      </g>
     </g>
    </g>
    <g id="xtick_26">
     <g id="line2d_76">
      <path d="M 392.4 250.91775  L 392.4 1.44  " clip-path="url(#p0da1ea20d5)" style="fill: none; stroke: #b0b0b0; stroke-opacity: 0.5; stroke-width: 0.3; stroke-linecap: square" />
     </g>
     <g id="line2d_77">
      <g>
       <use ns3:href="#md4b310f8c0" x="392.4" y="250.91775" style="fill: #262626; stroke: #262626; stroke-width: 0.6" />
      </g>
     </g>
     <g id="line2d_78">
      <g>
       <use ns3:href="#m407926bb90" x="392.4" y="1.44" style="fill: #262626; stroke: #262626; stroke-width: 0.6" />
      </g>
     </g>
    </g>
    <g id="text_4">
     
     <g style="fill: #1a1a1a" transform="translate(168.360625 271.67275)">
      <text>
       <tspan x="0" y="-0.4375" style="font-size: 8px; font-family: 'Times New Roman'; fill: #1a1a1a">P</tspan>
       <tspan x="4.449219" y="-0.4375" style="font-size: 8px; font-family: 'Times New Roman'; fill: #1a1a1a">a</tspan>
       <tspan x="8" y="-0.4375" style="font-size: 8px; font-family: 'Times New Roman'; fill: #1a1a1a">r</tspan>
       <tspan x="10.664062" y="-0.4375" style="font-size: 8px; font-family: 'Times New Roman'; fill: #1a1a1a">t</tspan>
       <tspan x="12.886719" y="-0.4375" style="font-size: 8px; font-family: 'Times New Roman'; fill: #1a1a1a">i</tspan>
       <tspan x="15.109375" y="-0.4375" style="font-size: 8px; font-family: 'Times New Roman'; fill: #1a1a1a">c</tspan>
       <tspan x="18.660156" y="-0.4375" style="font-size: 8px; font-family: 'Times New Roman'; fill: #1a1a1a">l</tspan>
       <tspan x="20.882812" y="-0.4375" style="font-size: 8px; font-family: 'Times New Roman'; fill: #1a1a1a">e</tspan>
       <tspan x="24.433594" y="-0.4375" style="font-size: 8px; font-family: 'Times New Roman'; fill: #1a1a1a"> </tspan>
       <tspan x="26.433594" y="-0.4375" style="font-size: 8px; font-family: 'Times New Roman'; fill: #1a1a1a">d</tspan>
       <tspan x="30.433594" y="-0.4375" style="font-size: 8px; font-family: 'Times New Roman'; fill: #1a1a1a">i</tspan>
       <tspan x="32.65625" y="-0.4375" style="font-size: 8px; font-family: 'Times New Roman'; fill: #1a1a1a">a</tspan>
       <tspan x="36.207031" y="-0.4375" style="font-size: 8px; font-family: 'Times New Roman'; fill: #1a1a1a">m</tspan>
       <tspan x="42.429688" y="-0.4375" style="font-size: 8px; font-family: 'Times New Roman'; fill: #1a1a1a">e</tspan>
       <tspan x="45.980469" y="-0.4375" style="font-size: 8px; font-family: 'Times New Roman'; fill: #1a1a1a">t</tspan>
       <tspan x="48.203125" y="-0.4375" style="font-size: 8px; font-family: 'Times New Roman'; fill: #1a1a1a">e</tspan>
       <tspan x="51.753906" y="-0.4375" style="font-size: 8px; font-family: 'Times New Roman'; fill: #1a1a1a">r</tspan>
       <tspan x="54.417969" y="-0.4375" style="font-size: 8px; font-family: 'Times New Roman'; fill: #1a1a1a">,</tspan>
       <tspan x="56.417969" y="-0.4375" style="font-size: 8px; font-family: 'Times New Roman'; fill: #1a1a1a"> </tspan>
       <tspan x="62.578125" y="-0.4375" style="font-size: 8px; font-family: 'Times New Roman'; fill: #1a1a1a"> </tspan>
       <tspan x="64.578125" y="-0.4375" style="font-size: 8px; font-family: 'Times New Roman'; fill: #1a1a1a">[</tspan>
       <tspan x="67.242188" y="-0.4375" style="font-size: 8px; font-family: 'Times New Roman'; fill: #1a1a1a">m</tspan>
       <tspan x="73.464844" y="-0.4375" style="font-size: 8px; font-family: 'Times New Roman'; fill: #1a1a1a">m</tspan>
       <tspan x="79.6875" y="-0.4375" style="font-size: 8px; font-family: 'Times New Roman'; fill: #1a1a1a">]</tspan>
       <tspan x="58.417969" y="-0.4375" style="font-size: 8px; font-family: 'cmmi10'; fill: #1a1a1a">d</tspan>
      </text>
     </g>
    </g>
   </g>
   <g id="matplotlib.axis_2">
    <g id="ytick_1">
     <g id="line2d_79">
      <path d="M 26.72125 250.91775  L 392.4 250.91775  " clip-path="url(#p0da1ea20d5)" style="fill: none; stroke: #b0b0b0; stroke-opacity: 0.5; stroke-width: 0.3; stroke-linecap: square" />
     </g>
     <g id="line2d_80">
      <defs>
       <path id="m6acb7488cc" d="M 0 0  L 3 0  " style="stroke: #262626; stroke-width: 0.5" />
      </defs>
      <g>
       <use ns3:href="#m6acb7488cc" x="26.72125" y="250.91775" style="fill: #262626; stroke: #262626; stroke-width: 0.5" />
      </g>
     </g>
     <g id="line2d_81">
      <defs>
       <path id="m933ecd5141" d="M 0 0  L -3 0  " style="stroke: #262626; stroke-width: 0.5" />
      </defs>
      <g>
       <use ns3:href="#m933ecd5141" x="392.4" y="250.91775" style="fill: #262626; stroke: #262626; stroke-width: 0.5" />
      </g>
     </g>
     <g id="text_5">
      
      <g style="fill: #262626" transform="translate(19.72125 253.348063)">
       <text>
        <tspan x="0" y="-0.265625" style="font-size: 7px; font-family: 'Times New Roman'; fill: #262626">0</tspan>
       </text>
      </g>
     </g>
    </g>
    <g id="ytick_2">
     <g id="line2d_82">
      <path d="M 26.72125 201.516215  L 392.4 201.516215  " clip-path="url(#p0da1ea20d5)" style="fill: none; stroke: #b0b0b0; stroke-opacity: 0.5; stroke-width: 0.3; stroke-linecap: square" />
     </g>
     <g id="line2d_83">
      <g>
       <use ns3:href="#m6acb7488cc" x="26.72125" y="201.516215" style="fill: #262626; stroke: #262626; stroke-width: 0.5" />
      </g>
     </g>
     <g id="line2d_84">
      <g>
       <use ns3:href="#m933ecd5141" x="392.4" y="201.516215" style="fill: #262626; stroke: #262626; stroke-width: 0.5" />
      </g>
     </g>
     <g id="text_6">
      
      <g style="fill: #262626" transform="translate(16.22125 203.946528)">
       <text>
        <tspan x="0" y="-0.265625" style="font-size: 7px; font-family: 'Times New Roman'; fill: #262626">2</tspan>
        <tspan x="3.5" y="-0.265625" style="font-size: 7px; font-family: 'Times New Roman'; fill: #262626">0</tspan>
       </text>
      </g>
     </g>
    </g>
    <g id="ytick_3">
     <g id="line2d_85">
      <path d="M 26.72125 152.114681  L 392.4 152.114681  " clip-path="url(#p0da1ea20d5)" style="fill: none; stroke: #b0b0b0; stroke-opacity: 0.5; stroke-width: 0.3; stroke-linecap: square" />
     </g>
     <g id="line2d_86">
      <g>
       <use ns3:href="#m6acb7488cc" x="26.72125" y="152.114681" style="fill: #262626; stroke: #262626; stroke-width: 0.5" />
      </g>
     </g>
     <g id="line2d_87">
      <g>
       <use ns3:href="#m933ecd5141" x="392.4" y="152.114681" style="fill: #262626; stroke: #262626; stroke-width: 0.5" />
      </g>
     </g>
     <g id="text_7">
      
      <g style="fill: #262626" transform="translate(16.22125 154.544993)">
       <text>
        <tspan x="0" y="-0.265625" style="font-size: 7px; font-family: 'Times New Roman'; fill: #262626">4</tspan>
        <tspan x="3.5" y="-0.265625" style="font-size: 7px; font-family: 'Times New Roman'; fill: #262626">0</tspan>
       </text>
      </g>
     </g>
    </g>
    <g id="ytick_4">
     <g id="line2d_88">
      <path d="M 26.72125 102.713146  L 392.4 102.713146  " clip-path="url(#p0da1ea20d5)" style="fill: none; stroke: #b0b0b0; stroke-opacity: 0.5; stroke-width: 0.3; stroke-linecap: square" />
     </g>
     <g id="line2d_89">
      <g>
       <use ns3:href="#m6acb7488cc" x="26.72125" y="102.713146" style="fill: #262626; stroke: #262626; stroke-width: 0.5" />
      </g>
     </g>
     <g id="line2d_90">
      <g>
       <use ns3:href="#m933ecd5141" x="392.4" y="102.713146" style="fill: #262626; stroke: #262626; stroke-width: 0.5" />
      </g>
     </g>
     <g id="text_8">
      
      <g style="fill: #262626" transform="translate(16.22125 105.143459)">
       <text>
        <tspan x="0" y="-0.265625" style="font-size: 7px; font-family: 'Times New Roman'; fill: #262626">6</tspan>
        <tspan x="3.5" y="-0.265625" style="font-size: 7px; font-family: 'Times New Roman'; fill: #262626">0</tspan>
       </text>
      </g>
     </g>
    </g>
    <g id="ytick_5">
     <g id="line2d_91">
      <path d="M 26.72125 53.311611  L 392.4 53.311611  " clip-path="url(#p0da1ea20d5)" style="fill: none; stroke: #b0b0b0; stroke-opacity: 0.5; stroke-width: 0.3; stroke-linecap: square" />
     </g>
     <g id="line2d_92">
      <g>
       <use ns3:href="#m6acb7488cc" x="26.72125" y="53.311611" style="fill: #262626; stroke: #262626; stroke-width: 0.5" />
      </g>
     </g>
     <g id="line2d_93">
      <g>
       <use ns3:href="#m933ecd5141" x="392.4" y="53.311611" style="fill: #262626; stroke: #262626; stroke-width: 0.5" />
      </g>
     </g>
     <g id="text_9">
      
      <g style="fill: #262626" transform="translate(16.22125 55.741924)">
       <text>
        <tspan x="0" y="-0.265625" style="font-size: 7px; font-family: 'Times New Roman'; fill: #262626">8</tspan>
        <tspan x="3.5" y="-0.265625" style="font-size: 7px; font-family: 'Times New Roman'; fill: #262626">0</tspan>
       </text>
      </g>
     </g>
    </g>
    <g id="ytick_6">
     <g id="line2d_94">
      <path d="M 26.72125 3.910077  L 392.4 3.910077  " clip-path="url(#p0da1ea20d5)" style="fill: none; stroke: #b0b0b0; stroke-opacity: 0.5; stroke-width: 0.3; stroke-linecap: square" />
     </g>
     <g id="line2d_95">
      <g>
       <use ns3:href="#m6acb7488cc" x="26.72125" y="3.910077" style="fill: #262626; stroke: #262626; stroke-width: 0.5" />
      </g>
     </g>
     <g id="line2d_96">
      <g>
       <use ns3:href="#m933ecd5141" x="392.4" y="3.910077" style="fill: #262626; stroke: #262626; stroke-width: 0.5" />
      </g>
     </g>
     <g id="text_10">
      
      <g style="fill: #262626" transform="translate(12.72125 6.340389)">
       <text>
        <tspan x="0" y="-0.265625" style="font-size: 7px; font-family: 'Times New Roman'; fill: #262626">1</tspan>
        <tspan x="3.5" y="-0.265625" style="font-size: 7px; font-family: 'Times New Roman'; fill: #262626">0</tspan>
        <tspan x="7" y="-0.265625" style="font-size: 7px; font-family: 'Times New Roman'; fill: #262626">0</tspan>
       </text>
      </g>
     </g>
    </g>
    <g id="text_11">
     <text style="font-size: 8px; font-family: 'Times New Roman', 'DejaVu Serif', 'Nimbus Roman', 'Liberation Serif', serif; text-anchor: middle; fill: #1a1a1a" x="6.995" y="126.178875" transform="rotate(-90 6.995 126.178875)">Percent passing [%]</text>
    </g>
   </g>
   <g id="line2d_97">
    <path d="M 63.709717 250.91775  L 63.709717 1.44  " clip-path="url(#p0da1ea20d5)" style="fill: none; stroke-dasharray: 0.35,0.525; stroke-dashoffset: 0; stroke: #8c8c8c; stroke-width: 0.35" />
   </g>
   <g id="line2d_98">
    <path d="M 165.776772 250.91775  L 165.776772 1.44  " clip-path="url(#p0da1ea20d5)" style="fill: none; stroke-dasharray: 0.35,0.525; stroke-dashoffset: 0; stroke: #8c8c8c; stroke-width: 0.35" />
   </g>
   <g id="line2d_99">
    <path d="M 256.91174 250.91775  L 256.91174 1.44  " clip-path="url(#p0da1ea20d5)" style="fill: none; stroke-dasharray: 0.35,0.525; stroke-dashoffset: 0; stroke: #8c8c8c; stroke-width: 0.35" />
   </g>
   <g id="line2d_100">
    <path d="M 307.809749 250.91775  L 307.809749 1.44  " clip-path="url(#p0da1ea20d5)" style="fill: none; stroke-dasharray: 0.35,0.525; stroke-dashoffset: 0; stroke: #8c8c8c; stroke-width: 0.35" />
   </g>
   <g id="patch_8">
    <path d="M 26.72125 250.91775  L 26.72125 1.44  " style="fill: none; stroke: #262626; stroke-width: 0.6; stroke-linejoin: miter; stroke-linecap: square" />
   </g>
   <g id="patch_9">
    <path d="M 26.72125 250.91775  L 392.4 250.91775  " style="fill: none; stroke: #262626; stroke-width: 0.6; stroke-linejoin: miter; stroke-linecap: square" />
   </g>
   <g id="text_12">
    <text style="font-size: 6px; font-family: 'Times New Roman', 'DejaVu Serif', 'Nimbus Roman', 'Liberation Serif', serif; text-anchor: middle; fill: #595959" x="45.215484" y="13.090582" transform="rotate(-0 45.215484 13.090582)">fines</text>
   </g>
   <g id="text_13">
    <text style="font-size: 6px; font-family: 'Times New Roman', 'DejaVu Serif', 'Nimbus Roman', 'Liberation Serif', serif; fill: #595959" transform="translate(110.079182 13.090582)">fine</text>
    <text style="font-size: 6px; font-family: 'Times New Roman', 'DejaVu Serif', 'Nimbus Roman', 'Liberation Serif', serif; fill: #595959" transform="translate(109.24387 19.37352)">sand</text>
   </g>
   <g id="text_14">
    <text style="font-size: 6px; font-family: 'Times New Roman', 'DejaVu Serif', 'Nimbus Roman', 'Liberation Serif', serif; fill: #595959" transform="translate(201.512225 13.090582)">medium</text>
    <text style="font-size: 6px; font-family: 'Times New Roman', 'DejaVu Serif', 'Nimbus Roman', 'Liberation Serif', serif; fill: #595959" transform="translate(205.844881 19.37352)">sand</text>
   </g>
   <g id="text_15">
    <text style="font-size: 6px; font-family: 'Times New Roman', 'DejaVu Serif', 'Nimbus Roman', 'Liberation Serif', serif; fill: #595959" transform="translate(274.699026 13.090582)">coarse</text>
    <text style="font-size: 6px; font-family: 'Times New Roman', 'DejaVu Serif', 'Nimbus Roman', 'Liberation Serif', serif; fill: #595959" transform="translate(276.86137 19.37352)">sand</text>
   </g>
   <g id="text_16">
    <text style="font-size: 6px; font-family: 'Times New Roman', 'DejaVu Serif', 'Nimbus Roman', 'Liberation Serif', serif; text-anchor: middle; fill: #595959" x="350.104875" y="13.090582" transform="rotate(-0 350.104875 13.090582)">gravel</text>
   </g>
   <g id="line2d_101">
    <path d="M 63.709717 250.91775  L 66.469342 250.908012  L 69.228967 250.878766  L 71.988591 250.829962  L 74.748216 250.761553  L 77.507841 250.673489  L 80.267465 250.565723  L 83.02709 250.438204  L 85.786715 250.290885  L 88.546339 250.123718  L 91.305964 249.936652  L 94.065589 249.72964  L 96.825213 249.502633  L 99.584838 249.255582  L 102.344463 248.988439  L 105.104087 248.701155  L 107.863712 248.393681  L 110.623337 248.065969  L 113.382961 247.71797  L 116.142586 247.349635  L 118.902211 246.960916  L 121.661835 246.551764  L 124.42146 246.12213  L 127.181085 245.671965  L 129.940709 245.201222  L 132.700334 244.709851  L 135.459959 244.197804  L 138.219583 243.665032  L 140.979208 243.111486  L 143.738833 242.537118  L 146.498457 241.941879  L 149.258082 241.32572  L 152.017707 240.688593  L 154.777331 240.030449  L 157.536956 239.351239  L 160.296581 238.650915  L 163.056205 237.929428  L 165.81583 237.186729  L 168.575455 236.422771  L 171.335079 235.637503  L 174.094704 234.830877  L 176.854329 234.002846  L 179.613953 233.153359  L 182.373578 232.282369  L 185.133203 231.389826  L 187.892827 230.475683  L 190.652452 229.53989  L 193.412077 228.582399  L 196.171701 227.603161  L 198.931326 226.602127  L 201.690951 225.443132  L 204.450575 223.630602  L 207.2102 221.166517  L 209.969825 218.104871  L 212.729449 214.499658  L 215.489074 210.404871  L 218.248699 205.874506  L 221.008324 200.962555  L 223.767948 195.723013  L 226.527573 190.209874  L 229.287198 184.477132  L 232.046822 178.57878  L 234.806447 172.568813  L 237.566072 166.501225  L 240.325696 160.43001  L 243.085321 154.409162  L 245.844946 148.492674  L 248.60457 142.734542  L 251.364195 137.188757  L 254.12382 131.909316  L 256.883444 126.94592  L 259.643069 121.867375  L 262.402694 116.588163  L 265.162318 111.434927  L 267.921943 106.734307  L 270.681568 102.812943  L 273.441192 99.423517  L 276.200817 96.039694  L 278.960442 92.66442  L 281.720066 89.301122  L 284.479691 85.953224  L 287.239316 82.624152  L 289.99894 79.31733  L 292.758565 76.036185  L 295.51819 72.784141  L 298.277814 69.564623  L 301.037439 66.381057  L 303.797064 63.236868  L 306.556688 60.135481  L 309.316313 57.080321  L 312.075938 54.074813  L 314.835562 51.122383  L 317.595187 48.226455  L 320.354812 45.390456  L 323.114436 42.617809  L 325.874061 39.911941  L 328.633686 37.276276  L 331.39331 34.71424  L 334.152935 32.229258  L 336.91256 29.824755  L 339.672184 27.504156  L 342.431809 25.270886  L 345.191434 23.128371  L 347.951058 21.080036  L 350.710683 19.129306  L 353.470308 17.279606  L 356.229932 15.534361  L 358.989557 13.896997  L 361.749182 12.370938  L 364.508806 10.959611  L 367.268431 9.666439  L 370.028056 8.494849  L 372.78768 7.448265  L 375.547305 6.530113  L 378.30693 5.743818  L 381.066554 5.092805  L 383.826179 4.580499  L 386.585804 4.210326  L 389.345428 3.98571  L 392.105053 3.910077  " clip-path="url(#p0da1ea20d5)" style="fill: none; stroke: #1a1a1a; stroke-width: 1.2; stroke-linecap: square" />
   </g>
   <g id="line2d_102">
    <path d="M 63.709717 236.591305  L 65.357389 235.26215  L 67.005061 233.859368  L 68.652732 232.368165  L 70.300404 230.773749  L 71.948076 229.061327  L 73.595747 227.216107  L 75.243419 225.247494  L 76.89109 223.293184  L 78.538762 221.366547  L 80.186434 219.454592  L 81.834105 217.544324  L 83.481777 215.622751  L 85.129449 213.676879  L 86.77712 211.693716  L 88.424792 209.660268  L 90.072463 207.563543  L 91.720135 205.390546  L 93.367807 203.128286  L 95.015478 200.763769  L 96.66315 198.284001  L 98.310822 195.675991  L 99.958493 192.926744  L 101.606165 190.023268  L 103.253836 186.952569  L 104.901508 183.701655  L 106.54918 180.257532  L 108.196851 176.607208  L 109.844523 172.737688  L 111.492195 168.635981  L 113.139866 164.289093  L 114.787538 159.684031  L 116.435209 154.807802  L 118.082881 149.647412  L 119.730553 144.189869  L 121.378224 138.42218  L 123.025896 132.331351  L 124.673568 125.186319  L 126.321239 107.95813  L 127.968911 101.214333  L 129.616582 98.187136  L 131.264254 95.221026  L 132.911926 92.315418  L 134.559597 89.469725  L 136.207269 86.683362  L 137.854941 83.955741  L 139.502612 81.286277  L 141.150284 78.674383  L 142.797956 76.119474  L 144.445627 73.620962  L 146.093299 71.178262  L 147.74097 68.790787  L 149.388642 66.457952  L 151.036314 64.179169  L 152.683985 61.953853  L 154.331657 59.781417  L 155.979329 57.661276  L 157.627 55.592842  L 159.274672 53.57553  L 160.922343 51.608754  L 162.570015 49.691926  L 164.217687 47.824462  L 165.865358 46.005774  L 167.51303 44.235276  L 169.160702 42.512383  L 170.808373 40.836508  L 172.456045 39.207064  L 174.103716 37.623466  L 175.751388 36.085127  L 177.39906 34.591461  L 179.046731 33.141881  L 180.694403 31.735802  L 182.342075 30.372638  L 183.989746 29.051801  L 185.637418 27.772705  L 187.285089 26.534766  L 188.932761 25.337395  L 190.580433 24.180008  L 192.228104 23.062017  L 193.875776 21.982836  L 195.523448 20.94188  L 197.171119 19.938562  L 198.818791 18.972295  L 200.466463 18.042494  L 202.114134 17.148573  L 203.761806 16.289944  L 205.409477 15.466022  L 207.057149 14.67622  L 208.704821 13.919953  L 210.352492 13.196633  L 212.000164 12.505675  L 213.647836 11.846493  L 215.295507 11.2185  L 216.943179 10.62111  L 218.59085 10.053737  L 220.238522 9.515794  L 221.886194 9.006696  L 223.533865 8.525855  L 225.181537 8.072687  L 226.829209 7.646604  L 228.47688 7.24702  L 230.124552 6.873349  L 231.772223 6.525005  L 233.419895 6.201401  L 235.067567 5.901952  L 236.715238 5.62607  L 238.36291 5.373171  L 240.010582 5.142667  L 241.658253 4.933972  L 243.305925 4.746501  L 244.953596 4.579666  L 246.601268 4.432881  L 248.24894 4.305561  L 249.896611 4.197119  L 251.544283 4.106969  L 253.191955 4.034525  L 254.839626 3.979199  L 256.487298 3.940407  L 258.13497 3.917562  L 259.782641 3.910077  " clip-path="url(#p0da1ea20d5)" style="fill: none; stroke-dasharray: 4.8,2.4; stroke-dashoffset: 0; stroke: #4a4a4a; stroke-width: 1.2" />
   </g>
   <g id="line2d_103">
    <path d="M 59.650052 226.216983  L 61.165464 224.125725  L 62.680875 221.931142  L 64.196287 219.475122  L 65.711698 216.979995  L 67.227109 214.532376  L 68.742521 212.117255  L 70.257932 209.719621  L 71.773343 207.324463  L 73.288755 204.91677  L 74.804166 202.481531  L 76.319578 200.003737  L 77.834989 197.468375  L 79.3504 194.860436  L 80.865812 192.164907  L 82.381223 189.36678  L 83.896635 186.451042  L 85.412046 183.402682  L 86.927457 180.206691  L 88.442869 176.848058  L 89.95828 173.31177  L 91.473692 169.582819  L 92.989103 165.646192  L 94.504514 161.486879  L 96.019926 157.08987  L 97.535337 152.440153  L 99.050749 147.522717  L 100.56616 142.322553  L 102.081571 136.824648  L 103.596983 131.013993  L 105.112394 123.748439  L 106.627805 110.115547  L 108.143217 102.246305  L 109.658628 99.50965  L 111.17404 96.821592  L 112.689451 94.181736  L 114.204862 91.589684  L 115.720274 89.04504  L 117.235685 86.547407  L 118.751097 84.096389  L 120.266508 81.691587  L 121.781919 79.332607  L 123.297331 77.019051  L 124.812742 74.750522  L 126.328154 72.526623  L 127.843565 70.346959  L 129.358976 68.211131  L 130.874388 66.118744  L 132.389799 64.0694  L 133.90521 62.062704  L 135.420622 60.098257  L 136.936033 58.175664  L 138.451445 56.294528  L 139.966856 54.454451  L 141.482267 52.655038  L 142.997679 50.895891  L 144.51309 49.176614  L 146.028502 47.49681  L 147.543913 45.856083  L 149.059324 44.254034  L 150.574736 42.690269  L 152.090147 41.16439  L 153.605559 39.675999  L 155.12097 38.224702  L 156.636381 36.8101  L 158.151793 35.431798  L 159.667204 34.089397  L 161.182616 32.782503  L 162.698027 31.510717  L 164.213438 30.273644  L 165.72885 29.070885  L 167.244261 27.902046  L 168.759672 26.766728  L 170.275084 25.664536  L 171.790495 24.595072  L 173.305907 23.55794  L 174.821318 22.552743  L 176.336729 21.579084  L 177.852141 20.636567  L 179.367552 19.724794  L 180.882964 18.84337  L 182.398375 17.991897  L 183.913786 17.169978  L 185.429198 16.377217  L 186.944609 15.613218  L 188.460021 14.877582  L 189.975432 14.169915  L 191.490843 13.489818  L 193.006255 12.836895  L 194.521666 12.21075  L 196.037078 11.610986  L 197.552489 11.037205  L 199.0679 10.489012  L 200.583312 9.966009  L 202.098723 9.467799  L 203.614134 8.993987  L 205.129546 8.544175  L 206.644957 8.117967  L 208.160369 7.714965  L 209.67578 7.334774  L 211.191191 6.976995  L 212.706603 6.641234  L 214.222014 6.327092  L 215.737426 6.034173  L 217.252837 5.762081  L 218.768248 5.510418  L 220.28366 5.278788  L 221.799071 5.066794  L 223.314483 4.87404  L 224.829894 4.700128  L 226.345305 4.544662  L 227.860717 4.407246  L 229.376128 4.287482  L 230.891539 4.184974  L 232.406951 4.099324  L 233.922362 4.030137  L 235.437774 3.977016  L 236.953185 3.939563  L 238.468596 3.917382  L 239.984008 3.910077  " clip-path="url(#p0da1ea20d5)" style="fill: none; stroke-dasharray: 1.2,1.2; stroke-dashoffset: 0; stroke: #7a7a7a; stroke-width: 1.2" />
   </g>
   <g id="line2d_104">
    <defs>
     <path id="m1d519d200d" d="M 0 2  C 0.530406 2 1.03916 1.789267 1.414214 1.414214  C 1.789267 1.03916 2 0.530406 2 0  C 2 -0.530406 1.789267 -1.03916 1.414214 -1.414214  C 1.03916 -1.789267 0.530406 -2 0 -2  C -0.530406 -2 -1.03916 -1.789267 -1.414214 -1.414214  C -1.789267 -1.03916 -2 -0.530406 -2 0  C -2 0.530406 -1.789267 1.03916 -1.414214 1.414214  C -1.03916 1.789267 -0.530406 2 0 2  z " style="stroke: #1a1a1a; stroke-width: 0.7" />
    </defs>
    <g clip-path="url(#p0da1ea20d5)">
     <use ns3:href="#m1d519d200d" x="63.709717" y="250.91775" style="fill: #ffffff; stroke: #1a1a1a; stroke-width: 0.7" />
     <use ns3:href="#m1d519d200d" x="199.977351" y="226.216983" style="fill: #ffffff; stroke: #1a1a1a; stroke-width: 0.7" />
     <use ns3:href="#m1d519d200d" x="256.616793" y="127.413913" style="fill: #ffffff; stroke: #1a1a1a; stroke-width: 0.7" />
     <use ns3:href="#m1d519d200d" x="270.762411" y="102.713146" style="fill: #ffffff; stroke: #1a1a1a; stroke-width: 0.7" />
     <use ns3:href="#m1d519d200d" x="392.105053" y="3.910077" style="fill: #ffffff; stroke: #1a1a1a; stroke-width: 0.7" />
    </g>
   </g>
   <g id="line2d_105">
    <defs>
     <path id="m19810be665" d="M -2 2  L 2 2  L 2 -2  L -2 -2  z " style="stroke: #4a4a4a; stroke-width: 0.7; stroke-linejoin: miter" />
    </defs>
    <g clip-path="url(#p0da1ea20d5)">
     <use ns3:href="#m19810be665" x="63.709717" y="236.591305" style="fill: #ffffff; stroke: #4a4a4a; stroke-width: 0.7; stroke-linejoin: miter" />
     <use ns3:href="#m19810be665" x="74.437847" y="226.216983" style="fill: #ffffff; stroke: #4a4a4a; stroke-width: 0.7; stroke-linejoin: miter" />
     <use ns3:href="#m19810be665" x="124.294381" y="127.413913" style="fill: #ffffff; stroke: #4a4a4a; stroke-width: 0.7; stroke-linejoin: miter" />
     <use ns3:href="#m19810be665" x="127.165282" y="102.713146" style="fill: #ffffff; stroke: #4a4a4a; stroke-width: 0.7; stroke-linejoin: miter" />
     <use ns3:href="#m19810be665" x="259.782641" y="3.910077" style="fill: #ffffff; stroke: #4a4a4a; stroke-width: 0.7; stroke-linejoin: miter" />
    </g>
   </g>
   <g id="line2d_106">
    <defs>
     <path id="m52d11c3874" d="M 0 -2  L -2 2  L 2 2  z " style="stroke: #7a7a7a; stroke-width: 0.7; stroke-linejoin: miter" />
    </defs>
    <g clip-path="url(#p0da1ea20d5)">
     <use ns3:href="#m52d11c3874" x="59.650052" y="226.216983" style="fill: #ffffff; stroke: #7a7a7a; stroke-width: 0.7; stroke-linejoin: miter" />
     <use ns3:href="#m52d11c3874" x="63.709717" y="220.288799" style="fill: #ffffff; stroke: #7a7a7a; stroke-width: 0.7; stroke-linejoin: miter" />
     <use ns3:href="#m52d11c3874" x="104.495748" y="127.413913" style="fill: #ffffff; stroke: #7a7a7a; stroke-width: 0.7; stroke-linejoin: miter" />
     <use ns3:href="#m52d11c3874" x="107.887376" y="102.713146" style="fill: #ffffff; stroke: #7a7a7a; stroke-width: 0.7; stroke-linejoin: miter" />
     <use ns3:href="#m52d11c3874" x="239.984008" y="3.910077" style="fill: #ffffff; stroke: #7a7a7a; stroke-width: 0.7; stroke-linejoin: miter" />
    </g>
   </g>
   <g id="legend_1">
    <g id="text_17">
     <text style="font-size: 7px; font-family: 'Times New Roman', 'DejaVu Serif', 'Nimbus Roman', 'Liberation Serif', serif; text-anchor: start" x="340.991562" y="217.628375" transform="rotate(-0 340.991562 217.628375)">SNU silica sand</text>
    </g>
    <g id="line2d_107">
     <path d="M 347.718125 223.675719  L 354.018125 223.675719  L 360.318125 223.675719  " style="fill: none; stroke: #1a1a1a; stroke-width: 1.2; stroke-linecap: square" />
    </g>
    <g id="text_18">
     <text style="font-size: 7px; font-family: 'Times New Roman', 'DejaVu Serif', 'Nimbus Roman', 'Liberation Serif', serif; text-anchor: start" x="363.818125" y="226.125719" transform="rotate(-0 363.818125 226.125719)">No. 5</text>
    </g>
    <g id="line2d_108">
     <path d="M 347.718125 232.173063  L 354.018125 232.173063  L 360.318125 232.173063  " style="fill: none; stroke-dasharray: 4.8,2.4; stroke-dashoffset: 0; stroke: #4a4a4a; stroke-width: 1.2" />
    </g>
    <g id="text_19">
     <text style="font-size: 7px; font-family: 'Times New Roman', 'DejaVu Serif', 'Nimbus Roman', 'Liberation Serif', serif; text-anchor: start" x="363.818125" y="234.623063" transform="rotate(-0 363.818125 234.623063)">No. 7</text>
    </g>
    <g id="line2d_109">
     <path d="M 347.718125 240.670406  L 354.018125 240.670406  L 360.318125 240.670406  " style="fill: none; stroke-dasharray: 1.2,1.2; stroke-dashoffset: 0; stroke: #7a7a7a; stroke-width: 1.2" />
    </g>
    <g id="text_20">
     <text style="font-size: 7px; font-family: 'Times New Roman', 'DejaVu Serif', 'Nimbus Roman', 'Liberation Serif', serif; text-anchor: start" x="363.818125" y="243.120406" transform="rotate(-0 363.818125 243.120406)">No. 8</text>
    </g>
   </g>
  </g>
 </g>
 <defs>
  <clipPath id="p0da1ea20d5">
   <rect x="26.72125" y="1.44" width="365.67875" height="249.47775" />
  </clipPath>
 </defs>
</svg>