<?xml version='1.0' encoding='utf-8'?>
<svg xmlns="http://www.w3.org/2000/svg" xmlns:dc="http://purl.org/dc/elements/1.1/" xmlns:ns3="http://www.w3.org/1999/xlink" xmlns:rdf="http://www.w3.org/1999/02/22-rdf-syntax-ns#" version="1.1" width="434.861" height="277.627" viewBox="0 0 434.861 277.627">
<metadata><rdf:RDF><rdf:Description><dc:figure_id>j3-bending-vs-tilting</dc:figure_id><dc:journal>ocean_engineering</dc:journal><dc:paper>J3</dc:paper><dc:claim_id>j3-bending-vs-tilting</dc:claim_id><dc:tier>1</dc:tier><dc:git_hash>eccec808-dirty</dc:git_hash><dc:generated_utc>2026-04-19T23:58:42Z</dc:generated_utc><dc:data_sources>j3-bending-vs-tilting.tex:3090a620</dc:data_sources><dc:generator>figgen</dc:generator><dc:description>Two-panel schematic contrasting elastic-bending (a) and nonlinear rigid-body tilting (b) response modes of the tripod suction-bucket foundation (manuscript submitted Fig 8). Panel (a) shows a plumb tower with moderate nacelle displacement u-bar; panel (b) shows the foundation tilted theta about the yielded upwind bucket with amplified nacelle displacement.
</dc:description><dc:claim_measured>{}</dc:claim_measured><dc:claim_id_measured>j3-bending-vs-tilting</dc:claim_id_measured></rdf:Description></rdf:RDF></metadata><defs>
<path id="font_1_2" d="M.2749939 .660614C.2659912 .6826172 .2579956 .6826172 .23699951 .6826172H.06199646V.64660647H.085998538C.16299439 .64660647 .16499329 .63661196 .16499329 .6016388V.107940677C.16499329 .080963138 .16499329 .035995485 .06199646 .035995485V0C.102996829 .0029907227 .14299011 .0039978029 .18399048 .0039978029 .22499085 .0039978029 .2649994 .0029907227 .30599977 0V.035995485C.20298767 .035995485 .20298767 .080963138 .20298767 .107940677V.63461306L.20399475 .6356201 .46398927 .022994996C.46899415 .010986328 .47399903 0 .4889984 0 .49598695 0 .5049896 .0029907227 .5130005 .020996094L.7769928 .6456146 .7779999 .64460757V.080963138C.7779999 .04698181 .776001 .035995485 .69898989 .035995485H.6749878V0C.72299197 .0019989014 .7789917 .0039978029 .81999209 .0039978029 .86099246 .0039978029 .9169922 .0019989014 .96499636 0V.035995485H.94099429C.8639984 .035995485 .8619995 .04598999 .8619995 .080963138V.6016388C.8619995 .6356201 .8639984 .64660647 .94099429 .64660647H.96499636V.6826172H.79100039C.7709961 .6826172 .7619934 .6826172 .7539978 .6626129L.5139923 .095962528 .2749939 .660614Z" />
<path id="font_1_13" d="M.36099244 .43040467V.39439393C.42799378 .39439393 .43598939 .3874054 .43598939 .3383789V.16729737C.43598939 .07925415 .3789978 .018234253 .30299378 .018234253 .21199036 .018234253 .20799256 .06124878 .20799256 .11227417V.44140626L.053985597 .43040467V.39439393C.1289978 .39439393 .1289978 .3914032 .1289978 .3023529V.15228272C.1289978 .08325195 .1289978-.009765625 .29599-.009765625 .31799317-.009765625 .3909912-.009765625 .43899537 .07424927H.43998719V-.009765625L.58999636 .00022888184V.036239625C.522995 .036239625 .5149994 .04324341 .5149994 .09225464V.44140626L.36099244 .43040467Z" />
<path id="font_1_4" d="M.35598756 .68333438V.6473236C.4229889 .6473236 .43099977 .6403351 .43099977 .59135439V.38438417C.3939972 .4203949 .34599305 .44140626 .29100038 .44140626 .1579895 .44140626 .04598999 .34136964 .04598999 .21531677 .04598999 .09025574 .1519928-.009765625 .2789917-.009765625 .36099244-.009765625 .4099884 .034240724 .4269867 .052246095V-.009765625L.58099368 .00022888184V.036239625C.5139923 .036239625 .5059967 .04324341 .5059967 .09225464V.69433596L.35598756 .68333438M.4269867 .105270389C.40098573 .058242799 .34999085 .018234253 .2849884 .018234253 .22898865 .018234253 .18899536 .051239015 .16899109 .08026123 .14898682 .11026001 .13699341 .15028382 .13699341 .21430969 .13699341 .23731995 .13699341 .3123474 .17799378 .359375 .21798706 .40438844 .2669983 .4133911 .29599 .4133911 .34399415 .4133911 .3869934 .39138795 .4149933 .3553772 .4269867 .33937074 .4269867 .33836366 .4269867 .3193512V.105270389Z" />
<path id="font_1_7" d="M.20599365 .69433596 .055999757 .68333438V.6473236C.12298584 .6473236 .1309967 .6403198 .1309967 .59129336V.07901001C.1309967 .035995485 .12098694 .035995485 .055999757 .035995485V0C.057998659 0 .12799073 .0039978029 .16799927 .0039978029 .20599365 .0039978029 .24299622 .0029907227 .2809906 0V.035995485C.21598816 .035995485 .20599365 .035995485 .20599365 .07901001V.69433596Z" />
<path id="font_1_6" d="M.21099854 .6168213C.21099854 .645813 .18699646 .6738281 .15299988 .6738281 .12298584 .6738281 .09599304 .64982607 .09599304 .6168213 .09599304 .5808258 .125 .55882266 .15299988 .55882266 .18499756 .55882266 .21099854 .5838165 .21099854 .6168213M.05899048 .43040467V.39439393C.12199402 .39439393 .1309967 .38839723 .1309967 .3393402V.07904053C.1309967 .035995485 .12098694 .035995485 .055999757 .035995485V0C.057998659 0 .12799073 .0039978029 .16799927 .0039978029 .20298767 .0039978029 .23899842 .0029907227 .27398683 0V.035995485C.21598816 .035995485 .20599365 .035995485 .20599365 .07803345V.44140626L.05899048 .43040467Z" />
<path id="font_1_9" d="M.5149994 .3032837C.5149994 .3903656 .47200013 .44140626 .36499024 .44140626 .2829895 .44140626 .22999573 .39637757 .20199585 .34432984H.20098877V.44140626L.053985597 .43040467V.39437867C.12098694 .39437867 .1289978 .38737489 .1289978 .33831788V.07904053C.1289978 .035995485 .11898804 .035995485 .053985597 .035995485V0C.055999757 0 .12599182 .0039978029 .16799927 .0039978029 .20498657 .0039978029 .27398683 .0009918213 .2829895 0V.035995485C.21798706 .035995485 .20799256 .035995485 .20799256 .07904053V.25923158C.20799256 .36434938 .29100038 .4133911 .35699464 .4133911 .4269867 .4133911 .43598939 .3583374 .43598939 .3072815V.07904053C.43598939 .035995485 .42599488 .035995485 .36099244 .035995485V0C.36299134 0 .43299867 .0039978029 .47499085 .0039978029 .5119934 .0039978029 .58099368 .0009918213 .58999636 0V.035995485C.5249939 .035995485 .5149994 .035995485 .5149994 .07904053V.3032837Z" />
<path id="font_1_5" d="M.43998719 .22851563C.46099855 .22851563 .46798707 .22851563 .46798707 .25050355 .46798707 .33839417 .4189911 .44628907 .269989 .44628907 .13899231 .44628907 .038986207 .34239198 .038986207 .21949768 .038986207 .092315677 .1499939-.009765625 .2829895-.009765625 .41799928-.009765625 .46798707 .09832764 .46798707 .12036133 .46798707 .12435913 .46598817 .13438416 .45098878 .13438416 .43798829 .13438416 .43598939 .12837219 .43299867 .11836243 .4019928 .037246705 .32598878 .022232056 .2899933 .022232056 .24299622 .022232056 .19799805 .043258668 .16799927 .08131409 .1309967 .12837219 .12998963 .18945313 .12998963 .22851563H.43998719M.1309967 .25450135C.14199829 .39530946 .23199463 .41827394 .269989 .41827394 .3929901 .41827394 .39698792 .27947999 .397995 .25450135H.1309967Z" />
<path id="font_2_2" d="M.70999148 .6901245C.70999148 .69511416 .70700076 .703125 .69699099 .703125 .69099429 .703125 .6899872 .7021179 .6769867 .68911746L.6279907 .6321411C.58999636 .6851196 .5269928 .703125 .46598817 .703125 .32499696 .703125 .19999695 .5891571 .19999695 .4742279 .19999695 .45922853 .20298767 .4192505 .23298645 .38227845 .2669983 .34228517 .3039856 .33329774 .37199403 .31730653 .3919983 .31230165 .44198609 .3013153 .45700074 .2973175 .4889984 .2893219 .5499878 .26733399 .5499878 .19236756 .5499878 .11140442 .46499635 .016464234 .35099793 .016464234 .2630005 .016464234 .15699768 .047439577 .15699768 .15838623 .15699768 .16838074 .15899658 .19036865 .16299439 .20835877 .1639862 .21235657 .1639862 .21336365 .1639862 .21435547 .1639862 .22735596 .1519928 .22735596 .147995 .22735596 .13398743 .22735596 .1329956 .22535706 .1289978 .20736695L.07798767 .007461548C.07699585 .0034637452 .07499695-.002532959 .07499695-.007537842 .07499695-.013534546 .07899475-.01953125 .08898926-.01953125 .09498596-.01953125 .09599304-.018539429 .10899353-.0055389406 .11999512 .006454468 .1459961 .03845215 .15699768 .050445558 .20999146-.007537842 .28799439-.01953125 .34799195-.01953125 .49899293-.01953125 .62098696 .1104126 .62098696 .22834778 .62098696 .2723236 .6029968 .31230165 .58099368 .33529664 .54599 .37127687 .5309906 .37527467 .4019928 .40525819 .3809967 .41026307 .34799195 .41825868 .33898927 .4212494 .31399537 .43025209 .27198792 .4552307 .27198792 .51220706 .27198792 .591156 .36099244 .67111209 .46499635 .67111209 .57299807 .67111209 .625 .6101532 .625 .51519778 .625 .5022125 .62098696 .47921754 .62098696 .4702301 .62098696 .4562378 .6329956 .4562378 .6380005 .4562378 .6529999 .4562378 .6539917 .46122743 .6579895 .4782257L.70999148 .6901245Z" />
<path id="font_1_1" d="M.48298646 .55574038V.59375H.084991458V.55574038H.48298646Z" />
<path id="font_2_3" d="M.4229889 .16229248C.41799928 .14228821 .40899659 .104263309 .40699769 .103256229 .3880005 .072250369 .34799195 .018234253 .28599549 .018234253 .21699524 .018234253 .21699524 .08325195 .21699524 .101257327 .21699524 .16029358 .24499512 .23132324 .272995 .3043518 .2809906 .32435609 .2869873 .33937074 .2869873 .3553772 .2869873 .4073944 .24299622 .44140626 .19198609 .44140626 .09199524 .44140626 .04699707 .3043518 .04699707 .28834535 .04699707 .27534486 .06098938 .27534486 .06399536 .27534486 .07798767 .27534486 .07899475 .28033448 .08198547 .29135133 .10598755 .37338258 .1499939 .4133911 .18899536 .4133911 .20599365 .4133911 .21398926 .40238954 .21398926 .37838746 .21398926 .3553772 .20599365 .33436585 .19599915 .3113556 .14199829 .17329407 .14199829 .14428711 .14199829 .117263797 .14199829 .1002655 .14199829 .054244996 .1789856 .022232056 .20799256-.0017700195 .24699402-.009765625 .28199769-.009765625 .34498597-.009765625 .3789978 .024230957 .4119873 .056243898 .43399049-.0077667238 .5009918-.009765625 .5130005-.009765625 .5469971-.009765625 .57299807 .010223389 .59199526 .04324341 .6139984 .08226013 .6279907 .14027405 .6279907 .14328003 .6279907 .15628052 .6139984 .15628052 .61099246 .15628052 .5970001 .15628052 .59599307 .15228272 .58898928 .12527466 .57699587 .07824707 .55799868 .018234253 .5159912 .018234253 .48999024 .018234253 .48298646 .041229249 .48298646 .06724548 .48298646 .08425903 .4909973 .120269779 .49798585 .14628601 .5049896 .17329407 .5149994 .21430969 .519989 .23632813L.54299929 .32536317C.548996 .3503723 .55999758 .39439393 .55999758 .3993988 .55999758 .41940309 .5439911 .43139649 .5269928 .43139649 .48999024 .43139649 .48298646 .40238954 .47499085 .3703766L.4229889 .16229248Z" />
<path id="font_1_8" d="M.82199099 .3032837C.82199099 .3903656 .7789917 .44140626 .6719971 .44140626 .59298709 .44140626 .5389862 .39837647 .5119934 .34832765 .49198915 .41940309 .43798829 .44140626 .36499024 .44140626 .2829895 .44140626 .22999573 .39637757 .20199585 .34432984H.20098877V.44140626L.053985597 .43040467V.39437867C.12098694 .39437867 .1289978 .38737489 .1289978 .33831788V.07904053C.1289978 .035995485 .11898804 .035995485 .053985597 .035995485V0C.055999757 0 .12599182 .0039978029 .16799927 .0039978029 .20498657 .0039978029 .27398683 .0009918213 .2829895 0V.035995485C.21798706 .035995485 .20799256 .035995485 .20799256 .07904053V.25923158C.20799256 .36434938 .29100038 .4133911 .35699464 .4133911 .4269867 .4133911 .43598939 .3583374 .43598939 .3072815V.07904053C.43598939 .035995485 .42599488 .035995485 .36099244 .035995485V0C.36299134 0 .43299867 .0039978029 .47499085 .0039978029 .5119934 .0039978029 .58099368 .0009918213 .58999636 0V.035995485C.5249939 .035995485 .5149994 .035995485 .5149994 .07904053V.25923158C.5149994 .36434938 .59799197 .4133911 .6639862 .4133911 .73399356 .4133911 .7429962 .3583374 .7429962 .3072815V.07904053C.7429962 .035995485 .73298647 .035995485 .66799929 .035995485V0C.66999819 0 .73999026 .0039978029 .7819977 .0039978029 .81900027 .0039978029 .8880005 .0009918213 .8969879 0V.035995485C.83200076 .035995485 .82199099 .035995485 .82199099 .07904053V.3032837Z" />
<path id="font_1_10" d="M.5289917 .21325684C.5289917 .3382721 .42199708 .44628907 .28399659 .44628907 .1459961 .44628907 .038986207 .3382721 .038986207 .21325684 .038986207 .0892334 .14898682-.009765625 .28399659-.009765625 .4189911-.009765625 .5289917 .0892334 .5289917 .21325684M.28399659 .022232056C.24699402 .022232056 .19299317 .034225465 .1599884 .083236698 .1329956 .12423706 .12998963 .17625427 .12998963 .22225952 .12998963 .2652588 .1309967 .32426454 .1659851 .36727906 .19099427 .39627076 .23298645 .41827394 .28399659 .41827394 .34298707 .41827394 .3849945 .39027406 .40699769 .3592682 .43499757 .32026673 .43798829 .27026368 .43798829 .22225952 .43798829 .17424011 .43499757 .12124634 .4059906 .08023071 .3789978 .042236329 .33299256 .022232056 .28399659 .022232056Z" />
<path id="font_1_11" d="M.19898987 .22819519C.19898987 .31228639 .23799134 .4133911 .33299256 .4133911 .32398988 .40638734 .31599427 .39337159 .31599427 .3773651 .31599427 .34432984 .34199525 .3313141 .36099244 .3313141 .3849945 .3313141 .40699769 .34732057 .40699769 .3773651 .40699769 .4113922 .375 .44140626 .32798768 .44140626 .27799989 .44140626 .22299195 .4104004 .19299317 .33432008H.19198609V.44140626L.04899597 .43040467V.39437867C.115997318 .39437867 .12399292 .38737489 .12399292 .33831788V.07904053C.12399292 .035995485 .11399841 .035995485 .04899597 .035995485V0C.053985597 0 .12199402 .0039978029 .16299439 .0039978029 .20599365 .0039978029 .25 .0019989014 .29299928 0V.035995485H.272995C.19898987 .035995485 .19898987 .04699707 .19898987 .08103943V.22819519Z" />
<path id="font_1_3" d="M.44599916 .26823426C.44599916 .32154847 .44599916 .35954286 .3999939 .3965149 .35899354 .4302826 .31098939 .44628907 .2519989 .44628907 .15699768 .44628907 .08999634 .41036988 .08999634 .34954835 .08999634 .31755067 .11199951 .30055238 .13798523 .30055238 .16499329 .30055238 .18499756 .32054139 .18499756 .34754945 .18499756 .36454774 .1769867 .38554383 .1499939 .3935547 .18598938 .41827394 .24398804 .41827394 .25 .41827394 .30599977 .41827394 .36698915 .38154603 .36698915 .29751588V.2662201C.31199647 .2642212 .24598694 .26123048 .17298889 .23422241 .08299255 .20123291 .054992677 .14622498 .054992677 .10122681 .054992677 .0152282719 .15899658-.009765625 .22999573-.009765625 .30999757-.009765625 .35699464 .035232545 .37799073 .07423401 .38198854 .033233644 .40899659-.004776001 .45498658-.004776001 .45700074-.004776001 .55400088-.004776001 .55400088 .09022522V.14523316H.519989V.0912323C.519989 .081222537 .519989 .033233644 .48298646 .033233644 .44599916 .033233644 .44599916 .08023071 .44599916 .0932312V.26823426M.36698915 .1412201C.36698915 .04522705 .2829895 .018234253 .23799134 .018234253 .18699646 .018234253 .13899231 .052230836 .13899231 .10122681 .13899231 .15621948 .18699646 .23323059 .36698915 .24023438V.1412201Z" />
<path id="font_1_12" d="M.20098877 .39465333H.35699464V.43066407H.20098877V.6147156H.16699219C.1659851 .5246887 .125 .42565919 .0289917 .4226532V.39465333H.12199402V.1250763C.12199402 .01322937 .20599365-.009765625 .2619934-.009765625 .32899476-.009765625 .375 .047195436 .375 .12606812V.1809845H.34098817V.12705994C.34098817 .059173585 .30899049 .022232056 .269989 .022232056 .20098877 .022232056 .20098877 .10609436 .20098877 .124069217V.39465333Z" />
<path id="font_3_1" d="M.3929901-.23400879C.3929901-.22801209 .3899994-.2250061 .37799073-.2130127 .24699402-.0900116 .21099854 .08799744 .21099854 .25 .21099854 .4169922 .25 .59098818 .37399293 .71099856 .3919983 .7279968 .3929901 .72898867 .3929901 .73498538 .3929901 .746994 .38198854 .75 .37298585 .75 .35198976 .75 .29899598 .69999697 .28799439 .68899539 .18798828 .5950012 .10998535 .43998719 .10998535 .25 .10998535 .008987427 .23199463-.13800049 .28399659-.18701172 .2919922-.19400025 .35099793-.25 .37298585-.25 .3769989-.25 .3929901-.25 .3929901-.23400879Z" />
<path id="font_3_5" d="M.48399354 .2983551C.48399354 .38616944 .4119873 .453125 .2579956 .453125 .20098877 .453125 .07299805 .45111085 .07299805 .3592224 .07299805 .3143158 .10699463 .29336549 .13798523 .29336549 .17199707 .29336549 .20298767 .31730653 .20298767 .3582306 .20298767 .3871765 .18598938 .40412904 .18299866 .407135 .19299317 .40911866 .21699524 .41311646 .2539978 .41311646 .32598878 .41311646 .36698915 .377182 .36698915 .2983551V.26641847C.20098877 .26641847 .032989503 .22340393 .032989503 .11224365 .032989503 .013137817 .1579895-.005859375 .22999573-.005859375 .30599977-.005859375 .35798646 .027130127 .3849945 .07418823 .3849945 .04815674 .3849945 .0001373291 .49198915 .0001373291H.54100039C.55999758 .0001373291 .57398989 .0001373291 .57398989 .025131226 .57398989 .04914856 .55799868 .04914856 .5479889 .04914856 .48399354 .05015564 .48399354 .060165407 .48399354 .084198V.2983551M.36698915 .13928223C.36698915 .03413391 .25099183 .03413391 .24699402 .03413391 .19599915 .03413391 .1539917 .06718445 .1539917 .11224365 .1539917 .14529419 .17199707 .22340393 .36698915 .23242188V.13928223Z" />
<path id="font_3_2" d="M.34899903 .25C.34899903 .4909973 .22698975 .6380005 .1749878 .68699648 .16699219 .69400027 .10798645 .75 .085998538 .75 .07899475 .75 .06599426 .74798586 .06599426 .73399356 .06599426 .7279968 .069992069 .723999 .07998657 .71398928 .20199585 .59599307 .24798584 .43699647 .24798584 .25 .24798584 .08299255 .20899964-.09100342 .084991458-.2110138 .066986087-.22801209 .06599426-.2290039 .06599426-.23400879 .06599426-.2480011 .07798767-.25 .085998538-.25 .10699463-.25 .1599884-.2000122 .17098999-.18901062 .2709961-.09500122 .34899903 .05999756 .34899903 .25Z" />
<path id="font_3_3" d="M.7429962 .2759552H.69200137C.66999819 .14797974 .647995 .04899597 .45399476 .04899597H.29499818V.3279419H.35299684C.45098878 .3279419 .46099855 .2839508 .46099855 .21096802H.5119934V.49375917H.46099855C.46099855 .42086793 .45199586 .37695313 .35299684 .37695313H.29499818V.63053897H.45298768C.6119995 .63053897 .6429901 .5616455 .6589966 .43684388H.70999148L.67900088 .6795349H.041992189V.63053897H.1499939V.04899597H.041992189V0H.69599917L.7429962 .2759552Z" />
<path id="font_3_12" d="M.23098755 .69433596 .051986696 .6863251V.6373291C.11199951 .6373291 .11999512 .6373291 .11999512 .5982971V.04899597H.051986696V0C.11999512 .0029907227 .13198853 .0029907227 .1749878 .0029907227 .21899414 .0029907227 .24499512 .0019989014 .29899598 0V.04899597H.23098755V.69433596Z" />
<path id="font_3_17" d="M.39698792 .42411805C.39698792 .4421234 .39698792 .453125 .3769989 .453125 .36698915 .453125 .35099793 .44511415 .33299256 .43511964 .30099488 .44911195 .2619934 .453125 .22898865 .453125 .19799805 .453125 .038986207 .453125 .038986207 .32112123 .038986207 .21612549 .16999817 .19412232 .20498657 .18812561 .2869873 .1741333 .35299684 .16313172 .35299684 .10612488 .35299684 .03413391 .25898744 .03413391 .23699951 .03413391 .18598938 .03413391 .12098694 .0471344 .09199524 .13912964 .08699036 .15612793 .085998538 .15913391 .06498718 .15913391 .038986207 .15913391 .038986207 .15312195 .038986207 .12913513V.023132325C.038986207 .005126953 .038986207-.005859375 .05899048-.005859375 .06599426-.005859375 .067993167-.005859375 .08999634 .008132935L.116989139 .025131226C.1639862-.005859375 .21699524-.005859375 .23699951-.005859375 .2669983-.005859375 .4269867-.005859375 .4269867 .14012146 .4269867 .19113159 .397995 .22312927 .37998963 .23812866 .33499146 .27612306 .30299378 .28112794 .22399903 .29412843 .17599488 .30212403 .11299133 .31211854 .11299133 .3571167 .11299133 .41711427 .20599365 .41711427 .22799683 .41711427 .33999635 .41711427 .34399415 .35812379 .34599305 .33111573 .34700013 .3171234 .36099244 .3171234 .37098695 .3171234 .3959961 .3171234 .39698792 .3221283 .39698792 .3461151V.42411805Z" />
<path id="font_3_18" d="M.22299195 .3953247H.37399293V.44433595H.22299195V.6352234H.17199707C.17098999 .541275 .12399292 .43832398 .021987915 .43533326V.3953247H.10598755V.123184207C.10598755 .009140015 .20498657-.005859375 .2669983-.005859375 .34498597-.005859375 .3929901 .05014038 .3929901 .123184207V.1762085H.34199525V.12617493C.34199525 .055145265 .30599977 .037139894 .2809906 .037139894 .22299195 .037139894 .22299195 .09716797 .22299195 .1211853V.3953247Z" />
<path id="font_3_11" d="M.23999024 .6163025C.23999024 .66830447 .19799805 .6953125 .1619873 .6953125 .115997318 .6953125 .08299255 .65631106 .08299255 .6173096 .08299255 .5753021 .116989139 .53829959 .1619873 .53829959 .19999695 .53829959 .23999024 .56829836 .23999024 .6163025M.054992677 .44218446V.39318849C.11299133 .39318849 .11999512 .39318849 .11999512 .35417176V.04899597H.051986696V0C.11898804 .0019989014 .13198853 .0029907227 .17399597 .0029907227 .22299195 .0029907227 .23599243 .0019989014 .2919922 0V.04899597H.23098755V.4501953L.054992677 .44218446Z" />
<path id="font_3_7" d="M.49198915 .11613464C.49198915 .13212586 .47698976 .13212586 .46598817 .13212586 .44599916 .13212586 .44599916 .13113404 .43798829 .11312866 .41799928 .06512451 .37298585 .037139894 .31399537 .037139894 .17199707 .037139894 .17199707 .18112183 .17199707 .22612 .17199707 .28611756 .17298889 .41011048 .3039856 .41011048 .31098939 .41011048 .36499024 .40911866 .36499024 .40411378 .36499024 .40312196 .36299134 .40011598 .3619995 .39912416 .35299684 .38812257 .34899903 .3721161 .34899903 .35812379 .34899903 .3171234 .37998963 .29312135 .4139862 .29312135 .44499208 .29312135 .47898866 .31411744 .47898866 .3591156 .47898866 .453125 .33898927 .453125 .2999878 .453125 .10798645 .453125 .038986207 .33111573 .038986207 .22212219 .038986207 .09613037 .1289978-.005859375 .29499818-.005859375 .33198548-.005859375 .3809967 .0001373291 .4229889 .026138306 .47999574 .06112671 .49198915 .11312866 .49198915 .11613464Z" />
<path id="font_3_6" d="M.21998596 .69433596 .040985109 .6863251V.6373291C.100997928 .6373291 .10899353 .6373291 .10899353 .5982971V.0001373291H.1599884L.20698548 .057144166C.23899842 .025131226 .28799439-.005859375 .35899354-.005859375 .5149994-.005859375 .61698916 .088134769 .61698916 .22216797 .61698916 .35717774 .519989 .4501953 .37199403 .4501953 .2919922 .4501953 .23899842 .41618348 .21998596 .40219117V.69433596M.22599793 .34617616C.25099183 .3781891 .29899598 .41018678 .3600006 .41018678 .48399354 .41018678 .48399354 .2901764 .48399354 .22416687 .48399354 .18215943 .48399354 .13014221 .46299745 .09414673 .42999269 .038131715 .36898805 .03413391 .34899903 .03413391 .2869873 .03413391 .24699402 .072143558 .22599793 .104141239V.34617616Z" />
<path id="font_3_9" d="M.47599793 .21496582C.49699403 .21496582 .5089874 .21496582 .5089874 .2429657 .5089874 .26498414 .5069885 .35305787 .44198609 .4071045 .39698792 .4441223 .33699037 .453125 .28799439 .453125 .116989139 .453125 .032989503 .345047 .032989503 .22497559 .032989503 .09408569 .13198853-.005859375 .3019867-.005859375 .46699525-.005859375 .5089874 .1000824 .5089874 .11605835 .5089874 .13604737 .4889984 .13604737 .48298646 .13604737 .46499635 .13604737 .46299745 .13005066 .45700074 .11605835 .43399049 .06410217 .37298585 .037139894 .30999757 .037139894 .16799927 .037139894 .1659851 .16601563 .1659851 .21496582H.47599793M.1659851 .25097657C.16799927 .29701234 .17298889 .41311646 .28799439 .41311646 .40499879 .41311646 .40899659 .29100038 .41099549 .25097657H.1659851Z" />
<path id="font_3_14" d="M.56199648 .30513C.56199648 .42419435 .48999024 .4501953 .40299989 .4501953 .27999879 .4501953 .23098755 .3601532 .22399903 .3451538H.22299195V.4501953L.049987794 .44218446V.39317323C.10998535 .39317323 .117996219 .39317323 .117996219 .3541565V.04899597H.049987794V0C.12399292 .0029907227 .13598633 .0029907227 .17599488 .0029907227 .21699524 .0029907227 .22698975 .0029907227 .30299378 0V.04899597H.23498535V.2541046C.23498535 .36616517 .32699586 .41018678 .3869934 .41018678 .4249878 .41018678 .44499208 .38917542 .44499208 .3141327V.04899597H.3769989V0C.45098878 .0029907227 .46299745 .0029907227 .5029907 .0029907227 .5439911 .0029907227 .55400088 .0029907227 .6299896 0V.04899597H.56199648V.30513Z" />
<path id="font_3_8" d="M.36799623 .6863251V.6373291C.42799378 .6373291 .43598939 .6373291 .43598939 .5982971V.40518189C.3919983 .43719483 .34498597 .4501953 .29699708 .4501953 .13398743 .4501953 .038986207 .35118104 .038986207 .22216797 .038986207 .089141849 .1329956-.005859375 .2849884-.005859375 .34799195-.005859375 .397995 .018127442 .42999269 .044128419V-.005859375L.61499026 .0001373291V.0491333C.5549927 .0491333 .5469971 .0491333 .5469971 .088134769V.69433596L.36799623 .6863251M.42999269 .10914612C.4079895 .074142459 .3600006 .03413391 .29599 .03413391 .17199707 .03413391 .17199707 .15414429 .17199707 .22015381 .17199707 .27816773 .17298889 .32118226 .19898987 .3581848 .22499085 .39819337 .272995 .41018678 .30799867 .41018678 .35798646 .41018678 .39898683 .3881836 .42999269 .34918214V.10914612Z" />
<path id="font_3_10" d="M.21598816 .08496094C.18399048 .08496094 .16999817 .08496094 .15299988 .09802246 .13798523 .111083988 .12998963 .12817383 .12998963 .14828491 .12998963 .1683197 .13699341 .17831421 .13798523 .17930603 .1749878 .16030884 .21899414 .15332031 .2630005 .15332031 .41600038 .15332031 .46798707 .23628235 .46798707 .30125428 .46798707 .34222413 .44898988 .37521363 .42799378 .39619447 .45498658 .41018678 .47499085 .41218568 .48799134 .41418458 .4869995 .41018678 .4850006 .40419007 .4850006 .39419557 .4850006 .36721803 .5059967 .3492279 .5299988 .3492279 .5519867 .3492279 .57499697 .36521913 .57499697 .39520265 .57499697 .42118836 .5549927 .45619203 .5089874 .45619203 .45999146 .45619203 .41799928 .43218995 .39898683 .41818238 .35699464 .44319154 .31098939 .4501953 .2630005 .4501953 .10998535 .4501953 .057998659 .36721803 .057998659 .3022461 .057998659 .24728394 .09199524 .21130371 .10998535 .19630432 .08898926 .17330933 .07699585 .13923645 .07699585 .10908508 .07699585 .06594849 .09799194 .031951906 .11898804 .012954712 .042999269-.008041382 .032989503-.051086427 .032989503-.07310486 .032989503-.1331482 .101989749-.20117188 .29499818-.20117188 .46998597-.20117188 .55799868-.14616394 .55799868-.07009888 .55799868-.035064699 .54499819 .026947022 .47599793 .05895996 .41799928 .08496094 .36499024 .08496094 .2659912 .08496094H.21598816M.2630005 .1933136C.17298889 .1933136 .17298889 .25727845 .17298889 .30125428 .17298889 .34622193 .17298889 .41018678 .2630005 .41018678 .35299684 .41018678 .35299684 .34622193 .35299684 .3022461 .35299684 .25727845 .35299684 .1933136 .2630005 .1933136M.32199098-.014053345C.35299684-.014053345 .46899415-.014053345 .46899415-.07409668 .46899415-.10612488 .43199159-.16117859 .29599-.16117859 .1639862-.16117859 .12199402-.11112976 .12199402-.07209778 .12199402-.014053345 .18598938-.014053345 .20098877-.014053345H.32199098Z" />
<path id="font_3_13" d="M.8909912 .30513C.8909912 .42318727 .81999209 .4501953 .7319946 .4501953 .6279907 .4501953 .57699587 .3871765 .55799868 .3561554 .5359955 .44618226 .44799806 .4501953 .4039917 .4501953 .27999879 .4501953 .23098755 .3601532 .22399903 .3451538H.22299195V.4501953L.049987794 .44218446V.39317323C.10998535 .39317323 .117996219 .39317323 .117996219 .3541565V.04899597H.049987794V0C.12399292 .0029907227 .13598633 .0029907227 .17599488 .0029907227 .21699524 .0029907227 .22698975 .0029907227 .30299378 0V.04899597H.23498535V.2541046C.23498535 .36515809 .32699586 .41018678 .3869934 .41018678 .4249878 .41018678 .44599916 .3901825 .44599916 .3141327V.04899597H.37799073V0C.45199586 .0029907227 .46398927 .0029907227 .5039978 .0029907227 .54499819 .0029907227 .5549927 .0029907227 .6309967 0V.04899597H.5629883V.2541046C.5629883 .36515809 .6549988 .41018678 .71499636 .41018678 .7529907 .41018678 .7739868 .3901825 .7739868 .3141327V.04899597H.70599368V0C.7799988 .0029907227 .7919922 .0029907227 .83200076 .0029907227 .8730011 .0029907227 .8829956 .0029907227 .95899966 0V.04899597H.8909912V.30513Z" />
<path id="font_3_15" d="M.55799868 .21812439C.55799868 .3491211 .46598817 .453125 .29599 .453125 .11999512 .453125 .032989503 .3441162 .032989503 .21812439 .032989503 .09413147 .12298584-.005859375 .29499818-.005859375 .47399903-.005859375 .55799868 .09913635 .55799868 .21812439M.29599 .037139894C.1659851 .037139894 .1659851 .14213562 .1659851 .22912598 .1659851 .3131256 .1659851 .41311646 .29499818 .41311646 .4249878 .41311646 .4249878 .3131256 .4249878 .22912598 .4249878 .14312744 .4249878 .037139894 .29599 .037139894Z" />
<path id="font_2_1" d="M.5109863 .48709107C.5109863 .59210208 .47099305 .70410159 .37298585 .70410159 .22299195 .70410159 .06298828 .4360962 .06298828 .20713806 .06298828 .0881958 .10899353-.009765625 .20098877-.009765625 .35299684-.009765625 .5109863 .26312257 .5109863 .48709107M.17599488 .36509706C.22698975 .58110049 .31298829 .6760864 .37199403 .6760864 .43598939 .6760864 .43598939 .565094 .43598939 .5460968 .43598939 .50709536 .42799378 .44909669 .40699769 .36509706H.17599488M.397995 .32910157C.36999513 .22013855 .34700013 .16616822 .31698609 .1171875 .28599549 .065200809 .24598694 .018234253 .20199585 .018234253 .14698792 .018234253 .13798523 .094192508 .13798523 .1481781 .13798523 .21414185 .15699768 .29211427 .16699219 .32910157H.397995Z" />
<path id="font_4_2" d="M.5279999 .29542542C.5279999 .37719728 .46199037 .453125 .28199769 .453125 .22399903 .453125 .083999637 .453125 .083999637 .3542633 .083999637 .3103943 .115997318 .28445436 .15299988 .28445436 .19699097 .28445436 .22299195 .31536866 .22299195 .35327149 .22299195 .37521363 .21398926 .39016725 .21099854 .39315797 .20899964 .39614869 .20799256 .39814759 .20799256 .40013124 .20799256 .40512086 .27198792 .40711976 .2789917 .40711976 .34899903 .40711976 .40098573 .37919618 .40098573 .2944336V.26750184C.35198976 .26750184 .040985109 .26350404 .040985109 .11528015 .040985109 .022140503 .15098572-.005859375 .25099183-.005859375 .35699464-.005859375 .4039917 .042129518 .42099 .06819153 .42099 .025131226 .44799806 .0001373291 .5299988 .0001373291H.58898928C.60798647 .0001373291 .6239929 .0001373291 .6239929 .028137207 .6239929 .056167604 .60899356 .056167604 .58799746 .056167604 .5279999 .056167604 .5279999 .06417847 .5279999 .0872345V.29542542M.40098573 .1373291C.40098573 .11628723 .40098573 .0872345 .3619995 .063186649 .32398988 .040130617 .2769928 .040130617 .2709961 .040130617 .21499634 .040130617 .16699219 .07119751 .16699219 .11628723 .16699219 .19845581 .30099488 .22550965 .40098573 .22851563V.1373291Z" />
<path id="font_4_7" d="M.96798709 .3011322C.96798709 .42619325 .8849945 .4501953 .7969971 .4501953 .70098879 .4501953 .6399994 .40518189 .6069946 .3561554 .58200076 .44319154 .49598695 .4501953 .44198609 .4501953 .32199098 .4501953 .2649994 .38017274 .24499512 .34614564V.4501953L.06399536 .44218446V.38616944C.12298584 .38616944 .1309967 .38616944 .1309967 .3471527V.055999757H.06399536V0C.06498718 0 .1459961 .0039978029 .19400025 .0039978029 .24299622 .0039978029 .32398988 0 .32499696 0V.055999757H.2579956V.24909973C.2579956 .36715699 .36499024 .40419007 .42199708 .40419007 .46699525 .40419007 .48599244 .38217164 .48599244 .308136V.055999757H.4189911V0C.41999818 0 .5009918 .0039978029 .548996 .0039978029 .59799197 .0039978029 .67900088 0 .6799927 0V.055999757H.61299136V.24909973C.61299136 .36715699 .7200012 .40419007 .7769928 .40419007 .82199099 .40419007 .84098818 .38217164 .84098818 .308136V.055999757H.7739868V0C.7749939 0 .85598757 .0039978029 .9039917 .0039978029 .9529877 .0039978029 1.0339966 0 1.0349884 0V.055999757H.96798709V.3011322Z" />
<path id="font_4_8" d="M.31599427-.13833618H.24899292V.037139894C.27398683 .020126343 .32299806-.005859375 .3929901-.005859375 .5649872-.005859375 .66999819 .09114075 .66999819 .22315979 .66999819 .34417726 .58299258 .4501953 .41299439 .4501953 .36099244 .4501953 .2999878 .44018556 .24198914 .40419007V.4501953L.054992677 .44218446V.3861847C.07199097 .3861847 .09199524 .3861847 .10499573 .3841858 .12199402 .3811798 .12199402 .37017823 .12199402 .35118104V-.13833618H.054992677V-.19433594C.055999757-.19433594 .13699341-.19033814 .18499756-.19033814 .23399353-.19033814 .31498719-.19433594 .31599427-.19433594V-.13833618M.24899292 .32017518C.24899292 .33917237 .25 .34017945 .2639923 .35317994 .31199647 .39518739 .37098695 .39918519 .3919983 .39918519 .47698976 .39918519 .5309906 .33117677 .5309906 .22315979 .5309906 .09313965 .45599366 .040130617 .37998963 .040130617 .3039856 .040130617 .26098634 .09414673 .24899292 .11114502V.32017518Z" />
<path id="font_4_6" d="M.2539978 .69433596 .066986087 .6863251V.6303253C.12599182 .6303253 .13398743 .6303253 .13398743 .5913086V.055999757H.066986087V0C.069992069 0 .147995 .0039978029 .19400025 .0039978029 .24299622 .0039978029 .31799317 0 .32099916 0V.055999757H.2539978V.69433596Z" />
<path id="font_4_5" d="M.2619934 .61331179C.2619934 .66130068 .22299195 .6953125 .18099976 .6953125 .1329956 .6953125 .09899902 .65631106 .09899902 .6143036 .09899902 .56629946 .13798523 .53230288 .17999268 .53230288 .22799683 .53230288 .2619934 .5713043 .2619934 .61331179M.069992069 .44218446V.3861847C.1269989 .3861847 .13398743 .3861847 .13398743 .34716798V.055999757H.066986087V0C.068984989 0 .147995 .0039978029 .19299317 .0039978029 .23399353 .0039978029 .27398683 .0029907227 .31498719 0V.055999757H.2539978V.4501953L.069992069 .44218446Z" />
<path id="font_4_1" d="M.4169922 .44833375C.41600038 .44732667 .41600038 .44633485 .41600038 .44433595H.23498535V.5363159C.23498535 .6532898 .3909912 .6542969 .4149933 .6542969 .4269867 .6542969 .45999146 .6542969 .48999024 .6392975 .47599793 .6322937 .45599366 .6122894 .45599366 .577301 .45599366 .5363159 .4869995 .50631716 .5269928 .50631716 .56900027 .50631716 .598999 .53530886 .598999 .5783081 .598999 .6302948 .5549927 .70028689 .42599488 .70028689 .29599 .70028689 .12199402 .6652832 .12199402 .53930667V.44433595H.038986207V.38832093H.12199402V.055999757H.054992677V0C.057998659 0 .13598633 .0039978029 .18199158 .0039978029 .23098755 .0039978029 .30599977 0 .30899049 0V.055999757H.24198914V.38832093H.45298768C.47698976 .38832093 .48298646 .38832093 .48298646 .35328675V.055999757H.41600038V0C.4189911 0 .49699403 .0039978029 .54299929 .0039978029 .59199526 .0039978029 .6669922 0 .66999819 0V.055999757H.6029968V.45433045L.4169922 .44833375Z" />
<path id="font_4_4" d="M.5159912 .20800781C.5369873 .20800781 .5509949 .20800781 .5509949 .23800659 .5509949 .26701356 .5439911 .34207154 .49598695 .39109803 .44198609 .44511415 .36799623 .453125 .31298829 .453125 .12799073 .453125 .039993287 .34306336 .039993287 .2250061 .039993287 .1060791 .13198853-.005859375 .32998658-.005859375 .3659973-.005859375 .42399598-.0018615723 .47399903 .025131226 .5329895 .056121828 .5509949 .1040802 .5509949 .11407471 .5509949 .13606262 .5289917 .13606262 .5189972 .13606262 .5009918 .13606262 .49598695 .13505554 .48799134 .11907959 .45199586 .045135499 .36099244 .045135499 .34399415 .045135499 .18598938 .045135499 .18099976 .16203308 .1789856 .20800781H.5159912M.1789856 .25C.17999268 .28903199 .18499756 .40711976 .31399537 .40711976 .44299317 .40711976 .44999696 .2930298 .45199586 .25H.1789856Z" />
<path id="font_4_3" d="M.4079895 .6863251V.6303253C.46699525 .6303253 .47499085 .6303253 .47499085 .59129336V.40818788C.41299439 .44618226 .35699464 .4501953 .32398988 .4501953 .14498902 .4501953 .04699707 .34817506 .04699707 .22116089 .04699707 .09713745 .13999939-.005859375 .31098939-.005859375 .375-.005859375 .42799378 .014129639 .46798707 .042129518V-.005859375L.6619873 .0001373291V.056137086C.6029968 .056137086 .59498599 .056137086 .59498599 .09513855V.69433596L.4079895 .6863251M.46798707 .1161499C.44499208 .08314514 .3959961 .040130617 .32299806 .040130617 .18598938 .040130617 .18598938 .16015625 .18598938 .21916199 .18598938 .2811737 .18598938 .40419007 .33599855 .40419007 .41999818 .40419007 .46499635 .34817506 .46798707 .34417726V.1161499Z" />
<path id="font_3_4" d="M.30699159 .6725464C.29599 .6855469 .2939911 .6855469 .272995 .6855469H.041992189V.63653567H.1499939V.07797241C.1499939 .055984498 .14898682 .054992677 .12098694 .051986696 .09700012 .04899597 .09498596 .04899597 .067993167 .04899597H.041992189V0C.10699463 .0029907227 .1349945 .0029907227 .17799378 .0029907227 .22200012 .0029907227 .24899292 .0029907227 .31498719 0V.04899597H.2889862C.2619934 .04899597 .2599945 .04899597 .23599243 .051986696 .20799256 .054992677 .20698548 .055984498 .20698548 .07797241V.5925751L.71499636 .0129852299C.7259979 0 .7299957 0 .74398806 0 .772995 0 .772995 .010986328 .772995 .032989503V.6075592C.772995 .6295471 .7739868 .63053897 .8019867 .6335449 .82598879 .63653567 .8279877 .63653567 .8549957 .63653567H.8809967V.6855469C.81599429 .6825409 .7879944 .6825409 .7449951 .6825409 .70098879 .6825409 .673996 .6825409 .60798647 .6855469V.63653567H.6339874C.6609955 .63653567 .6629944 .63653567 .68699648 .6335449 .71499636 .63053897 .71598818 .6295471 .71598818 .6075592V.20587158L.30699159 .6725464Z" />
<path id="font_3_16" d="M.21998596 .21809387C.21998596 .29112245 .24699402 .4071808 .34399415 .41018678 .33299256 .39918519 .32798768 .3821869 .32798768 .36616517 .32798768 .32214356 .36299134 .30213929 .3909912 .30213929 .4229889 .30213929 .45498658 .32414247 .45498658 .36616517 .45498658 .41719056 .40299989 .4501953 .34399415 .4501953 .27398683 .4501953 .23098755 .39918519 .20899964 .341156H.20799256V.4501953L.040985109 .44218446V.39318849C.100997928 .39318849 .10899353 .39318849 .10899353 .35417176V.04899597H.040985109V0C.114990238 .0029907227 .12098694 .0029907227 .16899109 .0029907227 .19400025 .0029907227 .2519989 .0029907227 .30499269 0V.04899597H.21998596V.21809387Z" />
</defs>
<path transform="matrix(1,0,0,-1,86.713,192.63802)" d="M-79.37114-51.02432V0H79.37114V-51.02432ZM79.37114 0" fill="#ece6d4" />
<path transform="matrix(1,0,0,-1,86.713,192.63802)" stroke-width=".3985" stroke-linecap="butt" stroke-miterlimit="10" stroke-linejoin="miter" fill="none" stroke="#1a1a1a" d="M-79.37114-51.02432V0H79.37114V-51.02432ZM79.37114 0" />
<path transform="matrix(1,0,0,-1,86.713,192.63802)" stroke-width=".49814" stroke-linecap="butt" stroke-miterlimit="10" stroke-linejoin="miter" fill="none" stroke="#1a1a1a" d="M-79.37114 0H79.37114" />
<use data-text="M" ns3:href="#font_1_2" transform="matrix(6.9738,0,0,-6.9738,7.3059999,188.07202)" fill="#1a1a1a" />
<use data-text="u" ns3:href="#font_1_13" transform="matrix(6.9738,0,0,-6.9738,14.475067,188.07202)" fill="#1a1a1a" />
<use data-text="d" ns3:href="#font_1_4" transform="matrix(6.9738,0,0,-6.9738,18.875536,188.07202)" fill="#1a1a1a" />
<use data-text="l" ns3:href="#font_1_7" transform="matrix(6.9738,0,0,-6.9738,23.276005,188.07202)" fill="#1a1a1a" />
<use data-text="i" ns3:href="#font_1_6" transform="matrix(6.9738,0,0,-6.9738,25.528542,188.07202)" fill="#1a1a1a" />
<use data-text="n" ns3:href="#font_1_9" transform="matrix(6.9738,0,0,-6.9738,27.781079,188.07202)" fill="#1a1a1a" />
<use data-text="e" ns3:href="#font_1_5" transform="matrix(6.9738,0,0,-6.9738,32.181547,188.07202)" fill="#1a1a1a" />
<path transform="matrix(1,0,0,-1,86.713,192.63802)" d="M-65.19774 0C-51.02432-2.83484-42.5202-15.59082 0-15.59082 42.5202-15.59082 51.02432-2.83484 65.19774 0Z" fill="#f5efe1" />
<path transform="matrix(1,0,0,-1,86.713,192.63802)" stroke-width=".3985" stroke-linecap="butt" stroke-miterlimit="10" stroke-linejoin="miter" fill="none" stroke="#1a1a1a" d="M-65.19774 0C-51.02432-2.83484-42.5202-15.59082 0-15.59082 42.5202-15.59082 51.02432-2.83484 65.19774 0Z" />
<path transform="matrix(1,0,0,-1,86.713,192.63802)" stroke-width=".3985" stroke-linecap="butt" stroke-dasharray="2.98883,2.98883" stroke-miterlimit="10" stroke-linejoin="miter" fill="none" stroke="#818181" d="M-65.19774 0C-51.02432-2.83484-42.5202-15.59082 0-15.59082 42.5202-15.59082 51.02432-2.83484 65.19774 0" />
<path transform="matrix(1,0,0,-1,86.713,192.63802)" stroke-width=".3985" stroke-linecap="butt" stroke-miterlimit="10" stroke-linejoin="miter" fill="none" stroke="#5f5f5f" d="M59.52846-5.14989V-11.00798" />
<path transform="matrix(0,-1,-1,-0,146.24146,197.7879)" d="M3.7613 0C3.2994 .1127 1.26901 .75136 0 1.44638V-1.44638C1.26901-.75136 3.2994-.1127 3.7613 0Z" fill="#5f5f5f" />
<path transform="matrix(0,-1,-1,-0,146.24146,197.7879)" stroke-width=".3985" stroke-linecap="butt" stroke-miterlimit="10" stroke-linejoin="miter" fill="none" stroke="#5f5f5f" d="M3.7613 0C3.2994 .1127 1.26901 .75136 0 1.44638V-1.44638C1.26901-.75136 3.2994-.1127 3.7613 0Z" />
<path transform="matrix(0,1,1,0,146.24146,203.646)" d="M3.7613 0C3.2994 .1127 1.26901 .75136 0 1.44638V-1.44638C1.26901-.75136 3.2994-.1127 3.7613 0Z" fill="#5f5f5f" />
<path transform="matrix(0,1,1,0,146.24146,203.646)" stroke-width=".3985" stroke-linecap="butt" stroke-miterlimit="10" stroke-linejoin="miter" fill="none" stroke="#5f5f5f" d="M3.7613 0C3.2994 .1127 1.26901 .75136 0 1.44638V-1.44638C1.26901-.75136 3.2994-.1127 3.7613 0Z" />
<use data-text="S" ns3:href="#font_2_2" transform="matrix(6.9738,0,0,-6.9738,151.75299,203.1)" />
<path transform="matrix(1,0,0,-1,86.713,192.63802)" d="M-73.70143-39.68535V0H-39.68578V-39.68535ZM-39.68578 0" fill="#c8c8c8" />
<path transform="matrix(1,0,0,-1,86.713,192.63802)" stroke-width=".79701" stroke-linecap="butt" stroke-miterlimit="10" stroke-linejoin="miter" fill="none" stroke="#1a1a1a" d="M-73.70143-39.68535V0H-39.68578V-39.68535ZM-39.68578 0" />
<path transform="matrix(1,0,0,-1,86.713,192.63802)" d="M-17.00781-39.68535V0H17.00781V-39.68535ZM17.00781 0" fill="#c8c8c8" />
<path transform="matrix(1,0,0,-1,86.713,192.63802)" stroke-width=".79701" stroke-linecap="butt" stroke-miterlimit="10" stroke-linejoin="miter" fill="none" stroke="#1a1a1a" d="M-17.00781-39.68535V0H17.00781V-39.68535ZM17.00781 0" />
<path transform="matrix(1,0,0,-1,86.713,192.63802)" d="M39.68578-39.68535V0H73.70143V-39.68535ZM73.70143 0" fill="#c8c8c8" />
<path transform="matrix(1,0,0,-1,86.713,192.63802)" stroke-width=".79701" stroke-linecap="butt" stroke-miterlimit="10" stroke-linejoin="miter" fill="none" stroke="#1a1a1a" d="M39.68578-39.68535V0H73.70143V-39.68535ZM73.70143 0" />
<path transform="matrix(1,0,0,-1,86.713,192.63802)" stroke-width="1.19553" stroke-linecap="butt" stroke-miterlimit="10" stroke-linejoin="miter" fill="none" stroke="#1a1a1a" d="M-56.69362 0 0 85.04042" />
<path transform="matrix(1,0,0,-1,86.713,192.63802)" stroke-width="1.19553" stroke-linecap="butt" stroke-miterlimit="10" stroke-linejoin="miter" fill="none" stroke="#1a1a1a" d="M0 0V85.04042" />
<path transform="matrix(1,0,0,-1,86.713,192.63802)" stroke-width="1.19553" stroke-linecap="butt" stroke-miterlimit="10" stroke-linejoin="miter" fill="none" stroke="#1a1a1a" d="M56.69362 0 0 85.04042" />
<path transform="matrix(1,0,0,-1,86.713,192.63802)" stroke-width="1.19553" stroke-linecap="butt" stroke-miterlimit="10" stroke-linejoin="miter" fill="none" stroke="#1a1a1a" d="M0 85.04042V158.7423" />
<path transform="matrix(1,0,0,-1,86.713,192.63802)" d="M-24.09451 158.7423V174.33312H24.09451V158.7423ZM24.09451 174.33312" fill="#1a1a1a" />
<path transform="matrix(1,0,0,-1,86.713,192.63802)" stroke-width=".29887" stroke-linecap="butt" stroke-dasharray="2.98883,2.98883" stroke-miterlimit="10" stroke-linejoin="miter" fill="none" stroke="#8c8c8c" d="M0 85.04042V180.00241" />
<path transform="matrix(1,0,0,-1,86.713,192.63802)" stroke-width=".99628" stroke-linecap="butt" stroke-miterlimit="10" stroke-linejoin="miter" fill="none" stroke="#1a1a1a" d="M29.7638 166.53749H13.67482" />
<path transform="matrix(-1,-0,0,1,100.38782,26.100525)" d="M4.65524 0C4.08356 .15102 1.57062 1.00674 0 1.93799V-1.93799C1.57062-1.00674 4.08356-.15102 4.65524 0Z" fill="#1a1a1a" />
<path transform="matrix(-1,-0,0,1,100.38782,26.100525)" stroke-width=".99628" stroke-linecap="butt" stroke-miterlimit="10" stroke-linejoin="miter" fill="none" stroke="#1a1a1a" d="M4.65524 0C4.08356 .15102 1.57062 1.00674 0 1.93799V-1.93799C1.57062-1.00674 4.08356-.15102 4.65524 0Z" />
<use data-text="¯" ns3:href="#font_1_1" transform="matrix(6.9738,0,0,-6.9738,128.338,24.27301)" fill="#1a1a1a" />
<use data-text="u" ns3:href="#font_2_3" transform="matrix(6.9738,0,0,-6.9738,127.75917,24.27301)" fill="#1a1a1a" />
<use data-text="m" ns3:href="#font_1_8" transform="matrix(6.9738,0,0,-6.9738,135.1514,24.27301)" fill="#1a1a1a" />
<use data-text="o" ns3:href="#font_1_10" transform="matrix(6.9738,0,0,-6.9738,141.6998,24.27301)" fill="#1a1a1a" />
<use data-text="d" ns3:href="#font_1_4" transform="matrix(6.9738,0,0,-6.9738,145.88408,24.27301)" fill="#1a1a1a" />
<use data-text="e" ns3:href="#font_1_5" transform="matrix(6.9738,0,0,-6.9738,150.28455,24.27301)" fill="#1a1a1a" />
<use data-text="r" ns3:href="#font_1_11" transform="matrix(6.9738,0,0,-6.9738,153.82724,24.27301)" fill="#1a1a1a" />
<use data-text="a" ns3:href="#font_1_3" transform="matrix(6.9738,0,0,-6.9738,156.93756,24.27301)" fill="#1a1a1a" />
<use data-text="t" ns3:href="#font_1_12" transform="matrix(6.9738,0,0,-6.9738,160.91263,24.27301)" fill="#1a1a1a" />
<use data-text="e" ns3:href="#font_1_5" transform="matrix(6.9738,0,0,-6.9738,164.02295,24.27301)" fill="#1a1a1a" />
<use data-text="(" ns3:href="#font_3_1" transform="matrix(8.9664,0,0,-8.9664,28.082997,268.08003)" fill="#1a1a1a" />
<use data-text="a" ns3:href="#font_3_5" transform="matrix(8.9664,0,0,-8.9664,32.20754,268.08003)" fill="#1a1a1a" />
<use data-text=")" ns3:href="#font_3_2" transform="matrix(8.9664,0,0,-8.9664,37.36322,268.08003)" fill="#1a1a1a" />
<use data-text="E" ns3:href="#font_3_3" transform="matrix(8.9664,0,0,-8.9664,45.020528,268.08003)" fill="#1a1a1a" />
<use data-text="l" ns3:href="#font_3_12" transform="matrix(8.9664,0,0,-8.9664,51.98742,268.08003)" fill="#1a1a1a" />
<use data-text="a" ns3:href="#font_3_5" transform="matrix(8.9664,0,0,-8.9664,54.937368,268.08003)" fill="#1a1a1a" />
<use data-text="s" ns3:href="#font_3_17" transform="matrix(8.9664,0,0,-8.9664,60.102014,268.08003)" fill="#1a1a1a" />
<use data-text="t" ns3:href="#font_3_18" transform="matrix(8.9664,0,0,-8.9664,64.28035,268.08003)" fill="#1a1a1a" />
<use data-text="i" ns3:href="#font_3_11" transform="matrix(8.9664,0,0,-8.9664,68.40489,268.08003)" fill="#1a1a1a" />
<use data-text="c" ns3:href="#font_3_7" transform="matrix(8.9664,0,0,-8.9664,71.35484,268.08003)" fill="#1a1a1a" />
<use data-text="b" ns3:href="#font_3_6" transform="matrix(8.9664,0,0,-8.9664,79.612888,268.08003)" fill="#1a1a1a" />
<use data-text="e" ns3:href="#font_3_9" transform="matrix(8.9664,0,0,-8.9664,85.7997,268.08003)" fill="#1a1a1a" />
<use data-text="n" ns3:href="#font_3_14" transform="matrix(8.9664,0,0,-8.9664,90.66846,268.08003)" fill="#1a1a1a" />
<use data-text="d" ns3:href="#font_3_8" transform="matrix(8.9664,0,0,-8.9664,96.55939,268.08003)" fill="#1a1a1a" />
<use data-text="i" ns3:href="#font_3_11" transform="matrix(8.9664,0,0,-8.9664,102.4503,268.08003)" fill="#1a1a1a" />
<use data-text="n" ns3:href="#font_3_14" transform="matrix(8.9664,0,0,-8.9664,105.40025,268.08003)" fill="#1a1a1a" />
<use data-text="g" ns3:href="#font_3_10" transform="matrix(8.9664,0,0,-8.9664,111.29117,268.08003)" fill="#1a1a1a" />
<use data-text="m" ns3:href="#font_3_13" transform="matrix(8.9664,0,0,-8.9664,120.132038,268.08003)" fill="#1a1a1a" />
<use data-text="o" ns3:href="#font_3_15" transform="matrix(8.9664,0,0,-8.9664,128.97292,268.08003)" fill="#1a1a1a" />
<use data-text="d" ns3:href="#font_3_8" transform="matrix(8.9664,0,0,-8.9664,134.57692,268.08003)" fill="#1a1a1a" />
<use data-text="e" ns3:href="#font_3_9" transform="matrix(8.9664,0,0,-8.9664,140.46785,268.08003)" fill="#1a1a1a" />
<path transform="matrix(1,0,0,-1,86.713,192.63802)" d="M161.57672-51.02432V0H320.31904V-51.02432ZM320.31904 0" fill="#ece6d4" />
<path transform="matrix(1,0,0,-1,86.713,192.63802)" stroke-width=".3985" stroke-linecap="butt" stroke-miterlimit="10" stroke-linejoin="miter" fill="none" stroke="#1a1a1a" d="M161.57672-51.02432V0H320.31904V-51.02432ZM320.31904 0" />
<path transform="matrix(1,0,0,-1,86.713,192.63802)" stroke-width=".49814" stroke-linecap="butt" stroke-miterlimit="10" stroke-linejoin="miter" fill="none" stroke="#1a1a1a" d="M161.57672 0H320.31904" />
<use data-text="M" ns3:href="#font_1_2" transform="matrix(6.9738,0,0,-6.9738,248.25,188.07202)" />
<use data-text="u" ns3:href="#font_1_13" transform="matrix(6.9738,0,0,-6.9738,255.41907,188.07202)" />
<use data-text="d" ns3:href="#font_1_4" transform="matrix(6.9738,0,0,-6.9738,259.81956,188.07202)" />
<use data-text="l" ns3:href="#font_1_7" transform="matrix(6.9738,0,0,-6.9738,264.22004,188.07202)" />
<use data-text="i" ns3:href="#font_1_6" transform="matrix(6.9738,0,0,-6.9738,266.47257,188.07202)" />
<use data-text="n" ns3:href="#font_1_9" transform="matrix(6.9738,0,0,-6.9738,268.7251,188.07202)" />
<use data-text="e" ns3:href="#font_1_5" transform="matrix(6.9738,0,0,-6.9738,273.12559,188.07202)" />
<path transform="matrix(1,0,0,-1,86.713,192.63802)" d="M175.75012 0C189.92354-5.66927 198.42766-21.82672 235.2786-21.82672 280.6332-15.59082 291.9722-2.83484 306.1456 0Z" fill="#f5efe1" />
<path transform="matrix(1,0,0,-1,86.713,192.63802)" stroke-width=".3985" stroke-linecap="butt" stroke-miterlimit="10" stroke-linejoin="miter" fill="none" stroke="#1a1a1a" d="M175.75012 0C189.92354-5.66927 198.42766-21.82672 235.2786-21.82672 280.6332-15.59082 291.9722-2.83484 306.1456 0Z" />
<path transform="matrix(1,0,0,-1,86.713,192.63802)" stroke-width=".3985" stroke-linecap="butt" stroke-miterlimit="10" stroke-linejoin="miter" fill="none" stroke="#5f5f5f" d="M300.47633-5.14989V-11.00798" />
<path transform="matrix(0,-1,-1,-0,387.18934,197.7879)" d="M3.7613 0C3.2994 .1127 1.26901 .75136 0 1.44638V-1.44638C1.26901-.75136 3.2994-.1127 3.7613 0Z" fill="#5f5f5f" />
<path transform="matrix(0,-1,-1,-0,387.18934,197.7879)" stroke-width=".3985" stroke-linecap="butt" stroke-miterlimit="10" stroke-linejoin="miter" fill="none" stroke="#5f5f5f" d="M3.7613 0C3.2994 .1127 1.26901 .75136 0 1.44638V-1.44638C1.26901-.75136 3.2994-.1127 3.7613 0Z" />
<path transform="matrix(0,1,1,0,387.18934,203.646)" d="M3.7613 0C3.2994 .1127 1.26901 .75136 0 1.44638V-1.44638C1.26901-.75136 3.2994-.1127 3.7613 0Z" fill="#5f5f5f" />
<path transform="matrix(0,1,1,0,387.18934,203.646)" stroke-width=".3985" stroke-linecap="butt" stroke-miterlimit="10" stroke-linejoin="miter" fill="none" stroke="#5f5f5f" d="M3.7613 0C3.2994 .1127 1.26901 .75136 0 1.44638V-1.44638C1.26901-.75136 3.2994-.1127 3.7613 0Z" />
<use data-text="S" ns3:href="#font_2_2" transform="matrix(6.9738,0,0,-6.9738,392.698,203.1)" />
<path transform="matrix(1,0,0,-1,86.713,192.63802)" d="M157.51789-34.85254 175.53482 .50735 205.84297-14.93553 187.82604-50.29544ZM205.84297-14.93553" fill="#c8c8c8" />
<path transform="matrix(1,0,0,-1,86.713,192.63802)" stroke-width=".79701" stroke-linecap="butt" stroke-miterlimit="10" stroke-linejoin="miter" fill="none" stroke="#1a1a1a" d="M157.51789-34.85254 175.53482 .50735 205.84297-14.93553 187.82604-50.29544ZM205.84297-14.93553" />
<path transform="matrix(1,0,0,-1,86.713,192.63802)" d="M214.82167-47.06953 223.07289-8.25133 256.34526-15.32372 248.09403-54.14192ZM256.34526-15.32372" fill="#c8c8c8" />
<path transform="matrix(1,0,0,-1,86.713,192.63802)" stroke-width=".79701" stroke-linecap="butt" stroke-miterlimit="10" stroke-linejoin="miter" fill="none" stroke="#1a1a1a" d="M214.82167-47.06953 223.07289-8.25133 256.34526-15.32372 248.09403-54.14192ZM256.34526-15.32372" />
<path transform="matrix(1,0,0,-1,86.713,192.63802)" d="M270.27647-58.85704 278.5277-20.03883 311.8001-27.11124 303.54887-65.92944ZM311.8001-27.11124" fill="#c8c8c8" />
<path transform="matrix(1,0,0,-1,86.713,192.63802)" stroke-width=".79701" stroke-linecap="butt" stroke-miterlimit="10" stroke-linejoin="miter" fill="none" stroke="#1a1a1a" d="M270.27647-58.85704 278.5277-20.03883 311.8001-27.11124 303.54887-65.92944ZM311.8001-27.11124" />
<path transform="matrix(1,0,0,-1,86.713,192.63802)" stroke-width="1.19553" stroke-linecap="butt" stroke-miterlimit="10" stroke-linejoin="miter" fill="none" stroke="#1a1a1a" d="M184.25424 0 257.39039 71.39471" />
<path transform="matrix(1,0,0,-1,86.713,192.63802)" stroke-width="1.19553" stroke-linecap="butt" stroke-miterlimit="10" stroke-linejoin="miter" fill="none" stroke="#1a1a1a" d="M239.70908-11.78752 257.39039 71.39471" />
<path transform="matrix(1,0,0,-1,86.713,192.63802)" stroke-width="1.19553" stroke-linecap="butt" stroke-miterlimit="10" stroke-linejoin="miter" fill="none" stroke="#1a1a1a" d="M295.1639-23.57504 257.39039 71.39471" />
<path transform="matrix(1,0,0,-1,86.713,192.63802)" stroke-width="1.19553" stroke-linecap="butt" stroke-miterlimit="10" stroke-linejoin="miter" fill="none" stroke="#1a1a1a" d="M257.39039 71.39471 272.71418 143.48615" />
<path transform="matrix(1,0,0,-1,86.713,192.63802)" d="M249.14614 148.49578 252.38773 163.74594 299.5238 153.72669 296.2822 138.47652ZM299.5238 153.72669" fill="#1a1a1a" />
<path transform="matrix(1,0,0,-1,86.713,192.63802)" stroke-width=".29887" stroke-linecap="butt" stroke-dasharray="2.98883,2.98883" stroke-miterlimit="10" stroke-linejoin="miter" fill="none" stroke="#8c8c8c" d="M240.94788 85.04042V188.50653" />
<path transform="matrix(1,0,0,-1,86.713,192.63802)" stroke-width=".49814" stroke-linecap="butt" stroke-miterlimit="10" stroke-linejoin="miter" fill="none" stroke="#cc3333" d="M240.94788 130.39548C238.96772 130.39548 236.99057 130.18741 235.05411 129.77608" />
<use data-text="θ" ns3:href="#font_2_1" transform="matrix(6.9738,0,0,-6.9738,315.732,46.241014)" fill="#cc3333" />
<path transform="matrix(1,0,0,-1,86.713,192.63802)" stroke-width="1.59404" stroke-linecap="butt" stroke-miterlimit="10" stroke-linejoin="miter" fill="none" stroke="#cc3333" d="M270.71168 149.52924H231.73465" />
<path transform="matrix(-1,-0,0,1,318.44764,43.10878)" d="M3.62772 0C3.1822 .12148 1.22394 .80989 0 1.55905V-1.55905C1.22394-.80989 3.1822-.12148 3.62772 0Z" fill="#cc3333" />
<path transform="matrix(-1,-0,0,1,318.44764,43.10878)" stroke-width="1.4173" stroke-linecap="butt" stroke-miterlimit="10" stroke-linejoin="miter" fill="none" stroke="#cc3333" d="M3.62772 0C3.1822 .12148 1.22394 .80989 0 1.55905V-1.55905C1.22394-.80989 3.1822-.12148 3.62772 0Z" />
<use data-text="¯" ns3:href="#font_1_1" transform="matrix(6.9738,0,0,-6.9738,384.24897,40.60202)" fill="#cc3333" />
<use data-text="u" ns3:href="#font_2_3" transform="matrix(6.9738,0,0,-6.9738,383.67015,40.60202)" fill="#cc3333" />
<use data-text="a" ns3:href="#font_4_2" transform="matrix(6.9738,0,0,-6.9738,391.40409,40.60202)" fill="#cc3333" />
<use data-text="m" ns3:href="#font_4_7" transform="matrix(6.9738,0,0,-6.9738,395.79759,40.60202)" fill="#cc3333" />
<use data-text="p" ns3:href="#font_4_8" transform="matrix(6.9738,0,0,-6.9738,403.28047,40.60202)" fill="#cc3333" />
<use data-text="l" ns3:href="#font_4_6" transform="matrix(6.9738,0,0,-6.9738,408.28767,40.60202)" fill="#cc3333" />
<use data-text="i" ns3:href="#font_4_5" transform="matrix(6.9738,0,0,-6.9738,410.81916,40.60202)" fill="#cc3333" />
<use data-text="f" ns3:href="#font_4_1" transform="matrix(6.9738,0,0,-6.9738,413.35066,40.60202)" fill="#cc3333" />
<use data-text="e" ns3:href="#font_4_4" transform="matrix(6.9738,0,0,-6.9738,418.41365,40.60202)" fill="#cc3333" />
<use data-text="d" ns3:href="#font_4_3" transform="matrix(6.9738,0,0,-6.9738,422.5421,40.60202)" fill="#cc3333" />
<use data-text="(" ns3:href="#font_3_1" transform="matrix(8.9664,0,0,-8.9664,265.69099,268.08003)" fill="#1a1a1a" />
<use data-text="b" ns3:href="#font_3_6" transform="matrix(8.9664,0,0,-8.9664,269.81553,268.08003)" fill="#1a1a1a" />
<use data-text=")" ns3:href="#font_3_2" transform="matrix(8.9664,0,0,-8.9664,275.70646,268.08003)" fill="#1a1a1a" />
<use data-text="N" ns3:href="#font_3_4" transform="matrix(8.9664,0,0,-8.9664,283.36378,268.08003)" fill="#1a1a1a" />
<use data-text="o" ns3:href="#font_3_15" transform="matrix(8.9664,0,0,-8.9664,291.6487,268.08003)" fill="#1a1a1a" />
<use data-text="n" ns3:href="#font_3_14" transform="matrix(8.9664,0,0,-8.9664,296.95683,268.08003)" fill="#1a1a1a" />
<use data-text="l" ns3:href="#font_3_12" transform="matrix(8.9664,0,0,-8.9664,302.84776,268.08003)" fill="#1a1a1a" />
<use data-text="i" ns3:href="#font_3_11" transform="matrix(8.9664,0,0,-8.9664,305.7977,268.08003)" fill="#1a1a1a" />
<use data-text="n" ns3:href="#font_3_14" transform="matrix(8.9664,0,0,-8.9664,308.74766,268.08003)" fill="#1a1a1a" />
<use data-text="e" ns3:href="#font_3_9" transform="matrix(8.9664,0,0,-8.9664,314.63859,268.08003)" fill="#1a1a1a" />
<use data-text="a" ns3:href="#font_3_5" transform="matrix(8.9664,0,0,-8.9664,319.50733,268.08003)" fill="#1a1a1a" />
<use data-text="r" ns3:href="#font_3_16" transform="matrix(8.9664,0,0,-8.9664,324.663,268.08003)" fill="#1a1a1a" />
<use data-text="t" ns3:href="#font_3_18" transform="matrix(8.9664,0,0,-8.9664,332.58033,268.08003)" fill="#1a1a1a" />
<use data-text="i" ns3:href="#font_3_11" transform="matrix(8.9664,0,0,-8.9664,336.70487,268.08003)" fill="#1a1a1a" />
<use data-text="l" ns3:href="#font_3_12" transform="matrix(8.9664,0,0,-8.9664,339.65483,268.08003)" fill="#1a1a1a" />
<use data-text="t" ns3:href="#font_3_18" transform="matrix(8.9664,0,0,-8.9664,342.60478,268.08003)" fill="#1a1a1a" />
<use data-text="i" ns3:href="#font_3_11" transform="matrix(8.9664,0,0,-8.9664,346.7293,268.08003)" fill="#1a1a1a" />
<use data-text="n" ns3:href="#font_3_14" transform="matrix(8.9664,0,0,-8.9664,349.67927,268.08003)" fill="#1a1a1a" />
<use data-text="g" ns3:href="#font_3_10" transform="matrix(8.9664,0,0,-8.9664,355.5702,268.08003)" fill="#1a1a1a" />
<use data-text="m" ns3:href="#font_3_13" transform="matrix(8.9664,0,0,-8.9664,364.41108,268.08003)" fill="#1a1a1a" />
<use data-text="o" ns3:href="#font_3_15" transform="matrix(8.9664,0,0,-8.9664,373.25196,268.08003)" fill="#1a1a1a" />
<use data-text="d" ns3:href="#font_3_8" transform="matrix(8.9664,0,0,-8.9664,378.85597,268.08003)" fill="#1a1a1a" />
<use data-text="e" ns3:href="#font_3_9" transform="matrix(8.9664,0,0,-8.9664,384.7469,268.08003)" fill="#1a1a1a" />
</svg>