<?xml version='1.0' encoding='utf-8'?>
<svg xmlns="http://www.w3.org/2000/svg" xmlns:dc="http://purl.org/dc/elements/1.1/" xmlns:ns3="http://www.w3.org/1999/xlink" xmlns:rdf="http://www.w3.org/1999/02/22-rdf-syntax-ns#" version="1.1" width="804.175" height="535.25" viewBox="0 0 804.175 535.25">
<metadata><rdf:RDF><rdf:Description><dc:figure_id>j2-geometry</dc:figure_id><dc:journal>ocean_engineering</dc:journal><dc:paper>J2</dc:paper><dc:claim_id>j2-geometry</dc:claim_id><dc:tier>1</dc:tier><dc:git_hash>f5a9a36c-dirty</dc:git_hash><dc:generated_utc>2026-04-19T07:43:56Z</dc:generated_utc><dc:data_sources>j2-geometry.tex:6a455a73</dc:data_sources><dc:generator>figgen</dc:generator><dc:description>Elevation-view schematic of the tripod suction-bucket foundation cross- section (manuscript Section 2.1). Shows one bucket (D = 8 m, L = 9.3 m skirt), the seabed with a 2 m example scour hole, the soil layer (Gunsan clay), and the water column above. Dimension arrows and callout labels anchor the geometry to the structural-parameters table (@tbl-structural-params).
</dc:description><dc:claim_measured>{}</dc:claim_measured><dc:claim_id_measured>j2-geometry</dc:claim_id_measured></rdf:Description></rdf:RDF></metadata><defs>
<clipPath id="clip_1">
<path transform="matrix(1,0,0,-1,384.708,156.1)" d="M-340.1617-377.01268H340.1617V0H226.77448L113.38724-56.69362H-113.38724L-226.77448 0H-340.1617Z" />
</clipPath>
<g id="pattern_tile_2">
<path transform="matrix(1,0,0,-1,0,535.25)" stroke-width=".3985" stroke-linecap="butt" stroke-miterlimit="10" stroke-linejoin="miter" fill="none" stroke="#999999" d="M0 0 3.08846 3.08846" />
</g>
<pattern id="pattern_2" patternUnits="userSpaceOnUse" patternContentUnits="userSpaceOnUse" x="0" y="0" width="2.98883" height="2.98883">
<clipPath id="clip_3">
<path d="M -.99628 -.99628 L 3.9851 -.99628 L 3.9851 3.9851 L -.99628 3.9851 Z" />
</clipPath>
<g clip-path="url(#clip_3)">
<g transform="matrix(1,0,0,-1,-0,535.25)">
<use x="0" y="0" ns3:href="#pattern_tile_2" />
<use x="0" y="-2.98883" ns3:href="#pattern_tile_2" />
<use x="-2.98883" y="0" ns3:href="#pattern_tile_2" />
<use x="-2.98883" y="-2.98883" ns3:href="#pattern_tile_2" />
</g>
</g>
</pattern>
<clipPath id="clip_4">
<path transform="matrix(1,0,0,-1,384.708,156.1)" d="M-110.55238-4.96077V-260.79057H110.55238V-4.96077ZM110.55238-260.79057" />
</clipPath>
<g id="pattern_tile_5">
<path transform="matrix(1,0,0,-1,0,535.25)" d="M.49814 0C.49814 .2751 .2751 .49814 0 .49814-.2751 .49814-.49814 .2751-.49814 0-.49814-.2751-.2751-.49814 0-.49814 .2751-.49814 .49814-.2751 .49814 0ZM0 0" fill="#737373" />
</g>
<pattern id="pattern_5" patternUnits="userSpaceOnUse" patternContentUnits="userSpaceOnUse" x="0" y="0" width="2.98883" height="2.98883">
<g transform="matrix(1,0,0,-1,-0,535.25)">
<use x="0" y="0" ns3:href="#pattern_tile_5" />
</g>
</pattern>
<path id="font_6_2" d="M.16699219 .07896423C.1579895 .040985109 .1559906 .032989503 .08198547 .032989503 .06298828 .032989503 .050994874 .032989503 .050994874 .01399231 .050994874 0 .06399536 0 .08099365 0H.4249878C.6359863 0 .84599307 .20188904 .84599307 .42474366 .84599307 .577652 .74398806 .6826172 .59498599 .6826172H.24499512C.22698975 .6826172 .21398926 .6826172 .21398926 .66360476 .21398926 .6496124 .22599793 .6496124 .24299622 .6496124 .27598573 .6496124 .30499269 .6496124 .30499269 .6336212 .30499269 .6296234 .3039856 .62861636 .30099488 .6156311L.16699219 .07896423M.3880005 .6126251C.39698792 .64660647 .397995 .6496124 .43899537 .6496124H.55999758C.6769867 .6496124 .7559967 .58265689 .7559967 .46072389 .7559967 .42774964 .74198916 .2648468 .6549988 .15292359 .61099246 .096954349 .5249939 .032989503 .40699769 .032989503H.2579956C.24899292 .034988405 .24598694 .034988405 .24598694 .041992189 .24598694 .049987794 .24798584 .0579834 .25 .0639801L.3880005 .6126251Z" />
<path id="font_7_6" d="M.73098757 .3330078C.74598696 .3330078 .7659912 .3330078 .7659912 .3560028 .7659912 .3789978 .74198916 .3789978 .72698977 .3789978H.09799194C.08299255 .3789978 .05899048 .3789978 .05899048 .3560028 .05899048 .3330078 .07899475 .3330078 .09399414 .3330078H.73098757M.72698977 .12098694C.74198916 .12098694 .7659912 .12098694 .7659912 .14398194 .7659912 .16699219 .74598696 .16699219 .73098757 .16699219H.09399414C.07899475 .16699219 .05899048 .16699219 .05899048 .14398194 .05899048 .12098694 .08299255 .12098694 .09799194 .12098694H.72698977Z" />
<path id="font_7_4" d="M.33198548 .36080934C.3880005 .38783265 .45599366 .4378662 .45599366 .5159302 .45599366 .6110077 .35899354 .66503909 .2659912 .66503909 .1599884 .66503909 .07398987 .59199526 .07398987 .49790956 .07398987 .46089173 .08699036 .42686463 .11199951 .39782716 .1289978 .3768158 .1329956 .3748169 .19499207 .3357849 .070999149 .2807312 .04399109 .20767212 .04399109 .15162659 .04399109 .041534425 .15499878-.021484375 .2639923-.021484375 .3869934-.021484375 .48599244 .061553956 .48599244 .16764832 .48599244 .23069763 .45199586 .2727356 .43598939 .28974916 .4189911 .30575563 .41799928 .3067627 .33198548 .36080934M.1769867 .45487977C.147995 .4718933 .12399292 .5009155 .12399292 .5359497 .12399292 .598999 .19299317 .6390381 .2639923 .6390381 .34199525 .6390381 .4059906 .5859833 .4059906 .5159302 .4059906 .45788575 .36099244 .408844 .3019867 .37982179L.1769867 .45487977M.22599793 .31776429C.22999573 .31576539 .34399415 .24571228 .36099244 .23469544 .3769989 .22569275 .42900086 .19366455 .42900086 .13360596 .42900086 .056549074 .34799195 .008514404 .2659912 .008514404 .1769867 .008514404 .100997928 .06956482 .100997928 .15162659 .100997928 .22668457 .15699768 .28573609 .22599793 .31776429Z" />
<path id="font_6_1" d="M.20298767 .054992677C.20298767 .08898926 .1749878 .11099243 .147995 .11099243 .115997318 .11099243 .09199524 .084991458 .09199524 .055999757 .09199524 .021987915 .11999512 0 .14698792 0 .1789856 0 .20298767 .025985718 .20298767 .054992677Z" />
<path id="font_7_1" d="M.4889984 .31877137C.4889984 .42585755 .47799684 .49090577 .44499208 .55496218 .40098573 .6430359 .31999208 .66503909 .2649994 .66503909 .13899231 .66503909 .09298706 .5709839 .07899475 .5429535 .042999269 .4698944 .040985109 .3708191 .040985109 .31877137 .040985109 .25271607 .04399109 .15162659 .09199524 .07156372 .13798523-.0024871827 .21199036-.021484375 .2649994-.021484375 .31298829-.021484375 .39898683-.0064849855 .44898988 .09257507 .48599244 .16464234 .4889984 .2537079 .4889984 .31877137M.2649994 .006515503C.23098755 .006515503 .1619873 .022521973 .14099121 .12760926 .12998963 .18466187 .12998963 .2787323 .12998963 .33078004 .12998963 .3998413 .12998963 .4698944 .14099121 .5249481 .1619873 .6270294 .23999024 .6370239 .2649994 .6370239 .29899598 .6370239 .36799623 .62002566 .3880005 .5289459 .3999939 .4738922 .3999939 .39883424 .3999939 .33078004 .3999939 .27172853 .3999939 .18165589 .3880005 .12561035 .36698915 .020523072 .2979889 .006515503 .2649994 .006515503Z" />
<path id="font_7_7" d="M.7809906 .3032837C.7809906 .3843689 .74598696 .44140626 .6369934 .44140626 .54499819 .44140626 .49899293 .37835694 .48298646 .34933473 .46499635 .42140199 .4079895 .44140626 .34298707 .44140626 .24598694 .44140626 .19999695 .37236024 .18699646 .34532167H.18598938V.44140626L.040985109 .43040467V.39738465C.10899353 .39738465 .116989139 .39038087 .116989139 .34132386V.07803345C.116989139 .032989503 .10499573 .032989503 .040985109 .032989503V0C.083999637 .0029907227 .12799073 .0029907227 .15499878 .0029907227 .18399048 .0029907227 .22599793 .0029907227 .2689972 0V.032989503C.20498657 .032989503 .19299317 .032989503 .19299317 .07803345V.25923158C.19299317 .36434938 .27198792 .4133911 .33499146 .4133911 .3999939 .4133911 .41099549 .36235047 .41099549 .3072815V.07803345C.41099549 .032989503 .39898683 .032989503 .33499146 .032989503V0C.37799073 .0029907227 .42199708 .0029907227 .44898988 .0029907227 .47799684 .0029907227 .519989 .0029907227 .5629883 0V.032989503C.49899293 .032989503 .4869995 .032989503 .4869995 .07803345V.25923158C.4869995 .36434938 .56599429 .4133911 .6289978 .4133911 .69400027 .4133911 .7049866 .36235047 .7049866 .3072815V.07803345C.7049866 .032989503 .69299319 .032989503 .6289978 .032989503V0C.6719971 .0029907227 .71598818 .0029907227 .7429962 .0029907227 .7719879 .0029907227 .81399539 .0029907227 .8569946 0V.032989503C.79299929 .032989503 .7809906 .032989503 .7809906 .07803345V.3032837Z" />
<path id="font_6_3" d="M.3880005 .6046295C.39698792 .63861086 .39898683 .6496124 .4909973 .6496124 .5189972 .6496124 .5289917 .6496124 .5289917 .6686096 .5289917 .6706085 .5269928 .6826172 .5119934 .6826172 .4909973 .6826172 .46099855 .680603 .43998719 .6796112H.36799623C.2639923 .6796112 .23999024 .6826172 .23298645 .6826172 .22898865 .6826172 .21299744 .6826172 .21299744 .66360476 .21299744 .6496124 .22599793 .6496124 .24198914 .6496124 .2749939 .6496124 .3039856 .6496124 .3039856 .6336212 .3039856 .6296234 .30299378 .62861636 .2999878 .6156311L.1659851 .07896423C.15699768 .040985109 .15499878 .032989503 .08099365 .032989503 .06199646 .032989503 .049987794 .032989503 .049987794 .01399231 .049987794 0 .06298828 0 .07998657 0H.5629883C.58799746 0 .58898928 .0009918213 .5970001 .019989014 .6069946 .04798889 .6799927 .23587036 .6799927 .24586487 .6799927 .2548523 .6719971 .25985719 .6649933 .25985719 .6539917 .25985719 .6519928 .2528534 .644989 .23786927 .60899356 .14492798 .56599429 .032989503 .3869934 .032989503H.2599945C.25099183 .034988405 .24798584 .034988405 .24798584 .041992189 .24798584 .049987794 .25 .0579834 .2519989 .0639801L.3880005 .6046295Z" />
<path id="font_7_5" d="M.3919983 .29478456C.3919983 .050704957 .27598573 .008514404 .21798706 .008514404 .19699097 .008514404 .14498902 .011520386 .117996219 .04270935 .1619873 .046707155 .16499329 .079711917 .16499329 .08970642 .16499329 .1197052 .14199829 .13671875 .117996219 .13671875 .099990848 .13671875 .070999149 .12571717 .070999149 .08770752 .070999149 .019577027 .1269989-.021484375 .21899414-.021484375 .35598756-.021484375 .48599244 .114715579 .48599244 .3287964 .48599244 .58898928 .37098695 .66503909 .2679901 .66503909 .1499939 .66503909 .04399109 .5729828 .04399109 .44187928 .04399109 .31278993 .14099121 .21875 .2539978 .21875 .32499696 .21875 .36799623 .26374818 .3919983 .31478883V.29478456M.2579956 .24674988C.21199036 .24674988 .18299866 .26776124 .16099549 .30477906 .13798523 .34181214 .13798523 .3898468 .13798523 .44088746 .13798523 .4999237 .13798523 .54196169 .16499329 .58299258 .18998719 .61901858 .22200012 .6390381 .2689972 .6390381 .33599855 .6390381 .36499024 .5729828 .36799623 .5679779 .3889923 .51893618 .3899994 .44088746 .3899994 .42086793 .3899994 .34181214 .34700013 .24674988 .2579956 .24674988Z" />
<path id="font_7_3" d="M.25299073 .33370973C.33198548 .33370973 .38198854 .27557374 .38198854 .17037964 .38198854 .045440675 .31098939 .008514404 .2579956 .008514404 .20298767 .008514404 .12799073 .0284729 .09298706 .08137512 .1289978 .08137512 .1539917 .10437012 .1539917 .13737488 .1539917 .16937256 .1309967 .19238281 .09899902 .19238281 .07199097 .19238281 .04399109 .17536927 .04399109 .13537598 .04399109 .04045105 .1459961-.021484375 .2599945-.021484375 .3929901-.021484375 .48599244 .070388797 .48599244 .17037964 .48599244 .25352479 .41999818 .32969667 .31799317 .3517456 .39698792 .37982179 .45599366 .4479828 .45599366 .52804568 .45599366 .6080475 .3659973 .66503909 .2619934 .66503909 .15499878 .66503909 .07398987 .6070404 .07398987 .53105166 .07398987 .49404908 .09899902 .4780426 .125 .4780426 .1559906 .4780426 .17599488 .5000458 .17599488 .52905276 .17599488 .56604006 .14399719 .5800476 .12199402 .5810547 .1639862 .6360321 .24099732 .6390381 .25898744 .6390381 .2849884 .6390381 .36099244 .6310272 .36099244 .52804568 .36099244 .45799256 .33198548 .41589356 .31799317 .39985658 .28799439 .36878968 .2649994 .36679078 .20399475 .3627777 .18499756 .36177064 .1769867 .36076356 .1769867 .3477478 .1769867 .33370973 .18598938 .33370973 .20298767 .33370973H.25299073Z" />
<path id="font_6_4" d="M.67099 .6770935C.6719971 .6810913 .673996 .687088 .673996 .6920929 .673996 .6990967 .66799929 .70410159 .6609955 .70410159 .6539917 .70410159 .6519928 .7020874 .6409912 .690094 .6299896 .6770935 .60398867 .6450653 .59298709 .63305667 .55400088 .690094 .4909973 .70410159 .43998719 .70410159 .30099488 .70410159 .18199158 .5870209 .18199158 .47291566 .18199158 .41485597 .21299744 .38082887 .21798706 .37382508 .25099183 .3387909 .27999879 .3307953 .35198976 .31378175 .3869934 .3047638 .3889923 .3047638 .41799928 .29776 .44699098 .29075624 .5109863 .2747345 .5109863 .19166565 .5109863 .10458374 .4249878 .011505127 .31999208 .011505127 .25498963 .011505127 .13598633 .03152466 .13598633 .15563965 .13598633 .15863037 .13598633 .17965698 .14199829 .20367432L.14299011 .21368408C.14299011 .22569275 .13198853 .22669983 .12799073 .22669983 .114990238 .22669983 .11399841 .22268677 .10899353 .19967652L.067993167 .03652954C.06399536 .021514893 .056991579-.005493164 .056991579-.0084991459 .056991579-.016494751 .06298828-.021484375 .069992069-.021484375 .07699585-.021484375 .07798767-.020492554 .08898926-.0074920656L.13699341 .048538209C.1599884 .018508912 .21699524-.021484375 .31799317-.021484375 .46299745-.021484375 .58200076 .10958862 .58200076 .22970581 .58200076 .27574159 .5669861 .31176759 .5399933 .33979798 .5099945 .37283326 .47698976 .38082887 .42999269 .39283753 .40098573 .39985658 .3619995 .40885926 .33898927 .41485597 .30899049 .421875 .25299073 .44189454 .25299073 .51194766 .25299073 .5900116 .33699037 .6740875 .43899537 .6740875 .5289917 .6740875 .59098818 .6270447 .59098818 .5189514 .59098818 .49493409 .58699038 .47392274 .58699038 .46990968 .58699038 .457901 .59599307 .4559021 .6029968 .4559021 .61499026 .4559021 .6159973 .4598999 .6199951 .47592164L.67099 .6770935Z" />
<path id="font_7_2" d="M.28199769 .20405579C.2979889 .21907044 .33999635 .2520752 .35598756 .26608277 .41799928 .32312013 .47698976 .3781433 .47698976 .46917726 .47698976 .588089 .3769989 .66503909 .2519989 .66503909 .13198853 .66503909 .052993776 .57411196 .052993776 .48516847 .052993776 .4361725 .09199524 .4291687 .10598755 .4291687 .1269989 .4291687 .1579895 .4441681 .1579895 .48217774 .1579895 .5341797 .10798645 .5341797 .09599304 .5341797 .125 .6070709 .19198609 .6320343 .24099732 .6320343 .33399964 .6320343 .38198854 .55314639 .38198854 .46917726 .38198854 .36514283 .30899049 .28910829 .19099427 .16804505L.06498718 .037994386C.052993776 .026992798 .052993776 .024993897 .052993776 0H.44799806L.47698976 .17904663H.44599916C.44299317 .1590271 .43499757 .10900879 .4229889 .08999634 .4169922 .08198547 .34098817 .08198547 .32499696 .08198547H.14698792L.28199769 .20405579Z" />
<path id="font_8_7" d="M.9869995 .69433596H.9089966L.81199648 .3791809C.80599978 .35816957 .73599246 .13404846 .72898867 .08001709H.7279968C.7220001 .13104248 .6499939 .36616517 .647995 .37217713L.5479889 .69433596H.46398927L.37098695 .3941803C.3600006 .36016847 .2939911 .14505005 .2869873 .08102417H.28599549C.27999879 .14205933 .20599365 .3811798 .20298767 .3921814L.10998535 .69433596H.01499939L.23199463 0H.31698609L.41999818 .3351593 .46899415 .50224307C.4850006 .55526736 .49299623 .5872803 .49699403 .61428835H.49798585C.5039978 .567276 .5289917 .4852295 .5469971 .42619325L.6299896 .15306092 .6779938 0H.769989L.9869995 .69433596Z" />
<path id="font_8_8" d="M.42599488 .28799439C.42599488 .38998414 .34799195 .45898438 .24899292 .45898438 .18598938 .45898438 .13798523 .4459839 .08198547 .41596986L.08799744 .34298707C.12098694 .36497499 .16999817 .39497376 .24899292 .39497376 .29299928 .39497376 .33898927 .36198426 .33898927 .2869873V.24699402C.19099427 .24198914 .04499817 .21099854 .04499817 .118118289 .04499817 .06820679 .07899475-.009765625 .16699219-.009765625 .20999146-.009765625 .2889862-.00077819827 .34199525 .038223268V.00022888184H.42599488V.28799439M.33898927 .14207459C.33898927 .12211609 .33898927 .09616089 .3039856 .07519531 .27198792 .05722046 .23298645 .056228639 .22200012 .056228639 .16699219 .056228639 .125 .08117676 .125 .11911011 .125 .18299866 .2939911 .18899536 .33898927 .19099427V.14207459Z" />
<path id="font_8_22" d="M.18798828 .3813324H.33599855V.44433595H.18798828V.57128909H.11099243V.44433595H.019989014V.3813324H.10798645V.12825012C.10798645 .06123352 .125-.009765625 .19699097-.009765625 .2689972-.009765625 .32398988 .01322937 .35398866 .02722168L.33699037 .0912323C.3039856 .067230228 .2689972 .05921936 .24099732 .05921936 .19898987 .05921936 .18798828 .100234989 .18798828 .1462555V.3813324Z" />
<path id="font_8_11" d="M.42999269 .10925293C.37399293 .069229129 .31098939 .056228639 .2679901 .056228639 .18099976 .056228639 .114990238 .1272583 .11199951 .21928406H.43998719C.43998719 .2652893 .43499757 .33213807 .3959961 .3889923 .3600006 .43997193 .2999878 .45898438 .25099183 .45898438 .1289978 .45898438 .034988405 .35209657 .034988405 .22529602 .034988405 .09724426 .1349945-.009765625 .2669983-.009765625 .32499696-.009765625 .3849945 .007232666 .43598939 .038223268L.42999269 .10925293M.11898804 .27929688C.14199829 .35906983 .20098877 .39297486 .25099183 .39297486 .29499818 .39297486 .3600006 .3720398 .3789978 .27929688H.11898804Z" />
<path id="font_8_20" d="M.16899109 .21304322C.16899109 .32106019 .25898744 .3790741 .34700013 .38008119V.45410157C.2630005 .45309449 .20199585 .41207887 .1619873 .35906983V.45109559H.084991458V0H.16899109V.21304322Z" />
<path id="font_8_6" d="M.49398805 .6658325C.42999269 .6988373 .37298585 .71484377 .29899598 .71484377 .147995 .71484377 .05899048 .6128235 .05899048 .5167694 .05899048 .47573854 .07199097 .42771913 .12098694 .38168336 .16499329 .34066773 .21099854 .33065797 .272995 .31565858 .35699464 .29563905 .37998963 .29063417 .40899659 .26062013 .42799378 .24160767 .44400025 .21359253 .44400025 .17958069 .44400025 .11753845 .3880005 .053512575 .29100038 .053512575 .23399353 .053512575 .14199829 .070510867 .06298828 .13755799L.04699707 .04750061C.09700012 .018508912 .17999268-.021484375 .2919922-.021484375 .43099977-.021484375 .5299988 .07952881 .5299988 .19158936 .5299988 .27262879 .48298646 .3186493 .46299745 .33966065 .42099 .38069154 .375 .39169313 .2979889 .4096985 .23699951 .42370606 .20498657 .43171693 .18099976 .45472718 .16799927 .46774293 .14498902 .49075318 .14498902 .5287781 .14498902 .58480837 .20098877 .6428375 .2979889 .6428375 .37399293 .6428375 .4269867 .6188202 .47799684 .5757904L.49398805 .6658325Z" />
<path id="font_8_9" d="M.43499757 .109191898C.3849945 .07720947 .33099366 .05921936 .2689972 .05921936 .1769867 .05921936 .12298584 .13316345 .12298584 .22309876 .12298584 .30004884 .16299439 .38998414 .27198792 .38998414 .33999635 .38998414 .37199403 .37599183 .4229889 .3440094L.43598939 .41596986C.37599183 .4459839 .34999085 .45898438 .27198792 .45898438 .12199402 .45898438 .035995485 .3380127 .035995485 .22210694 .035995485 .10018921 .13198853-.009765625 .2679901-.009765625 .33799745-.009765625 .397995 .011230469 .44099427 .036224367L.43499757 .109191898Z" />
<path id="font_8_18" d="M.5 .21910095C.5 .35101319 .394989 .45898438 .2649994 .45898438 .1349945 .45898438 .02999878 .3500061 .02999878 .21910095 .02999878 .09220886 .13598633-.009765625 .2649994-.009765625 .394989-.009765625 .5 .09220886 .5 .21910095M.2649994 .05921936C.18598938 .05921936 .116989139 .1171875 .116989139 .23010254 .116989139 .34301759 .19099427 .39297486 .2649994 .39297486 .33999635 .39297486 .41299439 .34101869 .41299439 .23010254 .41299439 .11618042 .34199525 .05921936 .2649994 .05921936Z" />
<path id="font_8_23" d="M.46499635 .44433595H.37799073V.1542511C.37799073 .07423401 .30999757 .049224855 .2519989 .049224855 .17799378 .049224855 .16999817 .069229129 .16999817 .115249637V.44433595H.08299255V.10923767C.08299255 .020233155 .12199402-.009765625 .19198609-.009765625 .23298645-.009765625 .32099916-.0017700195 .3809967 .04623413V.00022888184H.46499635V.44433595Z" />
<path id="font_8_10" d="M.46299745 .69433596H.3789978V.40109254C.31498719 .4480896 .25 .45410157 .22099304 .45410157 .115997318 .45410157 .035995485 .34910584 .035995485 .22216797 .035995485 .095214847 .114990238-.009765625 .21798706-.009765625 .27999879-.009765625 .33799745 .018234253 .37599183 .052230836V.00022888184H.46299745V.69433596M.37599183 .12420654C.35099793 .083221439 .31298829 .056228639 .2649994 .056228639 .19499207 .056228639 .12298584 .10520935 .12298584 .22116089 .12298584 .3461151 .20799256 .38809205 .27598573 .38809205 .31599427 .38809205 .34999085 .37109376 .37599183 .33711244V.12420654Z" />
<path id="font_8_16" d="M.7599945 .29606629C.7599945 .37408448 .7369995 .45410157 .6139984 .45410157 .5299988 .45410157 .47799684 .40509034 .45399476 .37309266 .44400025 .4001007 .4189911 .45410157 .31900025 .45410157 .2619934 .45410157 .20698548 .4310913 .16299439 .37808229V.45109559H.08299255V0H.16999817V.24305725C.16999817 .30906678 .19799805 .38809205 .2749939 .38809205 .37799073 .38809205 .37799073 .31806947 .37799073 .2890625V0H.46499635V.24305725C.46499635 .30906678 .49299623 .38809205 .56999209 .38809205 .6729889 .38809205 .6729889 .31806947 .6729889 .2890625V0H.7599945V.29606629Z" />
<path id="font_8_15" d="M.16799927 .69433596H.083999637V0H.16799927V.69433596Z" />
<path id="font_8_13" d="M.17599488 .68652346H.07499695V.58551028H.17599488V.68652346M.16799927 .44433595H.083999637V0H.16799927V.44433595Z" />
<path id="font_8_17" d="M.46499635 .29606629C.46499635 .37408448 .44198609 .45410157 .31900025 .45410157 .2619934 .45410157 .20698548 .4310913 .16299439 .37808229V.45109559H.08299255V0H.16999817V.24305725C.16999817 .30906678 .19799805 .38809205 .2749939 .38809205 .37799073 .38809205 .37799073 .31806947 .37799073 .2890625V0H.46499635V.29606629Z" />
<path id="font_8_1" d="M.30499269 .75C.28799439 .75 .28599549 .75 .27398683 .7389984 .147995 .6289978 .083999637 .45098878 .083999637 .25 .083999637 .06098938 .14099121-.1210022 .272995-.23701477 .28599549-.25 .28799439-.25 .30499269-.25H.35299684C.34999085-.2480011 .25299073-.16500855 .20698548-.009002686 .18299866 .069000247 .17098999 .15098572 .17098999 .25 .17098999 .59599307 .33299256 .73298647 .35299684 .75H.30499269Z" />
<path id="font_8_4" d="M.6369934 .2993927H.41299439V.23339844H.548996V.08024597C.5049896 .069229129 .46199037 .06022644 .4169922 .06022644 .2630005 .06022644 .16799927 .20536804 .16799927 .3483429 .16799927 .48519898 .26098634 .63604739 .4119873 .63604739 .5039978 .63604739 .56199648 .608078 .6119995 .56611636L.6279907 .65704348C.5589905 .6900482 .49798585 .7060547 .42199708 .7060547 .21998596 .7060547 .067993167 .5481415 .067993167 .3483429 .067993167 .15332031 .21899414-.009765625 .41600038-.009765625 .48799134-.009765625 .57299807 .006225586 .6369934 .039230348V.2993927Z" />
<path id="font_8_21" d="M.36499024 .42797853C.29699708 .4559784 .24699402 .45898438 .21099854 .45898438 .18598938 .45898438 .034988405 .45898438 .034988405 .32603456 .034988405 .279068 .06098938 .25308229 .07398987 .24108887 .10899353 .20611573 .15098572 .19812012 .20399475 .18812561 .25099183 .17913819 .30499269 .16914368 .30499269 .1211853 .30499269 .05822754 .22200012 .05822754 .20799256 .05822754 .14399719 .05822754 .083999637 .081207279 .04399109 .109191898L.02999878 .034225465C.06399536 .017227173 .125-.009765625 .20799256-.009765625 .25299073-.009765625 .29699708-.0027770997 .33399964 .024230957 .37098695 .052230836 .3829956 .096191409 .3829956 .13017273 .3829956 .14816284 .3809967 .18713379 .33898927 .22509766 .3019867 .2580719 .2659912 .26507569 .21798706 .2740631 .15899658 .2850647 .11299133 .29405213 .11299133 .3380127 .11299133 .39497376 .18598938 .39497376 .20098877 .39497376 .2579956 .39497376 .3019867 .38298036 .35198976 .3570099L.36499024 .42797853Z" />
<path id="font_8_25" d="M.47399903 .44433595H.3929901C.31199647 .25320436 .2559967 .12409973 .2519989 .06304932 .25 .09107971 .23199463 .14111328 .21398926 .18815613 .19799805 .22817993 .18199158 .26820375 .1639862 .30723573L.100997928 .44433595H.01499939L.22200012 0C.20999146-.029022217 .18998719-.07505798 .18399048-.08805847 .16299439-.13009644 .14898682-.144104 .12199402-.144104 .117996219-.144104 .08099365-.144104 .037994386-.12609864L.04399109-.19610596C.052993776-.19810486 .08999634-.20410156 .12098694-.20410156 .16099549-.20410156 .19699097-.18910218 .23899842-.093063358L.47399903 .44433595Z" />
<path id="font_8_2" d="M.10699463-.25C.12399292-.25 .12599182-.25 .13798523-.23901367 .2639923-.12901306 .32798768 .04899597 .32798768 .25 .32798768 .43899537 .2709961 .62098696 .13899231 .7369995 .12599182 .75 .12399292 .75 .10699463 .75H.05899048C.06199646 .74798586 .15899658 .6649933 .20498657 .5089874 .22898865 .43099977 .24099732 .34899903 .24099732 .25 .24099732-.0960083 .07899475-.23300171 .05899048-.25H.10699463Z" />
<path id="font_8_5" d="M.19799805 .69433596H.09700012V0H.5329895V.070999149C.43798829 .070999149 .34298707 .068984989 .24798584 .068984989H.19799805V.69433596Z" />
<path id="font_8_12" d="M.18998719 .3813324H.3039856V.44433595H.18699646V.55918887C.18699646 .6281128 .25 .63809207 .2829895 .63809207 .3039856 .63809207 .33099366 .6351013 .36799623 .621109V.6940918C.34199525 .7000885 .31098939 .70410159 .28399659 .70410159 .18099976 .70410159 .10598755 .6301117 .10598755 .5312195V.44433595H.0289917V.3813324H.10598755V0H.18998719V.3813324Z" />
<path id="font_8_3" d="M.099990848 .69433596V0H.3849945C.5329895 0 .647995 .088012699 .647995 .18804932 .647995 .27609254 .5549927 .3471222 .44400025 .3631134 .5479889 .38812257 .6179962 .4481659 .6179962 .52023318 .6179962 .6123047 .5029907 .69433596 .35598756 .69433596H.099990848M.19400025 .39411927V.6353302H.32598878C.43798829 .6353302 .5309906 .5832825 .5309906 .5192261 .5309906 .4521637 .43998719 .39411927 .32699586 .39411927H.19400025M.19400025 .05899048V.328125H.33699037C.46299745 .328125 .5569916 .26408387 .5569916 .1890564 .5569916 .11502075 .46398927 .05899048 .35398866 .05899048H.19400025Z" />
<path id="font_8_14" d="M.29899598 .27212525 .47698976 .44421388H.37998963L.1659851 .23710633V.69433596H.08799744V0H.1619873V.14006043L.24699402 .22209168 .4119873 0H.5L.29899598 .27212525Z" />
<path id="font_8_19" d="M.17199707 .047225954C.22499085-.00077819827 .28199769-.009765625 .31599427-.009765625 .42199708-.009765625 .5119934 .09121704 .5119934 .22315979 .5119934 .34310914 .44599916 .45410157 .34700013 .45410157 .3019867 .45410157 .22698975 .44110108 .16899109 .39608766V.4440918H.084991458V-.19433594H.17199707V.047225954M.17199707 .3321228C.19499207 .36010743 .23399353 .38510133 .28199769 .38510133 .3619995 .38510133 .4249878 .3111267 .4249878 .22315979 .4249878 .12420654 .34999085 .056228639 .27198792 .056228639 .25698854 .056228639 .23199463 .05822754 .20599365 .07922363 .17599488 .10220337 .17199707 .11720276 .17199707 .13619995V.3321228Z" />
<path id="font_8_24" d="M.70999148 .44433595H.6319885C.6230011 .4163208 .5669861 .24717713 .5359955 .14309693 .5279999 .11407471 .5179901 .08204651 .5149994 .059020997H.5139923C.5079956 .10005188 .47299195 .20814514 .47099305 .21514893L.39698792 .44433595H.32099916C.2919922 .35827638 .21699524 .13409424 .20899964 .061019899H.20799256C.19999695 .13208008 .12599182 .35327149 .10998535 .40130616 .101989749 .4253235 .101989749 .4273224 .09700012 .44433595H.01499939L.16099549 0H.24499512C.24598694 .0039978029 .272995 .08303833 .30799867 .19413758 .32299806 .24317932 .35299684 .33926393 .35798646 .38330079L.35899354 .3842926C.36099244 .36328126 .36698915 .34126283 .37399293 .3162384 .3809967 .291214 .3880005 .26419068 .394989 .24118042L.47200013 0H.56399539L.70999148 .44433595Z" />
</defs>
<path transform="matrix(1,0,0,-1,384.708,156.1)" d="M-340.1617 0H340.1617V141.73404H-340.1617Z" fill="#e8eef5" />
<path transform="matrix(1,0,0,-1,384.708,156.1)" stroke-width=".29887" stroke-linecap="butt" stroke-miterlimit="10" stroke-linejoin="miter" fill="none" stroke="#0b3d91" d="M-340.1617 0H340.1617V141.73404H-340.1617Z" />
<path transform="matrix(1,0,0,-1,384.708,156.1)" stroke-width=".49814" stroke-linecap="butt" stroke-miterlimit="10" stroke-linejoin="miter" fill="none" stroke="#0b3d91" d="M-340.1617 141.73404C-338.0357 141.73404-336.9727 142.73032-334.8467 142.73032-333.3075 142.73032-331.98085 142.24413-330.59468 141.73404-329.2085 141.22396-327.8819 140.73777-326.34269 140.73777-324.80345 140.73777-323.47685 141.22396-322.09068 141.73404-320.7045 142.24413-319.37788 142.73032-317.83866 142.73032-316.29945 142.73032-314.9728 142.24413-313.58665 141.73404-312.2005 141.22396-310.87388 140.73777-309.33464 140.73777-307.79545 140.73777-306.4688 141.22396-305.08265 141.73404-303.69648 142.24413-302.36988 142.73032-300.83064 142.73032-299.2914 142.73032-297.96479 142.24413-296.5786 141.73404-295.19245 141.22396-293.86585 140.73777-292.3266 140.73777-290.78739 140.73777-289.4608 141.22396-288.0746 141.73404-286.68843 142.24413-285.36183 142.73032-283.8226 142.73032-282.28337 142.73032-280.95677 142.24413-279.57057 141.73404-278.18443 141.22396-276.8578 140.73777-275.31858 140.73777-273.77937 140.73777-272.45274 141.22396-271.06657 141.73404-269.6804 142.24413-268.3538 142.73032-266.81455 142.73032-265.27534 142.73032-263.94874 142.24413-262.56257 141.73404-261.1764 141.22396-259.84977 140.73777-258.31053 140.73777-256.77134 140.73777-255.4447 141.22396-254.05854 141.73404-252.67237 142.24413-251.34575 142.73032-249.80652 142.73032-248.2673 142.73032-246.94069 142.24413-245.5545 141.73404-244.16835 141.22396-242.84174 140.73777-241.3025 140.73777-239.76329 140.73777-238.43668 141.22396-237.05049 141.73404-235.66434 142.24413-234.3377 142.73032-232.79848 142.73032-231.25926 142.73032-229.93265 142.24413-228.54648 141.73404-227.16031 141.22396-225.8337 140.73777-224.29447 140.73777-222.75525 140.73777-221.42864 141.22396-220.04245 141.73404-218.6563 142.24413-217.32968 142.73032-215.79045 142.73032-214.25124 142.73032-212.92462 142.24413-211.53844 141.73404-210.15229 141.22396-208.82567 140.73777-207.28644 140.73777-205.74723 140.73777-204.4206 141.22396-203.03443 141.73404-201.64826 142.24413-200.32164 142.73032-198.78241 142.73032-197.2432 142.73032-195.91658 142.24413-194.53041 141.73404-193.14424 141.22396-191.81763 140.73777-190.2784 140.73777-188.73918 140.73777-187.41257 141.22396-186.02639 141.73404-184.64023 142.24413-183.31362 142.73032-181.77439 142.73032-180.23517 142.73032-178.90856 142.24413-177.52237 141.73404-176.13622 141.22396-174.8096 140.73777-173.27037 140.73777-171.73116 140.73777-170.40453 141.22396-169.01836 141.73404-167.63219 142.24413-166.30558 142.73032-164.76634 142.73032-163.22713 142.73032-161.90052 142.24413-160.51435 141.73404-159.12818 141.22396-157.80156 140.73777-156.26233 140.73777-154.72312 140.73777-153.3965 141.22396-152.01032 141.73404-150.62416 142.24413-149.29755 142.73032-147.75832 142.73032-146.2191 142.73032-144.89249 142.24413-143.5063 141.73404-142.12015 141.22396-140.79352 140.73777-139.25429 140.73777-137.71508 140.73777-136.38846 141.22396-135.00229 141.73404-133.61612 142.24413-132.2895 142.73032-130.75028 142.73032-129.21106 142.73032-127.88445 142.24413-126.49828 141.73404-125.1121 141.22396-123.78549 140.73777-122.24626 140.73777-120.70705 140.73777-119.38043 141.22396-117.99425 141.73404-116.6081 142.24413-115.28148 142.73032-113.74225 142.73032-112.20303 142.73032-110.87642 142.24413-109.49023 141.73404-108.10408 141.22396-106.77745 140.73777-105.23822 140.73777-103.699 140.73777-102.37239 141.22396-100.98622 141.73404-99.60005 142.24413-98.27344 142.73032-96.7342 142.73032-95.19499 142.73032-93.86838 142.24413-92.48221 141.73404-91.09604 141.22396-89.76942 140.73777-88.2302 140.73777-86.69098 140.73777-85.36436 141.22396-83.97818 141.73404-82.59203 142.24413-81.26541 142.73032-79.72618 142.73032-78.18697 142.73032-76.86034 142.24413-75.47417 141.73404-74.088 141.22396-72.76138 140.73777-71.22215 140.73777-69.68294 140.73777-68.35632 141.22396-66.97015 141.73404-65.58398 142.24413-64.25737 142.73032-62.71814 142.73032-61.17892 142.73032-59.85231 142.24413-58.46613 141.73404-57.07997 141.22396-55.75336 140.73777-54.21413 140.73777-52.67491 140.73777-51.3483 141.22396-49.96211 141.73404-48.57596 142.24413-47.24934 142.73032-45.71011 142.73032-44.1709 142.73032-42.84427 142.24413-41.4581 141.73404-40.07193 141.22396-38.74532 140.73777-37.20609 140.73777-35.66687 140.73777-34.34026 141.22396-32.95409 141.73404-31.56792 142.24413-30.2413 142.73032-28.70207 142.73032-27.16286 142.73032-25.83624 142.24413-24.45006 141.73404-23.0639 141.22396-21.73729 140.73777-20.19806 140.73777-18.65884 140.73777-17.33223 141.22396-15.94604 141.73404-14.55989 142.24413-13.23328 142.73032-11.69403 142.73032-10.15482 142.73032-8.8282 142.24413-7.44203 141.73404-6.05586 141.22396-4.72925 140.73777-3.19002 140.73777-1.6508 140.73777-.32419 141.22396 1.06197 141.73404 2.44814 142.24413 3.77475 142.73032 5.31398 142.73032 6.8532 142.73032 8.17981 142.24413 9.566 141.73404 10.95215 141.22396 12.27876 140.73777 13.818 140.73777 15.35721 140.73777 16.68382 141.22396 18.07 141.73404 19.45616 142.24413 20.78279 142.73032 22.32202 142.73032 23.86124 142.73032 25.18785 142.24413 26.57402 141.73404 27.96019 141.22396 29.2868 140.73777 30.82603 140.73777 32.36525 140.73777 33.69186 141.22396 35.07803 141.73404 36.4642 142.24413 37.79082 142.73032 39.33005 142.73032 40.86926 142.73032 42.19588 142.24413 43.58206 141.73404 44.96822 141.22396 46.29483 140.73777 47.83406 140.73777 49.37328 140.73777 50.69989 141.22396 52.08607 141.73404 53.47224 142.24413 54.79886 142.73032 56.33809 142.73032 57.8773 142.73032 59.20392 142.24413 60.59009 141.73404 61.97626 141.22396 63.30287 140.73777 64.8421 140.73777 66.38132 140.73777 67.70793 141.22396 69.09412 141.73404 70.48027 142.24413 71.80688 142.73032 73.34612 142.73032 74.88533 142.73032 76.21194 142.24413 77.59813 141.73404 78.98428 141.22396 80.3109 140.73777 81.85013 140.73777 83.38934 140.73777 84.71597 141.22396 86.10214 141.73404 87.48831 142.24413 88.81493 142.73032 90.35416 142.73032 91.89337 142.73032 93.21999 142.24413 94.60616 141.73404 95.99232 141.22396 97.31894 140.73777 98.85817 140.73777 100.39738 140.73777 101.724 141.22396 103.11018 141.73404 104.49634 142.24413 105.82295 142.73032 107.36218 142.73032 108.9014 142.73032 110.22801 142.24413 111.6142 141.73404 113.00035 141.22396 114.32697 140.73777 115.8662 140.73777 117.40543 140.73777 118.73204 141.22396 120.11821 141.73404 121.50438 142.24413 122.831 142.73032 124.37022 142.73032 125.90944 142.73032 127.23605 142.24413 128.62223 141.73404 130.00839 141.22396 131.335 140.73777 132.87424 140.73777 134.41345 140.73777 135.74007 141.22396 137.12625 141.73404 138.5124 142.24413 139.83902 142.73032 141.37825 142.73032 142.91747 142.73032 144.24408 142.24413 145.63027 141.73404 147.01642 141.22396 148.34305 140.73777 149.88228 140.73777 151.4215 140.73777 152.74811 141.22396 154.13428 141.73404 155.52045 142.24413 156.84706 142.73032 158.38629 142.73032 159.9255 142.73032 161.25212 142.24413 162.63829 141.73404 164.02446 141.22396 165.35108 140.73777 166.8903 140.73777 168.42952 140.73777 169.75614 141.22396 171.14232 141.73404 172.52848 142.24413 173.85509 142.73032 175.39432 142.73032 176.93354 142.73032 178.26015 142.24413 179.64633 141.73404 181.03249 141.22396 182.35912 140.73777 183.89835 140.73777 185.43756 140.73777 186.76418 141.22396 188.15035 141.73404 189.53652 142.24413 190.86313 142.73032 192.40236 142.73032 193.94158 142.73032 195.26819 142.24413 196.65438 141.73404 198.04053 141.22396 199.36714 140.73777 200.90637 140.73777 202.44559 140.73777 203.7722 141.22396 205.15839 141.73404 206.54454 142.24413 207.87116 142.73032 209.41039 142.73032 210.9496 142.73032 212.27623 142.24413 213.6624 141.73404 215.04857 141.22396 216.37519 140.73777 217.91442 140.73777 219.45363 140.73777 220.78025 141.22396 222.16641 141.73404 223.55258 142.24413 224.8792 142.73032 226.41843 142.73032 227.95764 142.73032 229.28426 142.24413 230.67044 141.73404 232.0566 141.22396 233.38321 140.73777 234.92244 140.73777 236.46166 140.73777 237.78827 141.22396 239.17446 141.73404 240.56061 142.24413 241.88722 142.73032 243.42646 142.73032 244.96569 142.73032 246.2923 142.24413 247.67847 141.73404 249.06464 141.22396 250.39125 140.73777 251.93048 140.73777 253.4697 140.73777 254.79631 141.22396 256.1825 141.73404 257.56867 142.24413 258.89527 142.73032 260.4345 142.73032 261.97373 142.73032 263.30033 142.24413 264.68653 141.73404 266.07267 141.22396 267.3993 140.73777 268.9385 140.73777 270.47773 140.73777 271.80436 141.22396 273.19053 141.73404 274.5767 142.24413 275.9033 142.73032 277.44255 142.73032 278.98176 142.73032 280.30836 142.24413 281.69453 141.73404 283.0807 141.22396 284.40733 140.73777 285.94657 140.73777 287.48576 140.73777 288.81239 141.22396 290.19856 141.73404 291.58473 142.24413 292.91133 142.73032 294.45057 142.73032 295.98979 142.73032 297.31639 142.24413 298.70259 141.73404 300.08876 141.22396 301.41535 140.73777 302.95457 140.73777 304.4938 140.73777 305.8204 141.22396 307.2066 141.73404 308.59275 142.24413 309.91938 142.73032 311.4586 142.73032 312.99784 142.73032 314.32444 142.24413 315.7106 141.73404 317.09678 141.22396 318.4234 140.73777 319.96263 140.73777 321.50184 140.73777 322.82847 141.22396 324.2146 141.73404 325.60078 142.24413 326.9274 142.73032 328.46665 142.73032 330.5938 142.73032 331.65684 141.73404 333.78285 141.73404H340.1617" />
<g clip-path="url(#clip_1)">
<rect transform="matrix(1,0,0,-1,0,535.25)" fill="url(#pattern_2)" x="41.557596" y="-.8513794" width="686.30087" height="382.99006" />
</g>
<path transform="matrix(1,0,0,-1,384.708,156.1)" stroke-width=".29887" stroke-linecap="butt" stroke-miterlimit="10" stroke-linejoin="miter" fill="none" stroke="#000000" d="M-340.1617-377.01268H340.1617V0H226.77448L113.38724-56.69362H-113.38724L-226.77448 0H-340.1617Z" />
<path transform="matrix(1,0,0,-1,384.708,156.1)" d="M-226.77448 0-113.38724-56.69362H113.38724L226.77448 0" fill="#f7f1e8" />
<path transform="matrix(1,0,0,-1,384.708,156.1)" stroke-width=".3985" stroke-linecap="butt" stroke-dasharray="2.98883,2.98883" stroke-miterlimit="10" stroke-linejoin="miter" fill="none" stroke="#0b3d91" d="M-226.77448 0-113.38724-56.69362H113.38724L226.77448 0" />
<path transform="matrix(1,0,0,-1,384.708,156.1)" stroke-width=".29887" stroke-linecap="butt" stroke-dasharray="1.99255,1.49442" stroke-miterlimit="10" stroke-linejoin="miter" fill="none" stroke="#737373" d="M-226.77448 0H226.77448" />
<path transform="matrix(1,0,0,-1,384.708,156.1)" stroke-width=".99628" stroke-linecap="butt" stroke-miterlimit="10" stroke-linejoin="miter" fill="none" stroke="#1a1a1a" d="M-113.38724 0V-263.6254" />
<path transform="matrix(1,0,0,-1,384.708,156.1)" stroke-width=".99628" stroke-linecap="butt" stroke-miterlimit="10" stroke-linejoin="miter" fill="none" stroke="#1a1a1a" d="M113.38724 0V-263.6254" />
<path transform="matrix(1,0,0,-1,384.708,156.1)" stroke-width=".49814" stroke-linecap="butt" stroke-dasharray="2.98883,2.98883" stroke-miterlimit="10" stroke-linejoin="miter" fill="none" stroke="#1a1a1a" d="M-113.38724-263.6254H113.38724" />
<path transform="matrix(1,0,0,-1,384.708,156.1)" d="M-113.38724-4.96077V4.96077H113.38724V-4.96077ZM113.38724 4.96077" fill="#1a1a1a" />
<path transform="matrix(1,0,0,-1,384.708,156.1)" stroke-width=".3985" stroke-linecap="butt" stroke-miterlimit="10" stroke-linejoin="miter" fill="none" stroke="#1a1a1a" d="M-113.38724-4.96077V4.96077H113.38724V-4.96077ZM113.38724 4.96077" />
<g clip-path="url(#clip_4)">
<rect transform="matrix(1,0,0,-1,0,535.25)" fill="url(#pattern_5)" x="274.15565" y="118.359439" width="221.10474" height="255.82978" />
</g>
<path transform="matrix(1,0,0,-1,384.708,156.1)" stroke-width=".3985" stroke-linecap="butt" stroke-miterlimit="10" stroke-linejoin="miter" fill="none" stroke="#000000" d="M-107.91713 28.3468H107.91713" />
<path transform="matrix(-1,-0,0,1,276.7909,127.753208)" d="M4.64856 0C4.0777 .13863 1.56834 .9242 0 1.7791V-1.7791C1.56834-.9242 4.0777-.13863 4.64856 0Z" />
<path transform="matrix(-1,-0,0,1,276.7909,127.753208)" stroke-width=".3985" stroke-linecap="butt" stroke-miterlimit="10" stroke-linejoin="miter" fill="none" stroke="#000000" d="M4.64856 0C4.0777 .13863 1.56834 .9242 0 1.7791V-1.7791C1.56834-.9242 4.0777-.13863 4.64856 0Z" />
<path transform="matrix(1,0,0,-1,492.62513,127.753208)" d="M4.64856 0C4.0777 .13863 1.56834 .9242 0 1.7791V-1.7791C1.56834-.9242 4.0777-.13863 4.64856 0Z" />
<path transform="matrix(1,0,0,-1,492.62513,127.753208)" stroke-width=".3985" stroke-linecap="butt" stroke-miterlimit="10" stroke-linejoin="miter" fill="none" stroke="#000000" d="M4.64856 0C4.0777 .13863 1.56834 .9242 0 1.7791V-1.7791C1.56834-.9242 4.0777-.13863 4.64856 0Z" />
<use data-text="D" ns3:href="#font_6_2" transform="matrix(7.9701,0,0,-7.9701,365.82603,124.23401)" />
<use data-text="=" ns3:href="#font_7_6" transform="matrix(7.9701,0,0,-7.9701,375.3662,124.23401)" />
<use data-text="8" ns3:href="#font_7_4" transform="matrix(7.9701,0,0,-7.9701,384.3007,124.23401)" />
<use data-text="." ns3:href="#font_6_1" transform="matrix(7.9701,0,0,-7.9701,388.5328,124.23401)" />
<use data-text="0" ns3:href="#font_7_1" transform="matrix(7.9701,0,0,-7.9701,390.88398,124.23401)" />
<use data-text="m" ns3:href="#font_7_7" transform="matrix(7.9701,0,0,-7.9701,396.5268,124.23401)" />
<path transform="matrix(1,0,0,-1,384.708,156.1)" stroke-width=".3985" stroke-linecap="butt" stroke-miterlimit="10" stroke-linejoin="miter" fill="none" stroke="#000000" d="M147.40332-5.4701V-258.1553" />
<path transform="matrix(0,-1,-1,-0,532.1113,161.5701)" d="M4.64856 0C4.0777 .13863 1.56834 .9242 0 1.7791V-1.7791C1.56834-.9242 4.0777-.13863 4.64856 0Z" />
<path transform="matrix(0,-1,-1,-0,532.1113,161.5701)" stroke-width=".3985" stroke-linecap="butt" stroke-miterlimit="10" stroke-linejoin="miter" fill="none" stroke="#000000" d="M4.64856 0C4.0777 .13863 1.56834 .9242 0 1.7791V-1.7791C1.56834-.9242 4.0777-.13863 4.64856 0Z" />
<path transform="matrix(0,1,1,0,532.1113,414.2553)" d="M4.64856 0C4.0777 .13863 1.56834 .9242 0 1.7791V-1.7791C1.56834-.9242 4.0777-.13863 4.64856 0Z" />
<path transform="matrix(0,1,1,0,532.1113,414.2553)" stroke-width=".3985" stroke-linecap="butt" stroke-miterlimit="10" stroke-linejoin="miter" fill="none" stroke="#000000" d="M4.64856 0C4.0777 .13863 1.56834 .9242 0 1.7791V-1.7791C1.56834-.9242 4.0777-.13863 4.64856 0Z" />
<use data-text="L" ns3:href="#font_6_3" transform="matrix(7.9701,0,0,-7.9701,535.629,290.634)" />
<use data-text="=" ns3:href="#font_7_6" transform="matrix(7.9701,0,0,-7.9701,543.7426,290.634)" />
<use data-text="9" ns3:href="#font_7_5" transform="matrix(7.9701,0,0,-7.9701,552.6771,290.634)" />
<use data-text="." ns3:href="#font_6_1" transform="matrix(7.9701,0,0,-7.9701,556.90927,290.634)" />
<use data-text="3" ns3:href="#font_7_3" transform="matrix(7.9701,0,0,-7.9701,559.26046,290.634)" />
<use data-text="m" ns3:href="#font_7_7" transform="matrix(7.9701,0,0,-7.9701,564.90328,290.634)" />
<path transform="matrix(1,0,0,-1,384.708,156.1)" stroke-width=".3985" stroke-linecap="butt" stroke-miterlimit="10" stroke-linejoin="miter" fill="none" stroke="#000000" d="M-240.94788-5.4701V-51.22351" />
<path transform="matrix(0,-1,-1,-0,143.76013,161.5701)" d="M4.64856 0C4.0777 .13863 1.56834 .9242 0 1.7791V-1.7791C1.56834-.9242 4.0777-.13863 4.64856 0Z" />
<path transform="matrix(0,-1,-1,-0,143.76013,161.5701)" stroke-width=".3985" stroke-linecap="butt" stroke-miterlimit="10" stroke-linejoin="miter" fill="none" stroke="#000000" d="M4.64856 0C4.0777 .13863 1.56834 .9242 0 1.7791V-1.7791C1.56834-.9242 4.0777-.13863 4.64856 0Z" />
<path transform="matrix(0,1,1,0,143.76013,207.32352)" d="M4.64856 0C4.0777 .13863 1.56834 .9242 0 1.7791V-1.7791C1.56834-.9242 4.0777-.13863 4.64856 0Z" />
<path transform="matrix(0,1,1,0,143.76013,207.32352)" stroke-width=".3985" stroke-linecap="butt" stroke-miterlimit="10" stroke-linejoin="miter" fill="none" stroke="#000000" d="M4.64856 0C4.0777 .13863 1.56834 .9242 0 1.7791V-1.7791C1.56834-.9242 4.0777-.13863 4.64856 0Z" />
<use data-text="S" ns3:href="#font_6_4" transform="matrix(7.9701,0,0,-7.9701,104.06702,187.17002)" />
<use data-text="=" ns3:href="#font_7_6" transform="matrix(7.9701,0,0,-7.9701,112.01321,187.17002)" />
<use data-text="2" ns3:href="#font_7_2" transform="matrix(7.9701,0,0,-7.9701,120.94769,187.17002)" />
<use data-text="." ns3:href="#font_6_1" transform="matrix(7.9701,0,0,-7.9701,125.17982,187.17002)" />
<use data-text="0" ns3:href="#font_7_1" transform="matrix(7.9701,0,0,-7.9701,127.531,187.17002)" />
<use data-text="m" ns3:href="#font_7_7" transform="matrix(7.9701,0,0,-7.9701,133.17383,187.17002)" />
<path transform="matrix(1,0,0,-1,384.708,156.1)" stroke-width=".3985" stroke-linecap="butt" stroke-miterlimit="10" stroke-linejoin="miter" fill="none" stroke="#000000" d="M-354.3351 136.26395V5.4701" />
<path transform="matrix(0,-1,-1,-0,30.372895,19.83606)" d="M4.64856 0C4.0777 .13863 1.56834 .9242 0 1.7791V-1.7791C1.56834-.9242 4.0777-.13863 4.64856 0Z" />
<path transform="matrix(0,-1,-1,-0,30.372895,19.83606)" stroke-width=".3985" stroke-linecap="butt" stroke-miterlimit="10" stroke-linejoin="miter" fill="none" stroke="#000000" d="M4.64856 0C4.0777 .13863 1.56834 .9242 0 1.7791V-1.7791C1.56834-.9242 4.0777-.13863 4.64856 0Z" />
<path transform="matrix(0,1,1,0,30.372895,150.62992)" d="M4.64856 0C4.0777 .13863 1.56834 .9242 0 1.7791V-1.7791C1.56834-.9242 4.0777-.13863 4.64856 0Z" />
<path transform="matrix(0,1,1,0,30.372895,150.62992)" stroke-width=".3985" stroke-linecap="butt" stroke-miterlimit="10" stroke-linejoin="miter" fill="none" stroke="#000000" d="M4.64856 0C4.0777 .13863 1.56834 .9242 0 1.7791V-1.7791C1.56834-.9242 4.0777-.13863 4.64856 0Z" />
<use data-text="W" ns3:href="#font_8_7" transform="matrix(7.9701,0,0,-7.9701,5.313019,88.00101)" />
<use data-text="a" ns3:href="#font_8_8" transform="matrix(7.9701,0,0,-7.9701,13.075897,88.00101)" />
<use data-text="t" ns3:href="#font_8_22" transform="matrix(7.9701,0,0,-7.9701,17.140648,88.00101)" />
<use data-text="e" ns3:href="#font_8_11" transform="matrix(7.9701,0,0,-7.9701,20.201167,88.00101)" />
<use data-text="r" ns3:href="#font_8_20" transform="matrix(7.9701,0,0,-7.9701,23.971024,88.00101)" />
<use data-text="S" ns3:href="#font_8_6" transform="matrix(7.9701,0,0,-7.9701,614.999,158.86801)" />
<use data-text="c" ns3:href="#font_8_9" transform="matrix(7.9701,0,0,-7.9701,619.70138,158.86801)" />
<use data-text="o" ns3:href="#font_8_18" transform="matrix(7.9701,0,0,-7.9701,623.46328,158.86801)" />
<use data-text="u" ns3:href="#font_8_23" transform="matrix(7.9701,0,0,-7.9701,627.6954,158.86801)" />
<use data-text="r" ns3:href="#font_8_20" transform="matrix(7.9701,0,0,-7.9701,632.071,158.86801)" />
<use data-text="e" ns3:href="#font_8_11" transform="matrix(7.9701,0,0,-7.9701,634.9641,158.86801)" />
<use data-text="d" ns3:href="#font_8_10" transform="matrix(7.9701,0,0,-7.9701,638.726,158.86801)" />
<use data-text="m" ns3:href="#font_8_16" transform="matrix(7.9701,0,0,-7.9701,645.92306,158.86801)" />
<use data-text="u" ns3:href="#font_8_23" transform="matrix(7.9701,0,0,-7.9701,652.6498,158.86801)" />
<use data-text="d" ns3:href="#font_8_10" transform="matrix(7.9701,0,0,-7.9701,657.0254,158.86801)" />
<use data-text="l" ns3:href="#font_8_15" transform="matrix(7.9701,0,0,-7.9701,661.401,158.86801)" />
<use data-text="i" ns3:href="#font_8_13" transform="matrix(7.9701,0,0,-7.9701,663.4254,158.86801)" />
<use data-text="n" ns3:href="#font_8_17" transform="matrix(7.9701,0,0,-7.9701,665.4498,158.86801)" />
<use data-text="e" ns3:href="#font_8_11" transform="matrix(7.9701,0,0,-7.9701,669.82546,158.86801)" />
<use data-text="S" ns3:href="#font_8_6" transform="matrix(7.9701,0,0,-7.9701,734.054,175.10102)" />
<use data-text="o" ns3:href="#font_8_18" transform="matrix(7.9701,0,0,-7.9701,738.75637,175.10102)" />
<use data-text="i" ns3:href="#font_8_13" transform="matrix(7.9701,0,0,-7.9701,742.98849,175.10102)" />
<use data-text="l" ns3:href="#font_8_15" transform="matrix(7.9701,0,0,-7.9701,745.0129,175.10102)" />
<use data-text="(" ns3:href="#font_8_1" transform="matrix(7.9701,0,0,-7.9701,749.8587,175.10102)" />
<use data-text="G" ns3:href="#font_8_4" transform="matrix(7.9701,0,0,-7.9701,753.1503,175.10102)" />
<use data-text="u" ns3:href="#font_8_23" transform="matrix(7.9701,0,0,-7.9701,758.79318,175.10102)" />
<use data-text="n" ns3:href="#font_8_17" transform="matrix(7.9701,0,0,-7.9701,763.16879,175.10102)" />
<use data-text="s" ns3:href="#font_8_21" transform="matrix(7.9701,0,0,-7.9701,767.5444,175.10102)" />
<use data-text="a" ns3:href="#font_8_8" transform="matrix(7.9701,0,0,-7.9701,770.7882,175.10102)" />
<use data-text="n" ns3:href="#font_8_17" transform="matrix(7.9701,0,0,-7.9701,774.85299,175.10102)" />
<use data-text="c" ns3:href="#font_8_9" transform="matrix(7.9701,0,0,-7.9701,782.05,175.10102)" />
<use data-text="l" ns3:href="#font_8_15" transform="matrix(7.9701,0,0,-7.9701,785.8119,175.10102)" />
<use data-text="a" ns3:href="#font_8_8" transform="matrix(7.9701,0,0,-7.9701,787.8363,175.10102)" />
<use data-text="y" ns3:href="#font_8_25" transform="matrix(7.9701,0,0,-7.9701,791.6699,175.10102)" />
<use data-text=")" ns3:href="#font_8_2" transform="matrix(7.9701,0,0,-7.9701,795.57528,175.10102)" />
<use data-text="L" ns3:href="#font_8_5" transform="matrix(7.9701,0,0,-7.9701,379.208,149.746)" fill="#ffffff" />
<use data-text="i" ns3:href="#font_8_13" transform="matrix(7.9701,0,0,-7.9701,383.81474,149.746)" fill="#ffffff" />
<use data-text="d" ns3:href="#font_8_10" transform="matrix(7.9701,0,0,-7.9701,385.83915,149.746)" fill="#ffffff" />
<use data-text="S" ns3:href="#font_8_6" transform="matrix(7.9701,0,0,-7.9701,56.574007,10.848022)" />
<use data-text="e" ns3:href="#font_8_11" transform="matrix(7.9701,0,0,-7.9701,61.276365,10.848022)" />
<use data-text="a" ns3:href="#font_8_8" transform="matrix(7.9701,0,0,-7.9701,65.03825,10.848022)" />
<use data-text="s" ns3:href="#font_8_21" transform="matrix(7.9701,0,0,-7.9701,71.92442,10.848022)" />
<use data-text="u" ns3:href="#font_8_23" transform="matrix(7.9701,0,0,-7.9701,75.16824,10.848022)" />
<use data-text="r" ns3:href="#font_8_20" transform="matrix(7.9701,0,0,-7.9701,79.54384,10.848022)" />
<use data-text="f" ns3:href="#font_8_12" transform="matrix(7.9701,0,0,-7.9701,82.43698,10.848022)" />
<use data-text="a" ns3:href="#font_8_8" transform="matrix(7.9701,0,0,-7.9701,85.02727,10.848022)" />
<use data-text="c" ns3:href="#font_8_9" transform="matrix(7.9701,0,0,-7.9701,89.09201,10.848022)" />
<use data-text="e" ns3:href="#font_8_11" transform="matrix(7.9701,0,0,-7.9701,92.8539,10.848022)" />
<use data-text="B" ns3:href="#font_8_3" transform="matrix(7.9701,0,0,-7.9701,366.318,434.44599)" />
<use data-text="u" ns3:href="#font_8_23" transform="matrix(7.9701,0,0,-7.9701,371.96083,434.44599)" />
<use data-text="c" ns3:href="#font_8_9" transform="matrix(7.9701,0,0,-7.9701,376.3364,434.44599)" />
<use data-text="k" ns3:href="#font_8_14" transform="matrix(7.9701,0,0,-7.9701,380.0983,434.44599)" />
<use data-text="e" ns3:href="#font_8_11" transform="matrix(7.9701,0,0,-7.9701,384.00364,434.44599)" />
<use data-text="t" ns3:href="#font_8_22" transform="matrix(7.9701,0,0,-7.9701,387.76554,434.44599)" />
<use data-text="t" ns3:href="#font_8_22" transform="matrix(7.9701,0,0,-7.9701,393.64747,434.44599)" />
<use data-text="i" ns3:href="#font_8_13" transform="matrix(7.9701,0,0,-7.9701,396.70799,434.44599)" />
<use data-text="p" ns3:href="#font_8_19" transform="matrix(7.9701,0,0,-7.9701,398.7324,434.44599)" />
<use data-text="S" ns3:href="#font_8_6" transform="matrix(0,-7.9701,-7.9701,-0,506.52998,284.39103)" />
<use data-text="k" ns3:href="#font_8_14" transform="matrix(0,-7.9701,-7.9701,-0,506.52998,279.68867)" />
<use data-text="i" ns3:href="#font_8_13" transform="matrix(0,-7.9701,-7.9701,-0,506.52998,275.5522)" />
<use data-text="r" ns3:href="#font_8_20" transform="matrix(0,-7.9701,-7.9701,-0,506.52998,273.52778)" />
<use data-text="t" ns3:href="#font_8_22" transform="matrix(0,-7.9701,-7.9701,-0,506.52998,270.63465)" />
<use data-text="w" ns3:href="#font_8_24" transform="matrix(0,-7.9701,-7.9701,-0,506.52998,264.7527)" />
<use data-text="a" ns3:href="#font_8_8" transform="matrix(0,-7.9701,-7.9701,-0,506.52998,259.1975)" />
<use data-text="l" ns3:href="#font_8_15" transform="matrix(0,-7.9701,-7.9701,-0,506.52998,255.13275)" />
<use data-text="l" ns3:href="#font_8_15" transform="matrix(0,-7.9701,-7.9701,-0,506.52998,253.10834)" />
</svg>