<?xml version='1.0' encoding='utf-8'?>
<svg xmlns="http://www.w3.org/2000/svg" xmlns:dc="http://purl.org/dc/elements/1.1/" xmlns:ns3="http://www.w3.org/1999/xlink" xmlns:rdf="http://www.w3.org/1999/02/22-rdf-syntax-ns#" width="393.84pt" height="314.496pt" viewBox="0 0 393.84 314.496" version="1.1">
 <metadata><rdf:RDF><rdf:Description><dc:figure_id>j2-vh-envelope</dc:figure_id><dc:journal>ocean_engineering</dc:journal><dc:paper>J2</dc:paper><dc:claim_id>j2-vh-envelope</dc:claim_id><dc:tier>2</dc:tier><dc:git_hash>0496db3f-dirty</dc:git_hash><dc:generated_utc>2026-04-19T23:11:26Z</dc:generated_utc><dc:data_sources>vh-envelope.parquet:bd94b280; vh-envelope.schema.yml:7138c673; vh-envelope.provenance.json:e9ac7e3b; j2-vh-envelope.yml:19123cbc</dc:data_sources><dc:generator>figgen</dc:generator><dc:description>VH failure-envelope evolution under progressive scour. Eleven envelopes (S = 0 to 5 m in 0.5 m steps) overlaid on a single (V, H) plane. Intact and fully-scoured envelopes highlighted; intermediate scours dashed. Scour arrow visualises the envelope shrinkage direction.
</dc:description><dc:claim_measured>{"h_ult_intact": 20852.96998741501, "h_ult_max_scour": 11747.46145585956, "h_ult_shrinks_below_12500_at_max_scour": 11747.46145585956, "l_eff_positive_at_max_scour": 4.3, "row_inventory_per_scour": "{'0.0': 20, '0.5': 20, '1.0': 20, '1.5': 20, '2.0': 20, '2.5': 20, '3.0': 20, '3.5': 20, '4.0': 20, '4.5': 20, '5.0': 20}", "v_ult_intact": 116889.61834783778, "v_ult_max_scour": 102030.68450984787}</dc:claim_measured><dc:claim_id_measured>j2-vh-envelope</dc:claim_id_measured></rdf:Description></rdf:RDF></metadata><defs>
  <style type="text/css">*{stroke-linejoin: round; stroke-linecap: butt}</style>
 </defs>
 <g id="figure_1">
  <g id="patch_1">
   <path d="M 0 314.496  L 393.84 314.496  L 393.84 0  L 0 0  z " style="fill: #ffffff" />
  </g>
  <g id="axes_1">
   <g id="patch_2">
    <path d="M 28.78 286.541469  L 391.68 286.541469  L 391.68 2.16  L 28.78 2.16  z " style="fill: #ffffff" />
   </g>
   <g id="matplotlib.axis_1">
    <g id="xtick_1">
     <g id="line2d_1">
      <path d="M 31.361367 286.541469  L 31.361367 2.16  " clip-path="url(#p3016b3ba81)" style="fill: none; stroke: #cccccc; stroke-opacity: 0.5; stroke-width: 0.5; stroke-linecap: square" />
     </g>
     <g id="line2d_2">
      <defs>
       <path id="m47ae2a551d" d="M 0 0  L 0 -3.5  " style="stroke: #262626; stroke-width: 0.8" />
      </defs>
      <g>
       <use ns3:href="#m47ae2a551d" x="31.361367" y="286.541469" style="fill: #262626; stroke: #262626; stroke-width: 0.8" />
      </g>
     </g>
     <g id="line2d_3">
      <defs>
       <path id="md3c9c24f16" d="M 0 0  L 0 3.5  " style="stroke: #262626; stroke-width: 0.8" />
      </defs>
      <g>
       <use ns3:href="#md3c9c24f16" x="31.361367" y="2.16" style="fill: #262626; stroke: #262626; stroke-width: 0.8" />
      </g>
     </g>
     <g id="text_1">
      
      <g style="fill: #262626" transform="translate(24.296367 296.290844)">
       <text>
        <tspan x="0" y="-0.921875" style="font-size: 9px; font-family: 'Times New Roman'; fill: #262626">−</tspan>
        <tspan x="5.075684" y="-0.921875" style="font-size: 9px; font-family: 'Times New Roman'; fill: #262626">4</tspan>
        <tspan x="9.575684" y="-0.921875" style="font-size: 9px; font-family: 'Times New Roman'; fill: #262626">0</tspan>
       </text>
      </g>
     </g>
    </g>
    <g id="xtick_2">
     <g id="line2d_4">
      <path d="M 75.191313 286.541469  L 75.191313 2.16  " clip-path="url(#p3016b3ba81)" style="fill: none; stroke: #cccccc; stroke-opacity: 0.5; stroke-width: 0.5; stroke-linecap: square" />
     </g>
     <g id="line2d_5">
      <g>
       <use ns3:href="#m47ae2a551d" x="75.191313" y="286.541469" style="fill: #262626; stroke: #262626; stroke-width: 0.8" />
      </g>
     </g>
     <g id="line2d_6">
      <g>
       <use ns3:href="#md3c9c24f16" x="75.191313" y="2.16" style="fill: #262626; stroke: #262626; stroke-width: 0.8" />
      </g>
     </g>
     <g id="text_2">
      
      <g style="fill: #262626" transform="translate(68.126313 296.290844)">
       <text>
        <tspan x="0" y="-0.921875" style="font-size: 9px; font-family: 'Times New Roman'; fill: #262626">−</tspan>
        <tspan x="5.075684" y="-0.921875" style="font-size: 9px; font-family: 'Times New Roman'; fill: #262626">2</tspan>
        <tspan x="9.575684" y="-0.921875" style="font-size: 9px; font-family: 'Times New Roman'; fill: #262626">0</tspan>
       </text>
      </g>
     </g>
    </g>
    <g id="xtick_3">
     <g id="line2d_7">
      <path d="M 119.02126 286.541469  L 119.02126 2.16  " clip-path="url(#p3016b3ba81)" style="fill: none; stroke: #cccccc; stroke-opacity: 0.5; stroke-width: 0.5; stroke-linecap: square" />
     </g>
     <g id="line2d_8">
      <g>
       <use ns3:href="#m47ae2a551d" x="119.02126" y="286.541469" style="fill: #262626; stroke: #262626; stroke-width: 0.8" />
      </g>
     </g>
     <g id="line2d_9">
      <g>
       <use ns3:href="#md3c9c24f16" x="119.02126" y="2.16" style="fill: #262626; stroke: #262626; stroke-width: 0.8" />
      </g>
     </g>
     <g id="text_3">
      
      <g style="fill: #262626" transform="translate(116.77126 296.290844)">
       <text>
        <tspan x="0" y="-0.921875" style="font-size: 9px; font-family: 'Times New Roman'; fill: #262626">0</tspan>
       </text>
      </g>
     </g>
    </g>
    <g id="xtick_4">
     <g id="line2d_10">
      <path d="M 162.851206 286.541469  L 162.851206 2.16  " clip-path="url(#p3016b3ba81)" style="fill: none; stroke: #cccccc; stroke-opacity: 0.5; stroke-width: 0.5; stroke-linecap: square" />
     </g>
     <g id="line2d_11">
      <g>
       <use ns3:href="#m47ae2a551d" x="162.851206" y="286.541469" style="fill: #262626; stroke: #262626; stroke-width: 0.8" />
      </g>
     </g>
     <g id="line2d_12">
      <g>
       <use ns3:href="#md3c9c24f16" x="162.851206" y="2.16" style="fill: #262626; stroke: #262626; stroke-width: 0.8" />
      </g>
     </g>
     <g id="text_4">
      
      <g style="fill: #262626" transform="translate(158.351206 296.290844)">
       <text>
        <tspan x="0" y="-0.921875" style="font-size: 9px; font-family: 'Times New Roman'; fill: #262626">2</tspan>
        <tspan x="4.5" y="-0.921875" style="font-size: 9px; font-family: 'Times New Roman'; fill: #262626">0</tspan>
       </text>
      </g>
     </g>
    </g>
    <g id="xtick_5">
     <g id="line2d_13">
      <path d="M 206.681153 286.541469  L 206.681153 2.16  " clip-path="url(#p3016b3ba81)" style="fill: none; stroke: #cccccc; stroke-opacity: 0.5; stroke-width: 0.5; stroke-linecap: square" />
     </g>
     <g id="line2d_14">
      <g>
       <use ns3:href="#m47ae2a551d" x="206.681153" y="286.541469" style="fill: #262626; stroke: #262626; stroke-width: 0.8" />
      </g>
     </g>
     <g id="line2d_15">
      <g>
       <use ns3:href="#md3c9c24f16" x="206.681153" y="2.16" style="fill: #262626; stroke: #262626; stroke-width: 0.8" />
      </g>
     </g>
     <g id="text_5">
      
      <g style="fill: #262626" transform="translate(202.181153 296.290844)">
       <text>
        <tspan x="0" y="-0.921875" style="font-size: 9px; font-family: 'Times New Roman'; fill: #262626">4</tspan>
        <tspan x="4.5" y="-0.921875" style="font-size: 9px; font-family: 'Times New Roman'; fill: #262626">0</tspan>
       </text>
      </g>
     </g>
    </g>
    <g id="xtick_6">
     <g id="line2d_16">
      <path d="M 250.511099 286.541469  L 250.511099 2.16  " clip-path="url(#p3016b3ba81)" style="fill: none; stroke: #cccccc; stroke-opacity: 0.5; stroke-width: 0.5; stroke-linecap: square" />
     </g>
     <g id="line2d_17">
      <g>
       <use ns3:href="#m47ae2a551d" x="250.511099" y="286.541469" style="fill: #262626; stroke: #262626; stroke-width: 0.8" />
      </g>
     </g>
     <g id="line2d_18">
      <g>
       <use ns3:href="#md3c9c24f16" x="250.511099" y="2.16" style="fill: #262626; stroke: #262626; stroke-width: 0.8" />
      </g>
     </g>
     <g id="text_6">
      
      <g style="fill: #262626" transform="translate(246.011099 296.290844)">
       <text>
        <tspan x="0" y="-0.921875" style="font-size: 9px; font-family: 'Times New Roman'; fill: #262626">6</tspan>
        <tspan x="4.5" y="-0.921875" style="font-size: 9px; font-family: 'Times New Roman'; fill: #262626">0</tspan>
       </text>
      </g>
     </g>
    </g>
    <g id="xtick_7">
     <g id="line2d_19">
      <path d="M 294.341046 286.541469  L 294.341046 2.16  " clip-path="url(#p3016b3ba81)" style="fill: none; stroke: #cccccc; stroke-opacity: 0.5; stroke-width: 0.5; stroke-linecap: square" />
     </g>
     <g id="line2d_20">
      <g>
       <use ns3:href="#m47ae2a551d" x="294.341046" y="286.541469" style="fill: #262626; stroke: #262626; stroke-width: 0.8" />
      </g>
     </g>
     <g id="line2d_21">
      <g>
       <use ns3:href="#md3c9c24f16" x="294.341046" y="2.16" style="fill: #262626; stroke: #262626; stroke-width: 0.8" />
      </g>
     </g>
     <g id="text_7">
      
      <g style="fill: #262626" transform="translate(289.841046 296.290844)">
       <text>
        <tspan x="0" y="-0.921875" style="font-size: 9px; font-family: 'Times New Roman'; fill: #262626">8</tspan>
        <tspan x="4.5" y="-0.921875" style="font-size: 9px; font-family: 'Times New Roman'; fill: #262626">0</tspan>
       </text>
      </g>
     </g>
    </g>
    <g id="xtick_8">
     <g id="line2d_22">
      <path d="M 338.170992 286.541469  L 338.170992 2.16  " clip-path="url(#p3016b3ba81)" style="fill: none; stroke: #cccccc; stroke-opacity: 0.5; stroke-width: 0.5; stroke-linecap: square" />
     </g>
     <g id="line2d_23">
      <g>
       <use ns3:href="#m47ae2a551d" x="338.170992" y="286.541469" style="fill: #262626; stroke: #262626; stroke-width: 0.8" />
      </g>
     </g>
     <g id="line2d_24">
      <g>
       <use ns3:href="#md3c9c24f16" x="338.170992" y="2.16" style="fill: #262626; stroke: #262626; stroke-width: 0.8" />
      </g>
     </g>
     <g id="text_8">
      
      <g style="fill: #262626" transform="translate(331.420992 296.290844)">
       <text>
        <tspan x="0" y="-0.921875" style="font-size: 9px; font-family: 'Times New Roman'; fill: #262626">1</tspan>
        <tspan x="4.5" y="-0.921875" style="font-size: 9px; font-family: 'Times New Roman'; fill: #262626">0</tspan>
        <tspan x="9" y="-0.921875" style="font-size: 9px; font-family: 'Times New Roman'; fill: #262626">0</tspan>
       </text>
      </g>
     </g>
    </g>
    <g id="xtick_9">
     <g id="line2d_25">
      <path d="M 382.000939 286.541469  L 382.000939 2.16  " clip-path="url(#p3016b3ba81)" style="fill: none; stroke: #cccccc; stroke-opacity: 0.5; stroke-width: 0.5; stroke-linecap: square" />
     </g>
     <g id="line2d_26">
      <g>
       <use ns3:href="#m47ae2a551d" x="382.000939" y="286.541469" style="fill: #262626; stroke: #262626; stroke-width: 0.8" />
      </g>
     </g>
     <g id="line2d_27">
      <g>
       <use ns3:href="#md3c9c24f16" x="382.000939" y="2.16" style="fill: #262626; stroke: #262626; stroke-width: 0.8" />
      </g>
     </g>
     <g id="text_9">
      
      <g style="fill: #262626" transform="translate(375.250939 296.290844)">
       <text>
        <tspan x="0" y="-0.921875" style="font-size: 9px; font-family: 'Times New Roman'; fill: #262626">1</tspan>
        <tspan x="4.5" y="-0.921875" style="font-size: 9px; font-family: 'Times New Roman'; fill: #262626">2</tspan>
        <tspan x="9" y="-0.921875" style="font-size: 9px; font-family: 'Times New Roman'; fill: #262626">0</tspan>
       </text>
      </g>
     </g>
    </g>
    <g id="text_10">
     
     <g style="fill: #1a1a1a" transform="translate(152.92 309.916)">
      <text>
       <tspan x="0" y="-0.359375" style="font-size: 11px; font-family: 'Times New Roman'; fill: #1a1a1a">V</tspan>
       <tspan x="7.943848" y="-0.359375" style="font-size: 11px; font-family: 'Times New Roman'; fill: #1a1a1a">e</tspan>
       <tspan x="12.826172" y="-0.359375" style="font-size: 11px; font-family: 'Times New Roman'; fill: #1a1a1a">r</tspan>
       <tspan x="16.489258" y="-0.359375" style="font-size: 11px; font-family: 'Times New Roman'; fill: #1a1a1a">t</tspan>
       <tspan x="19.54541" y="-0.359375" style="font-size: 11px; font-family: 'Times New Roman'; fill: #1a1a1a">i</tspan>
       <tspan x="22.601562" y="-0.359375" style="font-size: 11px; font-family: 'Times New Roman'; fill: #1a1a1a">c</tspan>
       <tspan x="27.483887" y="-0.359375" style="font-size: 11px; font-family: 'Times New Roman'; fill: #1a1a1a">a</tspan>
       <tspan x="32.366211" y="-0.359375" style="font-size: 11px; font-family: 'Times New Roman'; fill: #1a1a1a">l</tspan>
       <tspan x="35.422363" y="-0.359375" style="font-size: 11px; font-family: 'Times New Roman'; fill: #1a1a1a"> </tspan>
       <tspan x="38.172363" y="-0.359375" style="font-size: 11px; font-family: 'Times New Roman'; fill: #1a1a1a">c</tspan>
       <tspan x="43.054688" y="-0.359375" style="font-size: 11px; font-family: 'Times New Roman'; fill: #1a1a1a">a</tspan>
       <tspan x="47.937012" y="-0.359375" style="font-size: 11px; font-family: 'Times New Roman'; fill: #1a1a1a">p</tspan>
       <tspan x="53.437012" y="-0.359375" style="font-size: 11px; font-family: 'Times New Roman'; fill: #1a1a1a">a</tspan>
       <tspan x="58.319336" y="-0.359375" style="font-size: 11px; font-family: 'Times New Roman'; fill: #1a1a1a">c</tspan>
       <tspan x="63.20166" y="-0.359375" style="font-size: 11px; font-family: 'Times New Roman'; fill: #1a1a1a">i</tspan>
       <tspan x="66.257812" y="-0.359375" style="font-size: 11px; font-family: 'Times New Roman'; fill: #1a1a1a">t</tspan>
       <tspan x="69.313965" y="-0.359375" style="font-size: 11px; font-family: 'Times New Roman'; fill: #1a1a1a">y</tspan>
       <tspan x="74.813965" y="-0.359375" style="font-size: 11px; font-family: 'Times New Roman'; fill: #1a1a1a">,</tspan>
       <tspan x="77.563965" y="-0.359375" style="font-size: 11px; font-family: 'Times New Roman'; fill: #1a1a1a"> </tspan>
       <tspan x="86.727051" y="-0.359375" style="font-size: 11px; font-family: 'Times New Roman'; fill: #1a1a1a"> </tspan>
       <tspan x="89.477051" y="-0.359375" style="font-size: 11px; font-family: 'Times New Roman'; fill: #1a1a1a">[</tspan>
       <tspan x="93.140137" y="-0.359375" style="font-size: 11px; font-family: 'Times New Roman'; fill: #1a1a1a">M</tspan>
       <tspan x="102.920898" y="-0.359375" style="font-size: 11px; font-family: 'Times New Roman'; fill: #1a1a1a">N</tspan>
       <tspan x="110.864746" y="-0.359375" style="font-size: 11px; font-family: 'Times New Roman'; fill: #1a1a1a">]</tspan>
       <tspan x="80.313965" y="-0.359375" style="font-size: 11px; font-family: 'cmmi10'; fill: #1a1a1a">V</tspan>
      </text>
     </g>
    </g>
   </g>
   <g id="matplotlib.axis_2">
    <g id="ytick_1">
     <g id="line2d_28">
      <path d="M 28.78 273.615038  L 391.68 273.615038  " clip-path="url(#p3016b3ba81)" style="fill: none; stroke: #cccccc; stroke-opacity: 0.5; stroke-width: 0.5; stroke-linecap: square" />
     </g>
     <g id="line2d_29">
      <defs>
       <path id="m5699b19dfd" d="M 0 0  L 3.5 0  " style="stroke: #262626; stroke-width: 0.8" />
      </defs>
      <g>
       <use ns3:href="#m5699b19dfd" x="28.78" y="273.615038" style="fill: #262626; stroke: #262626; stroke-width: 0.8" />
      </g>
     </g>
     <g id="line2d_30">
      <defs>
       <path id="mcca42dc8f7" d="M 0 0  L -3.5 0  " style="stroke: #262626; stroke-width: 0.8" />
      </defs>
      <g>
       <use ns3:href="#mcca42dc8f7" x="391.68" y="273.615038" style="fill: #262626; stroke: #262626; stroke-width: 0.8" />
      </g>
     </g>
     <g id="text_11">
      
      <g style="fill: #262626" transform="translate(20.78 276.739726)">
       <text>
        <tspan x="0" y="-0.921875" style="font-size: 9px; font-family: 'Times New Roman'; fill: #262626">0</tspan>
       </text>
      </g>
     </g>
    </g>
    <g id="ytick_2">
     <g id="line2d_31">
      <path d="M 28.78 211.6266  L 391.68 211.6266  " clip-path="url(#p3016b3ba81)" style="fill: none; stroke: #cccccc; stroke-opacity: 0.5; stroke-width: 0.5; stroke-linecap: square" />
     </g>
     <g id="line2d_32">
      <g>
       <use ns3:href="#m5699b19dfd" x="28.78" y="211.6266" style="fill: #262626; stroke: #262626; stroke-width: 0.8" />
      </g>
     </g>
     <g id="line2d_33">
      <g>
       <use ns3:href="#mcca42dc8f7" x="391.68" y="211.6266" style="fill: #262626; stroke: #262626; stroke-width: 0.8" />
      </g>
     </g>
     <g id="text_12">
      
      <g style="fill: #262626" transform="translate(20.78 214.751288)">
       <text>
        <tspan x="0" y="-0.046875" style="font-size: 9px; font-family: 'Times New Roman'; fill: #262626">5</tspan>
       </text>
      </g>
     </g>
    </g>
    <g id="ytick_3">
     <g id="line2d_34">
      <path d="M 28.78 149.638162  L 391.68 149.638162  " clip-path="url(#p3016b3ba81)" style="fill: none; stroke: #cccccc; stroke-opacity: 0.5; stroke-width: 0.5; stroke-linecap: square" />
     </g>
     <g id="line2d_35">
      <g>
       <use ns3:href="#m5699b19dfd" x="28.78" y="149.638162" style="fill: #262626; stroke: #262626; stroke-width: 0.8" />
      </g>
     </g>
     <g id="line2d_36">
      <g>
       <use ns3:href="#mcca42dc8f7" x="391.68" y="149.638162" style="fill: #262626; stroke: #262626; stroke-width: 0.8" />
      </g>
     </g>
     <g id="text_13">
      
      <g style="fill: #262626" transform="translate(16.28 152.76285)">
       <text>
        <tspan x="0" y="-0.921875" style="font-size: 9px; font-family: 'Times New Roman'; fill: #262626">1</tspan>
        <tspan x="4.5" y="-0.921875" style="font-size: 9px; font-family: 'Times New Roman'; fill: #262626">0</tspan>
       </text>
      </g>
     </g>
    </g>
    <g id="ytick_4">
     <g id="line2d_37">
      <path d="M 28.78 87.649724  L 391.68 87.649724  " clip-path="url(#p3016b3ba81)" style="fill: none; stroke: #cccccc; stroke-opacity: 0.5; stroke-width: 0.5; stroke-linecap: square" />
     </g>
     <g id="line2d_38">
      <g>
       <use ns3:href="#m5699b19dfd" x="28.78" y="87.649724" style="fill: #262626; stroke: #262626; stroke-width: 0.8" />
      </g>
     </g>
     <g id="line2d_39">
      <g>
       <use ns3:href="#mcca42dc8f7" x="391.68" y="87.649724" style="fill: #262626; stroke: #262626; stroke-width: 0.8" />
      </g>
     </g>
     <g id="text_14">
      
      <g style="fill: #262626" transform="translate(16.28 90.774411)">
       <text>
        <tspan x="0" y="-0.921875" style="font-size: 9px; font-family: 'Times New Roman'; fill: #262626">1</tspan>
        <tspan x="4.5" y="-0.921875" style="font-size: 9px; font-family: 'Times New Roman'; fill: #262626">5</tspan>
       </text>
      </g>
     </g>
    </g>
    <g id="ytick_5">
     <g id="line2d_40">
      <path d="M 28.78 25.661286  L 391.68 25.661286  " clip-path="url(#p3016b3ba81)" style="fill: none; stroke: #cccccc; stroke-opacity: 0.5; stroke-width: 0.5; stroke-linecap: square" />
     </g>
     <g id="line2d_41">
      <g>
       <use ns3:href="#m5699b19dfd" x="28.78" y="25.661286" style="fill: #262626; stroke: #262626; stroke-width: 0.8" />
      </g>
     </g>
     <g id="line2d_42">
      <g>
       <use ns3:href="#mcca42dc8f7" x="391.68" y="25.661286" style="fill: #262626; stroke: #262626; stroke-width: 0.8" />
      </g>
     </g>
     <g id="text_15">
      
      <g style="fill: #262626" transform="translate(16.28 28.785973)">
       <text>
        <tspan x="0" y="-0.921875" style="font-size: 9px; font-family: 'Times New Roman'; fill: #262626">2</tspan>
        <tspan x="4.5" y="-0.921875" style="font-size: 9px; font-family: 'Times New Roman'; fill: #262626">0</tspan>
       </text>
      </g>
     </g>
    </g>
    <g id="text_16">
     
     <g style="fill: #1a1a1a" transform="translate(9.86 208.810734) rotate(-90)">
      <text>
       <tspan x="0" y="-0.359375" style="font-size: 11px; font-family: 'Times New Roman'; fill: #1a1a1a">H</tspan>
       <tspan x="7.943848" y="-0.359375" style="font-size: 11px; font-family: 'Times New Roman'; fill: #1a1a1a">o</tspan>
       <tspan x="13.443848" y="-0.359375" style="font-size: 11px; font-family: 'Times New Roman'; fill: #1a1a1a">r</tspan>
       <tspan x="17.106934" y="-0.359375" style="font-size: 11px; font-family: 'Times New Roman'; fill: #1a1a1a">i</tspan>
       <tspan x="20.163086" y="-0.359375" style="font-size: 11px; font-family: 'Times New Roman'; fill: #1a1a1a">z</tspan>
       <tspan x="25.04541" y="-0.359375" style="font-size: 11px; font-family: 'Times New Roman'; fill: #1a1a1a">o</tspan>
       <tspan x="30.54541" y="-0.359375" style="font-size: 11px; font-family: 'Times New Roman'; fill: #1a1a1a">n</tspan>
       <tspan x="36.04541" y="-0.359375" style="font-size: 11px; font-family: 'Times New Roman'; fill: #1a1a1a">t</tspan>
       <tspan x="39.101562" y="-0.359375" style="font-size: 11px; font-family: 'Times New Roman'; fill: #1a1a1a">a</tspan>
       <tspan x="43.983887" y="-0.359375" style="font-size: 11px; font-family: 'Times New Roman'; fill: #1a1a1a">l</tspan>
       <tspan x="47.040039" y="-0.359375" style="font-size: 11px; font-family: 'Times New Roman'; fill: #1a1a1a"> </tspan>
       <tspan x="49.790039" y="-0.359375" style="font-size: 11px; font-family: 'Times New Roman'; fill: #1a1a1a">c</tspan>
       <tspan x="54.672363" y="-0.359375" style="font-size: 11px; font-family: 'Times New Roman'; fill: #1a1a1a">a</tspan>
       <tspan x="59.554688" y="-0.359375" style="font-size: 11px; font-family: 'Times New Roman'; fill: #1a1a1a">p</tspan>
       <tspan x="65.054688" y="-0.359375" style="font-size: 11px; font-family: 'Times New Roman'; fill: #1a1a1a">a</tspan>
       <tspan x="69.937012" y="-0.359375" style="font-size: 11px; font-family: 'Times New Roman'; fill: #1a1a1a">c</tspan>
       <tspan x="74.819336" y="-0.359375" style="font-size: 11px; font-family: 'Times New Roman'; fill: #1a1a1a">i</tspan>
       <tspan x="77.875488" y="-0.359375" style="font-size: 11px; font-family: 'Times New Roman'; fill: #1a1a1a">t</tspan>
       <tspan x="80.931641" y="-0.359375" style="font-size: 11px; font-family: 'Times New Roman'; fill: #1a1a1a">y</tspan>
       <tspan x="86.431641" y="-0.359375" style="font-size: 11px; font-family: 'Times New Roman'; fill: #1a1a1a">,</tspan>
       <tspan x="89.181641" y="-0.359375" style="font-size: 11px; font-family: 'Times New Roman'; fill: #1a1a1a"> </tspan>
       <tspan x="101.073242" y="-0.359375" style="font-size: 11px; font-family: 'Times New Roman'; fill: #1a1a1a"> </tspan>
       <tspan x="103.823242" y="-0.359375" style="font-size: 11px; font-family: 'Times New Roman'; fill: #1a1a1a">[</tspan>
       <tspan x="107.486328" y="-0.359375" style="font-size: 11px; font-family: 'Times New Roman'; fill: #1a1a1a">M</tspan>
       <tspan x="117.26709" y="-0.359375" style="font-size: 11px; font-family: 'Times New Roman'; fill: #1a1a1a">N</tspan>
       <tspan x="125.210938" y="-0.359375" style="font-size: 11px; font-family: 'Times New Roman'; fill: #1a1a1a">]</tspan>
       <tspan x="91.931641" y="-0.359375" style="font-size: 11px; font-family: 'cmmi10'; fill: #1a1a1a">H</tspan>
      </text>
     </g>
    </g>
   </g>
   <g id="line2d_43">
    <path d="M 374.392268 273.615038  L 367.166188 177.856681  L 343.340147 106.487492  L 317.162244 61.900889  L 293.660433 35.93195  L 272.656382 25.224238  L 254.906171 22.856403  L 240.239681 22.245821  L 227.486291 22.14779  L 215.759124 22.020263  L 204.341775 21.955549  L 192.588547 21.750746  L 179.833468 22.002533  L 165.073718 22.171698  L 146.805468 22.682942  L 123.160925 26.604748  L 94.700907 45.615378  L 68.637319 96.299892  L 49.176723 175.56537  L 45.709981 273.615038  " clip-path="url(#p3016b3ba81)" style="fill: none; stroke-dasharray: 1.8,1.2; stroke-dashoffset: 0; stroke: #114460; stroke-width: 0.6" />
   </g>
   <g id="line2d_44">
    <path d="M 372.395178 273.615038  L 365.093274 180.06104  L 340.389752 111.665328  L 314.618952 68.506259  L 291.492226 43.394851  L 270.752819 33.374839  L 253.306471 31.201838  L 238.920287 30.572968  L 226.398364 30.566222  L 214.892548 30.501783  L 203.695895 30.489843  L 192.180776 30.430115  L 179.664659 30.542021  L 165.183951 30.660434  L 147.247103 31.073246  L 124.001306 34.725839  L 95.818396 52.632306  L 69.803226 101.293586  L 50.138285 178.045136  L 46.189982 273.615038  " clip-path="url(#p3016b3ba81)" style="fill: none; stroke-dasharray: 1.8,1.2; stroke-dashoffset: 0; stroke: #195762; stroke-width: 0.6" />
   </g>
   <g id="line2d_45">
    <path d="M 370.254215 273.615038  L 361.988201 183.20393  L 337.400035 117.426606  L 312.075796 75.80609  L 289.121665 52.220703  L 268.687692 43.020859  L 251.59951 41.079101  L 237.529067 40.558566  L 225.306254 40.39864  L 214.058381 40.310596  L 203.109907 40.256326  L 191.858211 40.327572  L 179.626791 40.44823  L 165.469133 40.533543  L 147.923147 40.877239  L 125.177109 44.328966  L 97.256864 60.826924  L 71.20337 107.040147  L 51.355843 180.949293  L 46.910566 273.615038  " clip-path="url(#p3016b3ba81)" style="fill: none; stroke-dasharray: 1.8,1.2; stroke-dashoffset: 0; stroke: #2d675d; stroke-width: 0.6" />
   </g>
   <g id="line2d_46">
    <path d="M 367.567575 273.615038  L 358.686674 186.408744  L 333.704988 123.889811  L 308.695291 84.435181  L 286.256377 61.978563  L 266.154406 53.819855  L 249.519703 52.041163  L 235.828051 51.626198  L 223.953212 51.396457  L 213.017036 51.291559  L 202.372989 51.345134  L 191.426649 51.275061  L 179.541839 51.477448  L 165.757805 51.451887  L 148.692416 51.782367  L 126.513748 54.924328  L 98.890933 69.820668  L 72.829929 113.369737  L 52.785223 184.146552  L 47.823912 273.615038  " clip-path="url(#p3016b3ba81)" style="fill: none; stroke-dasharray: 1.8,1.2; stroke-dashoffset: 0; stroke: #4a724e; stroke-width: 0.6" />
   </g>
   <g id="line2d_47">
    <path d="M 361.25705 273.615038  L 349.814132 194.526531  L 325.089475 138.822843  L 301.355555 103.373164  L 279.736413 84.1087  L 260.595837 77.509732  L 244.915653 76.229826  L 232.071305 75.924015  L 220.941254 75.733238  L 210.691378 75.691869  L 200.718428 75.709092  L 190.47042 75.763127  L 179.320674 75.793601  L 166.419553 75.856473  L 150.429896 76.139132  L 129.40115 78.293322  L 102.627633 90.155851  L 76.518558 127.756574  L 56.206253 191.569008  L 50.211213 273.615038  " clip-path="url(#p3016b3ba81)" style="fill: none; stroke-dasharray: 1.8,1.2; stroke-dashoffset: 0; stroke: #8f862d; stroke-width: 0.6" />
   </g>
   <g id="line2d_48">
    <path d="M 357.452945 273.615038  L 344.66416 199.058909  L 320.274497 146.934682  L 297.122727 113.875927  L 276.078987 96.109068  L 257.495244 90.257283  L 242.368963 89.096133  L 229.984271 88.82789  L 219.253838 88.672393  L 209.374214 88.658901  L 199.765183 88.741458  L 189.882132 88.65625  L 179.148115 88.792507  L 166.701417 88.769703  L 151.270175 88.969113  L 130.954088 90.885993  L 104.71821 101.283216  L 78.519755 135.610667  L 58.193706 195.717142  L 51.680079 273.615038  " clip-path="url(#p3016b3ba81)" style="fill: none; stroke-dasharray: 1.8,1.2; stroke-dashoffset: 0; stroke: #b98f32; stroke-width: 0.6" />
   </g>
   <g id="line2d_49">
    <path d="M 352.895123 273.615038  L 339.043596 203.709625  L 315.251261 154.975141  L 292.60976 124.35986  L 272.00569 108.381164  L 254.041404 103.152265  L 239.479573 102.126871  L 227.574248 101.848922  L 217.245868 101.802128  L 207.748468 101.817329  L 198.512303 101.852854  L 189.02586 101.947102  L 178.677091 101.789353  L 166.742431 101.948484  L 151.880656 102.021383  L 132.286505 103.660817  L 106.728814 112.815012  L 80.537088 143.894881  L 60.350269 200.178213  L 53.355347 273.615038  " clip-path="url(#p3016b3ba81)" style="fill: none; stroke-dasharray: 1.8,1.2; stroke-dashoffset: 0; stroke: #dd954d; stroke-width: 0.6" />
   </g>
   <g id="line2d_50">
    <path d="M 347.95532 273.615038  L 333.068892 208.459702  L 309.641149 163.462342  L 287.673063 135.286375  L 267.802317 120.607459  L 250.450719 116.057123  L 236.462358 115.210722  L 225.043099 115.010298  L 215.151238 114.918896  L 206.04821 114.950342  L 197.196988 114.982275  L 188.100743 115.008915  L 178.203242 115.024068  L 166.74863 115.059236  L 152.519348 115.172218  L 133.672082 116.515455  L 108.788903 124.383617  L 82.614953 152.257086  L 62.607944 204.708668  L 55.203223 273.615038  " clip-path="url(#p3016b3ba81)" style="fill: none; stroke-dasharray: 1.8,1.2; stroke-dashoffset: 0; stroke: #f7a179; stroke-width: 0.6" />
   </g>
   <g id="line2d_51">
    <path d="M 28.78 273.615038  L 391.68 273.615038  " clip-path="url(#p3016b3ba81)" style="fill: none; stroke: #4c4c4c; stroke-width: 0.4; stroke-linecap: square" />
   </g>
   <g id="line2d_52">
    <path d="M 119.02126 286.541469  L 119.02126 2.16  " clip-path="url(#p3016b3ba81)" style="fill: none; stroke: #4c4c4c; stroke-width: 0.4; stroke-linecap: square" />
   </g>
   <g id="patch_3">
    <path d="M 28.78 286.541469  L 28.78 2.16  " style="fill: none; stroke: #262626; stroke-linejoin: miter; stroke-linecap: square" />
   </g>
   <g id="patch_4">
    <path d="M 28.78 286.541469  L 391.68 286.541469  " style="fill: none; stroke: #262626; stroke-linejoin: miter; stroke-linecap: square" />
   </g>
   <g id="line2d_53">
    <path d="M 375.184545 273.615038  L 369.010513 175.501471  L 345.122226 102.135245  L 318.708203 56.230242  L 294.926284 29.509345  L 273.688305 18.356169  L 255.665616 16.098477  L 240.806306 15.500246  L 227.908609 15.122444  L 216.016444 15.08643  L 204.449905 15.248872  L 192.565323 15.28649  L 179.624528 15.231113  L 164.663212 15.339628  L 146.178187 15.957836  L 122.278086 20.118226  L 93.716587 40.122451  L 67.662393 92.37448  L 48.483534 173.667058  L 45.275455 273.615038  " clip-path="url(#p3016b3ba81)" style="fill: none; stroke: #0b2b5c; stroke-width: 1.6; stroke-linecap: square" />
    <defs>
     <path id="m0d148d51bf" d="M 0 1.1  C 0.291723 1.1 0.571538 0.984097 0.777817 0.777817  C 0.984097 0.571538 1.1 0.291723 1.1 0  C 1.1 -0.291723 0.984097 -0.571538 0.777817 -0.777817  C 0.571538 -0.984097 0.291723 -1.1 0 -1.1  C -0.291723 -1.1 -0.571538 -0.984097 -0.777817 -0.777817  C -0.984097 -0.571538 -1.1 -0.291723 -1.1 0  C -1.1 0.291723 -0.984097 0.571538 -0.777817 0.777817  C -0.571538 0.984097 -0.291723 1.1 0 1.1  z " style="stroke: #000000; stroke-opacity: 0; stroke-width: 0.9" />
    </defs>
    <g clip-path="url(#p3016b3ba81)">
     <use ns3:href="#m0d148d51bf" x="375.184545" y="273.615038" style="fill: #0b2b5c; stroke: #000000; stroke-opacity: 0; stroke-width: 0.9" />
     <use ns3:href="#m0d148d51bf" x="369.010513" y="175.501471" style="fill: #0b2b5c; stroke: #000000; stroke-opacity: 0; stroke-width: 0.9" />
     <use ns3:href="#m0d148d51bf" x="345.122226" y="102.135245" style="fill: #0b2b5c; stroke: #000000; stroke-opacity: 0; stroke-width: 0.9" />
     <use ns3:href="#m0d148d51bf" x="318.708203" y="56.230242" style="fill: #0b2b5c; stroke: #000000; stroke-opacity: 0; stroke-width: 0.9" />
     <use ns3:href="#m0d148d51bf" x="294.926284" y="29.509345" style="fill: #0b2b5c; stroke: #000000; stroke-opacity: 0; stroke-width: 0.9" />
     <use ns3:href="#m0d148d51bf" x="273.688305" y="18.356169" style="fill: #0b2b5c; stroke: #000000; stroke-opacity: 0; stroke-width: 0.9" />
     <use ns3:href="#m0d148d51bf" x="255.665616" y="16.098477" style="fill: #0b2b5c; stroke: #000000; stroke-opacity: 0; stroke-width: 0.9" />
     <use ns3:href="#m0d148d51bf" x="240.806306" y="15.500246" style="fill: #0b2b5c; stroke: #000000; stroke-opacity: 0; stroke-width: 0.9" />
     <use ns3:href="#m0d148d51bf" x="227.908609" y="15.122444" style="fill: #0b2b5c; stroke: #000000; stroke-opacity: 0; stroke-width: 0.9" />
     <use ns3:href="#m0d148d51bf" x="216.016444" y="15.08643" style="fill: #0b2b5c; stroke: #000000; stroke-opacity: 0; stroke-width: 0.9" />
     <use ns3:href="#m0d148d51bf" x="204.449905" y="15.248872" style="fill: #0b2b5c; stroke: #000000; stroke-opacity: 0; stroke-width: 0.9" />
     <use ns3:href="#m0d148d51bf" x="192.565323" y="15.28649" style="fill: #0b2b5c; stroke: #000000; stroke-opacity: 0; stroke-width: 0.9" />
     <use ns3:href="#m0d148d51bf" x="179.624528" y="15.231113" style="fill: #0b2b5c; stroke: #000000; stroke-opacity: 0; stroke-width: 0.9" />
     <use ns3:href="#m0d148d51bf" x="164.663212" y="15.339628" style="fill: #0b2b5c; stroke: #000000; stroke-opacity: 0; stroke-width: 0.9" />
     <use ns3:href="#m0d148d51bf" x="146.178187" y="15.957836" style="fill: #0b2b5c; stroke: #000000; stroke-opacity: 0; stroke-width: 0.9" />
     <use ns3:href="#m0d148d51bf" x="122.278086" y="20.118226" style="fill: #0b2b5c; stroke: #000000; stroke-opacity: 0; stroke-width: 0.9" />
     <use ns3:href="#m0d148d51bf" x="93.716587" y="40.122451" style="fill: #0b2b5c; stroke: #000000; stroke-opacity: 0; stroke-width: 0.9" />
     <use ns3:href="#m0d148d51bf" x="67.662393" y="92.37448" style="fill: #0b2b5c; stroke: #000000; stroke-opacity: 0; stroke-width: 0.9" />
     <use ns3:href="#m0d148d51bf" x="48.483534" y="173.667058" style="fill: #0b2b5c; stroke: #000000; stroke-opacity: 0; stroke-width: 0.9" />
     <use ns3:href="#m0d148d51bf" x="45.275455" y="273.615038" style="fill: #0b2b5c; stroke: #000000; stroke-opacity: 0; stroke-width: 0.9" />
    </g>
   </g>
   <g id="line2d_54">
    <path d="M 365.050351 273.615038  L 354.513486 190.443773  L 329.588199 131.395772  L 305.327482 93.747201  L 283.293832 72.82014  L 263.669117 65.342405  L 247.489721 63.757155  L 234.197345 63.347072  L 222.649945 63.342717  L 212.039413 63.300688  L 201.713161 63.215858  L 191.101764 63.303431  L 179.551655 63.303541  L 166.195329 63.397475  L 149.605575 63.582233  L 127.976699 66.29276  L 100.710238 79.648406  L 74.581644 120.28718  L 54.381774 187.706218  L 48.917292 273.615038  " clip-path="url(#p3016b3ba81)" style="fill: none; stroke: #6c7c3c; stroke-width: 1.6; stroke-linecap: square" />
    <defs>
     <path id="me8197e10b0" d="M 0 1.1  C 0.291723 1.1 0.571538 0.984097 0.777817 0.777817  C 0.984097 0.571538 1.1 0.291723 1.1 0  C 1.1 -0.291723 0.984097 -0.571538 0.777817 -0.777817  C 0.571538 -0.984097 0.291723 -1.1 0 -1.1  C -0.291723 -1.1 -0.571538 -0.984097 -0.777817 -0.777817  C -0.984097 -0.571538 -1.1 -0.291723 -1.1 0  C -1.1 0.291723 -0.984097 0.571538 -0.777817 0.777817  C -0.571538 0.984097 -0.291723 1.1 0 1.1  z " style="stroke: #000000; stroke-opacity: 0; stroke-width: 0.9" />
    </defs>
    <g clip-path="url(#p3016b3ba81)">
     <use ns3:href="#me8197e10b0" x="365.050351" y="273.615038" style="fill: #6c7c3c; stroke: #000000; stroke-opacity: 0; stroke-width: 0.9" />
     <use ns3:href="#me8197e10b0" x="354.513486" y="190.443773" style="fill: #6c7c3c; stroke: #000000; stroke-opacity: 0; stroke-width: 0.9" />
     <use ns3:href="#me8197e10b0" x="329.588199" y="131.395772" style="fill: #6c7c3c; stroke: #000000; stroke-opacity: 0; stroke-width: 0.9" />
     <use ns3:href="#me8197e10b0" x="305.327482" y="93.747201" style="fill: #6c7c3c; stroke: #000000; stroke-opacity: 0; stroke-width: 0.9" />
     <use ns3:href="#me8197e10b0" x="283.293832" y="72.82014" style="fill: #6c7c3c; stroke: #000000; stroke-opacity: 0; stroke-width: 0.9" />
     <use ns3:href="#me8197e10b0" x="263.669117" y="65.342405" style="fill: #6c7c3c; stroke: #000000; stroke-opacity: 0; stroke-width: 0.9" />
     <use ns3:href="#me8197e10b0" x="247.489721" y="63.757155" style="fill: #6c7c3c; stroke: #000000; stroke-opacity: 0; stroke-width: 0.9" />
     <use ns3:href="#me8197e10b0" x="234.197345" y="63.347072" style="fill: #6c7c3c; stroke: #000000; stroke-opacity: 0; stroke-width: 0.9" />
     <use ns3:href="#me8197e10b0" x="222.649945" y="63.342717" style="fill: #6c7c3c; stroke: #000000; stroke-opacity: 0; stroke-width: 0.9" />
     <use ns3:href="#me8197e10b0" x="212.039413" y="63.300688" style="fill: #6c7c3c; stroke: #000000; stroke-opacity: 0; stroke-width: 0.9" />
     <use ns3:href="#me8197e10b0" x="201.713161" y="63.215858" style="fill: #6c7c3c; stroke: #000000; stroke-opacity: 0; stroke-width: 0.9" />
     <use ns3:href="#me8197e10b0" x="191.101764" y="63.303431" style="fill: #6c7c3c; stroke: #000000; stroke-opacity: 0; stroke-width: 0.9" />
     <use ns3:href="#me8197e10b0" x="179.551655" y="63.303541" style="fill: #6c7c3c; stroke: #000000; stroke-opacity: 0; stroke-width: 0.9" />
     <use ns3:href="#me8197e10b0" x="166.195329" y="63.397475" style="fill: #6c7c3c; stroke: #000000; stroke-opacity: 0; stroke-width: 0.9" />
     <use ns3:href="#me8197e10b0" x="149.605575" y="63.582233" style="fill: #6c7c3c; stroke: #000000; stroke-opacity: 0; stroke-width: 0.9" />
     <use ns3:href="#me8197e10b0" x="127.976699" y="66.29276" style="fill: #6c7c3c; stroke: #000000; stroke-opacity: 0; stroke-width: 0.9" />
     <use ns3:href="#me8197e10b0" x="100.710238" y="79.648406" style="fill: #6c7c3c; stroke: #000000; stroke-opacity: 0; stroke-width: 0.9" />
     <use ns3:href="#me8197e10b0" x="74.581644" y="120.28718" style="fill: #6c7c3c; stroke: #000000; stroke-opacity: 0; stroke-width: 0.9" />
     <use ns3:href="#me8197e10b0" x="54.381774" y="187.706218" style="fill: #6c7c3c; stroke: #000000; stroke-opacity: 0; stroke-width: 0.9" />
     <use ns3:href="#me8197e10b0" x="48.917292" y="273.615038" style="fill: #6c7c3c; stroke: #000000; stroke-opacity: 0; stroke-width: 0.9" />
    </g>
   </g>
   <g id="line2d_55">
    <path d="M 342.621232 273.615038  L 326.582663 213.413543  L 303.974111 171.873231  L 282.594527 146.19011  L 263.395695 132.916298  L 246.714437 128.866353  L 233.304037 128.131845  L 222.363009 127.979497  L 212.884497 127.976706  L 204.174007 127.98282  L 195.701378 127.973681  L 186.994405 128.013273  L 177.515484 127.997956  L 166.551774 128.045341  L 152.927261 128.142392  L 134.798454 129.188074  L 110.71939 136.074434  L 84.669482 160.888892  L 64.991046 209.467158  L 57.247981 273.615038  " clip-path="url(#p3016b3ba81)" style="fill: none; stroke: #fdafa7; stroke-width: 1.6; stroke-linecap: square" />
    <defs>
     <path id="mb070da302d" d="M 0 1.1  C 0.291723 1.1 0.571538 0.984097 0.777817 0.777817  C 0.984097 0.571538 1.1 0.291723 1.1 0  C 1.1 -0.291723 0.984097 -0.571538 0.777817 -0.777817  C 0.571538 -0.984097 0.291723 -1.1 0 -1.1  C -0.291723 -1.1 -0.571538 -0.984097 -0.777817 -0.777817  C -0.984097 -0.571538 -1.1 -0.291723 -1.1 0  C -1.1 0.291723 -0.984097 0.571538 -0.777817 0.777817  C -0.571538 0.984097 -0.291723 1.1 0 1.1  z " style="stroke: #000000; stroke-opacity: 0; stroke-width: 0.9" />
    </defs>
    <g clip-path="url(#p3016b3ba81)">
     <use ns3:href="#mb070da302d" x="342.621232" y="273.615038" style="fill: #fdafa7; stroke: #000000; stroke-opacity: 0; stroke-width: 0.9" />
     <use ns3:href="#mb070da302d" x="326.582663" y="213.413543" style="fill: #fdafa7; stroke: #000000; stroke-opacity: 0; stroke-width: 0.9" />
     <use ns3:href="#mb070da302d" x="303.974111" y="171.873231" style="fill: #fdafa7; stroke: #000000; stroke-opacity: 0; stroke-width: 0.9" />
     <use ns3:href="#mb070da302d" x="282.594527" y="146.19011" style="fill: #fdafa7; stroke: #000000; stroke-opacity: 0; stroke-width: 0.9" />
     <use ns3:href="#mb070da302d" x="263.395695" y="132.916298" style="fill: #fdafa7; stroke: #000000; stroke-opacity: 0; stroke-width: 0.9" />
     <use ns3:href="#mb070da302d" x="246.714437" y="128.866353" style="fill: #fdafa7; stroke: #000000; stroke-opacity: 0; stroke-width: 0.9" />
     <use ns3:href="#mb070da302d" x="233.304037" y="128.131845" style="fill: #fdafa7; stroke: #000000; stroke-opacity: 0; stroke-width: 0.9" />
     <use ns3:href="#mb070da302d" x="222.363009" y="127.979497" style="fill: #fdafa7; stroke: #000000; stroke-opacity: 0; stroke-width: 0.9" />
     <use ns3:href="#mb070da302d" x="212.884497" y="127.976706" style="fill: #fdafa7; stroke: #000000; stroke-opacity: 0; stroke-width: 0.9" />
     <use ns3:href="#mb070da302d" x="204.174007" y="127.98282" style="fill: #fdafa7; stroke: #000000; stroke-opacity: 0; stroke-width: 0.9" />
     <use ns3:href="#mb070da302d" x="195.701378" y="127.973681" style="fill: #fdafa7; stroke: #000000; stroke-opacity: 0; stroke-width: 0.9" />
     <use ns3:href="#mb070da302d" x="186.994405" y="128.013273" style="fill: #fdafa7; stroke: #000000; stroke-opacity: 0; stroke-width: 0.9" />
     <use ns3:href="#mb070da302d" x="177.515484" y="127.997956" style="fill: #fdafa7; stroke: #000000; stroke-opacity: 0; stroke-width: 0.9" />
     <use ns3:href="#mb070da302d" x="166.551774" y="128.045341" style="fill: #fdafa7; stroke: #000000; stroke-opacity: 0; stroke-width: 0.9" />
     <use ns3:href="#mb070da302d" x="152.927261" y="128.142392" style="fill: #fdafa7; stroke: #000000; stroke-opacity: 0; stroke-width: 0.9" />
     <use ns3:href="#mb070da302d" x="134.798454" y="129.188074" style="fill: #fdafa7; stroke: #000000; stroke-opacity: 0; stroke-width: 0.9" />
     <use ns3:href="#mb070da302d" x="110.71939" y="136.074434" style="fill: #fdafa7; stroke: #000000; stroke-opacity: 0; stroke-width: 0.9" />
     <use ns3:href="#mb070da302d" x="84.669482" y="160.888892" style="fill: #fdafa7; stroke: #000000; stroke-opacity: 0; stroke-width: 0.9" />
     <use ns3:href="#mb070da302d" x="64.991046" y="209.467158" style="fill: #fdafa7; stroke: #000000; stroke-opacity: 0; stroke-width: 0.9" />
     <use ns3:href="#mb070da302d" x="57.247981" y="273.615038" style="fill: #fdafa7; stroke: #000000; stroke-opacity: 0; stroke-width: 0.9" />
    </g>
   </g>
   <g id="patch_5">
    <path d="M 214.567282 23.139167  Q 205.311371 74.572641 196.213875 125.125827  " style="fill: none; stroke: #262626; stroke-width: 0.8; stroke-linecap: round" />
    <path d="M 198.623027 121.901547  L 196.213875 125.125827  L 195.079942 121.263937  " style="fill: none; stroke: #262626; stroke-width: 0.8; stroke-linecap: round" />
   </g>
   <g id="text_17">
    <text style="font-size: 9px; font-family: 'Times New Roman', 'DejaVu Serif', 'Nimbus Roman', 'Liberation Serif', serif; text-anchor: middle; fill: #262626" x="216.016444" y="17.24854" transform="rotate(-0 216.016444 17.24854)">scour →</text>
   </g>
   <g id="legend_1">
    <g id="text_18">
     <text style="font-size: 9px; font-family: 'Times New Roman', 'DejaVu Serif', 'Nimbus Roman', 'Liberation Serif', serif; text-anchor: start" x="43.149062" y="242.390844" transform="rotate(-0 43.149062 242.390844)">Scour depth</text>
    </g>
    <g id="line2d_56">
     <path d="M 36.88 250.616  L 44.98 250.616  L 53.08 250.616  " style="fill: none; stroke: #0b2b5c; stroke-width: 1.6; stroke-linecap: square" />
     <g>
      <use ns3:href="#m0d148d51bf" x="44.98" y="250.616" style="fill: #0b2b5c; stroke: #000000; stroke-opacity: 0; stroke-width: 0.9" />
     </g>
    </g>
    <g id="text_19">
     <text style="font-size: 9px; font-family: 'Times New Roman', 'DejaVu Serif', 'Nimbus Roman', 'Liberation Serif', serif; text-anchor: start" x="57.58" y="253.766" transform="rotate(-0 57.58 253.766)">S = 0 m</text>
    </g>
    <g id="line2d_57">
     <path d="M 36.88 261.991156  L 44.98 261.991156  L 53.08 261.991156  " style="fill: none; stroke: #6c7c3c; stroke-width: 1.6; stroke-linecap: square" />
     <g>
      <use ns3:href="#me8197e10b0" x="44.98" y="261.991156" style="fill: #6c7c3c; stroke: #000000; stroke-opacity: 0; stroke-width: 0.9" />
     </g>
    </g>
    <g id="text_20">
     <text style="font-size: 9px; font-family: 'Times New Roman', 'DejaVu Serif', 'Nimbus Roman', 'Liberation Serif', serif; text-anchor: start" x="57.58" y="265.141156" transform="rotate(-0 57.58 265.141156)">S = 2.5 m</text>
    </g>
    <g id="line2d_58">
     <path d="M 36.88 273.366313  L 44.98 273.366313  L 53.08 273.366313  " style="fill: none; stroke: #fdafa7; stroke-width: 1.6; stroke-linecap: square" />
     <g>
      <use ns3:href="#mb070da302d" x="44.98" y="273.366313" style="fill: #fdafa7; stroke: #000000; stroke-opacity: 0; stroke-width: 0.9" />
     </g>
    </g>
    <g id="text_21">
     <text style="font-size: 9px; font-family: 'Times New Roman', 'DejaVu Serif', 'Nimbus Roman', 'Liberation Serif', serif; text-anchor: start" x="57.58" y="276.516313" transform="rotate(-0 57.58 276.516313)">S = 5 m</text>
    </g>
   </g>
  </g>
 </g>
 <defs>
  <clipPath id="p3016b3ba81">
   <rect x="28.78" y="2.16" width="362.9" height="284.381469" />
  </clipPath>
 </defs>
</svg>