<?xml version='1.0' encoding='utf-8'?>
<svg xmlns="http://www.w3.org/2000/svg" xmlns:dc="http://purl.org/dc/elements/1.1/" xmlns:ns3="http://www.w3.org/1999/xlink" xmlns:rdf="http://www.w3.org/1999/02/22-rdf-syntax-ns#" version="1.1" width="424.713" height="177.059" viewBox="0 0 424.713 177.059">
<metadata><rdf:RDF><rdf:Description><dc:figure_id>j3-bearing-capacity-schematic</dc:figure_id><dc:journal>ocean_engineering</dc:journal><dc:paper>J3</dc:paper><dc:claim_id>j3-bearing-capacity-schematic</dc:claim_id><dc:tier>1</dc:tier><dc:git_hash>eccec808-dirty</dc:git_hash><dc:generated_utc>2026-04-20T00:00:41Z</dc:generated_utc><dc:data_sources>j3-bearing-capacity-schematic.tex:5dd7b725</dc:data_sources><dc:generator>figgen</dc:generator><dc:description>Two-panel schematic of the suction-bucket bearing-capacity formulation (manuscript submitted Fig 9): (a) intact condition with effective embedment L and q_ult = gamma L N_q + 0.4 gamma R N_gamma; (b) scoured condition with effective embedment L-S and updated formula. B&amp;W-safe hatches differentiate effective-capacity zone from the lost-support zone.
</dc:description><dc:claim_measured>{}</dc:claim_measured><dc:claim_id_measured>j3-bearing-capacity-schematic</dc:claim_id_measured></rdf:Description></rdf:RDF></metadata><defs>
<path id="font_1_8" d="M.7409973 .33880616C.7409973 .54296877 .58599856 .7050781 .39898683 .7050781 .21199036 .7050781 .056991579 .54196169 .056991579 .33880616 .056991579 .13563538 .21299744-.022460938 .39898683-.022460938 .58499148-.022460938 .7409973 .13563538 .7409973 .33880616M.39898683 .007537842C.2979889 .007537842 .15899658 .09559631 .15899658 .35380555 .15899658 .5980072 .3019867 .677063 .39898683 .677063 .49598695 .677063 .6389923 .5980072 .6389923 .35380555 .6389923 .09559631 .5 .007537842 .39898683 .007537842Z" />
<path id="font_1_17" d="M.17799378 .22918701C.17799378 .27023316 .18899536 .41737367 .30299378 .41737367V.41636659C.30099488 .41537477 .2849884 .4033661 .2849884 .3793335 .2849884 .35231019 .30599977 .33529664 .32899476 .33529664 .34999085 .33529664 .37298585 .35031129 .37298585 .38034059 .37298585 .41236878 .34298707 .4423828 .2979889 .4423828 .23799134 .4423828 .19599915 .4003601 .17298889 .3383026H.17199707V.4416504L.02999878 .43066407V.3996582C.09799194 .3996582 .10699463 .39266969 .10699463 .34370423V.07695007C.10699463 .0309906 .09599304 .0309906 .02999878 .0309906V0C.08299255 .0019989014 .09599304 .0029907227 .14698792 .0029907227 .18699646 .0029907227 .21099854 .0019989014 .27398683 0V.0309906H.2539978C.18099976 .0309906 .17799378 .04197693 .17799378 .078948978V.22918701Z" />
<path id="font_1_13" d="M.18399048 .4423828 .039993287 .43138124V.40037538C.10398865 .40037538 .11299133 .3943634 .11299133 .34532167V.077041629C.11299133 .0309906 .101989749 .0309906 .035995485 .0309906V0C.08099365 .0019989014 .101989749 .0029907227 .1459961 .0029907227 .1619873 .0029907227 .20399475 .0029907227 .25299073 0V.0309906C.18798828 .0309906 .18399048 .035995485 .18399048 .075042728V.4423828M.18699646 .615921C.18699646 .6459198 .16299439 .6699219 .1329956 .6699219 .101989749 .6699219 .07899475 .6449127 .07899475 .615921 .07899475 .58691409 .101989749 .56192019 .1329956 .56192019 .16299439 .56192019 .18699646 .585907 .18699646 .615921Z" />
<path id="font_1_12" d="M.125 .1794281C.1499939 .16343689 .18099976 .1484375 .22698975 .1484375 .32199098 .1484375 .3939972 .2164154 .3939972 .29541017 .3939972 .34439088 .3659973 .37838746 .35299684 .39237977 .3929901 .42837525 .43998719 .42837525 .45199586 .42837525 .44699098 .42536927 .43899537 .42037965 .43899537 .40237428 .43899537 .39138795 .44599916 .37239076 .46899415 .37239076 .48298646 .37239076 .49899293 .38238526 .49899293 .40338136 .49899293 .42237855 .4850006 .45336915 .44499208 .45336915 .41600038 .45336915 .37098695 .4423828 .33599855 .40637208 .30899049 .42837525 .269989 .4423828 .22799683 .4423828 .1329956 .4423828 .06098938 .37438966 .06098938 .29541017 .06098938 .24441529 .09098816 .2084198 .10699463 .19342041 .10499573 .19142151 .07699585 .1564331 .07699585 .11016846 .07699585 .075927738 .09298706 .039871217 .11999512 .021881104 .068984989 .005874634 .0289917-.03111267 .0289917-.07809448 .0289917-.14907837 .12799073-.20605469 .2559967-.20605469 .3789978-.20605469 .48399354-.15307617 .48399354-.07609558 .48399354-.035110475 .46499635 .008880615 .42799378 .03288269 .37199403 .067871097 .31399537 .067871097 .21899414 .067871097 .19898987 .067871097 .16699219 .067871097 .15899658 .069885257 .12998963 .075927738 .11099243 .1031189 .11099243 .13534546 .11099243 .15142823 .115997318 .16642761 .125 .1794281M.22698975 .1754303C.13798523 .1754303 .13798523 .27340699 .13798523 .29541017 .13798523 .32240296 .13999939 .35638429 .15699768 .38038636 .17199707 .40037538 .19898987 .41537477 .22698975 .41537477 .31698609 .41537477 .31698609 .31840516 .31698609 .29541017 .31698609 .27241517 .31698609 .1754303 .22698975 .1754303M.272995 .0048828127C.30499269 .0048828127 .42799378 .0038757325 .42799378-.07710266 .42799378-.13407898 .35099793-.17906189 .25698854-.17906189 .15899658-.17906189 .084991458-.13208008 .084991458-.07710266 .084991458-.06109619 .09498596 .0048828127 .18099976 .0048828127H.272995Z" />
<path id="font_1_16" d="M.18598938 .2592163C.18598938 .36532594 .26098634 .41737367 .32398988 .41737367 .3829956 .41737367 .3959961 .3683319 .3959961 .30825807V.077041629C.3959961 .0309906 .3849945 .0309906 .31900025 .0309906V0C.3659973 .0019989014 .3849945 .0029907227 .43299867 .0029907227 .48098756 .0029907227 .49398805 .0019989014 .5469971 0V.0309906C.49598695 .0309906 .47099305 .0309906 .46998597 .062026979V.25421144C.46998597 .33729554 .46998597 .36631776 .44198609 .40135194 .4189911 .42938233 .3809967 .4423828 .33099366 .4423828 .23799134 .4423828 .19499207 .3733368 .18099976 .3453064H.17999268V.4416504L.034988405 .43066407V.3996582C.102996829 .3996582 .11199951 .39266969 .11199951 .34370423V.07695007C.11199951 .0309906 .100997928 .0309906 .034988405 .0309906V0C.08198547 .0019989014 .100997928 .0029907227 .14898682 .0029907227 .19699097 .0029907227 .20999146 .0019989014 .2630005 0V.0309906C.19699097 .0309906 .18598938 .0309906 .18598938 .07695007V.2592163Z" />
<path id="font_1_9" d="M.34199525 .07209778C.34700013 .030136109 .37599183-.005859375 .4189911-.005859375 .44400025-.005859375 .5069885 .009140015 .5069885 .08909607V.14505005H.47898866V.09008789C.47898866 .07910156 .47898866 .029129029 .44299317 .029129029 .40699769 .029129029 .40699769 .07710266 .40699769 .09307861V.2679596C.40699769 .3249359 .40699769 .3589325 .3619995 .40003968 .32499696 .43322755 .2769928 .4482422 .22698975 .4482422 .14299011 .4482422 .07299805 .4060974 .07299805 .3419342 .07299805 .3109436 .09399414 .2939453 .11999512 .2939453 .14698792 .2939453 .1659851 .31393434 .1659851 .3399353 .1659851 .38293458 .12199402 .38793946 .12098694 .38793946 .147995 .41415406 .19599915 .42323304 .22499085 .42323304 .27598573 .42323304 .33299256 .38493348 .33299256 .29693605V.2639618C.2789917 .2622223 .20399475 .25723268 .13699341 .22523499 .06498718 .19023133 .042999269 .13824463 .042999269 .098236087 .042999269 .01625061 .13999939-.0107421879 .20698548-.0107421879 .2899933-.010864258 .32798768 .044128419 .34199525 .07209778M.33299256 .14105225C.33299256 .044128419 .2579956 .014129639 .21398926 .014129639 .16699219 .014129639 .12298584 .04812622 .12298584 .098083499 .12298584 .16403198 .17999268 .23397827 .33299256 .23997498V.14105225Z" />
<path id="font_1_14" d="M.18399048 .69433596 .035995485 .68333438V.6523285C.10398865 .6523285 .11299133 .6453247 .11299133 .5962982V.07701111C.11299133 .0309906 .101989749 .0309906 .035995485 .0309906V0C.08299255 .0019989014 .101989749 .0029907227 .147995 .0029907227 .19499207 .0029907227 .21199036 .0019989014 .26098634 0V.0309906C.19499207 .0309906 .18399048 .0309906 .18399048 .07701111V.69433596Z" />
<path id="font_1_15" d="M.18598938 .2592163C.18598938 .36732484 .2639923 .41737367 .32398988 .41737367 .3789978 .41737367 .39698792 .37834168 .39698792 .30825807V.077041629C.39698792 .0309906 .38598634 .0309906 .31999208 .0309906V0C.36698915 .0019989014 .38598634 .0029907227 .43399049 .0029907227 .48199464 .0029907227 .49499513 .0019989014 .5479889 0V.0309906C.48199464 .0309906 .47099305 .0309906 .47099305 .077041629V.2592163C.47099305 .36732484 .548996 .41737367 .60899356 .41737367 .6639862 .41737367 .6819916 .37834168 .6819916 .30825807V.077041629C.6819916 .0309906 .67099 .0309906 .6049957 .0309906V0C.6519928 .0019989014 .67099 .0029907227 .71899417 .0029907227 .7669983 .0029907227 .7799988 .0019989014 .83299258 0V.0309906C.7819977 .0309906 .7569885 .0309906 .7559967 .062026979V.25421144C.7559967 .34129334 .7559967 .36932374 .72299197 .4063568 .70199587 .43037416 .6619873 .4423828 .6159973 .4423828 .5439911 .4423828 .49499513 .4003601 .46699525 .3473053 .45498658 .4063568 .4149933 .4423828 .33099366 .4423828 .25099183 .4423828 .20199585 .39035035 .18099976 .34429933L.17999268 .34370423V.4416504L.034988405 .43066407V.3996582C.102996829 .3996582 .11199951 .39266969 .11199951 .34370423V.07695007C.11199951 .0309906 .100997928 .0309906 .034988405 .0309906V0C.08198547 .0019989014 .100997928 .0029907227 .14898682 .0029907227 .19699097 .0029907227 .20999146 .0019989014 .2630005 0V.0309906C.19699097 .0309906 .18598938 .0309906 .18598938 .07695007V.2592163Z" />
<path id="font_1_18" d="M.3959961 .16729737C.3959961 .07827759 .34599305 .014251709 .27398683 .014251709 .19099427 .014251709 .18598938 .057266237 .18598938 .11128235V.4423828L.034988405 .43138124V.40037538C.11199951 .40037538 .11199951 .39736939 .11199951 .3083496V.15829468C.11199951 .09327698 .11199951 .05126953 .1579895 .01625061 .18699646-.003753662 .22799683-.0107421879 .2679901-.0107421879 .31999208-.0107421879 .36898805 .012252808 .397995 .072265628L.39898683 .07203674V-.011001587L.5469971 0V.0309906C.47898866 .0309906 .46998597 .037994386 .46998597 .08705139V.4423828L.31900025 .43138124V.40037538C.3869934 .40037538 .3959961 .39337159 .3959961 .34431459V.16729737Z" />
<path id="font_1_10" d="M.3889923 .120285037C.3889923 .10227966 .3889923 .09927368 .37399293 .07827759 .34298707 .0332489 .29699708 .014251709 .25698854 .014251709 .21398926 .014251709 .17399597 .038253786 .147995 .08027649 .12199402 .123291019 .11999512 .18229676 .11999512 .21430969 .11999512 .26132203 .12599182 .3143463 .1519928 .35435487 .17399597 .3863678 .21499634 .41737367 .2679901 .41737367 .30999757 .41737367 .34999085 .39637757 .3769989 .35835267 .3889923 .3423462 .3889923 .34135438 .3889923 .32234193V.120285037M.3919983 .38336183C.3869934 .38937379 .34199525 .4423828 .2639923 .4423828 .14099121 .4423828 .033996583 .34436036 .033996583 .21531677 .033996583 .090270999 .13398743-.0107421879 .25299073-.0107421879 .32598878-.0107421879 .37098695 .03225708 .3889923 .053268434V-.011001587L.5399933 0V.0309906C.47200013 .0309906 .46299745 .037994386 .46299745 .087020877V.69433596L.31498719 .68333438V.6523285C.3829956 .6523285 .3919983 .6453247 .3919983 .5962982V.38336183Z" />
<path id="font_1_11" d="M.3999939 .22949219C.42199708 .22949219 .4269867 .22949219 .4269867 .25048829 .4269867 .35333253 .37098695 .4482422 .24299622 .4482422 .12298584 .4482422 .0289917 .3443451 .0289917 .22047425 .0289917 .08932495 .13398743-.0107421879 .2559967-.0107421879 .37799073-.0107421879 .4269867 .096343997 .4269867 .11936951 .4269867 .12637329 .42199708 .13237 .41299439 .13237 .40299989 .13237 .3999939 .12536621 .39898683 .12136841 .36499024 .019256592 .27598573 .01725769 .26098634 .01725769 .21299744 .01725769 .17199707 .044281007 .14898682 .078323367 .115997318 .12736511 .114990238 .18743897 .114990238 .22949219H.3999939M.115997318 .253479C.125 .40725709 .21499634 .42323304 .24299622 .42323304 .2979889 .42323304 .35798646 .38130189 .35899354 .253479H.115997318Z" />
<clipPath id="clip_2">
<path transform="matrix(1,0,0,-1,94.494,60.889009)" d="M-28.3468-65.19774V0H28.3468V-65.19774ZM28.3468 0" />
</clipPath>
<g id="pattern_tile_3">
<path transform="matrix(1,0,0,-1,0,177.059)" stroke-width=".3985" stroke-linecap="butt" stroke-miterlimit="10" stroke-linejoin="miter" fill="none" stroke="#a3a3a3" d="M0 0 3.08846 3.08846" />
</g>
<pattern id="pattern_3" patternUnits="userSpaceOnUse" patternContentUnits="userSpaceOnUse" x="0" y="0" width="2.98883" height="2.98883">
<clipPath id="clip_4">
<path d="M -.99628 -.99628 L 3.9851 -.99628 L 3.9851 3.9851 L -.99628 3.9851 Z" />
</clipPath>
<g clip-path="url(#clip_4)">
<g transform="matrix(1,0,0,-1,-0,177.059)">
<use x="0" y="0" ns3:href="#pattern_tile_3" />
<use x="0" y="-2.98883" ns3:href="#pattern_tile_3" />
<use x="-2.98883" y="0" ns3:href="#pattern_tile_3" />
<use x="-2.98883" y="-2.98883" ns3:href="#pattern_tile_3" />
</g>
</g>
</pattern>
<path id="font_5_4" d="M.3809967 .6036377C.3899994 .6416168 .3929901 .6516113 .48599244 .6516113 .5139923 .6516113 .522995 .6516113 .522995 .6696167 .522995 .6826172 .5099945 .6826172 .5069885 .6826172 .48399354 .6826172 .45799256 .680603 .43399049 .680603 .4099884 .680603 .38598634 .6796112 .3619995 .6796112 .33898927 .6796112 .31498719 .6796112 .29299928 .680603 .2749939 .6816101 .24398804 .6826172 .22698975 .6826172 .22099304 .6826172 .20698548 .6826172 .20698548 .6646118 .20698548 .6516113 .21598816 .6516113 .23699951 .6516113 .24099732 .6516113 .25898744 .6516113 .2749939 .6496124 .2919922 .6476135 .29899598 .6456146 .29899598 .63461306 .29899598 .6296234 .2979889 .6256256 .29499818 .614624L.1599884 .07595825C.15098572 .039993287 .14898682 .0309906 .07398987 .0309906 .054992677 .0309906 .04399109 .0309906 .04399109 .0129852299 .04399109 0 .053985597 0 .07199097 0H.5439911C.56799319 0 .56900027 .0009918213 .57699587 .021987915 .58699038 .04698181 .6589966 .23686219 .6589966 .24485779 .6589966 .2528534 .6519928 .25785829 .644989 .25785829 .6349945 .25785829 .6339874 .25386048 .6259918 .23387146 .59199526 .14492798 .5479889 .0309906 .37298585 .0309906H.27398683C.2599945 .0309906 .2579956 .0309906 .2539978 .03199768 .24398804 .032989503 .24099732 .033996583 .24099732 .040985109 .24099732 .04399109 .24099732 .04598999 .24598694 .063964847L.3809967 .6036377Z" />
<path id="font_5_3" d="M.16099549 .07595825C.1519928 .039993287 .1499939 .0309906 .07499695 .0309906 .055999757 .0309906 .04499817 .0309906 .04499817 .0129852299 .04499817 0 .054992677 0 .07299805 0H.4099884C.6239929 0 .82299807 .21188355 .82299807 .42774964 .82299807 .56466677 .7369995 .6826172 .58099368 .6826172H.23799134C.21998596 .6826172 .20799256 .6826172 .20799256 .6646118 .20799256 .6516113 .21699524 .6516113 .23799134 .6516113 .24198914 .6516113 .2599945 .6516113 .27598573 .6496124 .29299928 .6476135 .2999878 .6456146 .2999878 .63461306 .2999878 .6296234 .29899598 .6256256 .29599 .614624L.16099549 .07595825M.3809967 .6126251C.3899994 .64860537 .3919983 .6516113 .43399049 .6516113H.5469971C.651001 .6516113 .73399356 .5936432 .73399356 .46472169 .73399356 .40675355 .70899966 .24685669 .6309967 .1479187 .58499148 .09095764 .5019989 .0309906 .3919983 .0309906H.27198792C.2579956 .0309906 .2559967 .0309906 .2519989 .03199768 .24198914 .032989503 .23899842 .033996583 .23899842 .040985109 .23899842 .04399109 .23899842 .04598999 .24398804 .063964847L.3809967 .6126251Z" />
<path id="font_1_7" d="M.70799258 .3310089C.7220001 .3310089 .7409973 .3310089 .7409973 .35202027 .7409973 .37402345 .71899417 .37402345 .70399478 .37402345H.09399414C.07899475 .37402345 .056991579 .37402345 .056991579 .35202027 .056991579 .3310089 .07699585 .3310089 .08999634 .3310089H.70799258M.70399478 .12695313C.71899417 .12695313 .7409973 .12695313 .7409973 .14894104 .7409973 .1699524 .7220001 .1699524 .70799258 .1699524H.08999634C.07699585 .1699524 .056991579 .1699524 .056991579 .14894104 .056991579 .12695313 .07899475 .12695313 .09399414 .12695313H.70399478Z" />
<path id="font_1_5" d="M.46199037 .17704773H.43399049C.43199159 .16404724 .42399598 .10501099 .41099549 .08900452 .40499879 .07998657 .33599855 .07998657 .31599427 .07998657H.13798523L.23699951 .17404175C.40098573 .3161316 .46199037 .36915589 .46199037 .4711914 .46199037 .5860901 .36698915 .6660156 .24398804 .6660156 .1289978 .6660156 .050994874 .575119 .050994874 .4841919 .050994874 .43418885 .09399414 .42919923 .102996829 .42919923 .125 .42919923 .15499878 .44519044 .15499878 .48120118 .15499878 .51119998 .13398743 .5332031 .102996829 .5332031 .09799194 .5332031 .09498596 .5332031 .09098816 .53219607 .114990238 .6030731 .1789856 .63500979 .23298645 .63500979 .33499146 .63500979 .36999513 .5401764 .36999513 .4711914 .36999513 .36915589 .29299928 .28611756 .24499512 .23408509L.06199646 .035995485C.050994874 .024993897 .050994874 .022994996 .050994874 0H.43399049L.46199037 .17704773Z" />
<path id="font_5_6" d="M.3809967 .6125946C.3869934 .63760378 .3899994 .6476135 .4079895 .65060427 .4169922 .6516113 .44999696 .6516113 .47099305 .6516113 .5499878 .6516113 .6599884 .6516113 .6599884 .5505829 .6599884 .51356509 .644989 .4385376 .58799746 .39552308 .56399539 .3795166 .5139923 .35351563 .43299867 .35351563H.31599427L.3809967 .6125946M.5359955 .33850099C.6719971 .3735199 .7559967 .44953919 .7559967 .53157046 .7559967 .61860659 .6609955 .6826172 .5279999 .6826172H.23799134C.21998596 .6826172 .20799256 .6826172 .20799256 .6646118 .20799256 .6516113 .21699524 .6516113 .23799134 .6516113 .24198914 .6516113 .2599945 .6516113 .27598573 .6496124 .29299928 .6476135 .2999878 .6456146 .2999878 .6345978 .2999878 .62960818 .29899598 .6255951 .29599 .6145935L.16099549 .075531009C.1519928 .039535524 .1499939 .030532837 .07499695 .030532837 .055999757 .030532837 .04499817 .030532837 .04499817 .012527466 .04499817 .0015258789 .052993776-.00047302247 .05999756-.00047302247 .07598877-.00047302247 .10598755 .0005340576 .12298584 .0015258789 .14399719 .002532959 .1459961 .002532959 .18499756 .002532959 .21699524 .002532959 .21899414 .002532959 .24899292 .0015258789 .2689972 .0005340576 .2939911-.00047302247 .31298829-.00047302247 .31999208-.00047302247 .33299256-.00047302247 .33299256 .017532349 .33299256 .030532837 .32299806 .030532837 .3019867 .030532837 .2979889 .030532837 .27999879 .030532837 .2639923 .03253174 .24198914 .03552246 .24099732 .039535524 .24099732 .04852295 .24099732 .05152893 .24099732 .053527833 .24598694 .0715332L.30999757 .32850648H.43299867C.522995 .32850648 .54599 .27650453 .54599 .23851013 .54599 .2315216 .54599 .22451782 .5399933 .20251465 .5159912 .11051941 .5159912 .10151672 .5159912 .08653259 .5159912-.0034637452 .6009979-.022460938 .6519928-.022460938 .7389984-.022460938 .7749939 .07852173 .7749939 .0945282 .7749939 .10151672 .7689972 .10652161 .7619934 .10652161 .7509918 .10652161 .75 .10151672 .74598696 .089523319 .72898867 .037521364 .69200137 .002532959 .6549988 .002532959 .61698916 .002532959 .61499026 .03253174 .61499026 .061523439 .61499026 .08653259 .621994 .14451599 .6230011 .15151978 .625 .16752625 .6299896 .20751953 .6299896 .22251892 .6299896 .2795105 .59399417 .31851197 .5359955 .33850099Z" />
<path id="font_5_8" d="M.6459961 .5646057C.68699648 .6286011 .7220001 .6476135 .7679901 .6516113 .7799988 .65260317 .78900149 .6536102 .78900149 .6696167 .78900149 .6776123 .7829895 .6826172 .776001 .6826172 .7719879 .6826172 .746994 .6796112 .69400027 .6796112 .6619873 .6796112 .6279907 .6826172 .5970001 .6826172 .58999636 .6826172 .57899478 .680603 .57899478 .6646118 .57899478 .65260317 .58999636 .6516113 .59298709 .6516113 .6029968 .65060427 .6389923 .64860537 .6389923 .61961367 .6389923 .6116028 .6359863 .604599 .6319885 .5966034 .6279907 .5886078 .6259918 .58461 .621994 .5776062L.30899049 .092544559 .23298645 .62161257C.23298645 .63061526 .23999024 .6516113 .3019867 .6516113 .31399537 .6516113 .32598878 .6516113 .32598878 .6696167 .32598878 .680603 .31599427 .6826172 .30999757 .6826172 .2919922 .6826172 .2709961 .680603 .2519989 .680603 .23199463 .680603 .20999146 .6796112 .18899536 .6796112 .17098999 .6796112 .14299011 .6796112 .13398743 .680603 .12599182 .680603 .084991458 .6826172 .07699585 .6826172 .07299805 .6826172 .05899048 .6826172 .05899048 .6646118 .05899048 .6516113 .069992069 .6516113 .08198547 .6516113 .13798523 .6516113 .13899231 .64260867 .14299011 .6175995L.23098755 .0035247803C.23399353-.015472412 .23498535-.022460938 .2519989-.022460938 .2679901-.022460938 .27398683-.014465332 .2809906-.0024719239L.6459961 .5646057Z" />
<path id="font_5_9" d="M.46099855 .40837098C.46499635 .42237855 .46499635 .42437745 .46499635 .42837525 .46499635 .44036866 .45498658 .4423828 .45298768 .4423828 .44299317 .4423828 .40499879 .40837098 .3849945 .3733673 .36898805 .40937806 .33799745 .4423828 .2869873 .4423828 .17098999 .4423828 .041992189 .30433656 .041992189 .1512909 .041992189 .041259767 .11199951-.0107421879 .1789856-.0107421879 .22200012-.0107421879 .26098634 .011245728 .2979889 .04626465L.2599945-.10812378C.24699402-.15933228 .24598694-.16233826 .18299866-.16334534 .17098999-.16334534 .15899658-.16334534 .15899658-.18135071 .15899658-.18334961 .15899658-.19433594 .17298889-.19433594 .19499207-.19433594 .2519989-.19134522 .27398683-.19134522 .30699159-.19134522 .30899049-.19134522 .32499696-.19233704 .33799745-.19334412 .3659973-.19433594 .37799073-.19433594 .38398744-.19433594 .39698792-.19433594 .39698792-.17634583 .39698792-.16334534 .3869934-.16334534 .36999513-.16334534 .32299806-.16334534 .32299806-.15631104 .32299806-.14727783 .32299806-.14627075 .32299806-.14025879 .32699586-.12519837L.46099855 .40837098M.31698609 .122283939C.31199647 .103271488 .31199647 .10227966 .29599 .08326721 .2599945 .040252687 .21899414 .014251709 .18199158 .014251709 .1329956 .014251709 .115997318 .06526184 .115997318 .10827637 .115997318 .15730286 .14498902 .27233888 .16899109 .32034303 .20098877 .3803711 .24699402 .41737367 .2869873 .41737367 .35398866 .41737367 .36898805 .33735658 .36898805 .33035279 .36898805 .3253479 .36698915 .3193512 .3659973 .31533814L.31698609 .122283939Z" />
<path id="font_6_3" d="M.3849945 .43040467V.3914032C.45498658 .3914032 .46398927 .3843994 .46398927 .33537293V.16828919C.46398927 .07725525 .40098573 .022232056 .32398988 .022232056 .22898865 .022232056 .22499085 .0642395 .22499085 .11326599V.44140626L.06298828 .43040467V.3914032C.14199829 .3914032 .14199829 .3824005 .14199829 .32336427V.16729737C.14199829 .09925842 .14199829 .055236818 .18699646 .022232056 .22499085-.0057678224 .2749939-.009765625 .31698609-.009765625 .37998963-.009765625 .43299867 .0152282719 .46798707 .072250369V-.009765625L.6259918 .00022888184V.039230348C.55599978 .039230348 .5469971 .04623413 .5469971 .09526062V.44140626L.3849945 .43040467Z" />
<path id="font_6_1" d="M.22200012 .69433596 .06399536 .68333438V.6443329C.13398743 .6443329 .14299011 .6373291 .14299011 .5883026V.08201599C.14299011 .038986207 .1329956 .038986207 .06399536 .038986207V0C.09399414 .0019989014 .17399597 .0039978029 .18199158 .0039978029 .22200012 .0039978029 .26098634 .0029907227 .30099488 0V.038986207C.23199463 .038986207 .22200012 .038986207 .22200012 .08201599V.69433596Z" />
<path id="font_6_2" d="M.21798706 .3916626H.38198854V.43066407H.21798706V.6147156H.18099976C.17999268 .5256958 .13699341 .42765809 .035995485 .42366029V.3916626H.1349945V.1250763C.1349945 .020233155 .21398926-.009765625 .28199769-.009765625 .35099793-.009765625 .40098573 .045196535 .40098573 .12606812V.1809845H.3639984V.12806702C.3639984 .057174684 .32699586 .025222779 .2899933 .025222779 .21798706 .025222779 .21798706 .10609436 .21798706 .1250763V.3916626Z" />
<path id="font_5_1" d="M.397995 .1322937C.394989 .20532227 .37998963 .27734376 .34999085 .34336854 .31698609 .41436769 .269989 .4423828 .21699524 .4423828 .08999634 .4423828 .017990113 .29335023 .017990113 .2603302 .017990113 .24932862 .0289917 .24932862 .03199768 .24932862 .039993287 .24932862 .042999269 .2513275 .04598999 .25933839 .07798767 .35237123 .17098999 .3683777 .20399475 .3683777 .36499024 .3683777 .36999513 .17630005 .36999513 .11228943 .36999513 .052261354 .3659973 .038253786 .36099244 .024246216 .33499146-.06378174 .30799867-.16682434 .30799867-.1938324 .30799867-.20082093 .30799867-.21582031 .32199098-.21582031 .32899476-.21582031 .33799745-.21582031 .35499574-.15481568 .3809967-.06277466 .3880005-.008758545 .3939972 .03225708 .394989 .043258668 .44799806 .20532227 .5379944 .3843689 .5549927 .41638185 .5549927 .41838075 .5549927 .42037965 .5549927 .42736817 .5499878 .43138124 .5419922 .43138124 .5399933 .43138124 .5329895 .43138124 .5289917 .42536927 .5059967 .3843689 .48199464 .33236695 .46099855 .28533937 .45599366 .27534486 .42900086 .21331787 .397995 .1322937Z" />
<path id="font_5_5" d="M.7719879 .574646C.7819977 .6156311 .8009949 .64860537 .8789978 .6516113 .8849945 .6516113 .8969879 .65260317 .8969879 .6696167 .8969879 .6776123 .8909912 .6826172 .8829956 .6826172 .86099246 .6826172 .8049927 .6796112 .7829895 .6796112 .7579956 .6796112 .7559967 .6796112 .7319946 .680603 .71598818 .680603 .69499209 .6826172 .6799927 .6826172 .6759949 .6826172 .6619873 .6826172 .6619873 .6646118 .6619873 .6516113 .673996 .6516113 .6799927 .6516113 .71798709 .65060427 .746994 .6416168 .746994 .6086273 .746994 .6036377 .74398806 .5896454 .74398806 .5886383L.6319885 .1439209 .40299989 .6626129C.3939972 .6816101 .3929901 .6826172 .36999513 .6826172H.23699951C.21798706 .6826172 .20698548 .6826172 .20698548 .6646118 .20698548 .6516113 .21699524 .6516113 .23699951 .6516113 .24198914 .6516113 .2789917 .6516113 .30299378 .6456146L.16799927 .10594177C.1559906 .05697632 .1309967 .033996583 .06098938 .0309906 .056991579 .0309906 .04399109 .02999878 .04399109 .0129852299 .04399109 .010986328 .04399109 0 .057998659 0 .069992069 0 .09498596 .0009918213 .10798645 .0019989014 .12399292 .0029907227 .12599182 .0029907227 .1579895 .0029907227 .18299866 .0029907227 .18499756 .0029907227 .20899964 .0019989014 .22499085 .0019989014 .24598694 0 .26098634 0 .2659912 0 .2789917 0 .2789917 .017990113 .2789917 .02999878 .2679901 .0309906 .25898744 .0309906 .21199036 .03199768 .19400025 .04698181 .19400025 .07395935 .19400025 .080963138 .19499207 .081954959 .19799805 .095947269L.32899476 .6226196 .5970001 .017990113C.60398867 .0019989014 .6049957 0 .61499026 0 .6279907 0 .6289978 .0039978029 .6329956 .020996094L.7719879 .574646Z" />
<path id="font_7_2" d="M.54499819 .42739869C.54499819 .42939759 .5419922 .44140626 .5299988 .44140626 .5179901 .44140626 .47499085 .4044037 .45599366 .37438966 .44299317 .3973999 .4079895 .44140626 .34098817 .44140626 .21099854 .44140626 .07398987 .3063507 .07398987 .16029358 .07398987 .051239015 .15098572-.009765625 .23498535-.009765625 .28399659-.009765625 .32998658 .01322937 .36799623 .04524231 .36698915 .041229249 .33599855-.08305359 .33198548-.101135257 .31900025-.15232849 .31900025-.15333557 .2539978-.15434265 .23899842-.15434265 .22499085-.15434265 .22499085-.17933655 .22499085-.18833924 .23199463-.19433594 .24099732-.19433594 .2649994-.19433594 .32499696-.19033814 .34899903-.19033814 .36698915-.19033814 .3849945-.19134522 .4039917-.19134522 .42199708-.19134522 .44299317-.19433594 .46099855-.19433594 .46699525-.19433594 .48298646-.19433594 .48298646-.16934204 .48298646-.15434265 .46998597-.15434265 .45399476-.15434265 .42999269-.15434265 .4039917-.15434265 .4039917-.14228821 .4039917-.1402893 .4039917-.13827515 .40899659-.12020874L.54499819 .42739869M.3889923 .13127136C.38398744 .11326599 .38398744 .11126709 .36698915 .09225464 .32798768 .048233034 .27799989 .023223877 .23899842 .023223877 .18998719 .023223877 .15899658 .0602417 .15899658 .121276859 .15899658 .16529846 .18199158 .26634217 .21199036 .3173523 .24899292 .38139344 .3019867 .4084015 .34098817 .4084015 .41799928 .4084015 .43598939 .32936097 .43598939 .32136537L.43299867 .3073578 .3889923 .13127136Z" />
<path id="font_1_3" d="M.70599368 .22944641C.7200012 .22944641 .7409973 .22944641 .7409973 .25045777 .7409973 .27246095 .7220001 .27246095 .70599368 .27246095H.42099V.5578003C.42099 .573761 .42099 .59277346 .39898683 .59277346 .37799073 .59277346 .37799073 .57177737 .37799073 .5578003V.27246095H.09199524C.07798767 .27246095 .056991579 .27246095 .056991579 .25144959 .056991579 .22944641 .07598877 .22944641 .09199524 .22944641H.37799073V-.056793214C.37799073-.07279968 .37799073-.091796878 .3999939-.091796878 .42099-.091796878 .42099-.07080078 .42099-.056793214V.22944641H.70599368Z" />
<path id="font_1_4" d="M.47299195 .31976319C.47299195 .38682557 .46998597 .47288514 .43499757 .5479431 .3909912 .64201357 .31498719 .6660156 .25698854 .6660156 .19699097 .6660156 .12098694 .64201357 .07699585 .5459442 .04499817 .47688294 .039993287 .39582826 .039993287 .31976319 .039993287 .25471498 .041992189 .15765381 .084991458 .07858276 .13198853-.0064697267 .20999146-.022460938 .2559967-.022460938 .32099916-.022460938 .394989 .0055389406 .43699647 .097595218 .46699525 .1646576 .47299195 .23971558 .47299195 .31976319M.25698854 .002532959C.22698975 .002532959 .15499878 .016540528 .13598633 .12962342 .12599182 .18867493 .12599182 .2747345 .12599182 .33177186 .12599182 .39982606 .12599182 .47888185 .13798523 .53393557 .1579895 .6230011 .22200012 .64100649 .2559967 .64100649 .2939911 .64100649 .35699464 .62098696 .37599183 .5279236 .3869934 .47288514 .3869934 .39482118 .3869934 .33177186 .3869934 .2697296 .3869934 .18566895 .3769989 .12661743 .35598756 .012542725 .28199769 .002532959 .25698854 .002532959Z" />
<path id="font_5_2" d="M.19599915 .053985597C.19599915 .08299255 .17298889 .10798645 .14199829 .10798645 .11099243 .10798645 .08799744 .08299255 .08799744 .053985597 .08799744 .024993897 .11099243 0 .14199829 0 .17298889 0 .19599915 .024993897 .19599915 .053985597Z" />
<path id="font_1_6" d="M.0289917 .19602967V.16503906H.3019867V.07901001C.3019867 .041992189 .29899598 .0309906 .22399903 .0309906H.20199585V0C.2649994 .0029907227 .33499146 .0029907227 .34199525 .0029907227 .34700013 .0029907227 .4189911 .0029907227 .48199464 0V.0309906H.45999146C.3849945 .0309906 .38198854 .041992189 .38198854 .07901001V.16503906H.48399354V.19602967H.38198854V.64974978C.38198854 .669754 .38198854 .6767578 .36299134 .6767578 .35099793 .6767578 .34999085 .67575076 .34098817 .66174319L.0289917 .19602967M.06098938 .19602967 .30799867 .56581118V.19602967H.06098938Z" />
<path id="font_7_1" d="M.48399354 .14129639C.47200013 .24234009 .41999818 .44140626 .2669983 .44140626 .12799073 .44140626 .04598999 .30436708 .04598999 .26335145 .04598999 .24934387 .05999756 .24934387 .06399536 .24934387 .07798767 .24934387 .07899475 .25335694 .083999637 .26635743 .10598755 .3283844 .18199158 .35839845 .25299073 .35839845 .41299439 .35839845 .44799806 .21533203 .44799806 .089279178 .44799806 .06526184 .44699098 .041259767 .44099427 .023239136 .4149933-.060791017 .3889923-.1628418 .3889923-.18984986 .3889923-.19584656 .3919983-.21484375 .4079895-.21484375 .4269867-.21484375 .43598939-.18484497 .44400025-.15882874 .44499208-.15583802 .47099305-.07080078 .48098756 .017242432 .4850006 .055267335 .55400088 .23434448 .6369934 .3874054 .6519928 .4123993 .6519928 .4143982 .6519928 .41740418 .6519928 .42840577 .6429901 .43139649 .6339874 .43139649 .6299896 .43139649 .6230011 .43139649 .61898806 .4263916 .6159973 .4223938 .5369873 .2843628 .48399354 .14129639Z" />
<path id="font_8_1" d="M.3929901-.23400879C.3929901-.22801209 .3899994-.2250061 .37799073-.2130127 .24699402-.0900116 .21099854 .08799744 .21099854 .25 .21099854 .4169922 .25 .59098818 .37399293 .71099856 .3919983 .7279968 .3929901 .72898867 .3929901 .73498538 .3929901 .746994 .38198854 .75 .37298585 .75 .35198976 .75 .29899598 .69999697 .28799439 .68899539 .18798828 .5950012 .10998535 .43998719 .10998535 .25 .10998535 .008987427 .23199463-.13800049 .28399659-.18701172 .2919922-.19400025 .35099793-.25 .37298585-.25 .3769989-.25 .3929901-.25 .3929901-.23400879Z" />
<path id="font_8_5" d="M.48399354 .2983551C.48399354 .38616944 .4119873 .453125 .2579956 .453125 .20098877 .453125 .07299805 .45111085 .07299805 .3592224 .07299805 .3143158 .10699463 .29336549 .13798523 .29336549 .17199707 .29336549 .20298767 .31730653 .20298767 .3582306 .20298767 .3871765 .18598938 .40412904 .18299866 .407135 .19299317 .40911866 .21699524 .41311646 .2539978 .41311646 .32598878 .41311646 .36698915 .377182 .36698915 .2983551V.26641847C.20098877 .26641847 .032989503 .22340393 .032989503 .11224365 .032989503 .013137817 .1579895-.005859375 .22999573-.005859375 .30599977-.005859375 .35798646 .027130127 .3849945 .07418823 .3849945 .04815674 .3849945 .0001373291 .49198915 .0001373291H.54100039C.55999758 .0001373291 .57398989 .0001373291 .57398989 .025131226 .57398989 .04914856 .55799868 .04914856 .5479889 .04914856 .48399354 .05015564 .48399354 .060165407 .48399354 .084198V.2983551M.36698915 .13928223C.36698915 .03413391 .25099183 .03413391 .24699402 .03413391 .19599915 .03413391 .1539917 .06718445 .1539917 .11224365 .1539917 .14529419 .17199707 .22340393 .36698915 .23242188V.13928223Z" />
<path id="font_8_2" d="M.34899903 .25C.34899903 .4909973 .22698975 .6380005 .1749878 .68699648 .16699219 .69400027 .10798645 .75 .085998538 .75 .07899475 .75 .06599426 .74798586 .06599426 .73399356 .06599426 .7279968 .069992069 .723999 .07998657 .71398928 .20199585 .59599307 .24798584 .43699647 .24798584 .25 .24798584 .08299255 .20899964-.09100342 .084991458-.2110138 .066986087-.22801209 .06599426-.2290039 .06599426-.23400879 .06599426-.2480011 .07798767-.25 .085998538-.25 .10699463-.25 .1599884-.2000122 .17098999-.18901062 .2709961-.09500122 .34899903 .05999756 .34899903 .25Z" />
<path id="font_8_3" d="M.29499818 .63653567H.4079895V.6855469C.37298585 .6825409 .2649994 .6825409 .22299195 .6825409 .18099976 .6825409 .07199097 .6825409 .036987306 .6855469V.63653567H.1499939V.04899597H.036987306V0C.07199097 .0029907227 .17999268 .0029907227 .22200012 .0029907227 .2639923 .0029907227 .37298585 .0029907227 .4079895 0V.04899597H.29499818V.63653567Z" />
<path id="font_8_11" d="M.56199648 .30513C.56199648 .42419435 .48999024 .4501953 .40299989 .4501953 .27999879 .4501953 .23098755 .3601532 .22399903 .3451538H.22299195V.4501953L.049987794 .44218446V.39317323C.10998535 .39317323 .117996219 .39317323 .117996219 .3541565V.04899597H.049987794V0C.12399292 .0029907227 .13598633 .0029907227 .17599488 .0029907227 .21699524 .0029907227 .22698975 .0029907227 .30299378 0V.04899597H.23498535V.2541046C.23498535 .36616517 .32699586 .41018678 .3869934 .41018678 .4249878 .41018678 .44499208 .38917542 .44499208 .3141327V.04899597H.3769989V0C.45098878 .0029907227 .46299745 .0029907227 .5029907 .0029907227 .5439911 .0029907227 .55400088 .0029907227 .6299896 0V.04899597H.56199648V.30513Z" />
<path id="font_8_14" d="M.22299195 .3953247H.37399293V.44433595H.22299195V.6352234H.17199707C.17098999 .541275 .12399292 .43832398 .021987915 .43533326V.3953247H.10598755V.123184207C.10598755 .009140015 .20498657-.005859375 .2669983-.005859375 .34498597-.005859375 .3929901 .05014038 .3929901 .123184207V.1762085H.34199525V.12617493C.34199525 .055145265 .30599977 .037139894 .2809906 .037139894 .22299195 .037139894 .22299195 .09716797 .22299195 .1211853V.3953247Z" />
<path id="font_8_7" d="M.49198915 .11613464C.49198915 .13212586 .47698976 .13212586 .46598817 .13212586 .44599916 .13212586 .44599916 .13113404 .43798829 .11312866 .41799928 .06512451 .37298585 .037139894 .31399537 .037139894 .17199707 .037139894 .17199707 .18112183 .17199707 .22612 .17199707 .28611756 .17298889 .41011048 .3039856 .41011048 .31098939 .41011048 .36499024 .40911866 .36499024 .40411378 .36499024 .40312196 .36299134 .40011598 .3619995 .39912416 .35299684 .38812257 .34899903 .3721161 .34899903 .35812379 .34899903 .3171234 .37998963 .29312135 .4139862 .29312135 .44499208 .29312135 .47898866 .31411744 .47898866 .3591156 .47898866 .453125 .33898927 .453125 .2999878 .453125 .10798645 .453125 .038986207 .33111573 .038986207 .22212219 .038986207 .09613037 .1289978-.005859375 .29499818-.005859375 .33198548-.005859375 .3809967 .0001373291 .4229889 .026138306 .47999574 .06112671 .49198915 .11312866 .49198915 .11613464Z" />
<path id="font_8_12" d="M.55799868 .21812439C.55799868 .3491211 .46598817 .453125 .29599 .453125 .11999512 .453125 .032989503 .3441162 .032989503 .21812439 .032989503 .09413147 .12298584-.005859375 .29499818-.005859375 .47399903-.005859375 .55799868 .09913635 .55799868 .21812439M.29599 .037139894C.1659851 .037139894 .1659851 .14213562 .1659851 .22912598 .1659851 .3131256 .1659851 .41311646 .29499818 .41311646 .4249878 .41311646 .4249878 .3131256 .4249878 .22912598 .4249878 .14312744 .4249878 .037139894 .29599 .037139894Z" />
<path id="font_8_8" d="M.36799623 .6863251V.6373291C.42799378 .6373291 .43598939 .6373291 .43598939 .5982971V.40518189C.3919983 .43719483 .34498597 .4501953 .29699708 .4501953 .13398743 .4501953 .038986207 .35118104 .038986207 .22216797 .038986207 .089141849 .1329956-.005859375 .2849884-.005859375 .34799195-.005859375 .397995 .018127442 .42999269 .044128419V-.005859375L.61499026 .0001373291V.0491333C.5549927 .0491333 .5469971 .0491333 .5469971 .088134769V.69433596L.36799623 .6863251M.42999269 .10914612C.4079895 .074142459 .3600006 .03413391 .29599 .03413391 .17199707 .03413391 .17199707 .15414429 .17199707 .22015381 .17199707 .27816773 .17298889 .32118226 .19898987 .3581848 .22499085 .39819337 .272995 .41018678 .30799867 .41018678 .35798646 .41018678 .39898683 .3881836 .42999269 .34918214V.10914612Z" />
<path id="font_8_10" d="M.23999024 .6163025C.23999024 .66830447 .19799805 .6953125 .1619873 .6953125 .115997318 .6953125 .08299255 .65631106 .08299255 .6173096 .08299255 .5753021 .116989139 .53829959 .1619873 .53829959 .19999695 .53829959 .23999024 .56829836 .23999024 .6163025M.054992677 .44218446V.39318849C.11299133 .39318849 .11999512 .39318849 .11999512 .35417176V.04899597H.051986696V0C.11898804 .0019989014 .13198853 .0029907227 .17399597 .0029907227 .22299195 .0029907227 .23599243 .0019989014 .2919922 0V.04899597H.23098755V.4501953L.054992677 .44218446Z" />
<clipPath id="clip_9">
<path transform="matrix(1,0,0,-1,94.494,60.889009)" d="M184.25424 0C198.42766 0 209.7662-25.51193 212.60106-25.51193H269.29469C272.12953-25.51193 283.46809 0 297.6415 0Z" />
</clipPath>
<g id="pattern_tile_10">
<path transform="matrix(1,0,0,-1,0,177.059)" stroke-width=".3985" stroke-linecap="butt" stroke-miterlimit="10" stroke-linejoin="miter" fill="none" stroke="#afafaf" d="M.49814 0V99.62769" />
</g>
<pattern id="pattern_10" patternUnits="userSpaceOnUse" patternContentUnits="userSpaceOnUse" x="0" y="0" width="2.98883" height="99.62769">
<g transform="matrix(1,0,0,-1,-0,177.059)">
<use x="0" y="0" ns3:href="#pattern_tile_10" />
</g>
</pattern>
<path id="font_11_2" d="M.2559967 .30978395H.43798829C.58299258 .30978395 .69699099 .39375306 .69699099 .4947052 .69699099 .5936432 .58499148 .6826172 .43798829 .6826172H.057998659V.64660647H.08198547C.15899658 .64660647 .16099549 .63661196 .16099549 .6016388V.080963138C.16099549 .04698181 .15899658 .035995485 .08198547 .035995485H.057998659V0C.10798645 .0019989014 .17199707 .0039978029 .20799256 .0039978029 .24499512 .0039978029 .30899049 .0019989014 .35899354 0V.035995485H.33499146C.2579956 .035995485 .2559967 .04598999 .2559967 .080963138V.30978395M.41299439 .64660647C.5799866 .64660647 .58999636 .5526581 .58999636 .4947052 .58999636 .45072938 .58999636 .34179688 .41299439 .34179688H.2519989V.6076355C.2519989 .63861086 .25299073 .64660647 .2999878 .64660647H.41299439Z" />
<path id="font_11_10" d="M.5289917 .21325684C.5289917 .3382721 .42199708 .44628907 .28399659 .44628907 .1459961 .44628907 .038986207 .3382721 .038986207 .21325684 .038986207 .0892334 .14898682-.009765625 .28399659-.009765625 .4189911-.009765625 .5289917 .0892334 .5289917 .21325684M.28399659 .022232056C.24699402 .022232056 .19299317 .034225465 .1599884 .083236698 .1329956 .12423706 .12998963 .17625427 .12998963 .22225952 .12998963 .2652588 .1309967 .32426454 .1659851 .36727906 .19099427 .39627076 .23298645 .41827394 .28399659 .41827394 .34298707 .41827394 .3849945 .39027406 .40699769 .3592682 .43499757 .32026673 .43798829 .27026368 .43798829 .22225952 .43798829 .17424011 .43499757 .12124634 .4059906 .08023071 .3789978 .042236329 .33299256 .022232056 .28399659 .022232056Z" />
<path id="font_11_12" d="M.3789978 .4202881C.3789978 .43728639 .3789978 .44628907 .36499024 .44628907 .3600006 .44628907 .35798646 .44628907 .34498597 .4342804 .34298707 .43328858 .33299256 .4242859 .32699586 .419281 .29699708 .4402771 .25898744 .44628907 .22200012 .44628907 .07899475 .44628907 .04499817 .37127687 .04499817 .3212738 .04499817 .28926087 .05899048 .2632599 .08299255 .24325562 .12098694 .21025086 .15899658 .20324707 .22099304 .19325257 .2709961 .18424988 .35198976 .17024231 .35198976 .10324097 .35198976 .0642395 .32499696 .018234253 .22898865 .018234253 .1329956 .018234253 .09799194 .08123779 .07998657 .14924622 .07699585 .1622467 .07598877 .1662445 .06199646 .1662445 .04499817 .1662445 .04499817 .15924073 .04499817 .13923645V.016220093C.04499817-.00077819827 .04499817-.009765625 .05899048-.009765625 .067993167-.009765625 .08699036 .011230469 .10699463 .033233644 .15098572-.0077667238 .20498657-.009765625 .22898865-.009765625 .35899354-.009765625 .40699769 .06022644 .40699769 .13124085 .40699769 .16925049 .3899994 .19924927 .3639984 .22325135 .32598878 .258255 .27999879 .26626588 .24499512 .27226258 .16499329 .28627015 .099990848 .29826356 .099990848 .35127259 .099990848 .38327027 .1269989 .422287 .22200012 .422287 .33799745 .422287 .34298707 .34127809 .34498597 .31227113 .34599305 .30126954 .35798646 .30126954 .3619995 .30126954 .3789978 .30126954 .3789978 .30827333 .3789978 .3272705V.4202881Z" />
<path id="font_11_13" d="M.20098877 .39465333H.35699464V.43066407H.20098877V.6147156H.16699219C.1659851 .5246887 .125 .42565919 .0289917 .4226532V.39465333H.12199402V.1250763C.12199402 .01322937 .20599365-.009765625 .2619934-.009765625 .32899476-.009765625 .375 .047195436 .375 .12606812V.1809845H.34098817V.12705994C.34098817 .059173585 .30899049 .022232056 .269989 .022232056 .20098877 .022232056 .20098877 .10609436 .20098877 .124069217V.39465333Z" />
<path id="font_11_1" d="M.31399537 .18101502V.24902344H.019989014V.18101502H.31399537Z" />
<path id="font_11_3" d="M.3889923 .39941407C.37098695 .3914032 .36099244 .375412 .36099244 .3554077 .36099244 .32839967 .37998963 .30841065 .4079895 .30841065 .43499757 .30841065 .45599366 .32540895 .45599366 .35740663 .45599366 .44628907 .31698609 .44628907 .2889862 .44628907 .13899231 .44628907 .04598999 .33140565 .04598999 .21635437 .04598999 .090270999 .15299988-.009765625 .28399659-.009765625 .43299867-.009765625 .46798707 .10827637 .46798707 .120285037 .46798707 .1322937 .45498658 .1322937 .45098878 .1322937 .43798829 .1322937 .43699647 .12928772 .43199159 .11528015 .4099884 .053253175 .35699464 .022232056 .29599 .022232056 .22698975 .022232056 .13699341 .07325745 .13699341 .21734619 .13699341 .34440614 .19898987 .41427613 .2919922 .41427613 .30499269 .41427613 .35299684 .41427613 .3889923 .39941407Z" />
<path id="font_11_14" d="M.36099244 .43040467V.39439393C.42799378 .39439393 .43598939 .3874054 .43598939 .3383789V.16729737C.43598939 .07925415 .3789978 .018234253 .30299378 .018234253 .21199036 .018234253 .20799256 .06124878 .20799256 .11227417V.44140626L.053985597 .43040467V.39439393C.1289978 .39439393 .1289978 .3914032 .1289978 .3023529V.15228272C.1289978 .08325195 .1289978-.009765625 .29599-.009765625 .31799317-.009765625 .3909912-.009765625 .43899537 .07424927H.43998719V-.009765625L.58999636 .00022888184V.036239625C.522995 .036239625 .5149994 .04324341 .5149994 .09225464V.44140626L.36099244 .43040467Z" />
<path id="font_11_11" d="M.19898987 .22819519C.19898987 .31228639 .23799134 .4133911 .33299256 .4133911 .32398988 .40638734 .31599427 .39337159 .31599427 .3773651 .31599427 .34432984 .34199525 .3313141 .36099244 .3313141 .3849945 .3313141 .40699769 .34732057 .40699769 .3773651 .40699769 .4113922 .375 .44140626 .32798768 .44140626 .27799989 .44140626 .22299195 .4104004 .19299317 .33432008H.19198609V.44140626L.04899597 .43040467V.39437867C.115997318 .39437867 .12399292 .38737489 .12399292 .33831788V.07904053C.12399292 .035995485 .11399841 .035995485 .04899597 .035995485V0C.053985597 0 .12199402 .0039978029 .16299439 .0039978029 .20599365 .0039978029 .25 .0019989014 .29299928 0V.035995485H.272995C.19898987 .035995485 .19898987 .04699707 .19898987 .08103943V.22819519Z" />
<path id="font_11_8" d="M.82199099 .3032837C.82199099 .3903656 .7789917 .44140626 .6719971 .44140626 .59298709 .44140626 .5389862 .39837647 .5119934 .34832765 .49198915 .41940309 .43798829 .44140626 .36499024 .44140626 .2829895 .44140626 .22999573 .39637757 .20199585 .34432984H.20098877V.44140626L.053985597 .43040467V.39437867C.12098694 .39437867 .1289978 .38737489 .1289978 .33831788V.07904053C.1289978 .035995485 .11898804 .035995485 .053985597 .035995485V0C.055999757 0 .12599182 .0039978029 .16799927 .0039978029 .20498657 .0039978029 .27398683 .0009918213 .2829895 0V.035995485C.21798706 .035995485 .20799256 .035995485 .20799256 .07904053V.25923158C.20799256 .36434938 .29100038 .4133911 .35699464 .4133911 .4269867 .4133911 .43598939 .3583374 .43598939 .3072815V.07904053C.43598939 .035995485 .42599488 .035995485 .36099244 .035995485V0C.36299134 0 .43299867 .0039978029 .47499085 .0039978029 .5119934 .0039978029 .58099368 .0009918213 .58999636 0V.035995485C.5249939 .035995485 .5149994 .035995485 .5149994 .07904053V.25923158C.5149994 .36434938 .59799197 .4133911 .6639862 .4133911 .73399356 .4133911 .7429962 .3583374 .7429962 .3072815V.07904053C.7429962 .035995485 .73298647 .035995485 .66799929 .035995485V0C.66999819 0 .73999026 .0039978029 .7819977 .0039978029 .81900027 .0039978029 .8880005 .0009918213 .8969879 0V.035995485C.83200076 .035995485 .82199099 .035995485 .82199099 .07904053V.3032837Z" />
<path id="font_11_4" d="M.35598756 .68333438V.6473236C.4229889 .6473236 .43099977 .6403351 .43099977 .59135439V.38438417C.3939972 .4203949 .34599305 .44140626 .29100038 .44140626 .1579895 .44140626 .04598999 .34136964 .04598999 .21531677 .04598999 .09025574 .1519928-.009765625 .2789917-.009765625 .36099244-.009765625 .4099884 .034240724 .4269867 .052246095V-.009765625L.58099368 .00022888184V.036239625C.5139923 .036239625 .5059967 .04324341 .5059967 .09225464V.69433596L.35598756 .68333438M.4269867 .105270389C.40098573 .058242799 .34999085 .018234253 .2849884 .018234253 .22898865 .018234253 .18899536 .051239015 .16899109 .08026123 .14898682 .11026001 .13699341 .15028382 .13699341 .21430969 .13699341 .23731995 .13699341 .3123474 .17799378 .359375 .21798706 .40438844 .2669983 .4133911 .29599 .4133911 .34399415 .4133911 .3869934 .39138795 .4149933 .3553772 .4269867 .33937074 .4269867 .33836366 .4269867 .3193512V.105270389Z" />
<path id="font_11_7" d="M.20599365 .69433596 .055999757 .68333438V.6473236C.12298584 .6473236 .1309967 .6403198 .1309967 .59129336V.07901001C.1309967 .035995485 .12098694 .035995485 .055999757 .035995485V0C.057998659 0 .12799073 .0039978029 .16799927 .0039978029 .20599365 .0039978029 .24299622 .0029907227 .2809906 0V.035995485C.21598816 .035995485 .20599365 .035995485 .20599365 .07901001V.69433596Z" />
<path id="font_11_6" d="M.21099854 .6168213C.21099854 .645813 .18699646 .6738281 .15299988 .6738281 .12298584 .6738281 .09599304 .64982607 .09599304 .6168213 .09599304 .5808258 .125 .55882266 .15299988 .55882266 .18499756 .55882266 .21099854 .5838165 .21099854 .6168213M.05899048 .43040467V.39439393C.12199402 .39439393 .1309967 .38839723 .1309967 .3393402V.07904053C.1309967 .035995485 .12098694 .035995485 .055999757 .035995485V0C.057998659 0 .12799073 .0039978029 .16799927 .0039978029 .20298767 .0039978029 .23899842 .0029907227 .27398683 0V.035995485C.21598816 .035995485 .20599365 .035995485 .20599365 .07803345V.44140626L.05899048 .43040467Z" />
<path id="font_11_9" d="M.5149994 .3032837C.5149994 .3903656 .47200013 .44140626 .36499024 .44140626 .2829895 .44140626 .22999573 .39637757 .20199585 .34432984H.20098877V.44140626L.053985597 .43040467V.39437867C.12098694 .39437867 .1289978 .38737489 .1289978 .33831788V.07904053C.1289978 .035995485 .11898804 .035995485 .053985597 .035995485V0C.055999757 0 .12599182 .0039978029 .16799927 .0039978029 .20498657 .0039978029 .27398683 .0009918213 .2829895 0V.035995485C.21798706 .035995485 .20799256 .035995485 .20799256 .07904053V.25923158C.20799256 .36434938 .29100038 .4133911 .35699464 .4133911 .4269867 .4133911 .43598939 .3583374 .43598939 .3072815V.07904053C.43598939 .035995485 .42599488 .035995485 .36099244 .035995485V0C.36299134 0 .43299867 .0039978029 .47499085 .0039978029 .5119934 .0039978029 .58099368 .0009918213 .58999636 0V.035995485C.5249939 .035995485 .5149994 .035995485 .5149994 .07904053V.3032837Z" />
<path id="font_11_5" d="M.43998719 .22851563C.46099855 .22851563 .46798707 .22851563 .46798707 .25050355 .46798707 .33839417 .4189911 .44628907 .269989 .44628907 .13899231 .44628907 .038986207 .34239198 .038986207 .21949768 .038986207 .092315677 .1499939-.009765625 .2829895-.009765625 .41799928-.009765625 .46798707 .09832764 .46798707 .12036133 .46798707 .12435913 .46598817 .13438416 .45098878 .13438416 .43798829 .13438416 .43598939 .12837219 .43299867 .11836243 .4019928 .037246705 .32598878 .022232056 .2899933 .022232056 .24299622 .022232056 .19799805 .043258668 .16799927 .08131409 .1309967 .12837219 .12998963 .18945313 .12998963 .22851563H.43998719M.1309967 .25450135C.14199829 .39530946 .23199463 .41827394 .269989 .41827394 .3929901 .41827394 .39698792 .27947999 .397995 .25450135H.1309967Z" />
<clipPath id="clip_12">
<path transform="matrix(1,0,0,-1,94.494,60.889009)" d="M212.60106-65.19774V-25.51193H269.29469V-65.19774ZM269.29469-25.51193" />
</clipPath>
<g id="pattern_tile_13">
<path transform="matrix(1,0,0,-1,0,177.059)" stroke-width=".3985" stroke-linecap="butt" stroke-miterlimit="10" stroke-linejoin="miter" fill="none" stroke="#a3a3a3" d="M0 0 3.08846 3.08846" />
</g>
<pattern id="pattern_13" patternUnits="userSpaceOnUse" patternContentUnits="userSpaceOnUse" x="0" y="0" width="2.98883" height="2.98883">
<clipPath id="clip_14">
<path d="M -.99628 -.99628 L 3.9851 -.99628 L 3.9851 3.9851 L -.99628 3.9851 Z" />
</clipPath>
<g clip-path="url(#clip_14)">
<g transform="matrix(1,0,0,-1,-0,177.059)">
<use x="0" y="0" ns3:href="#pattern_tile_13" />
<use x="0" y="-2.98883" ns3:href="#pattern_tile_13" />
<use x="-2.98883" y="0" ns3:href="#pattern_tile_13" />
<use x="-2.98883" y="-2.98883" ns3:href="#pattern_tile_13" />
</g>
</g>
</pattern>
<path id="font_5_7" d="M.6539917 .67807009C.6569977 .68907168 .6569977 .69107058 .6569977 .69407656 .6569977 .69506838 .6559906 .7050781 .644989 .7050781 .6399994 .7050781 .6389923 .70407107 .6269989 .6900635 .61299136 .6750641 .625 .6880646 .57899478 .6340332 .5419922 .6900635 .48399354 .7050781 .43099977 .7050781 .3019867 .7050781 .17999268 .58999636 .17999268 .46990968 .17999268 .42886354 .19299317 .39483644 .21899414 .3668213 .24798584 .336792 .272995 .3307953 .34498597 .31178285L.42900086 .29075624C.46099855 .27975465 .49398805 .24871826 .49398805 .19168091 .49398805 .1026001 .40899659 .008529663 .30899049 .008529663 .25 .008529663 .1309967 .026550293 .1309967 .15464783 .1309967 .16365052 .1309967 .17866516 .13699341 .20869446 .13899231 .21269226 .13899231 .21469116 .13899231 .21569824 .13899231 .21969605 .13699341 .22669983 .125 .22669983 .11299133 .22669983 .11199951 .2217102 .10798645 .20469666L.054992677-.011474609C.054992677-.017471314 .05999756-.022460938 .066986087-.022460938 .07199097-.022460938 .07299805-.021469117 .085998538-.007461548 .09199524-.00047302247 .12098694 .03555298 .1329956 .048568727 .18499756-.018463135 .2769928-.022460938 .30699159-.022460938 .44499208-.022460938 .5649872 .10661316 .5649872 .23271179 .5649872 .35681153 .46699525 .38183595 .43598939 .38883973L.34498597 .41285707C.31199647 .42086793 .25099183 .4368744 .25099183 .51293948 .25099183 .5890045 .33099366 .677063 .43099977 .677063 .47099305 .677063 .5099945 .6660614 .5379944 .63804629 .57598879 .6010132 .57699587 .54696658 .57699587 .5209503 .57699587 .48791505 .57299807 .47691346 .57299807 .4689026 .57299807 .46089173 .57699587 .45588685 .58699038 .45588685 .59799197 .45588685 .59799197 .457901 .6029968 .47691346L.6539917 .67807009Z" />
<path id="font_15_1" d="M.6749878 .22944641C.69299319 .22944641 .71199038 .22944641 .71199038 .25144959 .71199038 .27246095 .69200137 .27246095 .6749878 .27246095H.12298584C.10598755 .27246095 .085998538 .27246095 .085998538 .25144959 .085998538 .22944641 .10499573 .22944641 .12298584 .22944641H.6749878Z" />
<path id="font_1_1" d="M.34098817-.23803711C.34098817-.23303223 .33799745-.23002625 .33198548-.22303772 .20298767-.105026248 .1639862 .07498169 .1639862 .24996948 .1639862 .40498353 .19400025 .59298709 .33499146 .72698977 .33898927 .73098757 .34098817 .73399356 .34098817 .7389984 .34098817 .74598696 .33599855 .75 .32899476 .75 .31698609 .75 .22698975 .6779785 .17298889 .568985 .125 .47297669 .100997928 .36997987 .100997928 .25097657 .100997928 .17897034 .10998535 .064971927 .16499329-.053024293 .22399903-.17602539 .31698609-.24902344 .32899476-.24902344 .33599855-.24902344 .34098817-.24502564 .34098817-.23803711Z" />
<path id="font_1_2" d="M.2979889 .25097657C.2979889 .3329773 .28599549 .4429779 .23399353 .5539856 .1749878 .6769867 .08198547 .75 .069992069 .75 .05999756 .75 .057998659 .74198916 .057998659 .7389984 .057998659 .73399356 .05999756 .73098757 .066986087 .72398379 .125 .6719818 .23498535 .5359802 .23498535 .25097657 .23498535 .10797119 .20899964-.091033939 .06399536-.22602844 .06199646-.22903443 .057998659-.23303223 .057998659-.23803711 .057998659-.24102783 .05999756-.24902344 .069992069-.24902344 .08198547-.24902344 .17199707-.17703247 .22599793-.06802368 .27398683 .02796936 .2979889 .13098145 .2979889 .25097657Z" />
<path id="font_8_6" d="M.21998596 .69433596 .040985109 .6863251V.6373291C.100997928 .6373291 .10899353 .6373291 .10899353 .5982971V.0001373291H.1599884L.20698548 .057144166C.23899842 .025131226 .28799439-.005859375 .35899354-.005859375 .5149994-.005859375 .61698916 .088134769 .61698916 .22216797 .61698916 .35717774 .519989 .4501953 .37199403 .4501953 .2919922 .4501953 .23899842 .41618348 .21998596 .40219117V.69433596M.22599793 .34617616C.25099183 .3781891 .29899598 .41018678 .3600006 .41018678 .48399354 .41018678 .48399354 .2901764 .48399354 .22416687 .48399354 .18215943 .48399354 .13014221 .46299745 .09414673 .42999269 .038131715 .36898805 .03413391 .34899903 .03413391 .2869873 .03413391 .24699402 .072143558 .22599793 .104141239V.34617616Z" />
<path id="font_8_4" d="M.2689972 .44525147C.16799927 .46725465 .16499329 .5342407 .16499329 .5482483 .16499329 .59524539 .19599915 .65322878 .29699708 .65322878 .45498658 .65322878 .49398805 .5452423 .5049896 .47924806 .5079956 .46324159 .5079956 .45825196 .5309906 .45825196 .55599978 .45825196 .5569916 .46324159 .5569916 .48724366V.6692352C.5569916 .6872406 .5569916 .6982422 .5369873 .6982422 .5279999 .6982422 .5269928 .6972351 .5149994 .6862335L.47099305 .64323428C.4149933 .6872406 .34999085 .6982422 .29599 .6982422 .13598633 .6982422 .06599426 .59724429 .06599426 .49725343 .06599426 .4252472 .10699463 .3792572 .115997318 .36924745 .17098999 .31425477 .20399475 .30725099 .30799867 .28526307 .32398988 .28225709 .33999635 .27926637 .35499574 .2752533 .4139862 .2632599 .43099977 .2602539 .46398927 .22625733 .46499635 .22425843 .4909973 .19726563 .4909973 .15327454 .4909973 .13327027 .4850006 .03727722 .35598756 .03727722 .29599 .03727722 .125 .04827881 .116989139 .20426941 .115997318 .22225952 .115997318 .22825623 .09199524 .22825623 .06599426 .22825623 .06599426 .22225952 .06599426 .19825745V.01727295C.06599426-.0007324219 .06599426-.01171875 .085998538-.01171875 .09399414-.01171875 .09599304-.01171875 .10499573-.0027313233 .11099243 .0012664795 .1329956 .026275635 .1519928 .042266847 .21299744-.0017242432 .3019867-.01171875 .35699464-.01171875 .526001-.01171875 .58999636 .1002655 .58999636 .20326233 .58999636 .31126405 .5089874 .3942566 .4139862 .4142456L.2689972 .44525147Z" />
<path id="font_8_15" d="M.3769989 .44218446V.39318849C.43699647 .39318849 .44499208 .39318849 .44499208 .354187V.16415406C.44499208 .08413696 .3929901 .03413391 .31599427 .03413391 .23899842 .03413391 .23498535 .056137086 .23498535 .10914612V.4501953L.049987794 .44218446V.39318849C.10998535 .39318849 .117996219 .39318849 .117996219 .354187V.12315369C.117996219 .014129639 .20399475-.005859375 .30099488-.005859375 .33198548-.005859375 .3999939-.005859375 .45098878 .06913757V-.005859375L.6299896 .0001373291V.0491333C.56999209 .0491333 .56199648 .0491333 .56199648 .088134769V.4501953L.3769989 .44218446Z" />
<path id="font_8_13" d="M.21998596 .21809387C.21998596 .29112245 .24699402 .4071808 .34399415 .41018678 .33299256 .39918519 .32798768 .3821869 .32798768 .36616517 .32798768 .32214356 .36299134 .30213929 .3909912 .30213929 .4229889 .30213929 .45498658 .32414247 .45498658 .36616517 .45498658 .41719056 .40299989 .4501953 .34399415 .4501953 .27398683 .4501953 .23098755 .39918519 .20899964 .341156H.20799256V.4501953L.040985109 .44218446V.39318849C.100997928 .39318849 .10899353 .39318849 .10899353 .35417176V.04899597H.040985109V0C.114990238 .0029907227 .12098694 .0029907227 .16899109 .0029907227 .19400025 .0029907227 .2519989 .0029907227 .30499269 0V.04899597H.21998596V.21809387Z" />
<path id="font_8_9" d="M.47599793 .21496582C.49699403 .21496582 .5089874 .21496582 .5089874 .2429657 .5089874 .26498414 .5069885 .35305787 .44198609 .4071045 .39698792 .4441223 .33699037 .453125 .28799439 .453125 .116989139 .453125 .032989503 .345047 .032989503 .22497559 .032989503 .09408569 .13198853-.005859375 .3019867-.005859375 .46699525-.005859375 .5089874 .1000824 .5089874 .11605835 .5089874 .13604737 .4889984 .13604737 .48298646 .13604737 .46499635 .13604737 .46299745 .13005066 .45700074 .11605835 .43399049 .06410217 .37298585 .037139894 .30999757 .037139894 .16799927 .037139894 .1659851 .16601563 .1659851 .21496582H.47599793M.1659851 .25097657C.16799927 .29701234 .17298889 .41311646 .28799439 .41311646 .40499879 .41311646 .40899659 .29100038 .41099549 .25097657H.1659851Z" />
</defs>
<path transform="matrix(1,0,0,-1,94.494,60.889009)" d="M-85.04042-93.54454V0H85.04042V-93.54454ZM85.04042 0" fill="#ece6d4" />
<path transform="matrix(1,0,0,-1,94.494,60.889009)" stroke-width=".3985" stroke-linecap="butt" stroke-miterlimit="10" stroke-linejoin="miter" fill="none" stroke="#1a1a1a" d="M-85.04042-93.54454V0H85.04042V-93.54454ZM85.04042 0" />
<path transform="matrix(1,0,0,-1,94.494,60.889009)" stroke-width=".49814" stroke-linecap="butt" stroke-miterlimit="10" stroke-linejoin="miter" fill="none" stroke="#000000" d="M-85.04042 0H85.04042" />
<use data-text="O" ns3:href="#font_1_8" transform="matrix(8.9664,0,0,-8.9664,12.975006,56.044008)" fill="#1a1a1a" />
<use data-text="r" ns3:href="#font_1_17" transform="matrix(8.9664,0,0,-8.9664,20.13916,56.044008)" fill="#1a1a1a" />
<use data-text="i" ns3:href="#font_1_13" transform="matrix(8.9664,0,0,-8.9664,23.743653,56.044008)" fill="#1a1a1a" />
<use data-text="g" ns3:href="#font_1_12" transform="matrix(8.9664,0,0,-8.9664,26.308043,56.044008)" fill="#1a1a1a" />
<use data-text="i" ns3:href="#font_1_13" transform="matrix(8.9664,0,0,-8.9664,30.916773,56.044008)" fill="#1a1a1a" />
<use data-text="n" ns3:href="#font_1_16" transform="matrix(8.9664,0,0,-8.9664,33.481164,56.044008)" fill="#1a1a1a" />
<use data-text="a" ns3:href="#font_1_9" transform="matrix(8.9664,0,0,-8.9664,38.600984,56.044008)" fill="#1a1a1a" />
<use data-text="l" ns3:href="#font_1_14" transform="matrix(8.9664,0,0,-8.9664,43.20971,56.044008)" fill="#1a1a1a" />
<use data-text="m" ns3:href="#font_1_15" transform="matrix(8.9664,0,0,-8.9664,48.840616,56.044008)" fill="#1a1a1a" />
<use data-text="u" ns3:href="#font_1_18" transform="matrix(8.9664,0,0,-8.9664,56.273759,56.044008)" fill="#1a1a1a" />
<use data-text="d" ns3:href="#font_1_10" transform="matrix(8.9664,0,0,-8.9664,61.39357,56.044008)" fill="#1a1a1a" />
<use data-text="l" ns3:href="#font_1_14" transform="matrix(8.9664,0,0,-8.9664,66.51339,56.044008)" fill="#1a1a1a" />
<use data-text="i" ns3:href="#font_1_13" transform="matrix(8.9664,0,0,-8.9664,69.07778,56.044008)" fill="#1a1a1a" />
<use data-text="n" ns3:href="#font_1_16" transform="matrix(8.9664,0,0,-8.9664,71.64217,56.044008)" fill="#1a1a1a" />
<use data-text="e" ns3:href="#font_1_11" transform="matrix(8.9664,0,0,-8.9664,76.761989,56.044008)" fill="#1a1a1a" />
<path transform="matrix(1,0,0,-1,94.494,60.889009)" d="M-28.3468-65.19774V0H28.3468V-65.19774ZM28.3468 0" fill="#c8c8c8" />
<path transform="matrix(1,0,0,-1,94.494,60.889009)" stroke-width=".99628" stroke-linecap="butt" stroke-miterlimit="10" stroke-linejoin="miter" fill="none" stroke="#1a1a1a" d="M-28.3468-65.19774V0H28.3468V-65.19774ZM28.3468 0" />
<path transform="matrix(1,0,0,-1,94.494,60.889009)" stroke-width="1.19553" stroke-linecap="butt" stroke-miterlimit="10" stroke-linejoin="miter" fill="none" stroke="#1a1a1a" d="M-28.3468 0H28.3468" />
<g clip-path="url(#clip_2)">
<rect transform="matrix(1,0,0,-1,0,177.059)" fill="url(#pattern_3)" x="66.1472" y="50.97226" width="56.693605" height="65.19774" />
</g>
<path transform="matrix(1,0,0,-1,94.494,60.889009)" stroke-width=".99628" stroke-linecap="butt" stroke-miterlimit="10" stroke-linejoin="miter" fill="none" stroke="#1a1a1a" d="M-28.3468-65.19774V0H28.3468V-65.19774ZM28.3468 0" />
<path transform="matrix(1,0,0,-1,94.494,60.889009)" stroke-width=".49814" stroke-linecap="butt" stroke-miterlimit="10" stroke-linejoin="miter" fill="none" stroke="#5f5f5f" d="M35.43349-4.98138V-60.21635" />
<path transform="matrix(0,-1,-1,-0,129.92749,65.870388)" d="M3.95445 0C3.46883 .11903 1.33417 .79364 0 1.52777V-1.52777C1.33417-.79364 3.46883-.11903 3.95445 0Z" fill="#5f5f5f" />
<path transform="matrix(0,-1,-1,-0,129.92749,65.870388)" stroke-width=".49814" stroke-linecap="butt" stroke-miterlimit="10" stroke-linejoin="miter" fill="none" stroke="#5f5f5f" d="M3.95445 0C3.46883 .11903 1.33417 .79364 0 1.52777V-1.52777C1.33417-.79364 3.46883-.11903 3.95445 0Z" />
<path transform="matrix(0,1,1,0,129.92749,121.10536)" d="M3.95445 0C3.46883 .11903 1.33417 .79364 0 1.52777V-1.52777C1.33417-.79364 3.46883-.11903 3.95445 0Z" fill="#5f5f5f" />
<path transform="matrix(0,1,1,0,129.92749,121.10536)" stroke-width=".49814" stroke-linecap="butt" stroke-miterlimit="10" stroke-linejoin="miter" fill="none" stroke="#5f5f5f" d="M3.95445 0C3.46883 .11903 1.33417 .79364 0 1.52777V-1.52777C1.33417-.79364 3.46883-.11903 3.95445 0Z" />
<use data-text="L" ns3:href="#font_5_4" transform="matrix(8.9664,0,0,-8.9664,135.489,96.55102)" fill="#1a1a1a" />
<path transform="matrix(1,0,0,-1,94.494,60.889009)" stroke-width=".49814" stroke-linecap="butt" stroke-miterlimit="10" stroke-linejoin="miter" fill="none" stroke="#5f5f5f" d="M-23.36542 17.00824H23.36542" />
<path transform="matrix(-1,-0,0,1,71.128589,43.880769)" d="M3.95445 0C3.46883 .11903 1.33417 .79364 0 1.52777V-1.52777C1.33417-.79364 3.46883-.11903 3.95445 0Z" fill="#5f5f5f" />
<path transform="matrix(-1,-0,0,1,71.128589,43.880769)" stroke-width=".49814" stroke-linecap="butt" stroke-miterlimit="10" stroke-linejoin="miter" fill="none" stroke="#5f5f5f" d="M3.95445 0C3.46883 .11903 1.33417 .79364 0 1.52777V-1.52777C1.33417-.79364 3.46883-.11903 3.95445 0Z" />
<path transform="matrix(1,0,0,-1,117.85942,43.880769)" d="M3.95445 0C3.46883 .11903 1.33417 .79364 0 1.52777V-1.52777C1.33417-.79364 3.46883-.11903 3.95445 0Z" fill="#5f5f5f" />
<path transform="matrix(1,0,0,-1,117.85942,43.880769)" stroke-width=".49814" stroke-linecap="butt" stroke-miterlimit="10" stroke-linejoin="miter" fill="none" stroke="#5f5f5f" d="M3.95445 0C3.46883 .11903 1.33417 .79364 0 1.52777V-1.52777C1.33417-.79364 3.46883-.11903 3.95445 0Z" />
<use data-text="D" ns3:href="#font_5_3" transform="matrix(8.9664,0,0,-8.9664,78.601009,39.315019)" fill="#1a1a1a" />
<use data-text="=" ns3:href="#font_1_7" transform="matrix(8.9664,0,0,-8.9664,89.019969,39.315019)" fill="#1a1a1a" />
<use data-text="2" ns3:href="#font_1_5" transform="matrix(8.9664,0,0,-8.9664,98.74851,39.315019)" fill="#1a1a1a" />
<use data-text="R" ns3:href="#font_5_6" transform="matrix(8.9664,0,0,-8.9664,103.35724,39.315019)" fill="#1a1a1a" />
<path transform="matrix(1,0,0,-1,94.494,60.889009)" stroke-width=".3985" stroke-linecap="butt" stroke-dasharray="2.98883,2.98883" stroke-miterlimit="10" stroke-linejoin="miter" fill="none" stroke="#6a6a6a" d="M-28.3468 15.59082V0" />
<path transform="matrix(1,0,0,-1,94.494,60.889009)" stroke-width=".3985" stroke-linecap="butt" stroke-dasharray="2.98883,2.98883" stroke-miterlimit="10" stroke-linejoin="miter" fill="none" stroke="#6a6a6a" d="M28.3468 15.59082V0" />
<path transform="matrix(1,0,0,-1,94.494,60.889009)" stroke-width=".99628" stroke-linecap="butt" stroke-miterlimit="10" stroke-linejoin="miter" fill="none" stroke="#1a1a1a" d="M0 42.5202V8.00597" />
<path transform="matrix(0,1,1,0,94.494,52.883039)" d="M4.65524 0C4.08356 .15102 1.57062 1.00674 0 1.93799V-1.93799C1.57062-1.00674 4.08356-.15102 4.65524 0Z" fill="#1a1a1a" />
<path transform="matrix(0,1,1,0,94.494,52.883039)" stroke-width=".99628" stroke-linecap="butt" stroke-miterlimit="10" stroke-linejoin="miter" fill="none" stroke="#1a1a1a" d="M4.65524 0C4.08356 .15102 1.57062 1.00674 0 1.93799V-1.93799C1.57062-1.00674 4.08356-.15102 4.65524 0Z" />
<use data-text="V" ns3:href="#font_5_8" transform="matrix(8.9664,0,0,-8.9664,90.783008,13.432007)" fill="#1a1a1a" />
<use data-text="q" ns3:href="#font_5_9" transform="matrix(8.9664,0,0,-8.9664,7.3059999,89.494)" fill="#1a1a1a" />
<use data-text="u" ns3:href="#font_6_3" transform="matrix(5.9776,0,0,-5.9776,11.423,90.55701)" fill="#1a1a1a" />
<use data-text="l" ns3:href="#font_6_1" transform="matrix(5.9776,0,0,-5.9776,15.463858,90.55701)" fill="#1a1a1a" />
<use data-text="t" ns3:href="#font_6_2" transform="matrix(5.9776,0,0,-5.9776,17.567975,90.55701)" fill="#1a1a1a" />
<use data-text="=" ns3:href="#font_1_7" transform="matrix(8.9664,0,0,-8.9664,23.503,89.494)" fill="#1a1a1a" />
<use data-text="γ" ns3:href="#font_5_1" transform="matrix(8.9664,0,0,-8.9664,33.22258,89.494)" fill="#1a1a1a" />
<use data-text="L" ns3:href="#font_5_4" transform="matrix(8.9664,0,0,-8.9664,38.503789,89.494)" fill="#1a1a1a" />
<use data-text="N" ns3:href="#font_5_5" transform="matrix(8.9664,0,0,-8.9664,44.7713,89.494)" fill="#1a1a1a" />
<use data-text="q" ns3:href="#font_7_2" transform="matrix(5.9776,0,0,-5.9776,52.139,90.490009)" fill="#1a1a1a" />
<use data-text="+" ns3:href="#font_1_3" transform="matrix(8.9664,0,0,-8.9664,16.521,101.449008)" fill="#1a1a1a" />
<use data-text="0" ns3:href="#font_1_4" transform="matrix(8.9664,0,0,-8.9664,25.218409,101.449008)" fill="#1a1a1a" />
<use data-text="." ns3:href="#font_5_2" transform="matrix(8.9664,0,0,-8.9664,29.827139,101.449008)" fill="#1a1a1a" />
<use data-text="4" ns3:href="#font_1_6" transform="matrix(8.9664,0,0,-8.9664,32.39153,101.449008)" fill="#1a1a1a" />
<use data-text="γ" ns3:href="#font_5_1" transform="matrix(8.9664,0,0,-8.9664,38.54248,101.449008)" fill="#1a1a1a" />
<use data-text="R" ns3:href="#font_5_6" transform="matrix(8.9664,0,0,-8.9664,43.814725,101.449008)" fill="#1a1a1a" />
<use data-text="N" ns3:href="#font_5_5" transform="matrix(8.9664,0,0,-8.9664,50.853349,101.449008)" fill="#1a1a1a" />
<use data-text="γ" ns3:href="#font_7_1" transform="matrix(5.9776,0,0,-5.9776,58.21,102.44501)" fill="#1a1a1a" />
<use data-text="(" ns3:href="#font_8_1" transform="matrix(8.9664,0,0,-8.9664,48.874006,167.51201)" fill="#1a1a1a" />
<use data-text="a" ns3:href="#font_8_5" transform="matrix(8.9664,0,0,-8.9664,52.998548,167.51201)" fill="#1a1a1a" />
<use data-text=")" ns3:href="#font_8_2" transform="matrix(8.9664,0,0,-8.9664,58.15423,167.51201)" fill="#1a1a1a" />
<use data-text="I" ns3:href="#font_8_3" transform="matrix(8.9664,0,0,-8.9664,65.81154,167.51201)" fill="#1a1a1a" />
<use data-text="n" ns3:href="#font_8_11" transform="matrix(8.9664,0,0,-8.9664,69.81055,167.51201)" fill="#1a1a1a" />
<use data-text="t" ns3:href="#font_8_14" transform="matrix(8.9664,0,0,-8.9664,75.41455,167.51201)" fill="#1a1a1a" />
<use data-text="a" ns3:href="#font_8_5" transform="matrix(8.9664,0,0,-8.9664,79.53909,167.51201)" fill="#1a1a1a" />
<use data-text="c" ns3:href="#font_8_7" transform="matrix(8.9664,0,0,-8.9664,84.69476,167.51201)" fill="#1a1a1a" />
<use data-text="t" ns3:href="#font_8_14" transform="matrix(8.9664,0,0,-8.9664,89.41109,167.51201)" fill="#1a1a1a" />
<use data-text="c" ns3:href="#font_8_7" transform="matrix(8.9664,0,0,-8.9664,97.06839,167.51201)" fill="#1a1a1a" />
<use data-text="o" ns3:href="#font_8_12" transform="matrix(8.9664,0,0,-8.9664,101.78471,167.51201)" fill="#1a1a1a" />
<use data-text="n" ns3:href="#font_8_11" transform="matrix(8.9664,0,0,-8.9664,107.09282,167.51201)" fill="#1a1a1a" />
<use data-text="d" ns3:href="#font_8_8" transform="matrix(8.9664,0,0,-8.9664,112.98375,167.51201)" fill="#1a1a1a" />
<use data-text="i" ns3:href="#font_8_10" transform="matrix(8.9664,0,0,-8.9664,118.874668,167.51201)" fill="#1a1a1a" />
<use data-text="t" ns3:href="#font_8_14" transform="matrix(8.9664,0,0,-8.9664,121.824619,167.51201)" fill="#1a1a1a" />
<use data-text="i" ns3:href="#font_8_10" transform="matrix(8.9664,0,0,-8.9664,125.94916,167.51201)" fill="#1a1a1a" />
<use data-text="o" ns3:href="#font_8_12" transform="matrix(8.9664,0,0,-8.9664,128.8991,167.51201)" fill="#1a1a1a" />
<use data-text="n" ns3:href="#font_8_11" transform="matrix(8.9664,0,0,-8.9664,134.2072,167.51201)" fill="#1a1a1a" />
<path transform="matrix(1,0,0,-1,94.494,60.889009)" d="M155.90744-93.54454V0H325.9883V-93.54454ZM325.9883 0" fill="#ece6d4" />
<path transform="matrix(1,0,0,-1,94.494,60.889009)" stroke-width=".3985" stroke-linecap="butt" stroke-miterlimit="10" stroke-linejoin="miter" fill="none" stroke="#1a1a1a" d="M155.90744-93.54454V0H325.9883V-93.54454ZM325.9883 0" />
<path transform="matrix(1,0,0,-1,94.494,60.889009)" stroke-width=".49814" stroke-linecap="butt" stroke-miterlimit="10" stroke-linejoin="miter" fill="none" stroke="#000000" d="M155.90744 0H325.9883" />
<use data-text="O" ns3:href="#font_1_8" transform="matrix(8.9664,0,0,-8.9664,349.099,56.044008)" fill="#1a1a1a" />
<use data-text="r" ns3:href="#font_1_17" transform="matrix(8.9664,0,0,-8.9664,356.26316,56.044008)" fill="#1a1a1a" />
<use data-text="i" ns3:href="#font_1_13" transform="matrix(8.9664,0,0,-8.9664,359.86766,56.044008)" fill="#1a1a1a" />
<use data-text="g" ns3:href="#font_1_12" transform="matrix(8.9664,0,0,-8.9664,362.43205,56.044008)" fill="#1a1a1a" />
<use data-text="i" ns3:href="#font_1_13" transform="matrix(8.9664,0,0,-8.9664,367.04078,56.044008)" fill="#1a1a1a" />
<use data-text="n" ns3:href="#font_1_16" transform="matrix(8.9664,0,0,-8.9664,369.60517,56.044008)" fill="#1a1a1a" />
<use data-text="a" ns3:href="#font_1_9" transform="matrix(8.9664,0,0,-8.9664,374.72499,56.044008)" fill="#1a1a1a" />
<use data-text="l" ns3:href="#font_1_14" transform="matrix(8.9664,0,0,-8.9664,379.3337,56.044008)" fill="#1a1a1a" />
<use data-text="m" ns3:href="#font_1_15" transform="matrix(8.9664,0,0,-8.9664,384.9646,56.044008)" fill="#1a1a1a" />
<use data-text="u" ns3:href="#font_1_18" transform="matrix(8.9664,0,0,-8.9664,392.39775,56.044008)" fill="#1a1a1a" />
<use data-text="d" ns3:href="#font_1_10" transform="matrix(8.9664,0,0,-8.9664,397.51756,56.044008)" fill="#1a1a1a" />
<use data-text="l" ns3:href="#font_1_14" transform="matrix(8.9664,0,0,-8.9664,402.63737,56.044008)" fill="#1a1a1a" />
<use data-text="i" ns3:href="#font_1_13" transform="matrix(8.9664,0,0,-8.9664,405.20176,56.044008)" fill="#1a1a1a" />
<use data-text="n" ns3:href="#font_1_16" transform="matrix(8.9664,0,0,-8.9664,407.76615,56.044008)" fill="#1a1a1a" />
<use data-text="e" ns3:href="#font_1_11" transform="matrix(8.9664,0,0,-8.9664,412.88597,56.044008)" fill="#1a1a1a" />
<g clip-path="url(#clip_9)">
<rect transform="matrix(1,0,0,-1,0,177.059)" fill="url(#pattern_10)" x="274.76325" y="86.673069" width="121.35724" height="33.481935" />
</g>
<path transform="matrix(1,0,0,-1,94.494,60.889009)" stroke-width=".3985" stroke-linecap="butt" stroke-miterlimit="10" stroke-linejoin="miter" fill="none" stroke="#1a1a1a" d="M184.25424 0C198.42766 0 209.7662-25.51193 212.60106-25.51193H269.29469C272.12953-25.51193 283.46809 0 297.6415 0Z" />
<path transform="matrix(1,0,0,-1,94.494,60.889009)" stroke-width=".49814" stroke-linecap="butt" stroke-dasharray="2.98883,2.98883" stroke-miterlimit="10" stroke-linejoin="miter" fill="none" stroke="#1a1a1a" d="M184.25424 0C198.42766 0 209.7662-25.51193 212.60106-25.51193H269.29469C272.12953-25.51193 283.46809 0 297.6415 0" />
<path transform="matrix(1,0,0,-1,94.494,60.889009)" stroke-width=".49814" stroke-linecap="butt" stroke-dasharray="2.98883,2.98883" stroke-miterlimit="10" stroke-linejoin="miter" fill="none" stroke="#5f5f5f" d="M167.246-25.51193H314.64973" />
<use data-text="P" ns3:href="#font_11_2" transform="matrix(6.9738,0,0,-6.9738,197.37,93.074008)" fill="#5f5f5f" />
<use data-text="o" ns3:href="#font_11_10" transform="matrix(6.9738,0,0,-6.9738,202.50969,93.074008)" fill="#5f5f5f" />
<use data-text="s" ns3:href="#font_11_12" transform="matrix(6.9738,0,0,-6.9738,206.48476,93.074008)" fill="#5f5f5f" />
<use data-text="t" ns3:href="#font_11_13" transform="matrix(6.9738,0,0,-6.9738,209.64389,93.074008)" fill="#5f5f5f" />
<use data-text="-" ns3:href="#font_11_1" transform="matrix(6.9738,0,0,-6.9738,212.75421,93.074008)" fill="#5f5f5f" />
<use data-text="s" ns3:href="#font_11_12" transform="matrix(6.9738,0,0,-6.9738,215.43912,93.074008)" fill="#5f5f5f" />
<use data-text="c" ns3:href="#font_11_3" transform="matrix(6.9738,0,0,-6.9738,218.59825,93.074008)" fill="#5f5f5f" />
<use data-text="o" ns3:href="#font_11_10" transform="matrix(6.9738,0,0,-6.9738,222.14095,93.074008)" fill="#5f5f5f" />
<use data-text="u" ns3:href="#font_11_14" transform="matrix(6.9738,0,0,-6.9738,226.11602,93.074008)" fill="#5f5f5f" />
<use data-text="r" ns3:href="#font_11_11" transform="matrix(6.9738,0,0,-6.9738,230.51648,93.074008)" fill="#5f5f5f" />
<use data-text="m" ns3:href="#font_11_8" transform="matrix(6.9738,0,0,-6.9738,236.3117,93.074008)" fill="#5f5f5f" />
<use data-text="u" ns3:href="#font_11_14" transform="matrix(6.9738,0,0,-6.9738,242.64392,93.074008)" fill="#5f5f5f" />
<use data-text="d" ns3:href="#font_11_4" transform="matrix(6.9738,0,0,-6.9738,247.04439,93.074008)" fill="#5f5f5f" />
<use data-text="l" ns3:href="#font_11_7" transform="matrix(6.9738,0,0,-6.9738,251.44486,93.074008)" fill="#5f5f5f" />
<use data-text="i" ns3:href="#font_11_6" transform="matrix(6.9738,0,0,-6.9738,253.69739,93.074008)" fill="#5f5f5f" />
<use data-text="n" ns3:href="#font_11_9" transform="matrix(6.9738,0,0,-6.9738,255.94992,93.074008)" fill="#5f5f5f" />
<use data-text="e" ns3:href="#font_11_5" transform="matrix(6.9738,0,0,-6.9738,260.3504,93.074008)" fill="#5f5f5f" />
<path transform="matrix(1,0,0,-1,94.494,60.889009)" d="M212.60106-65.19774V0H269.29469V-65.19774ZM269.29469 0" fill="#c8c8c8" />
<path transform="matrix(1,0,0,-1,94.494,60.889009)" stroke-width=".99628" stroke-linecap="butt" stroke-miterlimit="10" stroke-linejoin="miter" fill="none" stroke="#1a1a1a" d="M212.60106-65.19774V0H269.29469V-65.19774ZM269.29469 0" />
<g clip-path="url(#clip_12)">
<rect transform="matrix(1,0,0,-1,0,177.059)" fill="url(#pattern_13)" x="307.09507" y="50.97226" width="56.693635" height="39.685808" />
</g>
<path transform="matrix(1,0,0,-1,94.494,60.889009)" d="M212.60106-25.51193V0H269.29469V-25.51193ZM269.29469 0" fill="#c8c8c8" fill-opacity=".6" />
<path transform="matrix(1,0,0,-1,94.494,60.889009)" stroke-width=".99628" stroke-linecap="butt" stroke-miterlimit="10" stroke-linejoin="miter" fill="none" stroke="#1a1a1a" d="M212.60106-65.19774V0H269.29469V-65.19774ZM269.29469 0" />
<path transform="matrix(1,0,0,-1,94.494,60.889009)" stroke-width=".49814" stroke-linecap="butt" stroke-miterlimit="10" stroke-linejoin="miter" fill="none" stroke="#5f5f5f" d="M276.38136-4.98138V-20.53055" />
<path transform="matrix(0,-1,-1,-0,370.87538,65.870388)" d="M3.95445 0C3.46883 .11903 1.33417 .79364 0 1.52777V-1.52777C1.33417-.79364 3.46883-.11903 3.95445 0Z" fill="#5f5f5f" />
<path transform="matrix(0,-1,-1,-0,370.87538,65.870388)" stroke-width=".49814" stroke-linecap="butt" stroke-miterlimit="10" stroke-linejoin="miter" fill="none" stroke="#5f5f5f" d="M3.95445 0C3.46883 .11903 1.33417 .79364 0 1.52777V-1.52777C1.33417-.79364 3.46883-.11903 3.95445 0Z" />
<path transform="matrix(0,1,1,0,370.87538,81.419559)" d="M3.95445 0C3.46883 .11903 1.33417 .79364 0 1.52777V-1.52777C1.33417-.79364 3.46883-.11903 3.95445 0Z" fill="#5f5f5f" />
<path transform="matrix(0,1,1,0,370.87538,81.419559)" stroke-width=".49814" stroke-linecap="butt" stroke-miterlimit="10" stroke-linejoin="miter" fill="none" stroke="#5f5f5f" d="M3.95445 0C3.46883 .11903 1.33417 .79364 0 1.52777V-1.52777C1.33417-.79364 3.46883-.11903 3.95445 0Z" />
<use data-text="S" ns3:href="#font_5_7" transform="matrix(8.9664,0,0,-8.9664,376.43403,76.70801)" fill="#1a1a1a" />
<path transform="matrix(1,0,0,-1,94.494,60.889009)" stroke-width=".49814" stroke-linecap="butt" stroke-miterlimit="10" stroke-linejoin="miter" fill="none" stroke="#5f5f5f" d="M293.38963-30.49332V-60.21635" />
<path transform="matrix(0,-1,-1,-0,387.8836,91.382328)" d="M3.95445 0C3.46883 .11903 1.33417 .79364 0 1.52777V-1.52777C1.33417-.79364 3.46883-.11903 3.95445 0Z" fill="#5f5f5f" />
<path transform="matrix(0,-1,-1,-0,387.8836,91.382328)" stroke-width=".49814" stroke-linecap="butt" stroke-miterlimit="10" stroke-linejoin="miter" fill="none" stroke="#5f5f5f" d="M3.95445 0C3.46883 .11903 1.33417 .79364 0 1.52777V-1.52777C1.33417-.79364 3.46883-.11903 3.95445 0Z" />
<path transform="matrix(0,1,1,0,387.8836,121.10536)" d="M3.95445 0C3.46883 .11903 1.33417 .79364 0 1.52777V-1.52777C1.33417-.79364 3.46883-.11903 3.95445 0Z" fill="#5f5f5f" />
<path transform="matrix(0,1,1,0,387.8836,121.10536)" stroke-width=".49814" stroke-linecap="butt" stroke-miterlimit="10" stroke-linejoin="miter" fill="none" stroke="#5f5f5f" d="M3.95445 0C3.46883 .11903 1.33417 .79364 0 1.52777V-1.52777C1.33417-.79364 3.46883-.11903 3.95445 0Z" />
<use data-text="L" ns3:href="#font_5_4" transform="matrix(8.9664,0,0,-8.9664,393.44203,108.892009)" fill="#1a1a1a" />
<use data-text="−" ns3:href="#font_15_1" transform="matrix(8.9664,0,0,-8.9664,401.75389,108.892009)" fill="#1a1a1a" />
<use data-text="S" ns3:href="#font_5_7" transform="matrix(8.9664,0,0,-8.9664,410.97135,108.892009)" fill="#1a1a1a" />
<path transform="matrix(1,0,0,-1,94.494,60.889009)" stroke-width=".99628" stroke-linecap="butt" stroke-miterlimit="10" stroke-linejoin="miter" fill="none" stroke="#1a1a1a" d="M240.94788 42.5202V8.00597" />
<path transform="matrix(0,1,1,0,335.4419,52.883039)" d="M4.65524 0C4.08356 .15102 1.57062 1.00674 0 1.93799V-1.93799C1.57062-1.00674 4.08356-.15102 4.65524 0Z" fill="#1a1a1a" />
<path transform="matrix(0,1,1,0,335.4419,52.883039)" stroke-width=".99628" stroke-linecap="butt" stroke-miterlimit="10" stroke-linejoin="miter" fill="none" stroke="#1a1a1a" d="M4.65524 0C4.08356 .15102 1.57062 1.00674 0 1.93799V-1.93799C1.57062-1.00674 4.08356-.15102 4.65524 0Z" />
<use data-text="V" ns3:href="#font_5_8" transform="matrix(8.9664,0,0,-8.9664,331.728,13.432007)" fill="#1a1a1a" />
<use data-text="q" ns3:href="#font_5_9" transform="matrix(8.9664,0,0,-8.9664,236.91101,89.79301)" fill="#1a1a1a" />
<use data-text="u" ns3:href="#font_6_3" transform="matrix(5.9776,0,0,-5.9776,241.029,90.85601)" fill="#1a1a1a" />
<use data-text="l" ns3:href="#font_6_1" transform="matrix(5.9776,0,0,-5.9776,245.06987,90.85601)" fill="#1a1a1a" />
<use data-text="t" ns3:href="#font_6_2" transform="matrix(5.9776,0,0,-5.9776,247.17398,90.85601)" fill="#1a1a1a" />
<use data-text="(" ns3:href="#font_1_1" transform="matrix(8.9664,0,0,-8.9664,250.54901,89.79301)" fill="#1a1a1a" />
<use data-text="S" ns3:href="#font_5_7" transform="matrix(8.9664,0,0,-8.9664,254.13558,89.79301)" fill="#1a1a1a" />
<use data-text=")" ns3:href="#font_1_2" transform="matrix(8.9664,0,0,-8.9664,260.27754,89.79301)" fill="#1a1a1a" />
<use data-text="=" ns3:href="#font_1_7" transform="matrix(8.9664,0,0,-8.9664,266.4195,89.79301)" fill="#1a1a1a" />
<use data-text="γ" ns3:href="#font_5_1" transform="matrix(8.9664,0,0,-8.9664,276.14808,89.79301)" fill="#1a1a1a" />
<use data-text="(" ns3:href="#font_1_1" transform="matrix(8.9664,0,0,-8.9664,281.4203,89.79301)" fill="#1a1a1a" />
<use data-text="L" ns3:href="#font_5_4" transform="matrix(8.9664,0,0,-8.9664,285.00685,89.79301)" fill="#1a1a1a" />
<use data-text="−" ns3:href="#font_15_1" transform="matrix(8.9664,0,0,-8.9664,291.27436,89.79301)" fill="#1a1a1a" />
<use data-text="S" ns3:href="#font_5_7" transform="matrix(8.9664,0,0,-8.9664,298.43855,89.79301)" fill="#1a1a1a" />
<use data-text=")" ns3:href="#font_1_2" transform="matrix(8.9664,0,0,-8.9664,304.5805,89.79301)" fill="#1a1a1a" />
<use data-text="N" ns3:href="#font_5_5" transform="matrix(8.9664,0,0,-8.9664,308.16706,89.79301)" fill="#1a1a1a" />
<use data-text="q" ns3:href="#font_7_2" transform="matrix(5.9776,0,0,-5.9776,315.52699,90.78901)" fill="#1a1a1a" />
<use data-text="+" ns3:href="#font_1_3" transform="matrix(8.9664,0,0,-8.9664,246.127,101.74801)" fill="#1a1a1a" />
<use data-text="0" ns3:href="#font_1_4" transform="matrix(8.9664,0,0,-8.9664,254.8244,101.74801)" fill="#1a1a1a" />
<use data-text="." ns3:href="#font_5_2" transform="matrix(8.9664,0,0,-8.9664,259.4331,101.74801)" fill="#1a1a1a" />
<use data-text="4" ns3:href="#font_1_6" transform="matrix(8.9664,0,0,-8.9664,261.9975,101.74801)" fill="#1a1a1a" />
<use data-text="γ" ns3:href="#font_5_1" transform="matrix(8.9664,0,0,-8.9664,268.14845,101.74801)" fill="#1a1a1a" />
<use data-text="R" ns3:href="#font_5_6" transform="matrix(8.9664,0,0,-8.9664,273.42073,101.74801)" fill="#1a1a1a" />
<use data-text="N" ns3:href="#font_5_5" transform="matrix(8.9664,0,0,-8.9664,280.45936,101.74801)" fill="#1a1a1a" />
<use data-text="γ" ns3:href="#font_7_1" transform="matrix(5.9776,0,0,-5.9776,287.81599,102.74401)" fill="#1a1a1a" />
<use data-text="(" ns3:href="#font_8_1" transform="matrix(8.9664,0,0,-8.9664,284.84,167.51201)" fill="#1a1a1a" />
<use data-text="b" ns3:href="#font_8_6" transform="matrix(8.9664,0,0,-8.9664,288.96455,167.51201)" fill="#1a1a1a" />
<use data-text=")" ns3:href="#font_8_2" transform="matrix(8.9664,0,0,-8.9664,294.85548,167.51201)" fill="#1a1a1a" />
<use data-text="S" ns3:href="#font_8_4" transform="matrix(8.9664,0,0,-8.9664,302.5128,167.51201)" fill="#1a1a1a" />
<use data-text="c" ns3:href="#font_8_7" transform="matrix(8.9664,0,0,-8.9664,308.40373,167.51201)" fill="#1a1a1a" />
<use data-text="o" ns3:href="#font_8_12" transform="matrix(8.9664,0,0,-8.9664,313.12007,167.51201)" fill="#1a1a1a" />
<use data-text="u" ns3:href="#font_8_15" transform="matrix(8.9664,0,0,-8.9664,318.42817,167.51201)" fill="#1a1a1a" />
<use data-text="r" ns3:href="#font_8_13" transform="matrix(8.9664,0,0,-8.9664,324.3191,167.51201)" fill="#1a1a1a" />
<use data-text="e" ns3:href="#font_8_9" transform="matrix(8.9664,0,0,-8.9664,328.6947,167.51201)" fill="#1a1a1a" />
<use data-text="d" ns3:href="#font_8_8" transform="matrix(8.9664,0,0,-8.9664,333.56346,167.51201)" fill="#1a1a1a" />
<use data-text="c" ns3:href="#font_8_7" transform="matrix(8.9664,0,0,-8.9664,342.9961,167.51201)" fill="#1a1a1a" />
<use data-text="o" ns3:href="#font_8_12" transform="matrix(8.9664,0,0,-8.9664,347.71244,167.51201)" fill="#1a1a1a" />
<use data-text="n" ns3:href="#font_8_11" transform="matrix(8.9664,0,0,-8.9664,353.02055,167.51201)" fill="#1a1a1a" />
<use data-text="d" ns3:href="#font_8_8" transform="matrix(8.9664,0,0,-8.9664,358.91148,167.51201)" fill="#1a1a1a" />
<use data-text="i" ns3:href="#font_8_10" transform="matrix(8.9664,0,0,-8.9664,364.8024,167.51201)" fill="#1a1a1a" />
<use data-text="t" ns3:href="#font_8_14" transform="matrix(8.9664,0,0,-8.9664,367.75236,167.51201)" fill="#1a1a1a" />
<use data-text="i" ns3:href="#font_8_10" transform="matrix(8.9664,0,0,-8.9664,371.8769,167.51201)" fill="#1a1a1a" />
<use data-text="o" ns3:href="#font_8_12" transform="matrix(8.9664,0,0,-8.9664,374.82685,167.51201)" fill="#1a1a1a" />
<use data-text="n" ns3:href="#font_8_11" transform="matrix(8.9664,0,0,-8.9664,380.13496,167.51201)" fill="#1a1a1a" />
</svg>