<?xml version='1.0' encoding='utf-8'?>
<svg xmlns="http://www.w3.org/2000/svg" xmlns:dc="http://purl.org/dc/elements/1.1/" xmlns:ns3="http://www.w3.org/1999/xlink" xmlns:rdf="http://www.w3.org/1999/02/22-rdf-syntax-ns#" width="393.84pt" height="274.823939pt" viewBox="0 0 393.84 274.823939" version="1.1">
 <metadata><rdf:RDF><rdf:Description><dc:figure_id>j3-grain-size</dc:figure_id><dc:journal>ocean_engineering</dc:journal><dc:paper>J3</dc:paper><dc:claim_id>j3-grain-size</dc:claim_id><dc:tier>2</dc:tier><dc:git_hash>0496db3f-dirty</dc:git_hash><dc:generated_utc>2026-04-19T23:12:56Z</dc:generated_utc><dc:data_sources>grain-size.parquet:d5f70800; grain-size.schema.yml:23ec75e9; grain-size.provenance.json:ddf6f48d; j3-grain-size.yml:aea46004</dc:data_sources><dc:generator>figgen</dc:generator><dc:description>Particle-size distribution curves for the three SNU silica sands used in this programme, reconstructed from the d10 / d50 / d60 / fines- content anchor points in manuscript @tbl-soil-properties via monotone PCHIP interpolation on log-diameter. No. 7 (d50 = 0.21 mm) is the test-bed sand for T1-T5; No. 8 (0.15 mm) is the silt-fraction sand used in T3; No. 5 (1.99 mm) is the coarse backfill. USCS textural subdivisions (fines/fine/medium/coarse sand/gravel) shown as faint band boundaries.
</dc:description><dc:claim_measured>{"no5_cu_matches_table": 3.33, "no5_d50_at_1_99_mm": 1.99, "no5_fines_zero": 0.0, "no7_cu_matches_table": 2.45, "no7_d50_at_0_21_mm": 0.21, "no7_fines_5_8_pct": 5.8, "no8_cu_matches_table": 2.27, "no8_d50_at_0_15_mm": 0.15, "no8_fines_12_4_pct": 12.4, "row_inventory_three_sands": "{'No. 5': 126, 'No. 7': 126, 'No. 8': 126}"}</dc:claim_measured><dc:claim_id_measured>j3-grain-size</dc:claim_id_measured></rdf:Description></rdf:RDF></metadata><defs>
  <style type="text/css">*{stroke-linejoin: round; stroke-linecap: butt}</style>
 </defs>
 <g id="figure_1">
  <g id="patch_1">
   <path d="M 0 274.823939  L 393.84 274.823939  L 393.84 0  L 0 0  z " style="fill: #ffffff" />
  </g>
  <g id="axes_1">
   <g id="patch_2">
    <path d="M 33.171719 245.272846  L 391.68 245.272846  L 391.68 2.884806  L 33.171719 2.884806  z " style="fill: #ffffff" />
   </g>
   <g id="patch_3">
    <path d="M 33.171719 245.272846  L 69.434892 245.272846  L 69.434892 2.884806  L 33.171719 2.884806  z " clip-path="url(#p5709c8220d)" style="fill: #f0f0f0; opacity: 0.6" />
   </g>
   <g id="patch_4">
    <path d="M 69.434892 245.272846  L 169.500549 245.272846  L 169.500549 2.884806  L 69.434892 2.884806  z " clip-path="url(#p5709c8220d)" style="fill: #ffffff; opacity: 0.6" />
   </g>
   <g id="patch_5">
    <path d="M 169.500549 245.272846  L 258.848483 245.272846  L 258.848483 2.884806  L 169.500549 2.884806  z " clip-path="url(#p5709c8220d)" style="fill: #f0f0f0; opacity: 0.6" />
   </g>
   <g id="patch_6">
    <path d="M 258.848483 245.272846  L 308.74845 245.272846  L 308.74845 2.884806  L 258.848483 2.884806  z " clip-path="url(#p5709c8220d)" style="fill: #ffffff; opacity: 0.6" />
   </g>
   <g id="patch_7">
    <path d="M 308.74845 245.272846  L 391.68 245.272846  L 391.68 2.884806  L 308.74845 2.884806  z " clip-path="url(#p5709c8220d)" style="fill: #f0f0f0; opacity: 0.6" />
   </g>
   <g id="matplotlib.axis_1">
    <g id="xtick_1">
     <g id="line2d_1">
      <path d="M 86.030694 245.272846  L 86.030694 2.884806  " clip-path="url(#p5709c8220d)" style="fill: none; stroke: #cccccc; stroke-opacity: 0.5; stroke-width: 0.5; stroke-linecap: square" />
     </g>
     <g id="line2d_2">
      <defs>
       <path id="m0cec949545" d="M 0 0  L 0 -3.5  " style="stroke: #262626; stroke-width: 0.8" />
      </defs>
      <g>
       <use ns3:href="#m0cec949545" x="86.030694" y="245.272846" style="fill: #262626; stroke: #262626; stroke-width: 0.8" />
      </g>
     </g>
     <g id="line2d_3">
      <defs>
       <path id="m5a257b84fa" d="M 0 0  L 0 3.5  " style="stroke: #262626; stroke-width: 0.8" />
      </defs>
      <g>
       <use ns3:href="#m5a257b84fa" x="86.030694" y="2.884806" style="fill: #262626; stroke: #262626; stroke-width: 0.8" />
      </g>
     </g>
     <g id="text_1">
      
      <g style="fill: #262626" transform="translate(77.885694 256.747689)">
       <text>
        <tspan x="0" y="-0.335187" style="font-size: 9px; font-family: 'Times New Roman'; fill: #262626">1</tspan>
        <tspan x="4.5" y="-0.335187" style="font-size: 9px; font-family: 'Times New Roman'; fill: #262626">0</tspan>
        <tspan x="9.135253" y="-5.745312" style="font-size: 6.3px; font-family: 'Times New Roman'; fill: #262626">−</tspan>
        <tspan x="12.688232" y="-5.745312" style="font-size: 6.3px; font-family: 'Times New Roman'; fill: #262626">1</tspan>
       </text>
      </g>
     </g>
    </g>
    <g id="xtick_2">
     <g id="line2d_4">
      <path d="M 218.862211 245.272846  L 218.862211 2.884806  " clip-path="url(#p5709c8220d)" style="fill: none; stroke: #cccccc; stroke-opacity: 0.5; stroke-width: 0.5; stroke-linecap: square" />
     </g>
     <g id="line2d_5">
      <g>
       <use ns3:href="#m0cec949545" x="218.862211" y="245.272846" style="fill: #262626; stroke: #262626; stroke-width: 0.8" />
      </g>
     </g>
     <g id="line2d_6">
      <g>
       <use ns3:href="#m5a257b84fa" x="218.862211" y="2.884806" style="fill: #262626; stroke: #262626; stroke-width: 0.8" />
      </g>
     </g>
     <g id="text_2">
      
      <g style="fill: #262626" transform="translate(212.517211 256.747689)">
       <text>
        <tspan x="0" y="-0.335187" style="font-size: 9px; font-family: 'Times New Roman'; fill: #262626">1</tspan>
        <tspan x="4.5" y="-0.335187" style="font-size: 9px; font-family: 'Times New Roman'; fill: #262626">0</tspan>
        <tspan x="9.135253" y="-5.745312" style="font-size: 6.3px; font-family: 'Times New Roman'; fill: #262626">0</tspan>
       </text>
      </g>
     </g>
    </g>
    <g id="xtick_3">
     <g id="line2d_7">
      <path d="M 351.693729 245.272846  L 351.693729 2.884806  " clip-path="url(#p5709c8220d)" style="fill: none; stroke: #cccccc; stroke-opacity: 0.5; stroke-width: 0.5; stroke-linecap: square" />
     </g>
     <g id="line2d_8">
      <g>
       <use ns3:href="#m0cec949545" x="351.693729" y="245.272846" style="fill: #262626; stroke: #262626; stroke-width: 0.8" />
      </g>
     </g>
     <g id="line2d_9">
      <g>
       <use ns3:href="#m5a257b84fa" x="351.693729" y="2.884806" style="fill: #262626; stroke: #262626; stroke-width: 0.8" />
      </g>
     </g>
     <g id="text_3">
      
      <g style="fill: #262626" transform="translate(345.348729 256.747689)">
       <text>
        <tspan x="0" y="-0.335187" style="font-size: 9px; font-family: 'Times New Roman'; fill: #262626">1</tspan>
        <tspan x="4.5" y="-0.335187" style="font-size: 9px; font-family: 'Times New Roman'; fill: #262626">0</tspan>
        <tspan x="9.135253" y="-5.745312" style="font-size: 6.3px; font-family: 'Times New Roman'; fill: #262626">1</tspan>
       </text>
      </g>
     </g>
    </g>
    <g id="xtick_4">
     <g id="line2d_10">
      <path d="M 33.171719 245.272846  L 33.171719 2.884806  " clip-path="url(#p5709c8220d)" style="fill: none; stroke: #cccccc; stroke-opacity: 0.5; stroke-width: 0.5; stroke-linecap: square" />
     </g>
     <g id="line2d_11">
      <defs>
       <path id="m858a753fb1" d="M 0 0  L 0 -2.1  " style="stroke: #262626; stroke-width: 0.5" />
      </defs>
      <g>
       <use ns3:href="#m858a753fb1" x="33.171719" y="245.272846" style="fill: #262626; stroke: #262626; stroke-width: 0.5" />
      </g>
     </g>
     <g id="line2d_12">
      <defs>
       <path id="mdd63f47163" d="M 0 0  L 0 2.1  " style="stroke: #262626; stroke-width: 0.5" />
      </defs>
      <g>
       <use ns3:href="#mdd63f47163" x="33.171719" y="2.884806" style="fill: #262626; stroke: #262626; stroke-width: 0.5" />
      </g>
     </g>
    </g>
    <g id="xtick_5">
     <g id="line2d_13">
      <path d="M 46.044423 245.272846  L 46.044423 2.884806  " clip-path="url(#p5709c8220d)" style="fill: none; stroke: #cccccc; stroke-opacity: 0.5; stroke-width: 0.5; stroke-linecap: square" />
     </g>
     <g id="line2d_14">
      <g>
       <use ns3:href="#m858a753fb1" x="46.044423" y="245.272846" style="fill: #262626; stroke: #262626; stroke-width: 0.5" />
      </g>
     </g>
     <g id="line2d_15">
      <g>
       <use ns3:href="#mdd63f47163" x="46.044423" y="2.884806" style="fill: #262626; stroke: #262626; stroke-width: 0.5" />
      </g>
     </g>
    </g>
    <g id="xtick_6">
     <g id="line2d_16">
      <path d="M 56.562188 245.272846  L 56.562188 2.884806  " clip-path="url(#p5709c8220d)" style="fill: none; stroke: #cccccc; stroke-opacity: 0.5; stroke-width: 0.5; stroke-linecap: square" />
     </g>
     <g id="line2d_17">
      <g>
       <use ns3:href="#m858a753fb1" x="56.562188" y="245.272846" style="fill: #262626; stroke: #262626; stroke-width: 0.5" />
      </g>
     </g>
     <g id="line2d_18">
      <g>
       <use ns3:href="#mdd63f47163" x="56.562188" y="2.884806" style="fill: #262626; stroke: #262626; stroke-width: 0.5" />
      </g>
     </g>
    </g>
    <g id="xtick_7">
     <g id="line2d_19">
      <path d="M 65.454832 245.272846  L 65.454832 2.884806  " clip-path="url(#p5709c8220d)" style="fill: none; stroke: #cccccc; stroke-opacity: 0.5; stroke-width: 0.5; stroke-linecap: square" />
     </g>
     <g id="line2d_20">
      <g>
       <use ns3:href="#m858a753fb1" x="65.454832" y="245.272846" style="fill: #262626; stroke: #262626; stroke-width: 0.5" />
      </g>
     </g>
     <g id="line2d_21">
      <g>
       <use ns3:href="#mdd63f47163" x="65.454832" y="2.884806" style="fill: #262626; stroke: #262626; stroke-width: 0.5" />
      </g>
     </g>
    </g>
    <g id="xtick_8">
     <g id="line2d_22">
      <path d="M 73.15799 245.272846  L 73.15799 2.884806  " clip-path="url(#p5709c8220d)" style="fill: none; stroke: #cccccc; stroke-opacity: 0.5; stroke-width: 0.5; stroke-linecap: square" />
     </g>
     <g id="line2d_23">
      <g>
       <use ns3:href="#m858a753fb1" x="73.15799" y="245.272846" style="fill: #262626; stroke: #262626; stroke-width: 0.5" />
      </g>
     </g>
     <g id="line2d_24">
      <g>
       <use ns3:href="#mdd63f47163" x="73.15799" y="2.884806" style="fill: #262626; stroke: #262626; stroke-width: 0.5" />
      </g>
     </g>
    </g>
    <g id="xtick_9">
     <g id="line2d_25">
      <path d="M 79.952657 245.272846  L 79.952657 2.884806  " clip-path="url(#p5709c8220d)" style="fill: none; stroke: #cccccc; stroke-opacity: 0.5; stroke-width: 0.5; stroke-linecap: square" />
     </g>
     <g id="line2d_26">
      <g>
       <use ns3:href="#m858a753fb1" x="79.952657" y="245.272846" style="fill: #262626; stroke: #262626; stroke-width: 0.5" />
      </g>
     </g>
     <g id="line2d_27">
      <g>
       <use ns3:href="#mdd63f47163" x="79.952657" y="2.884806" style="fill: #262626; stroke: #262626; stroke-width: 0.5" />
      </g>
     </g>
    </g>
    <g id="xtick_10">
     <g id="line2d_28">
      <path d="M 126.016965 245.272846  L 126.016965 2.884806  " clip-path="url(#p5709c8220d)" style="fill: none; stroke: #cccccc; stroke-opacity: 0.5; stroke-width: 0.5; stroke-linecap: square" />
     </g>
     <g id="line2d_29">
      <g>
       <use ns3:href="#m858a753fb1" x="126.016965" y="245.272846" style="fill: #262626; stroke: #262626; stroke-width: 0.5" />
      </g>
     </g>
     <g id="line2d_30">
      <g>
       <use ns3:href="#mdd63f47163" x="126.016965" y="2.884806" style="fill: #262626; stroke: #262626; stroke-width: 0.5" />
      </g>
     </g>
    </g>
    <g id="xtick_11">
     <g id="line2d_31">
      <path d="M 149.407434 245.272846  L 149.407434 2.884806  " clip-path="url(#p5709c8220d)" style="fill: none; stroke: #cccccc; stroke-opacity: 0.5; stroke-width: 0.5; stroke-linecap: square" />
     </g>
     <g id="line2d_32">
      <g>
       <use ns3:href="#m858a753fb1" x="149.407434" y="245.272846" style="fill: #262626; stroke: #262626; stroke-width: 0.5" />
      </g>
     </g>
     <g id="line2d_33">
      <g>
       <use ns3:href="#mdd63f47163" x="149.407434" y="2.884806" style="fill: #262626; stroke: #262626; stroke-width: 0.5" />
      </g>
     </g>
    </g>
    <g id="xtick_12">
     <g id="line2d_34">
      <path d="M 166.003236 245.272846  L 166.003236 2.884806  " clip-path="url(#p5709c8220d)" style="fill: none; stroke: #cccccc; stroke-opacity: 0.5; stroke-width: 0.5; stroke-linecap: square" />
     </g>
     <g id="line2d_35">
      <g>
       <use ns3:href="#m858a753fb1" x="166.003236" y="245.272846" style="fill: #262626; stroke: #262626; stroke-width: 0.5" />
      </g>
     </g>
     <g id="line2d_36">
      <g>
       <use ns3:href="#mdd63f47163" x="166.003236" y="2.884806" style="fill: #262626; stroke: #262626; stroke-width: 0.5" />
      </g>
     </g>
    </g>
    <g id="xtick_13">
     <g id="line2d_37">
      <path d="M 178.87594 245.272846  L 178.87594 2.884806  " clip-path="url(#p5709c8220d)" style="fill: none; stroke: #cccccc; stroke-opacity: 0.5; stroke-width: 0.5; stroke-linecap: square" />
     </g>
     <g id="line2d_38">
      <g>
       <use ns3:href="#m858a753fb1" x="178.87594" y="245.272846" style="fill: #262626; stroke: #262626; stroke-width: 0.5" />
      </g>
     </g>
     <g id="line2d_39">
      <g>
       <use ns3:href="#mdd63f47163" x="178.87594" y="2.884806" style="fill: #262626; stroke: #262626; stroke-width: 0.5" />
      </g>
     </g>
    </g>
    <g id="xtick_14">
     <g id="line2d_40">
      <path d="M 189.393705 245.272846  L 189.393705 2.884806  " clip-path="url(#p5709c8220d)" style="fill: none; stroke: #cccccc; stroke-opacity: 0.5; stroke-width: 0.5; stroke-linecap: square" />
     </g>
     <g id="line2d_41">
      <g>
       <use ns3:href="#m858a753fb1" x="189.393705" y="245.272846" style="fill: #262626; stroke: #262626; stroke-width: 0.5" />
      </g>
     </g>
     <g id="line2d_42">
      <g>
       <use ns3:href="#mdd63f47163" x="189.393705" y="2.884806" style="fill: #262626; stroke: #262626; stroke-width: 0.5" />
      </g>
     </g>
    </g>
    <g id="xtick_15">
     <g id="line2d_43">
      <path d="M 198.286349 245.272846  L 198.286349 2.884806  " clip-path="url(#p5709c8220d)" style="fill: none; stroke: #cccccc; stroke-opacity: 0.5; stroke-width: 0.5; stroke-linecap: square" />
     </g>
     <g id="line2d_44">
      <g>
       <use ns3:href="#m858a753fb1" x="198.286349" y="245.272846" style="fill: #262626; stroke: #262626; stroke-width: 0.5" />
      </g>
     </g>
     <g id="line2d_45">
      <g>
       <use ns3:href="#mdd63f47163" x="198.286349" y="2.884806" style="fill: #262626; stroke: #262626; stroke-width: 0.5" />
      </g>
     </g>
    </g>
    <g id="xtick_16">
     <g id="line2d_46">
      <path d="M 205.989507 245.272846  L 205.989507 2.884806  " clip-path="url(#p5709c8220d)" style="fill: none; stroke: #cccccc; stroke-opacity: 0.5; stroke-width: 0.5; stroke-linecap: square" />
     </g>
     <g id="line2d_47">
      <g>
       <use ns3:href="#m858a753fb1" x="205.989507" y="245.272846" style="fill: #262626; stroke: #262626; stroke-width: 0.5" />
      </g>
     </g>
     <g id="line2d_48">
      <g>
       <use ns3:href="#mdd63f47163" x="205.989507" y="2.884806" style="fill: #262626; stroke: #262626; stroke-width: 0.5" />
      </g>
     </g>
    </g>
    <g id="xtick_17">
     <g id="line2d_49">
      <path d="M 212.784175 245.272846  L 212.784175 2.884806  " clip-path="url(#p5709c8220d)" style="fill: none; stroke: #cccccc; stroke-opacity: 0.5; stroke-width: 0.5; stroke-linecap: square" />
     </g>
     <g id="line2d_50">
      <g>
       <use ns3:href="#m858a753fb1" x="212.784175" y="245.272846" style="fill: #262626; stroke: #262626; stroke-width: 0.5" />
      </g>
     </g>
     <g id="line2d_51">
      <g>
       <use ns3:href="#mdd63f47163" x="212.784175" y="2.884806" style="fill: #262626; stroke: #262626; stroke-width: 0.5" />
      </g>
     </g>
    </g>
    <g id="xtick_18">
     <g id="line2d_52">
      <path d="M 258.848483 245.272846  L 258.848483 2.884806  " clip-path="url(#p5709c8220d)" style="fill: none; stroke: #cccccc; stroke-opacity: 0.5; stroke-width: 0.5; stroke-linecap: square" />
     </g>
     <g id="line2d_53">
      <g>
       <use ns3:href="#m858a753fb1" x="258.848483" y="245.272846" style="fill: #262626; stroke: #262626; stroke-width: 0.5" />
      </g>
     </g>
     <g id="line2d_54">
      <g>
       <use ns3:href="#mdd63f47163" x="258.848483" y="2.884806" style="fill: #262626; stroke: #262626; stroke-width: 0.5" />
      </g>
     </g>
    </g>
    <g id="xtick_19">
     <g id="line2d_55">
      <path d="M 282.238952 245.272846  L 282.238952 2.884806  " clip-path="url(#p5709c8220d)" style="fill: none; stroke: #cccccc; stroke-opacity: 0.5; stroke-width: 0.5; stroke-linecap: square" />
     </g>
     <g id="line2d_56">
      <g>
       <use ns3:href="#m858a753fb1" x="282.238952" y="245.272846" style="fill: #262626; stroke: #262626; stroke-width: 0.5" />
      </g>
     </g>
     <g id="line2d_57">
      <g>
       <use ns3:href="#mdd63f47163" x="282.238952" y="2.884806" style="fill: #262626; stroke: #262626; stroke-width: 0.5" />
      </g>
     </g>
    </g>
    <g id="xtick_20">
     <g id="line2d_58">
      <path d="M 298.834754 245.272846  L 298.834754 2.884806  " clip-path="url(#p5709c8220d)" style="fill: none; stroke: #cccccc; stroke-opacity: 0.5; stroke-width: 0.5; stroke-linecap: square" />
     </g>
     <g id="line2d_59">
      <g>
       <use ns3:href="#m858a753fb1" x="298.834754" y="245.272846" style="fill: #262626; stroke: #262626; stroke-width: 0.5" />
      </g>
     </g>
     <g id="line2d_60">
      <g>
       <use ns3:href="#mdd63f47163" x="298.834754" y="2.884806" style="fill: #262626; stroke: #262626; stroke-width: 0.5" />
      </g>
     </g>
    </g>
    <g id="xtick_21">
     <g id="line2d_61">
      <path d="M 311.707458 245.272846  L 311.707458 2.884806  " clip-path="url(#p5709c8220d)" style="fill: none; stroke: #cccccc; stroke-opacity: 0.5; stroke-width: 0.5; stroke-linecap: square" />
     </g>
     <g id="line2d_62">
      <g>
       <use ns3:href="#m858a753fb1" x="311.707458" y="245.272846" style="fill: #262626; stroke: #262626; stroke-width: 0.5" />
      </g>
     </g>
     <g id="line2d_63">
      <g>
       <use ns3:href="#mdd63f47163" x="311.707458" y="2.884806" style="fill: #262626; stroke: #262626; stroke-width: 0.5" />
      </g>
     </g>
    </g>
    <g id="xtick_22">
     <g id="line2d_64">
      <path d="M 322.225223 245.272846  L 322.225223 2.884806  " clip-path="url(#p5709c8220d)" style="fill: none; stroke: #cccccc; stroke-opacity: 0.5; stroke-width: 0.5; stroke-linecap: square" />
     </g>
     <g id="line2d_65">
      <g>
       <use ns3:href="#m858a753fb1" x="322.225223" y="245.272846" style="fill: #262626; stroke: #262626; stroke-width: 0.5" />
      </g>
     </g>
     <g id="line2d_66">
      <g>
       <use ns3:href="#mdd63f47163" x="322.225223" y="2.884806" style="fill: #262626; stroke: #262626; stroke-width: 0.5" />
      </g>
     </g>
    </g>
    <g id="xtick_23">
     <g id="line2d_67">
      <path d="M 331.117866 245.272846  L 331.117866 2.884806  " clip-path="url(#p5709c8220d)" style="fill: none; stroke: #cccccc; stroke-opacity: 0.5; stroke-width: 0.5; stroke-linecap: square" />
     </g>
     <g id="line2d_68">
      <g>
       <use ns3:href="#m858a753fb1" x="331.117866" y="245.272846" style="fill: #262626; stroke: #262626; stroke-width: 0.5" />
      </g>
     </g>
     <g id="line2d_69">
      <g>
       <use ns3:href="#mdd63f47163" x="331.117866" y="2.884806" style="fill: #262626; stroke: #262626; stroke-width: 0.5" />
      </g>
     </g>
    </g>
    <g id="xtick_24">
     <g id="line2d_70">
      <path d="M 338.821025 245.272846  L 338.821025 2.884806  " clip-path="url(#p5709c8220d)" style="fill: none; stroke: #cccccc; stroke-opacity: 0.5; stroke-width: 0.5; stroke-linecap: square" />
     </g>
     <g id="line2d_71">
      <g>
       <use ns3:href="#m858a753fb1" x="338.821025" y="245.272846" style="fill: #262626; stroke: #262626; stroke-width: 0.5" />
      </g>
     </g>
     <g id="line2d_72">
      <g>
       <use ns3:href="#mdd63f47163" x="338.821025" y="2.884806" style="fill: #262626; stroke: #262626; stroke-width: 0.5" />
      </g>
     </g>
    </g>
    <g id="xtick_25">
     <g id="line2d_73">
      <path d="M 345.615692 245.272846  L 345.615692 2.884806  " clip-path="url(#p5709c8220d)" style="fill: none; stroke: #cccccc; stroke-opacity: 0.5; stroke-width: 0.5; stroke-linecap: square" />
     </g>
     <g id="line2d_74">
      <g>
       <use ns3:href="#m858a753fb1" x="345.615692" y="245.272846" style="fill: #262626; stroke: #262626; stroke-width: 0.5" />
      </g>
     </g>
     <g id="line2d_75">
      <g>
       <use ns3:href="#mdd63f47163" x="345.615692" y="2.884806" style="fill: #262626; stroke: #262626; stroke-width: 0.5" />
      </g>
     </g>
    </g>
    <g id="xtick_26">
     <g id="line2d_76">
      <path d="M 391.68 245.272846  L 391.68 2.884806  " clip-path="url(#p5709c8220d)" style="fill: none; stroke: #cccccc; stroke-opacity: 0.5; stroke-width: 0.5; stroke-linecap: square" />
     </g>
     <g id="line2d_77">
      <g>
       <use ns3:href="#m858a753fb1" x="391.68" y="245.272846" style="fill: #262626; stroke: #262626; stroke-width: 0.5" />
      </g>
     </g>
     <g id="line2d_78">
      <g>
       <use ns3:href="#mdd63f47163" x="391.68" y="2.884806" style="fill: #262626; stroke: #262626; stroke-width: 0.5" />
      </g>
     </g>
    </g>
    <g id="text_4">
     
     <g style="fill: #1a1a1a" transform="translate(155.775859 270.310971)">
      <text>
       <tspan x="0" y="-0.359375" style="font-size: 11px; font-family: 'Times New Roman'; fill: #1a1a1a">P</tspan>
       <tspan x="6.117676" y="-0.359375" style="font-size: 11px; font-family: 'Times New Roman'; fill: #1a1a1a">a</tspan>
       <tspan x="11" y="-0.359375" style="font-size: 11px; font-family: 'Times New Roman'; fill: #1a1a1a">r</tspan>
       <tspan x="14.663086" y="-0.359375" style="font-size: 11px; font-family: 'Times New Roman'; fill: #1a1a1a">t</tspan>
       <tspan x="17.719238" y="-0.359375" style="font-size: 11px; font-family: 'Times New Roman'; fill: #1a1a1a">i</tspan>
       <tspan x="20.775391" y="-0.359375" style="font-size: 11px; font-family: 'Times New Roman'; fill: #1a1a1a">c</tspan>
       <tspan x="25.657715" y="-0.359375" style="font-size: 11px; font-family: 'Times New Roman'; fill: #1a1a1a">l</tspan>
       <tspan x="28.713867" y="-0.359375" style="font-size: 11px; font-family: 'Times New Roman'; fill: #1a1a1a">e</tspan>
       <tspan x="33.596191" y="-0.359375" style="font-size: 11px; font-family: 'Times New Roman'; fill: #1a1a1a"> </tspan>
       <tspan x="36.346191" y="-0.359375" style="font-size: 11px; font-family: 'Times New Roman'; fill: #1a1a1a">d</tspan>
       <tspan x="41.846191" y="-0.359375" style="font-size: 11px; font-family: 'Times New Roman'; fill: #1a1a1a">i</tspan>
       <tspan x="44.902344" y="-0.359375" style="font-size: 11px; font-family: 'Times New Roman'; fill: #1a1a1a">a</tspan>
       <tspan x="49.784668" y="-0.359375" style="font-size: 11px; font-family: 'Times New Roman'; fill: #1a1a1a">m</tspan>
       <tspan x="58.34082" y="-0.359375" style="font-size: 11px; font-family: 'Times New Roman'; fill: #1a1a1a">e</tspan>
       <tspan x="63.223145" y="-0.359375" style="font-size: 11px; font-family: 'Times New Roman'; fill: #1a1a1a">t</tspan>
       <tspan x="66.279297" y="-0.359375" style="font-size: 11px; font-family: 'Times New Roman'; fill: #1a1a1a">e</tspan>
       <tspan x="71.161621" y="-0.359375" style="font-size: 11px; font-family: 'Times New Roman'; fill: #1a1a1a">r</tspan>
       <tspan x="74.824707" y="-0.359375" style="font-size: 11px; font-family: 'Times New Roman'; fill: #1a1a1a">,</tspan>
       <tspan x="77.574707" y="-0.359375" style="font-size: 11px; font-family: 'Times New Roman'; fill: #1a1a1a"> </tspan>
       <tspan x="86.044922" y="-0.359375" style="font-size: 11px; font-family: 'Times New Roman'; fill: #1a1a1a"> </tspan>
       <tspan x="88.794922" y="-0.359375" style="font-size: 11px; font-family: 'Times New Roman'; fill: #1a1a1a">[</tspan>
       <tspan x="92.458008" y="-0.359375" style="font-size: 11px; font-family: 'Times New Roman'; fill: #1a1a1a">m</tspan>
       <tspan x="101.01416" y="-0.359375" style="font-size: 11px; font-family: 'Times New Roman'; fill: #1a1a1a">m</tspan>
       <tspan x="109.570312" y="-0.359375" style="font-size: 11px; font-family: 'Times New Roman'; fill: #1a1a1a">]</tspan>
       <tspan x="80.324707" y="-0.359375" style="font-size: 11px; font-family: 'cmmi10'; fill: #1a1a1a">d</tspan>
      </text>
     </g>
    </g>
   </g>
   <g id="matplotlib.axis_2">
    <g id="ytick_1">
     <g id="line2d_79">
      <path d="M 33.171719 245.272846  L 391.68 245.272846  " clip-path="url(#p5709c8220d)" style="fill: none; stroke: #cccccc; stroke-opacity: 0.5; stroke-width: 0.5; stroke-linecap: square" />
     </g>
     <g id="line2d_80">
      <defs>
       <path id="m01eaa52d95" d="M 0 0  L 3.5 0  " style="stroke: #262626; stroke-width: 0.8" />
      </defs>
      <g>
       <use ns3:href="#m01eaa52d95" x="33.171719" y="245.272846" style="fill: #262626; stroke: #262626; stroke-width: 0.8" />
      </g>
     </g>
     <g id="line2d_81">
      <defs>
       <path id="m674b0d8d2c" d="M 0 0  L -3.5 0  " style="stroke: #262626; stroke-width: 0.8" />
      </defs>
      <g>
       <use ns3:href="#m674b0d8d2c" x="391.68" y="245.272846" style="fill: #262626; stroke: #262626; stroke-width: 0.8" />
      </g>
     </g>
     <g id="text_5">
      
      <g style="fill: #262626" transform="translate(25.171719 248.397533)">
       <text>
        <tspan x="0" y="-0.921875" style="font-size: 9px; font-family: 'Times New Roman'; fill: #262626">0</tspan>
       </text>
      </g>
     </g>
    </g>
    <g id="ytick_2">
     <g id="line2d_82">
      <path d="M 33.171719 197.275214  L 391.68 197.275214  " clip-path="url(#p5709c8220d)" style="fill: none; stroke: #cccccc; stroke-opacity: 0.5; stroke-width: 0.5; stroke-linecap: square" />
     </g>
     <g id="line2d_83">
      <g>
       <use ns3:href="#m01eaa52d95" x="33.171719" y="197.275214" style="fill: #262626; stroke: #262626; stroke-width: 0.8" />
      </g>
     </g>
     <g id="line2d_84">
      <g>
       <use ns3:href="#m674b0d8d2c" x="391.68" y="197.275214" style="fill: #262626; stroke: #262626; stroke-width: 0.8" />
      </g>
     </g>
     <g id="text_6">
      
      <g style="fill: #262626" transform="translate(20.671719 200.399901)">
       <text>
        <tspan x="0" y="-0.921875" style="font-size: 9px; font-family: 'Times New Roman'; fill: #262626">2</tspan>
        <tspan x="4.5" y="-0.921875" style="font-size: 9px; font-family: 'Times New Roman'; fill: #262626">0</tspan>
       </text>
      </g>
     </g>
    </g>
    <g id="ytick_3">
     <g id="line2d_85">
      <path d="M 33.171719 149.277582  L 391.68 149.277582  " clip-path="url(#p5709c8220d)" style="fill: none; stroke: #cccccc; stroke-opacity: 0.5; stroke-width: 0.5; stroke-linecap: square" />
     </g>
     <g id="line2d_86">
      <g>
       <use ns3:href="#m01eaa52d95" x="33.171719" y="149.277582" style="fill: #262626; stroke: #262626; stroke-width: 0.8" />
      </g>
     </g>
     <g id="line2d_87">
      <g>
       <use ns3:href="#m674b0d8d2c" x="391.68" y="149.277582" style="fill: #262626; stroke: #262626; stroke-width: 0.8" />
      </g>
     </g>
     <g id="text_7">
      
      <g style="fill: #262626" transform="translate(20.671719 152.40227)">
       <text>
        <tspan x="0" y="-0.921875" style="font-size: 9px; font-family: 'Times New Roman'; fill: #262626">4</tspan>
        <tspan x="4.5" y="-0.921875" style="font-size: 9px; font-family: 'Times New Roman'; fill: #262626">0</tspan>
       </text>
      </g>
     </g>
    </g>
    <g id="ytick_4">
     <g id="line2d_88">
      <path d="M 33.171719 101.279951  L 391.68 101.279951  " clip-path="url(#p5709c8220d)" style="fill: none; stroke: #cccccc; stroke-opacity: 0.5; stroke-width: 0.5; stroke-linecap: square" />
     </g>
     <g id="line2d_89">
      <g>
       <use ns3:href="#m01eaa52d95" x="33.171719" y="101.279951" style="fill: #262626; stroke: #262626; stroke-width: 0.8" />
      </g>
     </g>
     <g id="line2d_90">
      <g>
       <use ns3:href="#m674b0d8d2c" x="391.68" y="101.279951" style="fill: #262626; stroke: #262626; stroke-width: 0.8" />
      </g>
     </g>
     <g id="text_8">
      
      <g style="fill: #262626" transform="translate(20.671719 104.404638)">
       <text>
        <tspan x="0" y="-0.921875" style="font-size: 9px; font-family: 'Times New Roman'; fill: #262626">6</tspan>
        <tspan x="4.5" y="-0.921875" style="font-size: 9px; font-family: 'Times New Roman'; fill: #262626">0</tspan>
       </text>
      </g>
     </g>
    </g>
    <g id="ytick_5">
     <g id="line2d_91">
      <path d="M 33.171719 53.282319  L 391.68 53.282319  " clip-path="url(#p5709c8220d)" style="fill: none; stroke: #cccccc; stroke-opacity: 0.5; stroke-width: 0.5; stroke-linecap: square" />
     </g>
     <g id="line2d_92">
      <g>
       <use ns3:href="#m01eaa52d95" x="33.171719" y="53.282319" style="fill: #262626; stroke: #262626; stroke-width: 0.8" />
      </g>
     </g>
     <g id="line2d_93">
      <g>
       <use ns3:href="#m674b0d8d2c" x="391.68" y="53.282319" style="fill: #262626; stroke: #262626; stroke-width: 0.8" />
      </g>
     </g>
     <g id="text_9">
      
      <g style="fill: #262626" transform="translate(20.671719 56.407007)">
       <text>
        <tspan x="0" y="-0.921875" style="font-size: 9px; font-family: 'Times New Roman'; fill: #262626">8</tspan>
        <tspan x="4.5" y="-0.921875" style="font-size: 9px; font-family: 'Times New Roman'; fill: #262626">0</tspan>
       </text>
      </g>
     </g>
    </g>
    <g id="ytick_6">
     <g id="line2d_94">
      <path d="M 33.171719 5.284687  L 391.68 5.284687  " clip-path="url(#p5709c8220d)" style="fill: none; stroke: #cccccc; stroke-opacity: 0.5; stroke-width: 0.5; stroke-linecap: square" />
     </g>
     <g id="line2d_95">
      <g>
       <use ns3:href="#m01eaa52d95" x="33.171719" y="5.284687" style="fill: #262626; stroke: #262626; stroke-width: 0.8" />
      </g>
     </g>
     <g id="line2d_96">
      <g>
       <use ns3:href="#m674b0d8d2c" x="391.68" y="5.284687" style="fill: #262626; stroke: #262626; stroke-width: 0.8" />
      </g>
     </g>
     <g id="text_10">
      
      <g style="fill: #262626" transform="translate(16.171719 8.409375)">
       <text>
        <tspan x="0" y="-0.921875" style="font-size: 9px; font-family: 'Times New Roman'; fill: #262626">1</tspan>
        <tspan x="4.5" y="-0.921875" style="font-size: 9px; font-family: 'Times New Roman'; fill: #262626">0</tspan>
        <tspan x="9" y="-0.921875" style="font-size: 9px; font-family: 'Times New Roman'; fill: #262626">0</tspan>
       </text>
      </g>
     </g>
    </g>
    <g id="text_11">
     <text style="font-size: 11px; font-family: 'Times New Roman', 'DejaVu Serif', 'Nimbus Roman', 'Liberation Serif', serif; text-anchor: middle; fill: #1a1a1a" x="9.798125" y="124.078826" transform="rotate(-90 9.798125 124.078826)">Percent passing [%]</text>
    </g>
   </g>
   <g id="line2d_97">
    <path d="M 69.434892 245.272846  L 69.434892 2.884806  " clip-path="url(#p5709c8220d)" style="fill: none; stroke-dasharray: 0.35,0.525; stroke-dashoffset: 0; stroke: #8c8c8c; stroke-width: 0.35" />
   </g>
   <g id="line2d_98">
    <path d="M 169.500549 245.272846  L 169.500549 2.884806  " clip-path="url(#p5709c8220d)" style="fill: none; stroke-dasharray: 0.35,0.525; stroke-dashoffset: 0; stroke: #8c8c8c; stroke-width: 0.35" />
   </g>
   <g id="line2d_99">
    <path d="M 258.848483 245.272846  L 258.848483 2.884806  " clip-path="url(#p5709c8220d)" style="fill: none; stroke-dasharray: 0.35,0.525; stroke-dashoffset: 0; stroke: #8c8c8c; stroke-width: 0.35" />
   </g>
   <g id="line2d_100">
    <path d="M 308.74845 245.272846  L 308.74845 2.884806  " clip-path="url(#p5709c8220d)" style="fill: none; stroke-dasharray: 0.35,0.525; stroke-dashoffset: 0; stroke: #8c8c8c; stroke-width: 0.35" />
   </g>
   <g id="patch_8">
    <path d="M 33.171719 245.272846  L 33.171719 2.884806  " style="fill: none; stroke: #262626; stroke-linejoin: miter; stroke-linecap: square" />
   </g>
   <g id="patch_9">
    <path d="M 33.171719 245.272846  L 391.68 245.272846  " style="fill: none; stroke: #262626; stroke-linejoin: miter; stroke-linecap: square" />
   </g>
   <g id="text_12">
    <text style="font-size: 8px; font-family: 'Times New Roman', 'DejaVu Serif', 'Nimbus Roman', 'Liberation Serif', serif; text-anchor: middle; fill: #595959" x="51.303305" y="15.711447" transform="rotate(-0 51.303305 15.711447)">fines</text>
   </g>
   <g id="text_13">
    <text style="font-size: 8px; font-family: 'Times New Roman', 'DejaVu Serif', 'Nimbus Roman', 'Liberation Serif', serif; fill: #595959" transform="translate(113.248971 15.711447)">fine</text>
    <text style="font-size: 8px; font-family: 'Times New Roman', 'DejaVu Serif', 'Nimbus Roman', 'Liberation Serif', serif; fill: #595959" transform="translate(112.135221 24.088697)">sand</text>
   </g>
   <g id="text_14">
    <text style="font-size: 8px; font-family: 'Times New Roman', 'DejaVu Serif', 'Nimbus Roman', 'Liberation Serif', serif; fill: #595959" transform="translate(201.065141 15.711447)">medium</text>
    <text style="font-size: 8px; font-family: 'Times New Roman', 'DejaVu Serif', 'Nimbus Roman', 'Liberation Serif', serif; fill: #595959" transform="translate(206.842016 24.088697)">sand</text>
   </g>
   <g id="text_15">
    <text style="font-size: 8px; font-family: 'Times New Roman', 'DejaVu Serif', 'Nimbus Roman', 'Liberation Serif', serif; fill: #595959" transform="translate(273.582841 15.711447)">coarse</text>
    <text style="font-size: 8px; font-family: 'Times New Roman', 'DejaVu Serif', 'Nimbus Roman', 'Liberation Serif', serif; fill: #595959" transform="translate(276.465966 24.088697)">sand</text>
   </g>
   <g id="text_16">
    <text style="font-size: 8px; font-family: 'Times New Roman', 'DejaVu Serif', 'Nimbus Roman', 'Liberation Serif', serif; text-anchor: middle; fill: #595959" x="350.214225" y="15.711447" transform="rotate(-0 350.214225 15.711447)">gravel</text>
   </g>
   <g id="line2d_101">
    <path d="M 69.434892 245.272846  L 72.140404 245.263384  L 74.845916 245.234969  L 77.551428 245.187553  L 80.256941 245.121087  L 82.962453 245.035526  L 85.667965 244.930822  L 88.373477 244.806928  L 91.078989 244.663795  L 93.784501 244.501378  L 96.490013 244.319629  L 99.195526 244.1185  L 101.901038 243.897944  L 104.60655 243.657914  L 107.312062 243.398362  L 110.017574 243.119242  L 112.723086 242.820506  L 115.428598 242.502107  L 118.13411 242.163998  L 120.839623 241.80613  L 123.545135 241.428458  L 126.250647 241.030933  L 128.956159 240.613508  L 131.661671 240.176137  L 134.367183 239.718771  L 137.072695 239.241364  L 139.778208 238.743868  L 142.48372 238.226237  L 145.189232 237.688422  L 147.894744 237.130376  L 150.600256 236.552052  L 153.305768 235.953404  L 156.01128 235.334383  L 158.716793 234.694942  L 161.422305 234.035034  L 164.127817 233.354612  L 166.833329 232.653628  L 169.538841 231.932036  L 172.244353 231.189787  L 174.949865 230.426836  L 177.655378 229.643133  L 180.36089 228.838633  L 183.066402 228.013287  L 185.771914 227.167049  L 188.477426 226.299871  L 191.182938 225.411706  L 193.88845 224.502506  L 196.593963 223.572225  L 199.299475 222.620815  L 202.004987 221.648229  L 204.710499 220.522171  L 207.416011 218.76115  L 210.121523 216.36709  L 212.827035 213.39245  L 215.532547 209.88969  L 218.23806 205.91127  L 220.943572 201.50965  L 223.649084 196.737288  L 226.354596 191.646644  L 229.060108 186.290179  L 231.76562 180.72035  L 234.471132 174.98962  L 237.176645 169.150445  L 239.882157 163.255287  L 242.587669 157.356605  L 245.293181 151.506859  L 247.998693 145.758507  L 250.704205 140.16401  L 253.409717 134.775827  L 256.11523 129.646418  L 258.820742 124.824073  L 261.526254 119.88985  L 264.231766 114.760665  L 266.937278 109.753874  L 269.64279 105.186837  L 272.348302 101.376911  L 275.053815 98.083808  L 277.759327 94.796146  L 280.464839 91.516792  L 283.170351 88.249072  L 285.875863 84.996316  L 288.581375 81.76185  L 291.286887 78.549002  L 293.9924 75.361101  L 296.697912 72.201474  L 299.403424 69.07345  L 302.108936 65.980355  L 304.814448 62.925518  L 307.51996 59.912266  L 310.225472 56.943928  L 312.930984 54.023832  L 315.636497 51.155304  L 318.342009 48.341674  L 321.047521 45.586268  L 323.753033 42.892415  L 326.458545 40.263443  L 329.164057 37.702679  L 331.869569 35.213452  L 334.575082 32.799088  L 337.280594 30.462917  L 339.986106 28.208265  L 342.691618 26.038461  L 345.39713 23.956832  L 348.102642 21.966707  L 350.808154 20.071413  L 353.513667 18.274278  L 356.219179 16.57863  L 358.924691 14.987797  L 361.630203 13.505107  L 364.335715 12.133886  L 367.041227 10.877465  L 369.746739 9.739169  L 372.452252 8.722327  L 375.157764 7.830267  L 377.863276 7.066317  L 380.568788 6.433805  L 383.2743 5.936058  L 385.979812 5.576404  L 388.685324 5.358171  L 391.390837 5.284687  " clip-path="url(#p5709c8220d)" style="fill: none; stroke: #1a1a1a; stroke-width: 1.6; stroke-linecap: square" />
   </g>
   <g id="line2d_102">
    <path d="M 69.434892 231.353532  L 71.050255 230.06215  L 72.665618 228.699232  L 74.280981 227.250407  L 75.896344 225.701301  L 77.511707 224.037543  L 79.12707 222.244761  L 80.742433 220.332092  L 82.357796 218.43332  L 83.973159 216.561435  L 85.588522 214.703814  L 87.203885 212.847833  L 88.819248 210.980867  L 90.434611 209.090294  L 92.049974 207.163488  L 93.665337 205.187827  L 95.2807 203.150687  L 96.896063 201.039443  L 98.511426 198.841472  L 100.126789 196.54415  L 101.742152 194.134854  L 103.357515 191.600958  L 104.972878 188.92984  L 106.588241 186.108875  L 108.203604 183.12544  L 109.818967 179.966911  L 111.43433 176.620664  L 113.049693 173.074076  L 114.665056 169.314521  L 116.280419 165.329377  L 117.895782 161.10602  L 119.511145 156.631825  L 121.126508 151.89417  L 122.741871 146.880429  L 124.357234 141.57798  L 125.972597 135.974198  L 127.58796 130.05646  L 129.203323 123.114477  L 130.818686 106.375882  L 132.434049 99.823732  L 134.049412 96.882562  L 135.664775 94.000744  L 137.280138 91.177708  L 138.895501 88.412884  L 140.510864 85.705704  L 142.126227 83.055598  L 143.74159 80.461995  L 145.356953 77.924327  L 146.972316 75.442023  L 148.587679 73.014514  L 150.203042 70.641231  L 151.818405 68.321605  L 153.433768 66.055064  L 155.049131 63.84104  L 156.664494 61.678964  L 158.279857 59.568265  L 159.89522 57.508374  L 161.510583 55.498721  L 163.125946 53.538738  L 164.741309 51.627853  L 166.356672 49.765499  L 167.972035 47.951104  L 169.587398 46.1841  L 171.202761 44.463917  L 172.818124 42.789986  L 174.433487 41.161736  L 176.04885 39.578598  L 177.664213 38.040003  L 179.279576 36.54538  L 180.894939 35.094162  L 182.510302 33.685777  L 184.125665 32.319656  L 185.741028 30.99523  L 187.356391 29.711929  L 188.971754 28.469183  L 190.587117 27.266423  L 192.20248 26.10308  L 193.817843 24.978583  L 195.433206 23.892364  L 197.048569 22.843852  L 198.663932 21.832478  L 200.279295 20.857672  L 201.894658 19.918865  L 203.510021 19.015487  L 205.125384 18.146969  L 206.740747 17.312741  L 208.35611 16.512233  L 209.971473 15.744876  L 211.586836 15.010101  L 213.202199 14.307337  L 214.817562 13.636015  L 216.432925 12.995565  L 218.048288 12.385419  L 219.663651 11.805006  L 221.279014 11.253756  L 222.894377 10.731101  L 224.50974 10.23647  L 226.125103 9.769294  L 227.740466 9.329004  L 229.355829 8.915029  L 230.971192 8.526801  L 232.586555 8.163749  L 234.201918 7.825304  L 235.817281 7.510896  L 237.432644 7.219957  L 239.048007 6.951916  L 240.66337 6.706203  L 242.278733 6.48225  L 243.894096 6.279486  L 245.509459 6.097342  L 247.124822 5.935248  L 248.740185 5.792635  L 250.355548 5.668933  L 251.970911 5.563573  L 253.586274 5.475985  L 255.201637 5.405599  L 256.817 5.351846  L 258.432363 5.314156  L 260.047726 5.29196  L 261.663089 5.284687  " clip-path="url(#p5709c8220d)" style="fill: none; stroke-dasharray: 6.4,3.2; stroke-dashoffset: 0; stroke: #4a4a4a; stroke-width: 1.6" />
   </g>
   <g id="line2d_103">
    <path d="M 65.454832 221.27403  L 66.940528 219.242202  L 68.426224 217.109985  L 69.91192 214.723761  L 71.397616 212.299541  L 72.883313 209.921479  L 74.369009 207.574991  L 75.854705 205.245493  L 77.340401 202.918401  L 78.826097 200.579131  L 80.311794 198.213098  L 81.79749 195.805717  L 83.283186 193.342406  L 84.768882 190.80858  L 86.254578 188.189654  L 87.740275 185.471044  L 89.225971 182.638166  L 90.711667 179.676435  L 92.197363 176.571269  L 93.68306 173.308081  L 95.168756 169.872289  L 96.654452 166.249307  L 98.140148 162.424552  L 99.625844 158.38344  L 101.111541 154.111385  L 102.597237 149.593805  L 104.082933 144.816114  L 105.568629 139.763729  L 107.054325 134.422065  L 108.540022 128.776538  L 110.025718 121.717459  L 111.511414 108.471989  L 112.99711 100.826376  L 114.482806 98.167492  L 115.968503 95.555824  L 117.454199 92.990988  L 118.939895 90.472598  L 120.425591 88.000268  L 121.911288 85.573613  L 123.396984 83.192248  L 124.88268 80.855787  L 126.368376 78.563845  L 127.854072 76.316036  L 129.339769 74.111974  L 130.825465 71.951275  L 132.311161 69.833552  L 133.796857 67.758421  L 135.282553 65.725496  L 136.76825 63.734391  L 138.253946 61.784721  L 139.739642 59.876101  L 141.225338 58.008144  L 142.711034 56.180466  L 144.196731 54.392682  L 145.682427 52.644405  L 147.168123 50.93525  L 148.653819 49.264831  L 150.139516 47.632764  L 151.625212 46.038663  L 153.110908 44.482142  L 154.596604 42.962816  L 156.0823 41.4803  L 157.567997 40.034207  L 159.053693 38.624153  L 160.539389 37.249751  L 162.025085 35.910618  L 163.510781 34.606366  L 164.996478 33.336611  L 166.482174 32.100967  L 167.96787 30.899049  L 169.453566 29.730471  L 170.939262 28.594848  L 172.424959 27.491794  L 173.910655 26.420924  L 175.396351 25.381853  L 176.882047 24.374194  L 178.367744 23.397563  L 179.85344 22.451574  L 181.339136 21.535841  L 182.824832 20.649979  L 184.310528 19.793603  L 185.796225 18.966327  L 187.281921 18.167766  L 188.767617 17.397534  L 190.253313 16.655246  L 191.739009 15.940516  L 193.224706 15.252959  L 194.710402 14.59219  L 196.196098 13.957822  L 197.681794 13.349471  L 199.16749 12.76675  L 200.653187 12.209276  L 202.138883 11.676661  L 203.624579 11.168521  L 205.110275 10.68447  L 206.595972 10.224122  L 208.081668 9.787093  L 209.567364 9.372997  L 211.05306 8.981448  L 212.538756 8.612061  L 214.024453 8.26445  L 215.510149 7.93823  L 216.995845 7.633015  L 218.481541 7.348421  L 219.967237 7.084061  L 221.452934 6.83955  L 222.93863 6.614502  L 224.424326 6.408533  L 225.910022 6.221256  L 227.395718 6.052287  L 228.881415 5.901239  L 230.367111 5.767728  L 231.852807 5.651367  L 233.338503 5.551772  L 234.8242 5.468557  L 236.309896 5.401336  L 237.795592 5.349724  L 239.281288 5.313336  L 240.766984 5.291785  L 242.252681 5.284687  " clip-path="url(#p5709c8220d)" style="fill: none; stroke-dasharray: 1.6,1.6; stroke-dashoffset: 0; stroke: #7a7a7a; stroke-width: 1.6" />
   </g>
   <g id="line2d_104">
    <defs>
     <path id="m2fd7a6aad0" d="M 0 2  C 0.530406 2 1.03916 1.789267 1.414214 1.414214  C 1.789267 1.03916 2 0.530406 2 0  C 2 -0.530406 1.789267 -1.03916 1.414214 -1.414214  C 1.03916 -1.789267 0.530406 -2 0 -2  C -0.530406 -2 -1.03916 -1.789267 -1.414214 -1.414214  C -1.789267 -1.03916 -2 -0.530406 -2 0  C -2 0.530406 -1.789267 1.03916 -1.414214 1.414214  C -1.03916 1.789267 -0.530406 2 0 2  z " style="stroke: #1a1a1a; stroke-width: 0.7" />
    </defs>
    <g clip-path="url(#p5709c8220d)">
     <use ns3:href="#m2fd7a6aad0" x="69.434892" y="245.272846" style="fill: #ffffff; stroke: #1a1a1a; stroke-width: 0.7" />
     <use ns3:href="#m2fd7a6aad0" x="203.0305" y="221.27403" style="fill: #ffffff; stroke: #1a1a1a; stroke-width: 0.7" />
     <use ns3:href="#m2fd7a6aad0" x="258.559319" y="125.278767" style="fill: #ffffff; stroke: #1a1a1a; stroke-width: 0.7" />
     <use ns3:href="#m2fd7a6aad0" x="272.42756" y="101.279951" style="fill: #ffffff; stroke: #1a1a1a; stroke-width: 0.7" />
     <use ns3:href="#m2fd7a6aad0" x="391.390837" y="5.284687" style="fill: #ffffff; stroke: #1a1a1a; stroke-width: 0.7" />
    </g>
   </g>
   <g id="line2d_105">
    <defs>
     <path id="mbf5cf874dc" d="M -2 2  L 2 2  L 2 -2  L -2 -2  z " style="stroke: #4a4a4a; stroke-width: 0.7; stroke-linejoin: miter" />
    </defs>
    <g clip-path="url(#p5709c8220d)">
     <use ns3:href="#mbf5cf874dc" x="69.434892" y="231.353532" style="fill: #ffffff; stroke: #4a4a4a; stroke-width: 0.7; stroke-linejoin: miter" />
     <use ns3:href="#mbf5cf874dc" x="79.952657" y="221.27403" style="fill: #ffffff; stroke: #4a4a4a; stroke-width: 0.7; stroke-linejoin: miter" />
     <use ns3:href="#mbf5cf874dc" x="128.831572" y="125.278767" style="fill: #ffffff; stroke: #4a4a4a; stroke-width: 0.7; stroke-linejoin: miter" />
     <use ns3:href="#mbf5cf874dc" x="131.646179" y="101.279951" style="fill: #ffffff; stroke: #4a4a4a; stroke-width: 0.7; stroke-linejoin: miter" />
     <use ns3:href="#mbf5cf874dc" x="261.663089" y="5.284687" style="fill: #ffffff; stroke: #4a4a4a; stroke-width: 0.7; stroke-linejoin: miter" />
    </g>
   </g>
   <g id="line2d_106">
    <defs>
     <path id="m998a12a1fe" d="M 0 -2  L -2 2  L 2 2  z " style="stroke: #7a7a7a; stroke-width: 0.7; stroke-linejoin: miter" />
    </defs>
    <g clip-path="url(#p5709c8220d)">
     <use ns3:href="#m998a12a1fe" x="65.454832" y="221.27403" style="fill: #ffffff; stroke: #7a7a7a; stroke-width: 0.7; stroke-linejoin: miter" />
     <use ns3:href="#m998a12a1fe" x="69.434892" y="215.514314" style="fill: #ffffff; stroke: #7a7a7a; stroke-width: 0.7; stroke-linejoin: miter" />
     <use ns3:href="#m998a12a1fe" x="109.421163" y="125.278767" style="fill: #ffffff; stroke: #7a7a7a; stroke-width: 0.7; stroke-linejoin: miter" />
     <use ns3:href="#m998a12a1fe" x="112.746286" y="101.279951" style="fill: #ffffff; stroke: #7a7a7a; stroke-width: 0.7; stroke-linejoin: miter" />
     <use ns3:href="#m998a12a1fe" x="242.252681" y="5.284687" style="fill: #ffffff; stroke: #7a7a7a; stroke-width: 0.7; stroke-linejoin: miter" />
    </g>
   </g>
   <g id="legend_1">
    <g id="text_17">
     <text style="font-size: 9px; font-family: 'Times New Roman', 'DejaVu Serif', 'Nimbus Roman', 'Liberation Serif', serif; text-anchor: start" x="325.583438" y="201.122221" transform="rotate(-0 325.583438 201.122221)">SNU silica sand</text>
    </g>
    <g id="line2d_107">
     <path d="M 334.231875 209.347377  L 342.331875 209.347377  L 350.431875 209.347377  " style="fill: none; stroke: #1a1a1a; stroke-width: 1.6; stroke-linecap: square" />
    </g>
    <g id="text_18">
     <text style="font-size: 9px; font-family: 'Times New Roman', 'DejaVu Serif', 'Nimbus Roman', 'Liberation Serif', serif; text-anchor: start" x="354.931875" y="212.497377" transform="rotate(-0 354.931875 212.497377)">No. 5</text>
    </g>
    <g id="line2d_108">
     <path d="M 334.231875 220.722533  L 342.331875 220.722533  L 350.431875 220.722533  " style="fill: none; stroke-dasharray: 6.4,3.2; stroke-dashoffset: 0; stroke: #4a4a4a; stroke-width: 1.6" />
    </g>
    <g id="text_19">
     <text style="font-size: 9px; font-family: 'Times New Roman', 'DejaVu Serif', 'Nimbus Roman', 'Liberation Serif', serif; text-anchor: start" x="354.931875" y="223.872533" transform="rotate(-0 354.931875 223.872533)">No. 7</text>
    </g>
    <g id="line2d_109">
     <path d="M 334.231875 232.097689  L 342.331875 232.097689  L 350.431875 232.097689  " style="fill: none; stroke-dasharray: 1.6,1.6; stroke-dashoffset: 0; stroke: #7a7a7a; stroke-width: 1.6" />
    </g>
    <g id="text_20">
     <text style="font-size: 9px; font-family: 'Times New Roman', 'DejaVu Serif', 'Nimbus Roman', 'Liberation Serif', serif; text-anchor: start" x="354.931875" y="235.247689" transform="rotate(-0 354.931875 235.247689)">No. 8</text>
    </g>
   </g>
  </g>
 </g>
 <defs>
  <clipPath id="p5709c8220d">
   <rect x="33.171719" y="2.884806" width="358.508281" height="242.38804" />
  </clipPath>
 </defs>
</svg>