<?xml version='1.0' encoding='utf-8'?>
<svg xmlns="http://www.w3.org/2000/svg" xmlns:dc="http://purl.org/dc/elements/1.1/" xmlns:ns3="http://www.w3.org/1999/xlink" xmlns:rdf="http://www.w3.org/1999/02/22-rdf-syntax-ns#" version="1.1" width="529.63" height="363.405" viewBox="0 0 529.63 363.405">
<metadata><rdf:RDF><rdf:Description><dc:figure_id>j3-scour-setup</dc:figure_id><dc:journal>ocean_engineering</dc:journal><dc:paper>J3</dc:paper><dc:claim_id>j3-scour-setup</dc:claim_id><dc:tier>1</dc:tier><dc:git_hash>b903178f-dirty</dc:git_hash><dc:generated_utc>2026-04-19T10:25:34Z</dc:generated_utc><dc:data_sources>j3-scour-setup.tex:209cbe9d</dc:data_sources><dc:generator>figgen</dc:generator><dc:description>Cross-sectional schematic of the 1:70 centrifuge model installed in the KAIST beam-centrifuge strongbox (1400 x 700 mm). Tripod foundation with 3 suction buckets (D=114 mm, L=133 mm model; 8 m and 9.3 m prototype) supporting the EI-equivalent tower stub and RNA. Section plane cuts through buckets A and B (bucket C is hidden behind B). Shows saturated sand bed with scour holes (S/D = 0.58, max tested), water surface, and the section-plane shake direction.
</dc:description><dc:claim_measured>{}</dc:claim_measured><dc:claim_id_measured>j3-scour-setup</dc:claim_id_measured></rdf:Description></rdf:RDF></metadata><defs>
<clipPath id="clip_1">
<path transform="matrix(1,0,0,-1,238.863,316.257)" d="M-198.42766 0H198.42766V141.73404H75.40218L56.69362 123.02504H24.37782L5.66927 141.73404H-5.66927L-24.37782 123.02504H-56.69362L-75.40218 141.73404H-198.42766Z" />
</clipPath>
<g id="pattern_tile_2">
<path transform="matrix(1,0,0,-1,0,363.405)" stroke-width=".3985" stroke-linecap="butt" stroke-miterlimit="10" stroke-linejoin="miter" fill="none" stroke="#999999" d="M0 0 3.08846 3.08846" />
</g>
<pattern id="pattern_2" patternUnits="userSpaceOnUse" patternContentUnits="userSpaceOnUse" x="0" y="0" width="2.98883" height="2.98883">
<clipPath id="clip_3">
<path d="M -.99628 -.99628 L 3.9851 -.99628 L 3.9851 3.9851 L -.99628 3.9851 Z" />
</clipPath>
<g clip-path="url(#clip_3)">
<g transform="matrix(1,0,0,-1,-0,363.405)">
<use x="0" y="0" ns3:href="#pattern_tile_2" />
<use x="0" y="-2.98883" ns3:href="#pattern_tile_2" />
<use x="-2.98883" y="0" ns3:href="#pattern_tile_2" />
<use x="-2.98883" y="-2.98883" ns3:href="#pattern_tile_2" />
</g>
</g>
</pattern>
<clipPath id="clip_4">
<path transform="matrix(1,0,0,-1,238.863,316.257)" d="M-56.12656 140.31662V104.88309H-24.94487V140.31662ZM-24.94487 104.88309" />
</clipPath>
<g id="pattern_tile_5">
<path transform="matrix(1,0,0,-1,0,363.405)" d="M.49814 0C.49814 .2751 .2751 .49814 0 .49814-.2751 .49814-.49814 .2751-.49814 0-.49814-.2751-.2751-.49814 0-.49814 .2751-.49814 .49814-.2751 .49814 0ZM0 0" fill="#737373" />
</g>
<pattern id="pattern_5" patternUnits="userSpaceOnUse" patternContentUnits="userSpaceOnUse" x="0" y="0" width="2.98883" height="2.98883">
<g transform="matrix(1,0,0,-1,-0,363.405)">
<use x="0" y="0" ns3:href="#pattern_tile_5" />
</g>
</pattern>
<clipPath id="clip_6">
<path transform="matrix(1,0,0,-1,238.863,316.257)" d="M24.94487 140.31662V104.88309H56.12656V140.31662ZM56.12656 104.88309" />
</clipPath>
<g id="pattern_tile_7">
<path transform="matrix(1,0,0,-1,0,363.405)" d="M.49814 0C.49814 .2751 .2751 .49814 0 .49814-.2751 .49814-.49814 .2751-.49814 0-.49814-.2751-.2751-.49814 0-.49814 .2751-.49814 .49814-.2751 .49814 0ZM0 0" fill="#737373" />
</g>
<pattern id="pattern_7" patternUnits="userSpaceOnUse" patternContentUnits="userSpaceOnUse" x="0" y="0" width="2.98883" height="2.98883">
<g transform="matrix(1,0,0,-1,-0,363.405)">
<use x="0" y="0" ns3:href="#pattern_tile_7" />
</g>
</pattern>
<path id="font_8_20" d="M.41299439 .6183319H.5069885C.5189972 .6183319 .5309906 .6173248 .54299929 .6173248H.68699648V.68733218H.037994386V.6173248H.18199158C.19400025 .6173248 .20599365 .6183319 .21798706 .6183319H.31199647V0H.41299439V.6183319Z" />
<path id="font_8_34" d="M.5 .21910095C.5 .35101319 .394989 .45898438 .2649994 .45898438 .1349945 .45898438 .02999878 .3500061 .02999878 .21910095 .02999878 .09220886 .13598633-.009765625 .2649994-.009765625 .394989-.009765625 .5 .09220886 .5 .21910095M.2649994 .05921936C.18598938 .05921936 .116989139 .1171875 .116989139 .23010254 .116989139 .34301759 .19099427 .39297486 .2649994 .39297486 .33999635 .39297486 .41299439 .34101869 .41299439 .23010254 .41299439 .11618042 .34199525 .05921936 .2649994 .05921936Z" />
<path id="font_8_40" d="M.70999148 .44433595H.6319885C.6230011 .4163208 .5669861 .24717713 .5359955 .14309693 .5279999 .11407471 .5179901 .08204651 .5149994 .059020997H.5139923C.5079956 .10005188 .47299195 .20814514 .47099305 .21514893L.39698792 .44433595H.32099916C.2919922 .35827638 .21699524 .13409424 .20899964 .061019899H.20799256C.19999695 .13208008 .12599182 .35327149 .10998535 .40130616 .101989749 .4253235 .101989749 .4273224 .09700012 .44433595H.01499939L.16099549 0H.24499512C.24598694 .0039978029 .272995 .08303833 .30799867 .19413758 .32299806 .24317932 .35299684 .33926393 .35798646 .38330079L.35899354 .3842926C.36099244 .36328126 .36698915 .34126283 .37399293 .3162384 .3809967 .291214 .3880005 .26419068 .394989 .24118042L.47200013 0H.56399539L.70999148 .44433595Z" />
<path id="font_8_26" d="M.42999269 .10925293C.37399293 .069229129 .31098939 .056228639 .2679901 .056228639 .18099976 .056228639 .114990238 .1272583 .11199951 .21928406H.43998719C.43998719 .2652893 .43499757 .33213807 .3959961 .3889923 .3600006 .43997193 .2999878 .45898438 .25099183 .45898438 .1289978 .45898438 .034988405 .35209657 .034988405 .22529602 .034988405 .09724426 .1349945-.009765625 .2669983-.009765625 .32499696-.009765625 .3849945 .007232666 .43598939 .038223268L.42999269 .10925293M.11898804 .27929688C.14199829 .35906983 .20098877 .39297486 .25099183 .39297486 .29499818 .39297486 .3600006 .3720398 .3789978 .27929688H.11898804Z" />
<path id="font_8_36" d="M.16899109 .21304322C.16899109 .32106019 .25898744 .3790741 .34700013 .38008119V.45410157C.2630005 .45309449 .20199585 .41207887 .1619873 .35906983V.45109559H.084991458V0H.16899109V.21304322Z" />
<path id="font_9_1" d="M.8730011 .22743225C.83898928 .20231629 .80799868 .17018128 .7839966 .1340332 .7409973 .0688324 .7299957 .004837036 .7299957 .0008392334 .7299957-.014160156 .74398806-.014160156 .7529907-.014160156 .7639923-.014160156 .772995-.014160156 .776001-.001159668 .8019867 .10992432 .8659973 .19429016 .9869995 .23542786 .9949951 .23742676 1.0029907 .24043274 1.0029907 .25042726 1.0029907 .260437 .99398806 .26342774 .98999026 .2644348 .8569946 .3093567 .798996 .4031372 .7779999 .49111939 .772995 .51112368 .772995 .51412966 .7529907 .51412966 .74398806 .51412966 .7299957 .51412966 .7299957 .49913026 .7299957 .49713136 .73999026 .43112184 .7839966 .36523438 .8129883 .32331849 .84799197 .29238893 .8730011 .2734375H.09700012C.08099365 .2734375 .05899048 .2734375 .05899048 .25042726 .05899048 .22743225 .08099365 .22743225 .09700012 .22743225H.8730011Z" />
<path id="font_8_18" d="M.44898988 .32444764C.59199526 .36643983 .6279907 .45341493 .6279907 .50738528 .6279907 .6113434 .5059967 .69433596 .36099244 .69433596H.09799194V0H.19599915V.31445313H.36099244L.55599978 0H.6569977L.44898988 .32444764M.19599915 .3804474V.6353302H.34799195C.46299745 .6353302 .5369873 .58135989 .5369873 .50738528 .5369873 .4374237 .46798707 .3804474 .34799195 .3804474H.19599915Z" />
<path id="font_8_17" d="M.23599243 .69433596H.099990848V0H.18399048V.6152954H.18499756L.5130005 0H.6489868V.69433596H.5649872V.07902527H.56399539L.23599243 .69433596Z" />
<path id="font_8_14" d="M.4019928 .69433596H.30499269L.02999878 0H.11199951L.18998719 .19824219H.49398805L.57199099 0H.6769867L.4019928 .69433596M.34298707 .61831668 .46899415 .25723268H.21499634L.34298707 .61831668Z" />
<path id="font_8_19" d="M.49398805 .6658325C.42999269 .6988373 .37298585 .71484377 .29899598 .71484377 .147995 .71484377 .05899048 .6128235 .05899048 .5167694 .05899048 .47573854 .07199097 .42771913 .12098694 .38168336 .16499329 .34066773 .21099854 .33065797 .272995 .31565858 .35699464 .29563905 .37998963 .29063417 .40899659 .26062013 .42799378 .24160767 .44400025 .21359253 .44400025 .17958069 .44400025 .11753845 .3880005 .053512575 .29100038 .053512575 .23399353 .053512575 .14199829 .070510867 .06298828 .13755799L.04699707 .04750061C.09700012 .018508912 .17999268-.021484375 .2919922-.021484375 .43099977-.021484375 .5299988 .07952881 .5299988 .19158936 .5299988 .27262879 .48298646 .3186493 .46299745 .33966065 .42099 .38069154 .375 .39169313 .2979889 .4096985 .23699951 .42370606 .20498657 .43171693 .18099976 .45472718 .16799927 .46774293 .14498902 .49075318 .14498902 .5287781 .14498902 .58480837 .20098877 .6428375 .2979889 .6428375 .37399293 .6428375 .4269867 .6188202 .47799684 .5757904L.49398805 .6658325Z" />
<path id="font_8_38" d="M.18798828 .3813324H.33599855V.44433595H.18798828V.57128909H.11099243V.44433595H.019989014V.3813324H.10798645V.12825012C.10798645 .06123352 .125-.009765625 .19699097-.009765625 .2689972-.009765625 .32398988 .01322937 .35398866 .02722168L.33699037 .0912323C.3039856 .067230228 .2689972 .05921936 .24099732 .05921936 .19898987 .05921936 .18798828 .100234989 .18798828 .1462555V.3813324Z" />
<path id="font_8_33" d="M.46499635 .29606629C.46499635 .37408448 .44198609 .45410157 .31900025 .45410157 .2619934 .45410157 .20698548 .4310913 .16299439 .37808229V.45109559H.08299255V0H.16999817V.24305725C.16999817 .30906678 .19799805 .38809205 .2749939 .38809205 .37799073 .38809205 .37799073 .31806947 .37799073 .2890625V0H.46499635V.29606629Z" />
<path id="font_8_27" d="M.5029907 .45410157C.48098756 .45410157 .4139862 .45309449 .33799745 .42408753L.33599855 .4230957C.2999878 .44709779 .2649994 .45410157 .23599243 .45410157 .13798523 .45410157 .06498718 .37709046 .06498718 .29101563 .06498718 .2559967 .07699585 .2199707 .099990848 .19194031 .085998538 .17494202 .070999149 .14694214 .070999149 .10900879 .070999149 .070129398 .08699036 .045135499 .09599304 .03312683 .040985109 .0011291504 .02999878-.044921876 .02999878-.06896973 .02999878-.14508057 .1349945-.20507813 .2649994-.20507813 .3959961-.20507813 .5-.14508057 .5-.06896973 .5 .072128299 .32499696 .072128299 .28199769 .072128299H.18899536C.17298889 .072128299 .12998963 .072128299 .12998963 .1239624 .12998963 .14395142 .13699341 .15394593 .13798523 .15594483 .17298889 .13394165 .20799256 .12695313 .23498535 .12695313 .33299256 .12695313 .4059906 .20396424 .4059906 .2900238 .4059906 .32203675 .39698792 .35105897 .3789978 .37808229 .375 .38409425 .375 .38508607 .375 .38609315 .375 .39009095 .43499757 .39009095 .43998719 .39009095 .44099427 .39009095 .47898866 .39009095 .5149994 .38609315L.5029907 .45410157M.23599243 .18894959C.18199158 .18894959 .14199829 .22297669 .14199829 .2900238 .14199829 .3680725 .19198609 .39208985 .23498535 .39208985 .2889862 .39208985 .32899476 .35806275 .32899476 .29101563 .32899476 .21296692 .2789917 .18894959 .23599243 .18894959M.2829895-.005859375C.30599977-.005859375 .42399598-.005859375 .42399598-.06996155 .42399598-.11303711 .34899903-.14308167 .2649994-.14308167 .18099976-.14308167 .10598755-.11303711 .10598755-.06996155 .10598755-.064956668 .10598755-.005859375 .18699646-.005859375H.2829895Z" />
<path id="font_8_23" d="M.16899109 .69433596H.084991458V.00022888184H.17199707V.047225954C.19400025 .02822876 .24198914-.009765625 .31498719-.009765625 .42399598-.009765625 .5119934 .09220886 .5119934 .22315979 .5119934 .3441162 .44299317 .45410157 .34298707 .45410157 .27999879 .45410157 .21899414 .4340973 .16899109 .39709474V.69433596M.17199707 .3151245C.17199707 .33111573 .17199707 .34310914 .20698548 .36610414 .22200012 .3751068 .24899292 .38809205 .2829895 .38809205 .34999085 .38809205 .4249878 .34310914 .4249878 .22315979 .4249878 .10121155 .34199525 .056228639 .27198792 .056228639 .23498535 .056228639 .19999695 .07322693 .17199707 .11819458V.3151245Z" />
<path id="font_8_41" d="M.2769928 .22917176 .47099305 .44433595H.3829956L.24099732 .2802124 .09599304 .44433595H.005996704L.20599365 .22917176 0 0H.08898926L.24099732 .18812561 .39898683 0H.4889984L.2769928 .22917176Z" />
<path id="font_8_29" d="M.17599488 .68652346H.07499695V.58551028H.17599488V.68652346M.16799927 .44433595H.083999637V0H.16799927V.44433595Z" />
<path id="font_8_25" d="M.46299745 .69433596H.3789978V.40109254C.31498719 .4480896 .25 .45410157 .22099304 .45410157 .115997318 .45410157 .035995485 .34910584 .035995485 .22216797 .035995485 .095214847 .114990238-.009765625 .21798706-.009765625 .27999879-.009765625 .33799745 .018234253 .37599183 .052230836V.00022888184H.46299745V.69433596M.37599183 .12420654C.35099793 .083221439 .31298829 .056228639 .2649994 .056228639 .19499207 .056228639 .12298584 .10520935 .12298584 .22116089 .12298584 .3461151 .20799256 .38809205 .27598573 .38809205 .31599427 .38809205 .34999085 .37109376 .37599183 .33711244V.12420654Z" />
<path id="font_8_28" d="M.46499635 .29606629C.46499635 .37408448 .44198609 .45410157 .31900025 .45410157 .23298645 .45410157 .18699646 .4040985 .16699219 .38308717V.69433596H.08299255V0H.16999817V.24305725C.16999817 .30906678 .19799805 .38809205 .2749939 .38809205 .37799073 .38809205 .37799073 .31806947 .37799073 .2890625V0H.46499635V.29606629Z" />
<path id="font_8_12" d="M.19198609 .44433595H.101989749V.35432435H.19198609V.44433595M.101989749 .08999634V0H.19198609V.08999634H.101989749Z" />
<path id="font_8_5" d="M.32099916 .6767578H.29899598C.23399353 .61683657 .1519928 .61283877 .09199524 .61083987V.54785159C.1309967 .5488434 .18099976 .5508423 .23098755 .57084658V.06298828H.09799194V0H.45399476V.06298828H.32099916V.6767578Z" />
<path id="font_8_8" d="M.3959961 .16699219H.5V.23298645H.3959961V.65625H.29699708L.02999878 .23298645V.16699219H.30999757V0H.3959961V.16699219M.114990238 .23298645C.14498902 .28001405 .31698609 .5471802 .31698609 .6072235V.23298645H.114990238Z" />
<path id="font_8_4" d="M.48799134 .32463075C.48799134 .37265016 .48799134 .48970033 .44099427 .57173159 .3899994 .66174319 .31298829 .6767578 .2649994 .6767578 .21998596 .6767578 .14199829 .66275027 .09199524 .57673647 .04399109 .4967041 .041992189 .38764955 .041992189 .32463075 .041992189 .2505951 .04598999 .15956116 .08799744 .08352661 .13198853 .0025024415 .20599365-.021484375 .2649994-.021484375 .36499024-.021484375 .41999818 .036514284 .44999696 .09953308 .4850006 .17056275 .48799134 .26260377 .48799134 .32463075M.2649994 .044509889C.22299195 .044509889 .1749878 .06851196 .1499939 .1405487 .12998963 .20158386 .1289978 .26460267 .1289978 .33763124 .1289978 .42967225 .1289978 .6107483 .2649994 .6107483 .40098573 .6107483 .40098573 .42967225 .40098573 .33763124 .40098573 .27160646 .40098573 .19657898 .3769989 .1325531 .34899903 .060516359 .2979889 .044509889 .2649994 .044509889Z" />
<path id="font_8_32" d="M.7599945 .29606629C.7599945 .37408448 .7369995 .45410157 .6139984 .45410157 .5299988 .45410157 .47799684 .40509034 .45399476 .37309266 .44400025 .4001007 .4189911 .45410157 .31900025 .45410157 .2619934 .45410157 .20698548 .4310913 .16299439 .37808229V.45109559H.08299255V0H.16999817V.24305725C.16999817 .30906678 .19799805 .38809205 .2749939 .38809205 .37799073 .38809205 .37799073 .31806947 .37799073 .2890625V0H.46499635V.24305725C.46499635 .30906678 .49299623 .38809205 .56999209 .38809205 .6729889 .38809205 .6729889 .31806947 .6729889 .2890625V0H.7599945V.29606629Z" />
<path id="font_8_10" d="M.24699402 .5792389C.25898744 .5792389 .2709961 .580246 .2829895 .580246H.40899659C.25698854 .4312439 .1599884 .222229 .1599884-.009765625H.2539978C.2539978 .28224183 .3959961 .49224855 .48599244 .5862427V.65625H.04399109V.5792389H.24699402Z" />
<path id="font_10_4" d="M.3880005 .6046295C.39698792 .63861086 .39898683 .6496124 .4909973 .6496124 .5189972 .6496124 .5289917 .6496124 .5289917 .6686096 .5289917 .6706085 .5269928 .6826172 .5119934 .6826172 .4909973 .6826172 .46099855 .680603 .43998719 .6796112H.36799623C.2639923 .6796112 .23999024 .6826172 .23298645 .6826172 .22898865 .6826172 .21299744 .6826172 .21299744 .66360476 .21299744 .6496124 .22599793 .6496124 .24198914 .6496124 .2749939 .6496124 .3039856 .6496124 .3039856 .6336212 .3039856 .6296234 .30299378 .62861636 .2999878 .6156311L.1659851 .07896423C.15699768 .040985109 .15499878 .032989503 .08099365 .032989503 .06199646 .032989503 .049987794 .032989503 .049987794 .01399231 .049987794 0 .06298828 0 .07998657 0H.5629883C.58799746 0 .58898928 .0009918213 .5970001 .019989014 .6069946 .04798889 .6799927 .23587036 .6799927 .24586487 .6799927 .2548523 .6719971 .25985719 .6649933 .25985719 .6539917 .25985719 .6519928 .2528534 .644989 .23786927 .60899356 .14492798 .56599429 .032989503 .3869934 .032989503H.2599945C.25099183 .034988405 .24798584 .034988405 .24798584 .041992189 .24798584 .049987794 .25 .0579834 .2519989 .0639801L.3880005 .6046295Z" />
<path id="font_11_2" d="M.21598816 .69433596 .057998659 .68333438V.6443329C.12799073 .6443329 .13699341 .6373291 .13699341 .5883484V.00022888184H.17399597C.19299317 .033233644 .20599365 .055236818 .20899964 .06124878 .24299622 .021224976 .2939911-.009765625 .36299134-.009765625 .5019989-.009765625 .62098696 .089263919 .62098696 .2163086 .62098696 .33836366 .5130005 .44140626 .375 .44140626 .32199098 .44140626 .2649994 .4263916 .21598816 .38238526V.69433596M.21998596 .33236695C.25099183 .38238526 .31098939 .4093933 .36898805 .4093933 .42199708 .4093933 .46299745 .38339234 .48599244 .35638429 .5179901 .3173523 .526001 .26834107 .526001 .2163086 .526001 .02722168 .37998963 .022232056 .35798646 .022232056 .32398988 .022232056 .2749939 .032226564 .23498535 .08425903 .21998596 .104263309 .21998596 .10626221 .21998596 .12527466V.33236695Z" />
<path id="font_11_1" d="M.47499085 .29823304C.47499085 .39126588 .37998963 .44628907 .2679901 .44628907 .21998596 .44628907 .101989749 .44128419 .101989749 .35725404 .101989749 .33024598 .11999512 .3082428 .15098572 .3082428 .17999268 .3082428 .19898987 .33024598 .19898987 .3562622 .19898987 .37426759 .19099427 .39126588 .17298889 .39927674 .20599365 .41427613 .2559967 .41427613 .2659912 .41427613 .33699037 .41427613 .3919983 .37226869 .3919983 .29623414V.27023316C.34599305 .26823426 .2659912 .2662201 .19299317 .24023438 .1269989 .21722412 .06399536 .17222595 .06399536 .10522461 .06399536 .016220093 .16999817-.009765625 .24798584-.009765625 .33198548-.009765625 .38198854 .032226564 .4039917 .07022095 .41099549 .018234253 .44400025-.004776001 .47898866-.004776001 .48298646-.004776001 .58999636-.004776001 .58999636 .09022522V.14523316H.5529938V.09222412C.5529938 .082229617 .5529938 .037231447 .5139923 .037231447 .47499085 .037231447 .47499085 .082229617 .47499085 .09222412V.29823304M.3919983 .14222718C.3919983 .038223268 .2889862 .022232056 .25698854 .022232056 .20298767 .022232056 .1519928 .055221559 .1519928 .10522461 .1519928 .16122437 .20599365 .23422241 .3919983 .24023438V.14222718Z" />
<path id="font_11_4" d="M.40499879 .41827394C.40499879 .43528749 .40499879 .44628907 .3889923 .44628907 .38398744 .44628907 .38198854 .44628907 .36698915 .4342804 .36499024 .4322815 .3639984 .4312744 .34899903 .419281 .31098939 .44528199 .2599945 .44628907 .23999024 .44628907 .08299255 .44628907 .052993776 .36727906 .052993776 .32226563 .052993776 .22425843 .17098999 .20524597 .24699402 .19325257 .2919922 .18624878 .3789978 .17224121 .3789978 .10623169 .3789978 .067230228 .34899903 .022232056 .24699402 .022232056 .15098572 .022232056 .11099243 .07823181 .09098816 .15324402 .08799744 .1622467 .085998538 .16824341 .07199097 .16824341 .052993776 .16824341 .052993776 .15924073 .052993776 .13923645V.018234253C.052993776 .0012207031 .052993776-.009765625 .068984989-.009765625 .07499695-.009765625 .07598877-.008773804 .09498596 .009231567L.117996219 .033233644C.16699219-.009765625 .22698975-.009765625 .24699402-.009765625 .394989-.009765625 .43399049 .070236209 .43399049 .12924195 .43399049 .16925049 .4139862 .19924927 .3919983 .21824646 .34999085 .25526429 .30999757 .2622528 .25 .27226258 .1749878 .28425599 .10798645 .29626466 .10798645 .34727479 .10798645 .37628175 .1349945 .4172821 .23899842 .4172821 .30899049 .4172821 .3619995 .39128114 .36799623 .32026673 .36898805 .30726625 .36999513 .29927064 .38598634 .29927064 .40499879 .29927064 .40499879 .30827333 .40499879 .3272705V.41827394Z" />
<path id="font_11_3" d="M.46899415 .2265625C.4909973 .2265625 .49899293 .2265625 .49899293 .25054933 .49899293 .32743836 .45599366 .44628907 .2899933 .44628907 .1499939 .44628907 .04798889 .3394165 .04798889 .21954346 .04798889 .09333801 .16299439-.009765625 .3039856-.009765625 .44799806-.009765625 .49899293 .098342899 .49899293 .12037659 .49899293 .12539673 .49699403 .13641358 .47999574 .13641358 .46699525 .13641358 .46499635 .13040161 .46099855 .118377689 .43099977 .04425049 .35598756 .025222779 .30999757 .025222779 .25498963 .025222779 .20799256 .05026245 .17999268 .08631897 .14299011 .1334076 .14299011 .19950867 .14299011 .2265625H.46899415M.14498902 .25656129C.1559906 .39031983 .24798584 .41427613 .2889862 .41427613 .41799928 .41427613 .4249878 .2855072 .42599488 .25656129H.14498902Z" />
<path id="font_8_13" d="M.7299957 .3359375C.74398806 .3359375 .7659912 .3359375 .7659912 .3589325 .7659912 .3819275 .74398806 .3819275 .7299957 .3819275H.09498596C.08099365 .3819275 .05899048 .3819275 .05899048 .3589325 .05899048 .3359375 .08099365 .3359375 .09498596 .3359375H.7299957M.7299957 .11805725C.74398806 .11805725 .7659912 .11805725 .7659912 .14105225 .7659912 .1640625 .74398806 .1640625 .7299957 .1640625H.09498596C.08099365 .1640625 .05899048 .1640625 .05899048 .14105225 .05899048 .11805725 .08099365 .11805725 .09498596 .11805725H.7299957Z" />
<path id="font_8_6" d="M.2829895 .07699585C.2709961 .07699585 .25898744 .07598877 .24699402 .07598877H.1329956L.28799439 .2129364C.30599977 .22892761 .35499574 .26589967 .37399293 .28189088 .41799928 .32188417 .47698976 .3738556 .47698976 .46081544 .47698976 .573761 .3929901 .6767578 .25 .6767578 .14399719 .6767578 .07798767 .619751 .04399109 .51779177L.09098816 .45881654C.11399841 .54278567 .14898682 .60775759 .23599243 .60775759 .31999208 .60775759 .38398744 .54878237 .38398744 .45881654 .38398744 .3758545 .33499146 .32887269 .2749939 .27189637 .25498963 .25190736 .20098877 .2069397 .17999268 .18693543 .15098572 .1609497 .08198547 .09397888 .052993776 .068984989V0H.47698976V.07699585H.2829895Z" />
<path id="font_8_11" d="M.34199525 .353714C.4079895 .37471009 .47099305 .42771913 .47099305 .50172427 .47099305 .5927429 .38398744 .6767578 .2649994 .6767578 .1459961 .6767578 .05899048 .5927429 .05899048 .50172427 .05899048 .42671205 .12399292 .37371827 .18798828 .353714 .099990848 .32670594 .04399109 .258667 .04399109 .1816101 .04399109 .074523929 .13899231-.021484375 .2649994-.021484375 .3909912-.021484375 .48599244 .074523929 .48599244 .1816101 .48599244 .258667 .42900086 .32670594 .34199525 .353714M.2649994 .38671876C.19400025 .38671876 .13598633 .42771913 .13598633 .5007324 .13598633 .56474307 .18099976 .6147461 .2649994 .6147461 .34799195 .6147461 .3939972 .56474307 .3939972 .5007324 .3939972 .42971803 .33799745 .38671876 .2649994 .38671876M.2649994 .044509889C.19599915 .044509889 .1349945 .08854675 .1349945 .18260193 .1349945 .27267457 .19299317 .32070924 .2649994 .32070924 .33699037 .32070924 .394989 .27166749 .394989 .18260193 .394989 .08854675 .33299256 .044509889 .2649994 .044509889Z" />
<path id="font_8_9" d="M.43899537 .65675356C.3849945 .6767578 .34700013 .6767578 .32798768 .6767578 .17599488 .6767578 .04399109 .53370669 .04399109 .32263185 .04399109 .051513673 .1659851-.021484375 .2669983-.021484375 .34799195-.021484375 .3899994 .01651001 .42099 .04850769 .4850006 .11653137 .48599244 .18756104 .48599244 .22257996 .48599244 .3536377 .4149933 .462677 .31799317 .462677 .21998596 .462677 .16699219 .41166688 .13798523 .38264466 .15098572 .51971438 .22099304 .6147461 .32899476 .6147461 .34899903 .6147461 .3889923 .6127472 .43899537 .59373477V.65675356M.13899231 .21957398C.13899231 .22558594 .13899231 .24058533 .13999939 .24559021 .13999939 .3136139 .18299866 .39665223 .27198792 .39665223 .3939972 .39665223 .3939972 .2565918 .3939972 .22257996 .3939972 .18457031 .3939972 .1425476 .36698915 .1005249 .34298707 .06451416 .31298829 .044509889 .2669983 .044509889 .16099549 .044509889 .14399719 .17556763 .13899231 .21957398Z" />
<path id="font_8_1" d="M.30499269 .75C.28799439 .75 .28599549 .75 .27398683 .7389984 .147995 .6289978 .083999637 .45098878 .083999637 .25 .083999637 .06098938 .14099121-.1210022 .272995-.23701477 .28599549-.25 .28799439-.25 .30499269-.25H.35299684C.34999085-.2480011 .25299073-.16500855 .20698548-.009002686 .18299866 .069000247 .17098999 .15098572 .17098999 .25 .17098999 .59599307 .33299256 .73298647 .35299684 .75H.30499269Z" />
<path id="font_8_3" d="M.19198609 .08999634H.101989749V0H.19198609V.08999634Z" />
<path id="font_8_35" d="M.17199707 .047225954C.22499085-.00077819827 .28199769-.009765625 .31599427-.009765625 .42199708-.009765625 .5119934 .09121704 .5119934 .22315979 .5119934 .34310914 .44599916 .45410157 .34700013 .45410157 .3019867 .45410157 .22698975 .44110108 .16899109 .39608766V.4440918H.084991458V-.19433594H.17199707V.047225954M.17199707 .3321228C.19499207 .36010743 .23399353 .38510133 .28199769 .38510133 .3619995 .38510133 .4249878 .3111267 .4249878 .22315979 .4249878 .12420654 .34999085 .056228639 .27198792 .056228639 .25698854 .056228639 .23199463 .05822754 .20599365 .07922363 .17599488 .10220337 .17199707 .11720276 .17199707 .13619995V.3321228Z" />
<path id="font_8_2" d="M.10699463-.25C.12399292-.25 .12599182-.25 .13798523-.23901367 .2639923-.12901306 .32798768 .04899597 .32798768 .25 .32798768 .43899537 .2709961 .62098696 .13899231 .7369995 .12599182 .75 .12399292 .75 .10699463 .75H.05899048C.06199646 .74798586 .15899658 .6649933 .20498657 .5089874 .22898865 .43099977 .24099732 .34899903 .24099732 .25 .24099732-.0960083 .07899475-.23300171 .05899048-.25H.10699463Z" />
<path id="font_12_1" d="M.18899536 .07797241C.18099976 .04399109 .1789856 .035995485 .100997928 .035995485 .08299255 .035995485 .070999149 .035995485 .070999149 .01399231 .070999149 0 .08299255 0 .100997928 0H.45799256C.6799927 0 .8929901 .20388794 .8929901 .42175294 .8929901 .5676575 .7919922 .6826172 .6289978 .6826172H.2649994C.24499512 .6826172 .23298645 .6826172 .23298645 .660614 .23298645 .64660647 .24398804 .64660647 .2659912 .64660647 .28199769 .64660647 .28599549 .64660647 .3039856 .64460757 .32398988 .64260867 .32598878 .64060977 .32598878 .63061526 .32598878 .62861636 .32598878 .6236267 .32199098 .6086426L.18899536 .07797241M.41299439 .6126251C.42099 .6436157 .42199708 .64660647 .46398927 .64660647H.59199526C.70399478 .64660647 .7979889 .59065249 .7979889 .45472718 .7979889 .43174745 .7879944 .2588501 .6879883 .14492798 .6489868 .09994507 .5629883 .035995485 .43998719 .035995485H.3039856C.272995 .035995485 .27198792 .036987306 .27198792 .04598999 .27198792 .04698181 .27198792 .051986696 .27598573 .066970828L.41299439 .6126251Z" />
<path id="font_12_2" d="M.4119873 .600708C.42099 .63668826 .42399598 .64668276 .5159912 .64668276 .5469971 .64668276 .5569916 .64668276 .5569916 .6686859 .5569916 .66967776 .55599978 .6826782 .5399933 .6826782 .5169983 .6826782 .48999024 .6806793 .46598817 .6796875 .44099427 .6786804 .41099549 .6786804 .38598634 .6786804 .36499024 .6786804 .33799745 .6796875 .31698609 .6796875 .29599 .6796875 .27198792 .6826782 .2519989 .6826782 .24598694 .6826782 .23098755 .6826782 .23098755 .66067507 .23098755 .64668276 .24299622 .64668276 .2630005 .64668276 .2639923 .64668276 .2829895 .64668276 .30099488 .64468386 .32199098 .64268496 .32398988 .64068606 .32398988 .6306915 .32398988 .6286926 .32398988 .623703 .31999208 .6087036L.18699646 .07797241C.17799378 .04399109 .17599488 .035995485 .09899902 .035995485 .08198547 .035995485 .068984989 .035995485 .068984989 .01499939 .068984989 0 .08099365 0 .09899902 0H.60198977C.6269989 0 .6279907 .0009918213 .6359863 .019989014 .6459961 .04698181 .72099307 .2408905 .72099307 .24888611 .72099307 .25187684 .71899417 .26287843 .70399478 .26287843 .69200137 .26287843 .6899872 .25787355 .6839905 .24188233 .6459961 .14694214 .60198977 .035995485 .4189911 .035995485H.30599977C.2749939 .035995485 .27398683 .036987306 .27398683 .04598999 .27398683 .04698181 .27398683 .051986696 .27799989 .066970828L.4119873 .600708Z" />
<path id="font_8_7" d="M.099990848 .51268008C.14099121 .59272769 .21299744 .6147461 .26098634 .6147461 .31999208 .6147461 .3639984 .58073428 .3639984 .52368167 .3639984 .4706421 .32798768 .40560914 .2519989 .39259339 .24699402 .39160157 .24299622 .39160157 .1769867 .38659669V.32058717H.25498963C.34999085 .32058717 .3849945 .24557495 .3849945 .18255615 .3849945 .104522708 .33699037 .044509889 .25898744 .044509889 .18798828 .044509889 .10699463 .07852173 .056991579 .14253235L.04399109 .07751465C.101989749 .012512207 .18299866-.021484375 .26098634-.021484375 .3919983-.021484375 .48599244 .07652283 .48599244 .18154907 .48599244 .26358033 .41999818 .32958985 .34098817 .3526001 .4169922 .39160157 .45599366 .45863343 .45599366 .52368167 .45599366 .6087494 .36898805 .6767578 .2619934 .6767578 .17399597 .6767578 .100997928 .63075259 .05899048 .5707245L.099990848 .51268008Z" />
<path id="font_12_3" d="M.70999148 .6901245C.70999148 .69511416 .70700076 .703125 .69699099 .703125 .69099429 .703125 .6899872 .7021179 .6769867 .68911746L.6279907 .6321411C.58999636 .6851196 .5269928 .703125 .46598817 .703125 .32499696 .703125 .19999695 .5891571 .19999695 .4742279 .19999695 .45922853 .20298767 .4192505 .23298645 .38227845 .2669983 .34228517 .3039856 .33329774 .37199403 .31730653 .3919983 .31230165 .44198609 .3013153 .45700074 .2973175 .4889984 .2893219 .5499878 .26733399 .5499878 .19236756 .5499878 .11140442 .46499635 .016464234 .35099793 .016464234 .2630005 .016464234 .15699768 .047439577 .15699768 .15838623 .15699768 .16838074 .15899658 .19036865 .16299439 .20835877 .1639862 .21235657 .1639862 .21336365 .1639862 .21435547 .1639862 .22735596 .1519928 .22735596 .147995 .22735596 .13398743 .22735596 .1329956 .22535706 .1289978 .20736695L.07798767 .007461548C.07699585 .0034637452 .07499695-.002532959 .07499695-.007537842 .07499695-.013534546 .07899475-.01953125 .08898926-.01953125 .09498596-.01953125 .09599304-.018539429 .10899353-.0055389406 .11999512 .006454468 .1459961 .03845215 .15699768 .050445558 .20999146-.007537842 .28799439-.01953125 .34799195-.01953125 .49899293-.01953125 .62098696 .1104126 .62098696 .22834778 .62098696 .2723236 .6029968 .31230165 .58099368 .33529664 .54599 .37127687 .5309906 .37527467 .4019928 .40525819 .3809967 .41026307 .34799195 .41825868 .33898927 .4212494 .31399537 .43025209 .27198792 .4552307 .27198792 .51220706 .27198792 .591156 .36099244 .67111209 .46499635 .67111209 .57299807 .67111209 .625 .6101532 .625 .51519778 .625 .5022125 .62098696 .47921754 .62098696 .4702301 .62098696 .4562378 .6329956 .4562378 .6380005 .4562378 .6529999 .4562378 .6539917 .46122743 .6579895 .4782257L.70999148 .6901245Z" />
<path id="font_8_21" d="M.9869995 .69433596H.9089966L.81199648 .3791809C.80599978 .35816957 .73599246 .13404846 .72898867 .08001709H.7279968C.7220001 .13104248 .6499939 .36616517 .647995 .37217713L.5479889 .69433596H.46398927L.37098695 .3941803C.3600006 .36016847 .2939911 .14505005 .2869873 .08102417H.28599549C.27999879 .14205933 .20599365 .3811798 .20298767 .3921814L.10998535 .69433596H.01499939L.23199463 0H.31698609L.41999818 .3351593 .46899415 .50224307C.4850006 .55526736 .49299623 .5872803 .49699403 .61428835H.49798585C.5039978 .567276 .5289917 .4852295 .5469971 .42619325L.6299896 .15306092 .6779938 0H.769989L.9869995 .69433596Z" />
<path id="font_8_22" d="M.42599488 .28799439C.42599488 .38998414 .34799195 .45898438 .24899292 .45898438 .18598938 .45898438 .13798523 .4459839 .08198547 .41596986L.08799744 .34298707C.12098694 .36497499 .16999817 .39497376 .24899292 .39497376 .29299928 .39497376 .33898927 .36198426 .33898927 .2869873V.24699402C.19099427 .24198914 .04499817 .21099854 .04499817 .118118289 .04499817 .06820679 .07899475-.009765625 .16699219-.009765625 .20999146-.009765625 .2889862-.00077819827 .34199525 .038223268V.00022888184H.42599488V.28799439M.33898927 .14207459C.33898927 .12211609 .33898927 .09616089 .3039856 .07519531 .27198792 .05722046 .23298645 .056228639 .22200012 .056228639 .16699219 .056228639 .125 .08117676 .125 .11911011 .125 .18299866 .2939911 .18899536 .33898927 .19099427V.14207459Z" />
<path id="font_13_1" d="M.43598939 .22743225H.7299957C.74398806 .22743225 .7659912 .22743225 .7659912 .25042726 .7659912 .2734375 .74398806 .2734375 .7299957 .2734375H.43598939V.56799319C.43598939 .5819855 .43598939 .6039734 .41299439 .6039734 .3899994 .6039734 .3899994 .5819855 .3899994 .56799319V.2734375H.09498596C.08099365 .2734375 .05899048 .2734375 .05899048 .25042726 .05899048 .22743225 .08099365 .22743225 .09498596 .22743225H.3899994V-.067993167C.3899994-.08201599 .3899994-.104019168 .41299439-.104019168 .43598939-.104019168 .43598939-.08201599 .43598939-.067993167V.22743225Z" />
<path id="font_13_4" d="M.33198548 .36080934C.3880005 .38783265 .45599366 .4378662 .45599366 .5159302 .45599366 .6110077 .35899354 .66503909 .2659912 .66503909 .1599884 .66503909 .07398987 .59199526 .07398987 .49790956 .07398987 .46089173 .08699036 .42686463 .11199951 .39782716 .1289978 .3768158 .1329956 .3748169 .19499207 .3357849 .070999149 .2807312 .04399109 .20767212 .04399109 .15162659 .04399109 .041534425 .15499878-.021484375 .2639923-.021484375 .3869934-.021484375 .48599244 .061553956 .48599244 .16764832 .48599244 .23069763 .45199586 .2727356 .43598939 .28974916 .4189911 .30575563 .41799928 .3067627 .33198548 .36080934M.1769867 .45487977C.147995 .4718933 .12399292 .5009155 .12399292 .5359497 .12399292 .598999 .19299317 .6390381 .2639923 .6390381 .34199525 .6390381 .4059906 .5859833 .4059906 .5159302 .4059906 .45788575 .36099244 .408844 .3019867 .37982179L.1769867 .45487977M.22599793 .31776429C.22999573 .31576539 .34399415 .24571228 .36099244 .23469544 .3769989 .22569275 .42900086 .19366455 .42900086 .13360596 .42900086 .056549074 .34799195 .008514404 .2659912 .008514404 .1769867 .008514404 .100997928 .06956482 .100997928 .15162659 .100997928 .22668457 .15699768 .28573609 .22599793 .31776429Z" />
<path id="font_13_2" d="M.4889984 .31877137C.4889984 .42585755 .47799684 .49090577 .44499208 .55496218 .40098573 .6430359 .31999208 .66503909 .2649994 .66503909 .13899231 .66503909 .09298706 .5709839 .07899475 .5429535 .042999269 .4698944 .040985109 .3708191 .040985109 .31877137 .040985109 .25271607 .04399109 .15162659 .09199524 .07156372 .13798523-.0024871827 .21199036-.021484375 .2649994-.021484375 .31298829-.021484375 .39898683-.0064849855 .44898988 .09257507 .48599244 .16464234 .4889984 .2537079 .4889984 .31877137M.2649994 .006515503C.23098755 .006515503 .1619873 .022521973 .14099121 .12760926 .12998963 .18466187 .12998963 .2787323 .12998963 .33078004 .12998963 .3998413 .12998963 .4698944 .14099121 .5249481 .1619873 .6270294 .23999024 .6370239 .2649994 .6370239 .29899598 .6370239 .36799623 .62002566 .3880005 .5289459 .3999939 .4738922 .3999939 .39883424 .3999939 .33078004 .3999939 .27172853 .3999939 .18165589 .3880005 .12561035 .36698915 .020523072 .2979889 .006515503 .2649994 .006515503Z" />
<path id="font_8_39" d="M.46499635 .44433595H.37799073V.1542511C.37799073 .07423401 .30999757 .049224855 .2519989 .049224855 .17799378 .049224855 .16999817 .069229129 .16999817 .115249637V.44433595H.08299255V.10923767C.08299255 .020233155 .12199402-.009765625 .19198609-.009765625 .23298645-.009765625 .32099916-.0017700195 .3809967 .04623413V.00022888184H.46499635V.44433595Z" />
<path id="font_8_37" d="M.36499024 .42797853C.29699708 .4559784 .24699402 .45898438 .21099854 .45898438 .18598938 .45898438 .034988405 .45898438 .034988405 .32603456 .034988405 .279068 .06098938 .25308229 .07398987 .24108887 .10899353 .20611573 .15098572 .19812012 .20399475 .18812561 .25099183 .17913819 .30499269 .16914368 .30499269 .1211853 .30499269 .05822754 .22200012 .05822754 .20799256 .05822754 .14399719 .05822754 .083999637 .081207279 .04399109 .109191898L.02999878 .034225465C.06399536 .017227173 .125-.009765625 .20799256-.009765625 .25299073-.009765625 .29699708-.0027770997 .33399964 .024230957 .37098695 .052230836 .3829956 .096191409 .3829956 .13017273 .3829956 .14816284 .3809967 .18713379 .33898927 .22509766 .3019867 .2580719 .2659912 .26507569 .21798706 .2740631 .15899658 .2850647 .11299133 .29405213 .11299133 .3380127 .11299133 .39497376 .18598938 .39497376 .20098877 .39497376 .2579956 .39497376 .3019867 .38298036 .35198976 .3570099L.36499024 .42797853Z" />
<path id="font_8_24" d="M.43499757 .109191898C.3849945 .07720947 .33099366 .05921936 .2689972 .05921936 .1769867 .05921936 .12298584 .13316345 .12298584 .22309876 .12298584 .30004884 .16299439 .38998414 .27198792 .38998414 .33999635 .38998414 .37199403 .37599183 .4229889 .3440094L.43598939 .41596986C.37599183 .4459839 .34999085 .45898438 .27198792 .45898438 .12199402 .45898438 .035995485 .3380127 .035995485 .22210694 .035995485 .10018921 .13198853-.009765625 .2679901-.009765625 .33799745-.009765625 .397995 .011230469 .44099427 .036224367L.43499757 .109191898Z" />
<path id="font_10_5" d="M.67099 .6770935C.6719971 .6810913 .673996 .687088 .673996 .6920929 .673996 .6990967 .66799929 .70410159 .6609955 .70410159 .6539917 .70410159 .6519928 .7020874 .6409912 .690094 .6299896 .6770935 .60398867 .6450653 .59298709 .63305667 .55400088 .690094 .4909973 .70410159 .43998719 .70410159 .30099488 .70410159 .18199158 .5870209 .18199158 .47291566 .18199158 .41485597 .21299744 .38082887 .21798706 .37382508 .25099183 .3387909 .27999879 .3307953 .35198976 .31378175 .3869934 .3047638 .3889923 .3047638 .41799928 .29776 .44699098 .29075624 .5109863 .2747345 .5109863 .19166565 .5109863 .10458374 .4249878 .011505127 .31999208 .011505127 .25498963 .011505127 .13598633 .03152466 .13598633 .15563965 .13598633 .15863037 .13598633 .17965698 .14199829 .20367432L.14299011 .21368408C.14299011 .22569275 .13198853 .22669983 .12799073 .22669983 .114990238 .22669983 .11399841 .22268677 .10899353 .19967652L.067993167 .03652954C.06399536 .021514893 .056991579-.005493164 .056991579-.0084991459 .056991579-.016494751 .06298828-.021484375 .069992069-.021484375 .07699585-.021484375 .07798767-.020492554 .08898926-.0074920656L.13699341 .048538209C.1599884 .018508912 .21699524-.021484375 .31799317-.021484375 .46299745-.021484375 .58200076 .10958862 .58200076 .22970581 .58200076 .27574159 .5669861 .31176759 .5399933 .33979798 .5099945 .37283326 .47698976 .38082887 .42999269 .39283753 .40098573 .39985658 .3619995 .40885926 .33898927 .41485597 .30899049 .421875 .25299073 .44189454 .25299073 .51194766 .25299073 .5900116 .33699037 .6740875 .43899537 .6740875 .5289917 .6740875 .59098818 .6270447 .59098818 .5189514 .59098818 .49493409 .58699038 .47392274 .58699038 .46990968 .58699038 .457901 .59599307 .4559021 .6029968 .4559021 .61499026 .4559021 .6159973 .4598999 .6199951 .47592164L.67099 .6770935Z" />
<path id="font_10_2" d="M.46499635 .70799258C.47099305 .7220001 .47099305 .723999 .47099305 .72698977 .47099305 .73999026 .46099855 .75 .44799806 .75 .43199159 .75 .42799378 .73799136 .42399598 .7279968L.06498718-.20800781C.05899048-.22200012 .05899048-.22401428 .05899048-.227005 .05899048-.2400055 .068984989-.25 .08198547-.25 .09799194-.25 .101989749-.23800659 .10598755-.22801209L.46499635 .70799258Z" />
<path id="font_10_3" d="M.16699219 .07896423C.1579895 .040985109 .1559906 .032989503 .08198547 .032989503 .06298828 .032989503 .050994874 .032989503 .050994874 .01399231 .050994874 0 .06399536 0 .08099365 0H.4249878C.6359863 0 .84599307 .20188904 .84599307 .42474366 .84599307 .577652 .74398806 .6826172 .59498599 .6826172H.24499512C.22698975 .6826172 .21398926 .6826172 .21398926 .66360476 .21398926 .6496124 .22599793 .6496124 .24299622 .6496124 .27598573 .6496124 .30499269 .6496124 .30499269 .6336212 .30499269 .6296234 .3039856 .62861636 .30099488 .6156311L.16699219 .07896423M.3880005 .6126251C.39698792 .64660647 .397995 .6496124 .43899537 .6496124H.55999758C.6769867 .6496124 .7559967 .58265689 .7559967 .46072389 .7559967 .42774964 .74198916 .2648468 .6549988 .15292359 .61099246 .096954349 .5249939 .032989503 .40699769 .032989503H.2579956C.24899292 .034988405 .24598694 .034988405 .24598694 .041992189 .24598694 .049987794 .24798584 .0579834 .25 .0639801L.3880005 .6126251Z" />
<path id="font_13_5" d="M.73098757 .3330078C.74598696 .3330078 .7659912 .3330078 .7659912 .3560028 .7659912 .3789978 .74198916 .3789978 .72698977 .3789978H.09799194C.08299255 .3789978 .05899048 .3789978 .05899048 .3560028 .05899048 .3330078 .07899475 .3330078 .09399414 .3330078H.73098757M.72698977 .12098694C.74198916 .12098694 .7659912 .12098694 .7659912 .14398194 .7659912 .16699219 .74598696 .16699219 .73098757 .16699219H.09399414C.07899475 .16699219 .05899048 .16699219 .05899048 .14398194 .05899048 .12098694 .08299255 .12098694 .09799194 .12098694H.72698977Z" />
<path id="font_10_1" d="M.20298767 .054992677C.20298767 .08898926 .1749878 .11099243 .147995 .11099243 .115997318 .11099243 .09199524 .084991458 .09199524 .055999757 .09199524 .021987915 .11999512 0 .14698792 0 .1789856 0 .20298767 .025985718 .20298767 .054992677Z" />
<path id="font_13_3" d="M.13999939 .5618439C.15299988 .55784609 .19299317 .54785159 .23498535 .54785159 .3600006 .54785159 .43598939 .6358948 .43598939 .6510315 .43598939 .6620331 .42900086 .66503909 .42399598 .66503909 .42199708 .66503909 .41999818 .66503909 .41099549 .6600342 .37199403 .6450348 .32598878 .632843 .27198792 .632843 .21299744 .632843 .1639862 .6480255 .1329956 .6600342 .12298584 .66503909 .12098694 .66503909 .11999512 .66503909 .10699463 .66503909 .10699463 .6540375 .10699463 .6358948V.34292604C.10699463 .32492066 .10699463 .312912 .12298584 .312912 .1309967 .312912 .13398743 .3169098 .13899231 .32492066 .15098572 .33992005 .18899536 .39093019 .27398683 .39093019 .32998658 .39093019 .35699464 .34492494 .3659973 .32591249 .3829956 .28990174 .3849945 .24389649 .3849945 .20487976 .3849945 .1678772 .38398744 .11387634 .35598756 .069732669 .33699037 .039611818 .29699708 .008514404 .24398804 .008514404 .1789856 .008514404 .114990238 .0496521 .09199524 .11488342 .09498596 .11387634 .100997928 .11387634 .101989749 .11387634 .12998963 .11387634 .1519928 .13188172 .1519928 .16288758 .1519928 .19989014 .12298584 .21289063 .102996829 .21289063 .084991458 .21289063 .052993776 .20288086 .052993776 .15988159 .052993776 .069732669 .1309967-.021484375 .24598694-.021484375 .37098695-.021484375 .47698976 .07574463 .47698976 .19989014 .47698976 .31591798 .3929901 .4189453 .2749939 .4189453 .22499085 .4189453 .17799378 .40293885 .13999939 .368927V.5618439Z" />
<path id="font_8_30" d="M.29899598 .27212525 .47698976 .44421388H.37998963L.1659851 .23710633V.69433596H.08799744V0H.1619873V.14006043L.24699402 .22209168 .4119873 0H.5L.29899598 .27212525Z" />
<path id="font_8_15" d="M.099990848 .69433596V0H.3849945C.5329895 0 .647995 .088012699 .647995 .18804932 .647995 .27609254 .5549927 .3471222 .44400025 .3631134 .5479889 .38812257 .6179962 .4481659 .6179962 .52023318 .6179962 .6123047 .5029907 .69433596 .35598756 .69433596H.099990848M.19400025 .39411927V.6353302H.32598878C.43798829 .6353302 .5309906 .5832825 .5309906 .5192261 .5309906 .4521637 .43998719 .39411927 .32699586 .39411927H.19400025M.19400025 .05899048V.328125H.33699037C.46299745 .328125 .5569916 .26408387 .5569916 .1890564 .5569916 .11502075 .46398927 .05899048 .35398866 .05899048H.19400025Z" />
<path id="font_8_16" d="M.5569916 .3471527C.54499819 .31713868 .47299195 .14105225 .46299745 .09902954H.46199037C.45498658 .12805176 .40899659 .24310303 .39898683 .26911927L.22698975 .69433596H.10499573V0H.18899536V.61428835H.18998719C.19799805 .5792694 .25 .4472046 .25498963 .436203L.42199708 .020996094H.5009918L.6499939 .38917542C.6499939 .3901825 .71899417 .5602722 .73599246 .6152954H.7369995V0H.82099917V.69433596H.69799807L.5569916 .3471527Z" />
<path id="font_8_31" d="M.16799927 .69433596H.083999637V0H.16799927V.69433596Z" />
</defs>
<path transform="matrix(1,0,0,-1,238.863,316.257)" d="M-206.93178 0H206.93178V206.93178H-206.93178ZL-198.42766 0H198.42766V141.73404H-198.42766V0Z" fill="#ebebeb" />
<path transform="matrix(1,0,0,-1,238.863,316.257)" stroke-width=".3985" stroke-linecap="butt" stroke-miterlimit="10" stroke-linejoin="miter" fill="none" stroke="#000000" d="M-206.93178 0H206.93178V206.93178H-206.93178ZL-198.42766 0H198.42766V141.73404H-198.42766V0Z" />
<path transform="matrix(1,0,0,-1,238.863,316.257)" d="M-198.42766 141.73404H198.42766V164.41156H-198.42766Z" fill="#e8eef5" />
<path transform="matrix(1,0,0,-1,238.863,316.257)" stroke-width=".29887" stroke-linecap="butt" stroke-miterlimit="10" stroke-linejoin="miter" fill="none" stroke="#0b3d91" d="M-198.42766 141.73404H198.42766V164.41156H-198.42766Z" />
<path transform="matrix(1,0,0,-1,238.863,316.257)" stroke-width=".49814" stroke-linecap="butt" stroke-miterlimit="10" stroke-linejoin="miter" fill="none" stroke="#0b3d91" d="M-198.42766 164.41156C-196.65599 164.41156-195.77016 165.10895-193.99849 165.10895-192.7158 165.10895-191.6103 164.76863-190.45516 164.41156-189.30002 164.05452-188.1945 163.71417-186.91182 163.71417-185.62914 163.71417-184.52362 164.0545-183.36847 164.41156-182.21334 164.76862-181.10784 165.10895-179.82514 165.10895-178.54245 165.10895-177.43695 164.76863-176.2818 164.41156-175.12667 164.05452-174.02117 163.71417-172.73847 163.71417-171.45578 163.71417-170.35028 164.0545-169.19513 164.41156-168.04 164.76862-166.93448 165.10895-165.65178 165.10895-164.36911 165.10895-163.2636 164.76863-162.10845 164.41156-160.95331 164.05452-159.84781 163.71417-158.56511 163.71417-157.28243 163.71417-156.17693 164.0545-155.02178 164.41156-153.86664 164.76862-152.76113 165.10895-151.47844 165.10895-150.19576 165.10895-149.09026 164.76863-147.93509 164.41156-146.77996 164.05452-145.67446 163.71417-144.39176 163.71417-143.10907 163.71417-142.00357 164.0545-140.84842 164.41156-139.69329 164.76862-138.58779 165.10895-137.30509 165.10895-136.0224 165.10895-134.9169 164.76863-133.76175 164.41156-132.60662 164.05452-131.5011 163.71417-130.2184 163.71417-128.93573 163.71417-127.83022 164.0545-126.67506 164.41156-125.51993 164.76862-124.41443 165.10895-123.13173 165.10895-121.84904 165.10895-120.74355 164.76863-119.5884 164.41156-118.43326 164.05452-117.32776 163.71417-116.04506 163.71417-114.76237 163.71417-113.65688 164.0545-112.50171 164.41156-111.34657 164.76862-110.24107 165.10895-108.95837 165.10895-107.67569 165.10895-106.57019 164.76863-105.41504 164.41156-104.2599 164.05452-103.1544 163.71417-101.8717 163.71417-100.58902 163.71417-99.48352 164.0545-98.32837 164.41156-97.17323 164.76862-96.06772 165.10895-94.78503 165.10895-93.50235 165.10895-92.39684 164.76863-91.24168 164.41156-90.08655 164.05452-88.98105 163.71417-87.69835 163.71417-86.41566 163.71417-85.31017 164.0545-84.15501 164.41156-82.99988 164.76862-81.89438 165.10895-80.61168 165.10895-79.329 165.10895-78.2235 164.76863-77.06834 164.41156-75.9132 164.05452-74.8077 163.71417-73.525 163.71417-72.24231 163.71417-71.13681 164.0545-69.98166 164.41156-68.82652 164.76862-67.72102 165.10895-66.43832 165.10895-65.15564 165.10895-64.05014 164.76863-62.89499 164.41156-61.73985 164.05452-60.63434 163.71417-59.35165 163.71417-58.06897 163.71417-56.96346 164.0545-55.8083 164.41156-54.65317 164.76862-53.54767 165.10895-52.26497 165.10895-50.98228 165.10895-49.87679 164.76863-48.72163 164.41156-47.5665 164.05452-46.461 163.71417-45.1783 163.71417-43.89561 163.71417-42.79012 164.0545-41.63496 164.41156-40.47983 164.76862-39.37431 165.10895-38.09161 165.10895-36.80894 165.10895-35.70343 164.76863-34.54828 164.41156-33.39314 164.05452-32.28764 163.71417-31.00494 163.71417-29.72226 163.71417-28.61676 164.0545-27.46161 164.41156-26.30647 164.76862-25.20096 165.10895-23.91827 165.10895-22.63559 165.10895-21.53009 164.76863-20.37492 164.41156-19.21979 164.05452-18.11429 163.71417-16.83159 163.71417-15.5489 163.71417-14.4434 164.0545-13.28825 164.41156-12.13312 164.76862-11.02762 165.10895-9.74492 165.10895-8.46223 165.10895-7.35674 164.76863-6.20158 164.41156-5.04645 164.05452-3.94093 163.71417-2.65823 163.71417-1.37556 163.71417-.27005 164.0545 .88509 164.41156 2.04022 164.76862 3.14572 165.10895 4.42842 165.10895 5.7111 165.10895 6.8166 164.76863 7.97176 164.41156 9.12689 164.05452 10.23239 163.71417 11.51509 163.71417 12.79778 163.71417 13.90327 164.0545 15.05844 164.41156 16.21358 164.76862 17.31908 165.10895 18.60178 165.10895 19.88446 165.10895 20.98996 164.76863 22.14511 164.41156 23.30025 164.05452 24.40575 163.71417 25.68845 163.71417 26.97113 163.71417 28.07663 164.0545 29.23178 164.41156 30.38692 164.76862 31.49243 165.10895 32.77512 165.10895 34.0578 165.10895 35.16331 164.76863 36.31847 164.41156 37.4736 164.05452 38.5791 163.71417 39.8618 163.71417 41.14449 163.71417 42.24998 164.0545 43.40514 164.41156 44.56027 164.76862 45.66577 165.10895 46.94847 165.10895 48.23116 165.10895 49.33665 164.76863 50.4918 164.41156 51.64696 164.05452 52.75246 163.71417 54.03516 163.71417 55.31784 163.71417 56.42334 164.0545 57.57849 164.41156 58.73363 164.76862 59.83913 165.10895 61.12183 165.10895 62.40451 165.10895 63.51001 164.76863 64.66516 164.41156 65.8203 164.05452 66.92581 163.71417 68.2085 163.71417 69.49118 163.71417 70.5967 164.0545 71.75185 164.41156 72.90698 164.76862 74.01248 165.10895 75.29518 165.10895 76.57787 165.10895 77.68336 164.76863 78.83852 164.41156 79.99365 164.05452 81.09915 163.71417 82.38185 163.71417 83.66454 163.71417 84.77003 164.0545 85.92519 164.41156 87.08032 164.76862 88.18584 165.10895 89.46854 165.10895 90.7512 165.10895 91.85672 164.76863 93.01187 164.41156 94.167 164.05452 95.2725 163.71417 96.5552 163.71417 97.83789 163.71417 98.94339 164.0545 100.09854 164.41156 101.25368 164.76862 102.35919 165.10895 103.64188 165.10895 104.92456 165.10895 106.03006 164.76863 107.18523 164.41156 108.34036 164.05452 109.44586 163.71417 110.72856 163.71417 112.01125 163.71417 113.11674 164.0545 114.2719 164.41156 115.42703 164.76862 116.53253 165.10895 117.81523 165.10895 119.09792 165.10895 120.20341 164.76863 121.35857 164.41156 122.5137 164.05452 123.61922 163.71417 124.90192 163.71417 126.18459 163.71417 127.2901 164.0545 128.44525 164.41156 129.60039 164.76862 130.70589 165.10895 131.98859 165.10895 133.27127 165.10895 134.37677 164.76863 135.53192 164.41156 136.68706 164.05452 137.79256 163.71417 139.07526 163.71417 140.35794 163.71417 141.46344 164.0545 142.6186 164.41156 143.77375 164.76862 144.87924 165.10895 146.16194 165.10895 147.44463 165.10895 148.55013 164.76863 149.70528 164.41156 150.86042 164.05452 151.96591 163.71417 153.24861 163.71417 154.5313 163.71417 155.6368 164.0545 156.79195 164.41156 157.94709 164.76862 159.0526 165.10895 160.33528 165.10895 161.61797 165.10895 162.72348 164.76863 163.87863 164.41156 165.03377 164.05452 166.13927 163.71417 167.42197 163.71417 168.70465 163.71417 169.81015 164.0545 170.9653 164.41156 172.12044 164.76862 173.22594 165.10895 174.50864 165.10895 175.79132 165.10895 176.89682 164.76863 178.05197 164.41156 179.20713 164.05452 180.31262 163.71417 181.59532 163.71417 182.878 163.71417 183.9835 164.0545 185.13866 164.41156 186.2938 164.76862 187.39929 165.10895 188.68199 165.10895 190.45449 165.10895 191.34032 164.41156 193.11199 164.41156H198.42766" />
<g clip-path="url(#clip_1)">
<rect transform="matrix(1,0,0,-1,0,363.405)" fill="url(#pattern_2)" x="37.446649" y="44.1593" width="402.8327" height="147.71144" />
</g>
<path transform="matrix(1,0,0,-1,238.863,316.257)" stroke-width=".29887" stroke-linecap="butt" stroke-miterlimit="10" stroke-linejoin="miter" fill="none" stroke="#000000" d="M-198.42766 0H198.42766V141.73404H75.40218L56.69362 123.02504H24.37782L5.66927 141.73404H-5.66927L-24.37782 123.02504H-56.69362L-75.40218 141.73404H-198.42766Z" />
<path transform="matrix(1,0,0,-1,238.863,316.257)" d="M-75.40218 141.73404-56.69362 123.02504H-24.37782L-5.66927 141.73404" fill="#f7f1e8" />
<path transform="matrix(1,0,0,-1,238.863,316.257)" stroke-width=".3985" stroke-linecap="butt" stroke-dasharray="2.98883,2.98883" stroke-miterlimit="10" stroke-linejoin="miter" fill="none" stroke="#0b3d91" d="M-75.40218 141.73404-56.69362 123.02504H-24.37782L-5.66927 141.73404" />
<path transform="matrix(1,0,0,-1,238.863,316.257)" d="M5.66927 141.73404 24.37782 123.02504H56.69362L75.40218 141.73404" fill="#f7f1e8" />
<path transform="matrix(1,0,0,-1,238.863,316.257)" stroke-width=".3985" stroke-linecap="butt" stroke-dasharray="2.98883,2.98883" stroke-miterlimit="10" stroke-linejoin="miter" fill="none" stroke="#0b3d91" d="M5.66927 141.73404 24.37782 123.02504H56.69362L75.40218 141.73404" />
<path transform="matrix(1,0,0,-1,238.863,316.257)" stroke-width=".29887" stroke-linecap="butt" stroke-dasharray="1.99255,1.49442" stroke-miterlimit="10" stroke-linejoin="miter" fill="none" stroke="#7f807f" d="M-75.40218 141.73404H-5.66927" />
<path transform="matrix(1,0,0,-1,238.863,316.257)" stroke-width=".29887" stroke-linecap="butt" stroke-dasharray="1.99255,1.49442" stroke-miterlimit="10" stroke-linejoin="miter" fill="none" stroke="#7f807f" d="M5.66927 141.73404H75.40218" />
<path transform="matrix(1,0,0,-1,238.863,316.257)" stroke-width=".79701" stroke-linecap="butt" stroke-miterlimit="10" stroke-linejoin="miter" fill="none" stroke="#1a1a1a" d="M-56.69362 141.73404V104.03273" />
<path transform="matrix(1,0,0,-1,238.863,316.257)" stroke-width=".79701" stroke-linecap="butt" stroke-miterlimit="10" stroke-linejoin="miter" fill="none" stroke="#1a1a1a" d="M-24.37782 141.73404V104.03273" />
<path transform="matrix(1,0,0,-1,238.863,316.257)" stroke-width=".3985" stroke-linecap="butt" stroke-dasharray="2.98883,2.98883" stroke-miterlimit="10" stroke-linejoin="miter" fill="none" stroke="#1a1a1a" d="M-56.69362 104.03273H-24.37782" />
<path transform="matrix(1,0,0,-1,238.863,316.257)" d="M-56.69362 140.31662V143.15146H-24.37782V140.31662ZM-24.37782 143.15146" fill="#1a1a1a" />
<path transform="matrix(1,0,0,-1,238.863,316.257)" stroke-width=".3985" stroke-linecap="butt" stroke-miterlimit="10" stroke-linejoin="miter" fill="none" stroke="#1a1a1a" d="M-56.69362 140.31662V143.15146H-24.37782V140.31662ZM-24.37782 143.15146" />
<g clip-path="url(#clip_4)">
<rect transform="matrix(1,0,0,-1,0,363.405)" fill="url(#pattern_5)" x="182.73645" y="152.0311" width="31.181687" height="35.433534" />
</g>
<path transform="matrix(1,0,0,-1,238.863,316.257)" stroke-width=".79701" stroke-linecap="butt" stroke-miterlimit="10" stroke-linejoin="miter" fill="none" stroke="#1a1a1a" d="M24.37782 141.73404V104.03273" />
<path transform="matrix(1,0,0,-1,238.863,316.257)" stroke-width=".79701" stroke-linecap="butt" stroke-miterlimit="10" stroke-linejoin="miter" fill="none" stroke="#1a1a1a" d="M56.69362 141.73404V104.03273" />
<path transform="matrix(1,0,0,-1,238.863,316.257)" stroke-width=".3985" stroke-linecap="butt" stroke-dasharray="2.98883,2.98883" stroke-miterlimit="10" stroke-linejoin="miter" fill="none" stroke="#1a1a1a" d="M24.37782 104.03273H56.69362" />
<path transform="matrix(1,0,0,-1,238.863,316.257)" d="M24.37782 140.31662V143.15146H56.69362V140.31662ZM56.69362 143.15146" fill="#1a1a1a" />
<path transform="matrix(1,0,0,-1,238.863,316.257)" stroke-width=".3985" stroke-linecap="butt" stroke-miterlimit="10" stroke-linejoin="miter" fill="none" stroke="#1a1a1a" d="M24.37782 140.31662V143.15146H56.69362V140.31662ZM56.69362 143.15146" />
<g clip-path="url(#clip_6)">
<rect transform="matrix(1,0,0,-1,0,363.405)" fill="url(#pattern_7)" x="263.80787" y="152.0311" width="31.181702" height="35.433534" />
</g>
<path transform="matrix(1,0,0,-1,238.863,316.257)" stroke-width="1.0959" stroke-linecap="butt" stroke-miterlimit="10" stroke-linejoin="miter" fill="none" stroke="#1a1a1a" d="M-40.53572 141.73404 0 236.69603 40.53572 141.73404" />
<path transform="matrix(1,0,0,-1,238.863,316.257)" d="M-5.1022 236.69603V243.78272H5.1022V236.69603ZM5.1022 243.78272" fill="#1a1a1a" />
<path transform="matrix(1,0,0,-1,238.863,316.257)" stroke-width=".3985" stroke-linecap="butt" stroke-miterlimit="10" stroke-linejoin="miter" fill="none" stroke="#1a1a1a" d="M-5.1022 236.69603V243.78272H5.1022V236.69603ZM5.1022 243.78272" />
<path transform="matrix(1,0,0,-1,238.863,316.257)" d="M-7.99373 236.69603V293.38966H7.99373V236.69603ZM7.99373 293.38966" fill="#d9d9d9" />
<path transform="matrix(1,0,0,-1,238.863,316.257)" stroke-width=".49814" stroke-linecap="butt" stroke-miterlimit="10" stroke-linejoin="miter" fill="none" stroke="#1a1a1a" d="M-7.99373 236.69603V293.38966H7.99373V236.69603ZM7.99373 293.38966" />
<path transform="matrix(1,0,0,-1,238.863,316.257)" stroke-width=".3985" stroke-linecap="butt" stroke-miterlimit="10" stroke-linejoin="miter" fill="none" stroke="#1a1a1a" d="M-12.24556 290.5548-5.15886 296.2245 5.15886 290.5548 12.24556 296.2245" />
<use data-text="T" ns3:href="#font_8_20" transform="matrix(7.9701,0,0,-7.9701,212.613,10.847992)" />
<use data-text="o" ns3:href="#font_8_34" transform="matrix(7.9701,0,0,-7.9701,217.69792,10.847992)" />
<use data-text="w" ns3:href="#font_8_40" transform="matrix(7.9701,0,0,-7.9701,221.69094,10.847992)" />
<use data-text="e" ns3:href="#font_8_26" transform="matrix(7.9701,0,0,-7.9701,227.23812,10.847992)" />
<use data-text="r" ns3:href="#font_8_36" transform="matrix(7.9701,0,0,-7.9701,231,10.847992)" />
<use data-text="→" ns3:href="#font_9_1" transform="matrix(7.9701,0,0,-7.9701,236.72254,10.847992)" />
<use data-text="R" ns3:href="#font_8_18" transform="matrix(7.9701,0,0,-7.9701,248.01616,10.847992)" />
<use data-text="N" ns3:href="#font_8_17" transform="matrix(7.9701,0,0,-7.9701,253.49959,10.847992)" />
<use data-text="A" ns3:href="#font_8_14" transform="matrix(7.9701,0,0,-7.9701,259.47718,10.847992)" />
<path transform="matrix(1,0,0,-1,238.863,316.257)" stroke-width=".3487" stroke-linecap="butt" stroke-miterlimit="10" stroke-linejoin="miter" fill="none" stroke="#000000" d="M-202.85413-22.67752H202.85413" />
<path transform="matrix(-1,-0,0,1,36.00888,338.9345)" d="M3.35878 0C2.9463 .10059 1.1332 .67061 0 1.29094V-1.29094C1.1332-.67061 2.9463-.10059 3.35878 0Z" />
<path transform="matrix(-1,-0,0,1,36.00888,338.9345)" stroke-width=".3487" stroke-linecap="butt" stroke-miterlimit="10" stroke-linejoin="miter" fill="none" stroke="#000000" d="M3.35878 0C2.9463 .10059 1.1332 .67061 0 1.29094V-1.29094C1.1332-.67061 2.9463-.10059 3.35878 0Z" />
<path transform="matrix(1,0,0,-1,441.71714,338.9345)" d="M3.35878 0C2.9463 .10059 1.1332 .67061 0 1.29094V-1.29094C1.1332-.67061 2.9463-.10059 3.35878 0Z" />
<path transform="matrix(1,0,0,-1,441.71714,338.9345)" stroke-width=".3487" stroke-linecap="butt" stroke-miterlimit="10" stroke-linejoin="miter" fill="none" stroke="#000000" d="M3.35878 0C2.9463 .10059 1.1332 .67061 0 1.29094V-1.29094C1.1332-.67061 2.9463-.10059 3.35878 0Z" />
<use data-text="S" ns3:href="#font_8_19" transform="matrix(7.9701,0,0,-7.9701,180.56601,347.964)" />
<use data-text="t" ns3:href="#font_8_38" transform="matrix(7.9701,0,0,-7.9701,185.26837,347.964)" />
<use data-text="r" ns3:href="#font_8_36" transform="matrix(7.9701,0,0,-7.9701,188.32889,347.964)" />
<use data-text="o" ns3:href="#font_8_34" transform="matrix(7.9701,0,0,-7.9701,191.22203,347.964)" />
<use data-text="n" ns3:href="#font_8_33" transform="matrix(7.9701,0,0,-7.9701,195.45415,347.964)" />
<use data-text="g" ns3:href="#font_8_27" transform="matrix(7.9701,0,0,-7.9701,199.82973,347.964)" />
<use data-text="b" ns3:href="#font_8_23" transform="matrix(7.9701,0,0,-7.9701,204.06185,347.964)" />
<use data-text="o" ns3:href="#font_8_34" transform="matrix(7.9701,0,0,-7.9701,208.66857,347.964)" />
<use data-text="x" ns3:href="#font_8_41" transform="matrix(7.9701,0,0,-7.9701,212.66954,347.964)" />
<use data-text="i" ns3:href="#font_8_29" transform="matrix(7.9701,0,0,-7.9701,219.3963,347.964)" />
<use data-text="n" ns3:href="#font_8_33" transform="matrix(7.9701,0,0,-7.9701,221.4207,347.964)" />
<use data-text="n" ns3:href="#font_8_33" transform="matrix(7.9701,0,0,-7.9701,225.79628,347.964)" />
<use data-text="e" ns3:href="#font_8_26" transform="matrix(7.9701,0,0,-7.9701,230.17186,347.964)" />
<use data-text="r" ns3:href="#font_8_36" transform="matrix(7.9701,0,0,-7.9701,233.93375,347.964)" />
<use data-text="w" ns3:href="#font_8_40" transform="matrix(7.9701,0,0,-7.9701,239.6483,347.964)" />
<use data-text="i" ns3:href="#font_8_29" transform="matrix(7.9701,0,0,-7.9701,245.43459,347.964)" />
<use data-text="d" ns3:href="#font_8_25" transform="matrix(7.9701,0,0,-7.9701,247.45899,347.964)" />
<use data-text="t" ns3:href="#font_8_38" transform="matrix(7.9701,0,0,-7.9701,251.83457,347.964)" />
<use data-text="h" ns3:href="#font_8_28" transform="matrix(7.9701,0,0,-7.9701,254.89508,347.964)" />
<use data-text=":" ns3:href="#font_8_12" transform="matrix(7.9701,0,0,-7.9701,259.2707,347.964)" />
<use data-text="1" ns3:href="#font_8_5" transform="matrix(7.9701,0,0,-7.9701,265.38374,347.964)" />
<use data-text="4" ns3:href="#font_8_8" transform="matrix(7.9701,0,0,-7.9701,269.61585,347.964)" />
<use data-text="0" ns3:href="#font_8_4" transform="matrix(7.9701,0,0,-7.9701,273.84797,347.964)" />
<use data-text="0" ns3:href="#font_8_4" transform="matrix(7.9701,0,0,-7.9701,278.08009,347.964)" />
<use data-text="m" ns3:href="#font_8_32" transform="matrix(7.9701,0,0,-7.9701,283.7229,347.964)" />
<use data-text="m" ns3:href="#font_8_32" transform="matrix(7.9701,0,0,-7.9701,290.4497,347.964)" />
<path transform="matrix(1,0,0,-1,238.863,316.257)" stroke-width=".3487" stroke-linecap="butt" stroke-miterlimit="10" stroke-linejoin="miter" fill="none" stroke="#000000" d="M-235.2786 4.07765V202.85413" />
<path transform="matrix(0,1,1,0,3.5844117,312.17936)" d="M3.35878 0C2.9463 .10059 1.1332 .67061 0 1.29094V-1.29094C1.1332-.67061 2.9463-.10059 3.35878 0Z" />
<path transform="matrix(0,1,1,0,3.5844117,312.17936)" stroke-width=".3487" stroke-linecap="butt" stroke-miterlimit="10" stroke-linejoin="miter" fill="none" stroke="#000000" d="M3.35878 0C2.9463 .10059 1.1332 .67061 0 1.29094V-1.29094C1.1332-.67061 2.9463-.10059 3.35878 0Z" />
<path transform="matrix(0,-1,-1,-0,3.5844117,113.40286)" d="M3.35878 0C2.9463 .10059 1.1332 .67061 0 1.29094V-1.29094C1.1332-.67061 2.9463-.10059 3.35878 0Z" />
<path transform="matrix(0,-1,-1,-0,3.5844117,113.40286)" stroke-width=".3487" stroke-linecap="butt" stroke-miterlimit="10" stroke-linejoin="miter" fill="none" stroke="#000000" d="M3.35878 0C2.9463 .10059 1.1332 .67061 0 1.29094V-1.29094C1.1332-.67061 2.9463-.10059 3.35878 0Z" />
<use data-text="7" ns3:href="#font_8_10" transform="matrix(0,-7.9701,-7.9701,-0,12.312012,226.57498)" />
<use data-text="0" ns3:href="#font_8_4" transform="matrix(0,-7.9701,-7.9701,-0,12.312012,222.34285)" />
<use data-text="0" ns3:href="#font_8_4" transform="matrix(0,-7.9701,-7.9701,-0,12.312012,218.11074)" />
<use data-text="m" ns3:href="#font_8_32" transform="matrix(0,-7.9701,-7.9701,-0,12.312012,212.4679)" />
<use data-text="m" ns3:href="#font_8_32" transform="matrix(0,-7.9701,-7.9701,-0,12.312012,205.74114)" />
<path transform="matrix(1,0,0,-1,238.863,316.257)" stroke-width=".3487" stroke-linecap="butt" stroke-miterlimit="10" stroke-linejoin="miter" fill="none" stroke="#000000" d="M-36.45805 167.24599H36.45805" />
<path transform="matrix(-1,-0,0,1,202.40496,149.011)" d="M3.35878 0C2.9463 .10059 1.1332 .67061 0 1.29094V-1.29094C1.1332-.67061 2.9463-.10059 3.35878 0Z" />
<path transform="matrix(-1,-0,0,1,202.40496,149.011)" stroke-width=".3487" stroke-linecap="butt" stroke-miterlimit="10" stroke-linejoin="miter" fill="none" stroke="#000000" d="M3.35878 0C2.9463 .10059 1.1332 .67061 0 1.29094V-1.29094C1.1332-.67061 2.9463-.10059 3.35878 0Z" />
<path transform="matrix(1,0,0,-1,275.32106,149.011)" d="M3.35878 0C2.9463 .10059 1.1332 .67061 0 1.29094V-1.29094C1.1332-.67061 2.9463-.10059 3.35878 0Z" />
<path transform="matrix(1,0,0,-1,275.32106,149.011)" stroke-width=".3487" stroke-linecap="butt" stroke-miterlimit="10" stroke-linejoin="miter" fill="none" stroke="#000000" d="M3.35878 0C2.9463 .10059 1.1332 .67061 0 1.29094V-1.29094C1.1332-.67061 2.9463-.10059 3.35878 0Z" />
<use data-text="L" ns3:href="#font_10_4" transform="matrix(7.9701,0,0,-7.9701,180.733,143.52597)" />
<use data-text="b" ns3:href="#font_11_2" transform="matrix(5.9776,0,0,-5.9776,186.492,144.93198)" />
<use data-text="a" ns3:href="#font_11_1" transform="matrix(5.9776,0,0,-5.9776,190.53287,144.93198)" />
<use data-text="s" ns3:href="#font_11_4" transform="matrix(5.9776,0,0,-5.9776,194.18518,144.93198)" />
<use data-text="e" ns3:href="#font_11_3" transform="matrix(5.9776,0,0,-5.9776,197.10225,144.93198)" />
<use data-text="=" ns3:href="#font_8_13" transform="matrix(7.9701,0,0,-7.9701,203.688,143.52597)" />
<use data-text="2" ns3:href="#font_8_6" transform="matrix(7.9701,0,0,-7.9701,213.09272,143.52597)" />
<use data-text="8" ns3:href="#font_8_11" transform="matrix(7.9701,0,0,-7.9701,217.32483,143.52597)" />
<use data-text="6" ns3:href="#font_8_9" transform="matrix(7.9701,0,0,-7.9701,221.55695,143.52597)" />
<use data-text="m" ns3:href="#font_8_32" transform="matrix(7.9701,0,0,-7.9701,227.19977,143.52597)" />
<use data-text="m" ns3:href="#font_8_32" transform="matrix(7.9701,0,0,-7.9701,233.92653,143.52597)" />
<use data-text="(" ns3:href="#font_8_1" transform="matrix(7.9701,0,0,-7.9701,243.4747,143.52597)" />
<use data-text="2" ns3:href="#font_8_6" transform="matrix(7.9701,0,0,-7.9701,246.76636,143.52597)" />
<use data-text="0" ns3:href="#font_8_4" transform="matrix(7.9701,0,0,-7.9701,250.99848,143.52597)" />
<use data-text="." ns3:href="#font_8_3" transform="matrix(7.9701,0,0,-7.9701,255.23059,143.52597)" />
<use data-text="0" ns3:href="#font_8_4" transform="matrix(7.9701,0,0,-7.9701,257.58177,143.52597)" />
<use data-text="m" ns3:href="#font_8_32" transform="matrix(7.9701,0,0,-7.9701,263.22459,143.52597)" />
<use data-text="p" ns3:href="#font_8_35" transform="matrix(7.9701,0,0,-7.9701,272.77278,143.52597)" />
<use data-text="r" ns3:href="#font_8_36" transform="matrix(7.9701,0,0,-7.9701,276.9172,143.52597)" />
<use data-text="o" ns3:href="#font_8_34" transform="matrix(7.9701,0,0,-7.9701,279.81037,143.52597)" />
<use data-text="t" ns3:href="#font_8_38" transform="matrix(7.9701,0,0,-7.9701,284.04249,143.52597)" />
<use data-text="o" ns3:href="#font_8_34" transform="matrix(7.9701,0,0,-7.9701,287.103,143.52597)" />
<use data-text="." ns3:href="#font_8_3" transform="matrix(7.9701,0,0,-7.9701,291.3351,143.52597)" />
<use data-text=")" ns3:href="#font_8_2" transform="matrix(7.9701,0,0,-7.9701,293.68629,143.52597)" />
<path transform="matrix(1,0,0,-1,238.863,316.257)" stroke-width=".29887" stroke-linecap="butt" stroke-miterlimit="10" stroke-linejoin="miter" fill="none" stroke="#000000" d="M-54.00838 151.6556H-27.06305" />
<path transform="matrix(-1,-0,0,1,184.85463,164.6014)" d="M2.06908 0C1.81497 .06255 .69807 .41704 0 .80281V-.80281C.69807-.41704 1.81497-.06255 2.06908 0Z" />
<path transform="matrix(-1,-0,0,1,184.85463,164.6014)" stroke-width=".29887" stroke-linecap="butt" stroke-miterlimit="10" stroke-linejoin="miter" fill="none" stroke="#000000" d="M2.06908 0C1.81497 .06255 .69807 .41704 0 .80281V-.80281C.69807-.41704 1.81497-.06255 2.06908 0Z" />
<path transform="matrix(1,0,0,-1,211.79996,164.6014)" d="M2.06908 0C1.81497 .06255 .69807 .41704 0 .80281V-.80281C.69807-.41704 1.81497-.06255 2.06908 0Z" />
<path transform="matrix(1,0,0,-1,211.79996,164.6014)" stroke-width=".29887" stroke-linecap="butt" stroke-miterlimit="10" stroke-linejoin="miter" fill="none" stroke="#000000" d="M2.06908 0C1.81497 .06255 .69807 .41704 0 .80281V-.80281C.69807-.41704 1.81497-.06255 2.06908 0Z" />
<use data-text="D" ns3:href="#font_12_1" transform="matrix(6.9738,0,0,-6.9738,177.552,161.13397)" />
<use data-text="=" ns3:href="#font_8_13" transform="matrix(6.9738,0,0,-6.9738,186.75045,161.13397)" />
<use data-text="1" ns3:href="#font_8_5" transform="matrix(6.9738,0,0,-6.9738,194.97953,161.13397)" />
<use data-text="1" ns3:href="#font_8_5" transform="matrix(6.9738,0,0,-6.9738,198.68262,161.13397)" />
<use data-text="4" ns3:href="#font_8_8" transform="matrix(6.9738,0,0,-6.9738,202.38571,161.13397)" />
<use data-text="m" ns3:href="#font_8_32" transform="matrix(6.9738,0,0,-6.9738,207.32317,161.13397)" />
<use data-text="m" ns3:href="#font_8_32" transform="matrix(6.9738,0,0,-6.9738,213.20906,161.13397)" />
<path transform="matrix(1,0,0,-1,238.863,316.257)" stroke-width=".29887" stroke-linecap="butt" stroke-miterlimit="10" stroke-linejoin="miter" fill="none" stroke="#000000" d="M69.44957 139.04882V106.71796" />
<path transform="matrix(0,-1,-1,-0,308.31257,177.20818)" d="M2.06908 0C1.81497 .06255 .69807 .41704 0 .80281V-.80281C.69807-.41704 1.81497-.06255 2.06908 0Z" />
<path transform="matrix(0,-1,-1,-0,308.31257,177.20818)" stroke-width=".29887" stroke-linecap="butt" stroke-miterlimit="10" stroke-linejoin="miter" fill="none" stroke="#000000" d="M2.06908 0C1.81497 .06255 .69807 .41704 0 .80281V-.80281C.69807-.41704 1.81497-.06255 2.06908 0Z" />
<path transform="matrix(0,1,1,0,308.31257,209.53903)" d="M2.06908 0C1.81497 .06255 .69807 .41704 0 .80281V-.80281C.69807-.41704 1.81497-.06255 2.06908 0Z" />
<path transform="matrix(0,1,1,0,308.31257,209.53903)" stroke-width=".29887" stroke-linecap="butt" stroke-miterlimit="10" stroke-linejoin="miter" fill="none" stroke="#000000" d="M2.06908 0C1.81497 .06255 .69807 .41704 0 .80281V-.80281C.69807-.41704 1.81497-.06255 2.06908 0Z" />
<use data-text="L" ns3:href="#font_12_2" transform="matrix(6.9738,0,0,-6.9738,311.781,195.758)" />
<use data-text="=" ns3:href="#font_8_13" transform="matrix(6.9738,0,0,-6.9738,319.7172,195.758)" />
<use data-text="1" ns3:href="#font_8_5" transform="matrix(6.9738,0,0,-6.9738,327.94627,195.758)" />
<use data-text="3" ns3:href="#font_8_7" transform="matrix(6.9738,0,0,-6.9738,331.64936,195.758)" />
<use data-text="3" ns3:href="#font_8_7" transform="matrix(6.9738,0,0,-6.9738,335.35246,195.758)" />
<use data-text="m" ns3:href="#font_8_32" transform="matrix(6.9738,0,0,-6.9738,340.28993,195.758)" />
<use data-text="m" ns3:href="#font_8_32" transform="matrix(6.9738,0,0,-6.9738,346.1758,195.758)" />
<path transform="matrix(1,0,0,-1,238.863,316.257)" stroke-width=".29887" stroke-linecap="butt" stroke-miterlimit="10" stroke-linejoin="miter" fill="none" stroke="#000000" d="M-77.75536 139.8353-62.8441 124.92378" />
<path transform="matrix(-.70708,-.7071,-.7071,.70708,161.10767,176.4217)" d="M2.06908 0C1.81497 .06255 .69807 .41704 0 .80281V-.80281C.69807-.41704 1.81497-.06255 2.06908 0Z" />
<path transform="matrix(-.70708,-.7071,-.7071,.70708,161.10767,176.4217)" stroke-width=".29887" stroke-linecap="butt" stroke-miterlimit="10" stroke-linejoin="miter" fill="none" stroke="#000000" d="M2.06908 0C1.81497 .06255 .69807 .41704 0 .80281V-.80281C.69807-.41704 1.81497-.06255 2.06908 0Z" />
<path transform="matrix(.70708,.7071,.7071,-.70708,176.01889,191.33319)" d="M2.06908 0C1.81497 .06255 .69807 .41704 0 .80281V-.80281C.69807-.41704 1.81497-.06255 2.06908 0Z" />
<path transform="matrix(.70708,.7071,.7071,-.70708,176.01889,191.33319)" stroke-width=".29887" stroke-linecap="butt" stroke-miterlimit="10" stroke-linejoin="miter" fill="none" stroke="#000000" d="M2.06908 0C1.81497 .06255 .69807 .41704 0 .80281V-.80281C.69807-.41704 1.81497-.06255 2.06908 0Z" />
<use data-text="S" ns3:href="#font_12_3" transform="matrix(6.9738,0,0,-6.9738,128.70401,186.262)" />
<use data-text="=" ns3:href="#font_8_13" transform="matrix(6.9738,0,0,-6.9738,136.4519,186.262)" />
<use data-text="6" ns3:href="#font_8_9" transform="matrix(6.9738,0,0,-6.9738,144.68099,186.262)" />
<use data-text="7" ns3:href="#font_8_10" transform="matrix(6.9738,0,0,-6.9738,148.38408,186.262)" />
<use data-text="m" ns3:href="#font_8_32" transform="matrix(6.9738,0,0,-6.9738,153.32154,186.262)" />
<use data-text="m" ns3:href="#font_8_32" transform="matrix(6.9738,0,0,-6.9738,159.20743,186.262)" />
<use data-text="W" ns3:href="#font_8_21" transform="matrix(7.9701,0,0,-7.9701,49.626008,161.34497)" />
<use data-text="a" ns3:href="#font_8_22" transform="matrix(7.9701,0,0,-7.9701,57.396856,161.34497)" />
<use data-text="t" ns3:href="#font_8_38" transform="matrix(7.9701,0,0,-7.9701,61.461606,161.34497)" />
<use data-text="e" ns3:href="#font_8_26" transform="matrix(7.9701,0,0,-7.9701,64.522129,161.34497)" />
<use data-text="r" ns3:href="#font_8_36" transform="matrix(7.9701,0,0,-7.9701,68.28401,161.34497)" />
<use data-text="(" ns3:href="#font_8_1" transform="matrix(7.9701,0,0,-7.9701,73.99857,161.34497)" />
<use data-text="+" ns3:href="#font_13_1" transform="matrix(7.9701,0,0,-7.9701,77.29022,161.34497)" />
<use data-text="8" ns3:href="#font_13_4" transform="matrix(7.9701,0,0,-7.9701,83.87353,161.34497)" />
<use data-text="0" ns3:href="#font_13_2" transform="matrix(7.9701,0,0,-7.9701,88.10565,161.34497)" />
<use data-text="m" ns3:href="#font_8_32" transform="matrix(7.9701,0,0,-7.9701,93.74848,161.34497)" />
<use data-text="m" ns3:href="#font_8_32" transform="matrix(7.9701,0,0,-7.9701,100.47524,161.34497)" />
<use data-text=")" ns3:href="#font_8_2" transform="matrix(7.9701,0,0,-7.9701,107.202,161.34497)" />
<use data-text="S" ns3:href="#font_8_19" transform="matrix(7.9701,0,0,-7.9701,49.626008,311.13899)" />
<use data-text="a" ns3:href="#font_8_22" transform="matrix(7.9701,0,0,-7.9701,54.328367,311.13899)" />
<use data-text="t" ns3:href="#font_8_38" transform="matrix(7.9701,0,0,-7.9701,58.393117,311.13899)" />
<use data-text="u" ns3:href="#font_8_39" transform="matrix(7.9701,0,0,-7.9701,61.453638,311.13899)" />
<use data-text="r" ns3:href="#font_8_36" transform="matrix(7.9701,0,0,-7.9701,65.82922,311.13899)" />
<use data-text="a" ns3:href="#font_8_22" transform="matrix(7.9701,0,0,-7.9701,68.72237,311.13899)" />
<use data-text="t" ns3:href="#font_8_38" transform="matrix(7.9701,0,0,-7.9701,72.78712,311.13899)" />
<use data-text="e" ns3:href="#font_8_26" transform="matrix(7.9701,0,0,-7.9701,75.84763,311.13899)" />
<use data-text="d" ns3:href="#font_8_25" transform="matrix(7.9701,0,0,-7.9701,79.60952,311.13899)" />
<use data-text="s" ns3:href="#font_8_37" transform="matrix(7.9701,0,0,-7.9701,86.806529,311.13899)" />
<use data-text="a" ns3:href="#font_8_22" transform="matrix(7.9701,0,0,-7.9701,90.050357,311.13899)" />
<use data-text="n" ns3:href="#font_8_33" transform="matrix(7.9701,0,0,-7.9701,94.115108,311.13899)" />
<use data-text="d" ns3:href="#font_8_25" transform="matrix(7.9701,0,0,-7.9701,98.49069,311.13899)" />
<use data-text="b" ns3:href="#font_8_23" transform="matrix(7.9701,0,0,-7.9701,105.6877,311.13899)" />
<use data-text="e" ns3:href="#font_8_26" transform="matrix(7.9701,0,0,-7.9701,110.30239,311.13899)" />
<use data-text="d" ns3:href="#font_8_25" transform="matrix(7.9701,0,0,-7.9701,114.06428,311.13899)" />
<use data-text="S" ns3:href="#font_8_19" transform="matrix(7.9701,0,0,-7.9701,158.477,168.43199)" />
<use data-text="c" ns3:href="#font_8_24" transform="matrix(7.9701,0,0,-7.9701,163.17937,168.43199)" />
<use data-text="o" ns3:href="#font_8_34" transform="matrix(7.9701,0,0,-7.9701,166.94126,168.43199)" />
<use data-text="u" ns3:href="#font_8_39" transform="matrix(7.9701,0,0,-7.9701,171.17337,168.43199)" />
<use data-text="r" ns3:href="#font_8_36" transform="matrix(7.9701,0,0,-7.9701,175.54895,168.43199)" />
<use data-text="(" ns3:href="#font_8_1" transform="matrix(7.9701,0,0,-7.9701,181.2635,168.43199)" />
<use data-text="S" ns3:href="#font_10_5" transform="matrix(7.9701,0,0,-7.9701,184.55516,168.43199)" />
<use data-text="/" ns3:href="#font_10_2" transform="matrix(7.9701,0,0,-7.9701,189.67993,168.43199)" />
<use data-text="D" ns3:href="#font_10_3" transform="matrix(7.9701,0,0,-7.9701,193.91205,168.43199)" />
<use data-text="=" ns3:href="#font_13_5" transform="matrix(7.9701,0,0,-7.9701,203.45226,168.43199)" />
<use data-text="0" ns3:href="#font_13_2" transform="matrix(7.9701,0,0,-7.9701,212.38674,168.43199)" />
<use data-text="." ns3:href="#font_10_1" transform="matrix(7.9701,0,0,-7.9701,216.61885,168.43199)" />
<use data-text="5" ns3:href="#font_13_3" transform="matrix(7.9701,0,0,-7.9701,218.97003,168.43199)" />
<use data-text="8" ns3:href="#font_13_4" transform="matrix(7.9701,0,0,-7.9701,223.20215,168.43199)" />
<use data-text=")" ns3:href="#font_8_2" transform="matrix(7.9701,0,0,-7.9701,227.43427,168.43199)" />
<use data-text="S" ns3:href="#font_8_19" transform="matrix(0,-6.9738,-6.9738,-0,309.02003,200.73099)" />
<use data-text="k" ns3:href="#font_8_30" transform="matrix(0,-6.9738,-6.9738,-0,309.02003,196.61646)" />
<use data-text="i" ns3:href="#font_8_29" transform="matrix(0,-6.9738,-6.9738,-0,309.02003,192.99704)" />
<use data-text="r" ns3:href="#font_8_36" transform="matrix(0,-6.9738,-6.9738,-0,309.02003,191.22571)" />
<use data-text="t" ns3:href="#font_8_38" transform="matrix(0,-6.9738,-6.9738,-0,309.02003,188.69422)" />
<use data-text="T" ns3:href="#font_8_20" transform="matrix(6.9738,0,0,-6.9738,193,223.42298)" />
<use data-text="i" ns3:href="#font_8_29" transform="matrix(6.9738,0,0,-6.9738,198.06298,223.42298)" />
<use data-text="p" ns3:href="#font_8_35" transform="matrix(6.9738,0,0,-6.9738,199.83432,223.42298)" />
<use data-text="A" ns3:href="#font_8_14" transform="matrix(6.9738,0,0,-6.9738,195.85701,176.94597)" fill="#ffffff" />
<use data-text="B" ns3:href="#font_8_15" transform="matrix(6.9738,0,0,-6.9738,276.928,176.94597)" fill="#ffffff" />
<path transform="matrix(1,0,0,-1,238.863,316.257)" stroke-width=".49814" stroke-linecap="butt" stroke-miterlimit="10" stroke-linejoin="miter" fill="none" stroke="#0b3d91" d="M223.69062 164.41158H241.19687" />
<path transform="matrix(-1,-0,0,1,462.55363,151.84542)" d="M4.39336 0C3.85384 .13187 1.48224 .87914 0 1.69235V-1.69235C1.48224-.87914 3.85384-.13187 4.39336 0Z" fill="#0b3d91" />
<path transform="matrix(-1,-0,0,1,462.55363,151.84542)" stroke-width=".49814" stroke-linecap="butt" stroke-miterlimit="10" stroke-linejoin="miter" fill="none" stroke="#0b3d91" d="M4.39336 0C3.85384 .13187 1.48224 .87914 0 1.69235V-1.69235C1.48224-.87914 3.85384-.13187 4.39336 0Z" />
<path transform="matrix(1,0,0,-1,480.05989,151.84542)" d="M4.39336 0C3.85384 .13187 1.48224 .87914 0 1.69235V-1.69235C1.48224-.87914 3.85384-.13187 4.39336 0Z" fill="#0b3d91" />
<path transform="matrix(1,0,0,-1,480.05989,151.84542)" stroke-width=".49814" stroke-linecap="butt" stroke-miterlimit="10" stroke-linejoin="miter" fill="none" stroke="#0b3d91" d="M4.39336 0C3.85384 .13187 1.48224 .87914 0 1.69235V-1.69235C1.48224-.87914 3.85384-.13187 4.39336 0Z" />
<use data-text="S" ns3:href="#font_8_19" transform="matrix(7.9701,0,0,-7.9701,489.04603,154.61498)" fill="#0b3d91" />
<use data-text="h" ns3:href="#font_8_28" transform="matrix(7.9701,0,0,-7.9701,493.74839,154.61498)" fill="#0b3d91" />
<use data-text="a" ns3:href="#font_8_22" transform="matrix(7.9701,0,0,-7.9701,498.12397,154.61498)" fill="#0b3d91" />
<use data-text="k" ns3:href="#font_8_30" transform="matrix(7.9701,0,0,-7.9701,502.18873,154.61498)" fill="#0b3d91" />
<use data-text="e" ns3:href="#font_8_26" transform="matrix(7.9701,0,0,-7.9701,506.09407,154.61498)" fill="#0b3d91" />
<use data-text="d" ns3:href="#font_8_25" transform="matrix(7.9701,0,0,-7.9701,512.67739,154.61498)" fill="#0b3d91" />
<use data-text="i" ns3:href="#font_8_29" transform="matrix(7.9701,0,0,-7.9701,517.053,154.61498)" fill="#0b3d91" />
<use data-text="r" ns3:href="#font_8_36" transform="matrix(7.9701,0,0,-7.9701,519.0774,154.61498)" fill="#0b3d91" />
<use data-text="." ns3:href="#font_8_3" transform="matrix(7.9701,0,0,-7.9701,521.9706,154.61498)" fill="#0b3d91" />
<use data-text="M" ns3:href="#font_8_16" transform="matrix(6.9738,0,0,-6.9738,354.376,358.09199)" fill="#666666" />
<use data-text="o" ns3:href="#font_8_34" transform="matrix(6.9738,0,0,-6.9738,360.84074,358.09199)" fill="#666666" />
<use data-text="d" ns3:href="#font_8_25" transform="matrix(6.9738,0,0,-6.9738,364.74607,358.09199)" fill="#666666" />
<use data-text="e" ns3:href="#font_8_26" transform="matrix(6.9738,0,0,-6.9738,368.57469,358.09199)" fill="#666666" />
<use data-text="l" ns3:href="#font_8_31" transform="matrix(6.9738,0,0,-6.9738,371.8733,358.09199)" fill="#666666" />
<use data-text="s" ns3:href="#font_8_37" transform="matrix(6.9738,0,0,-6.9738,376.11335,358.09199)" fill="#666666" />
<use data-text="c" ns3:href="#font_8_24" transform="matrix(6.9738,0,0,-6.9738,378.9517,358.09199)" fill="#666666" />
<use data-text="a" ns3:href="#font_8_22" transform="matrix(6.9738,0,0,-6.9738,382.24333,358.09199)" fill="#666666" />
<use data-text="l" ns3:href="#font_8_31" transform="matrix(6.9738,0,0,-6.9738,385.79997,358.09199)" fill="#666666" />
<use data-text="e" ns3:href="#font_8_26" transform="matrix(6.9738,0,0,-6.9738,387.5713,358.09199)" fill="#666666" />
<use data-text="1" ns3:href="#font_8_5" transform="matrix(6.9738,0,0,-6.9738,393.33164,358.09199)" fill="#666666" />
<use data-text="c" ns3:href="#font_8_24" transform="matrix(6.9738,0,0,-6.9738,398.2691,358.09199)" fill="#666666" />
<use data-text="m" ns3:href="#font_8_32" transform="matrix(6.9738,0,0,-6.9738,401.56074,358.09199)" fill="#666666" />
<use data-text="=" ns3:href="#font_8_13" transform="matrix(6.9738,0,0,-6.9738,409.91535,358.09199)" fill="#666666" />
<use data-text="1" ns3:href="#font_8_5" transform="matrix(6.9738,0,0,-6.9738,418.1444,358.09199)" fill="#666666" />
<use data-text="0" ns3:href="#font_8_4" transform="matrix(6.9738,0,0,-6.9738,421.8475,358.09199)" fill="#666666" />
<use data-text="0" ns3:href="#font_8_4" transform="matrix(6.9738,0,0,-6.9738,425.5506,358.09199)" fill="#666666" />
<use data-text="m" ns3:href="#font_8_32" transform="matrix(6.9738,0,0,-6.9738,430.48808,358.09199)" fill="#666666" />
<use data-text="m" ns3:href="#font_8_32" transform="matrix(6.9738,0,0,-6.9738,436.37397,358.09199)" fill="#666666" />
</svg>