<?xml version='1.0' encoding='utf-8'?>
<svg xmlns="http://www.w3.org/2000/svg" xmlns:dc="http://purl.org/dc/elements/1.1/" xmlns:ns3="http://www.w3.org/1999/xlink" xmlns:rdf="http://www.w3.org/1999/02/22-rdf-syntax-ns#" width="422.64pt" height="286.4736pt" viewBox="0 0 422.64 286.4736" version="1.1">
 <metadata><rdf:RDF><rdf:Description><dc:figure_id>example_scour</dc:figure_id><dc:journal>thesis</dc:journal><dc:git_hash>nogit</dc:git_hash><dc:generated_utc>2026-04-18T06:59:23Z</dc:generated_utc><dc:data_sources>example_scour.csv:2249fb90</dc:data_sources><dc:generator>figgen</dc:generator><dc:description>Synthetic demonstration of the figure_generator pipeline. Shows scour profiles for a monopile and two tripod foundation locations.
</dc:description></rdf:Description></rdf:RDF></metadata><defs>
  <style type="text/css">*{stroke-linejoin: round; stroke-linecap: butt}</style>
 </defs>
 <g id="figure_1">
  <g id="patch_1">
   <path d="M 0 286.4736  L 422.64 286.4736  L 422.64 0  L 0 0  z " style="fill: #ffffff" />
  </g>
  <g id="axes_1">
   <g id="patch_2">
    <path d="M 25.78 262.092819  L 421.2 262.092819  L 421.2 14.38375  L 25.78 14.38375  z " style="fill: #ffffff" />
   </g>
   <g id="matplotlib.axis_1">
    <g id="xtick_1">
     <g id="line2d_1">
      <defs>
       <path id="mddfed70afa" d="M 0 0  L 0 -3  " style="stroke: #262626; stroke-width: 0.5" />
      </defs>
      <g>
       <use ns3:href="#mddfed70afa" x="43.753636" y="262.092819" style="fill: #262626; stroke: #262626; stroke-width: 0.5" />
      </g>
     </g>
     <g id="line2d_2">
      <defs>
       <path id="m466096304f" d="M 0 0  L 0 3  " style="stroke: #262626; stroke-width: 0.5" />
      </defs>
      <g>
       <use ns3:href="#m466096304f" x="43.753636" y="14.38375" style="fill: #262626; stroke: #262626; stroke-width: 0.5" />
      </g>
     </g>
     <g id="text_1">
      
      <g style="fill: #262626" transform="translate(37.473636 271.147819)">
       <text>
        <tspan x="0" y="-0.59375" style="font-size: 8px; font-family: 'Times New Roman'; fill: #262626">−</tspan>
        <tspan x="4.511719" y="-0.59375" style="font-size: 8px; font-family: 'Times New Roman'; fill: #262626">2</tspan>
        <tspan x="8.511719" y="-0.59375" style="font-size: 8px; font-family: 'Times New Roman'; fill: #262626">0</tspan>
       </text>
      </g>
     </g>
    </g>
    <g id="xtick_2">
     <g id="line2d_3">
      <g>
       <use ns3:href="#mddfed70afa" x="88.687727" y="262.092819" style="fill: #262626; stroke: #262626; stroke-width: 0.5" />
      </g>
     </g>
     <g id="line2d_4">
      <g>
       <use ns3:href="#m466096304f" x="88.687727" y="14.38375" style="fill: #262626; stroke: #262626; stroke-width: 0.5" />
      </g>
     </g>
     <g id="text_2">
      
      <g style="fill: #262626" transform="translate(82.407727 271.147819)">
       <text>
        <tspan x="0" y="-0.59375" style="font-size: 8px; font-family: 'Times New Roman'; fill: #262626">−</tspan>
        <tspan x="4.511719" y="-0.59375" style="font-size: 8px; font-family: 'Times New Roman'; fill: #262626">1</tspan>
        <tspan x="8.511719" y="-0.59375" style="font-size: 8px; font-family: 'Times New Roman'; fill: #262626">5</tspan>
       </text>
      </g>
     </g>
    </g>
    <g id="xtick_3">
     <g id="line2d_5">
      <g>
       <use ns3:href="#mddfed70afa" x="133.621818" y="262.092819" style="fill: #262626; stroke: #262626; stroke-width: 0.5" />
      </g>
     </g>
     <g id="line2d_6">
      <g>
       <use ns3:href="#m466096304f" x="133.621818" y="14.38375" style="fill: #262626; stroke: #262626; stroke-width: 0.5" />
      </g>
     </g>
     <g id="text_3">
      
      <g style="fill: #262626" transform="translate(127.341818 271.147819)">
       <text>
        <tspan x="0" y="-0.59375" style="font-size: 8px; font-family: 'Times New Roman'; fill: #262626">−</tspan>
        <tspan x="4.511719" y="-0.59375" style="font-size: 8px; font-family: 'Times New Roman'; fill: #262626">1</tspan>
        <tspan x="8.511719" y="-0.59375" style="font-size: 8px; font-family: 'Times New Roman'; fill: #262626">0</tspan>
       </text>
      </g>
     </g>
    </g>
    <g id="xtick_4">
     <g id="line2d_7">
      <g>
       <use ns3:href="#mddfed70afa" x="178.555909" y="262.092819" style="fill: #262626; stroke: #262626; stroke-width: 0.5" />
      </g>
     </g>
     <g id="line2d_8">
      <g>
       <use ns3:href="#m466096304f" x="178.555909" y="14.38375" style="fill: #262626; stroke: #262626; stroke-width: 0.5" />
      </g>
     </g>
     <g id="text_4">
      
      <g style="fill: #262626" transform="translate(174.275909 271.147819)">
       <text>
        <tspan x="0" y="-0.703125" style="font-size: 8px; font-family: 'Times New Roman'; fill: #262626">−</tspan>
        <tspan x="4.511719" y="-0.703125" style="font-size: 8px; font-family: 'Times New Roman'; fill: #262626">5</tspan>
       </text>
      </g>
     </g>
    </g>
    <g id="xtick_5">
     <g id="line2d_9">
      <g>
       <use ns3:href="#mddfed70afa" x="223.49" y="262.092819" style="fill: #262626; stroke: #262626; stroke-width: 0.5" />
      </g>
     </g>
     <g id="line2d_10">
      <g>
       <use ns3:href="#m466096304f" x="223.49" y="14.38375" style="fill: #262626; stroke: #262626; stroke-width: 0.5" />
      </g>
     </g>
     <g id="text_5">
      
      <g style="fill: #262626" transform="translate(221.49 271.147819)">
       <text>
        <tspan x="0" y="-0.59375" style="font-size: 8px; font-family: 'Times New Roman'; fill: #262626">0</tspan>
       </text>
      </g>
     </g>
    </g>
    <g id="xtick_6">
     <g id="line2d_11">
      <g>
       <use ns3:href="#mddfed70afa" x="268.424091" y="262.092819" style="fill: #262626; stroke: #262626; stroke-width: 0.5" />
      </g>
     </g>
     <g id="line2d_12">
      <g>
       <use ns3:href="#m466096304f" x="268.424091" y="14.38375" style="fill: #262626; stroke: #262626; stroke-width: 0.5" />
      </g>
     </g>
     <g id="text_6">
      
      <g style="fill: #262626" transform="translate(266.424091 271.147819)">
       <text>
        <tspan x="0" y="-0.703125" style="font-size: 8px; font-family: 'Times New Roman'; fill: #262626">5</tspan>
       </text>
      </g>
     </g>
    </g>
    <g id="xtick_7">
     <g id="line2d_13">
      <g>
       <use ns3:href="#mddfed70afa" x="313.358182" y="262.092819" style="fill: #262626; stroke: #262626; stroke-width: 0.5" />
      </g>
     </g>
     <g id="line2d_14">
      <g>
       <use ns3:href="#m466096304f" x="313.358182" y="14.38375" style="fill: #262626; stroke: #262626; stroke-width: 0.5" />
      </g>
     </g>
     <g id="text_7">
      
      <g style="fill: #262626" transform="translate(309.358182 271.147819)">
       <text>
        <tspan x="0" y="-0.59375" style="font-size: 8px; font-family: 'Times New Roman'; fill: #262626">1</tspan>
        <tspan x="4" y="-0.59375" style="font-size: 8px; font-family: 'Times New Roman'; fill: #262626">0</tspan>
       </text>
      </g>
     </g>
    </g>
    <g id="xtick_8">
     <g id="line2d_15">
      <g>
       <use ns3:href="#mddfed70afa" x="358.292273" y="262.092819" style="fill: #262626; stroke: #262626; stroke-width: 0.5" />
      </g>
     </g>
     <g id="line2d_16">
      <g>
       <use ns3:href="#m466096304f" x="358.292273" y="14.38375" style="fill: #262626; stroke: #262626; stroke-width: 0.5" />
      </g>
     </g>
     <g id="text_8">
      
      <g style="fill: #262626" transform="translate(354.292273 271.147819)">
       <text>
        <tspan x="0" y="-0.59375" style="font-size: 8px; font-family: 'Times New Roman'; fill: #262626">1</tspan>
        <tspan x="4" y="-0.59375" style="font-size: 8px; font-family: 'Times New Roman'; fill: #262626">5</tspan>
       </text>
      </g>
     </g>
    </g>
    <g id="xtick_9">
     <g id="line2d_17">
      <g>
       <use ns3:href="#mddfed70afa" x="403.226364" y="262.092819" style="fill: #262626; stroke: #262626; stroke-width: 0.5" />
      </g>
     </g>
     <g id="line2d_18">
      <g>
       <use ns3:href="#m466096304f" x="403.226364" y="14.38375" style="fill: #262626; stroke: #262626; stroke-width: 0.5" />
      </g>
     </g>
     <g id="text_9">
      
      <g style="fill: #262626" transform="translate(399.226364 271.147819)">
       <text>
        <tspan x="0" y="-0.59375" style="font-size: 8px; font-family: 'Times New Roman'; fill: #262626">2</tspan>
        <tspan x="4" y="-0.59375" style="font-size: 8px; font-family: 'Times New Roman'; fill: #262626">0</tspan>
       </text>
      </g>
     </g>
    </g>
    <g id="text_10">
     
     <g style="fill: #1a1a1a" transform="translate(183.935 283.108444)">
      <text>
       <tspan x="0" y="-0.75" style="font-size: 9px; font-family: 'Times New Roman'; fill: #1a1a1a">R</tspan>
       <tspan x="6.00293" y="-0.75" style="font-size: 9px; font-family: 'Times New Roman'; fill: #1a1a1a">a</tspan>
       <tspan x="9.997559" y="-0.75" style="font-size: 9px; font-family: 'Times New Roman'; fill: #1a1a1a">d</tspan>
       <tspan x="14.497559" y="-0.75" style="font-size: 9px; font-family: 'Times New Roman'; fill: #1a1a1a">i</tspan>
       <tspan x="16.998047" y="-0.75" style="font-size: 9px; font-family: 'Times New Roman'; fill: #1a1a1a">a</tspan>
       <tspan x="20.992676" y="-0.75" style="font-size: 9px; font-family: 'Times New Roman'; fill: #1a1a1a">l</tspan>
       <tspan x="23.493164" y="-0.75" style="font-size: 9px; font-family: 'Times New Roman'; fill: #1a1a1a"> </tspan>
       <tspan x="25.743164" y="-0.75" style="font-size: 9px; font-family: 'Times New Roman'; fill: #1a1a1a">d</tspan>
       <tspan x="30.243164" y="-0.75" style="font-size: 9px; font-family: 'Times New Roman'; fill: #1a1a1a">i</tspan>
       <tspan x="32.743652" y="-0.75" style="font-size: 9px; font-family: 'Times New Roman'; fill: #1a1a1a">s</tspan>
       <tspan x="36.246094" y="-0.75" style="font-size: 9px; font-family: 'Times New Roman'; fill: #1a1a1a">t</tspan>
       <tspan x="38.746582" y="-0.75" style="font-size: 9px; font-family: 'Times New Roman'; fill: #1a1a1a">a</tspan>
       <tspan x="42.741211" y="-0.75" style="font-size: 9px; font-family: 'Times New Roman'; fill: #1a1a1a">n</tspan>
       <tspan x="47.241211" y="-0.75" style="font-size: 9px; font-family: 'Times New Roman'; fill: #1a1a1a">c</tspan>
       <tspan x="51.23584" y="-0.75" style="font-size: 9px; font-family: 'Times New Roman'; fill: #1a1a1a">e</tspan>
       <tspan x="55.230469" y="-0.75" style="font-size: 9px; font-family: 'Times New Roman'; fill: #1a1a1a">,</tspan>
       <tspan x="57.480469" y="-0.75" style="font-size: 9px; font-family: 'Times New Roman'; fill: #1a1a1a"> </tspan>
       <tspan x="63.791016" y="-0.75" style="font-size: 9px; font-family: 'Times New Roman'; fill: #1a1a1a"> </tspan>
       <tspan x="66.041016" y="-0.75" style="font-size: 9px; font-family: 'Times New Roman'; fill: #1a1a1a">[</tspan>
       <tspan x="69.038086" y="-0.75" style="font-size: 9px; font-family: 'Times New Roman'; fill: #1a1a1a">m</tspan>
       <tspan x="76.038574" y="-0.75" style="font-size: 9px; font-family: 'Times New Roman'; fill: #1a1a1a">]</tspan>
       <tspan x="59.730469" y="-0.75" style="font-size: 9px; font-family: 'cmmi10'; fill: #1a1a1a">r</tspan>
      </text>
     </g>
    </g>
   </g>
   <g id="matplotlib.axis_2">
    <g id="ytick_1">
     <g id="line2d_19">
      <defs>
       <path id="m779bc72676" d="M 0 0  L 3 0  " style="stroke: #262626; stroke-width: 0.5" />
      </defs>
      <g>
       <use ns3:href="#m779bc72676" x="25.78" y="224.287211" style="fill: #262626; stroke: #262626; stroke-width: 0.5" />
      </g>
     </g>
     <g id="line2d_20">
      <defs>
       <path id="m07c471da1e" d="M 0 0  L -3 0  " style="stroke: #262626; stroke-width: 0.5" />
      </defs>
      <g>
       <use ns3:href="#m07c471da1e" x="421.2" y="224.287211" style="fill: #262626; stroke: #262626; stroke-width: 0.5" />
      </g>
     </g>
     <g id="text_11">
      
      <g style="fill: #262626" transform="translate(13.72 227.064711)">
       <text>
        <tspan x="0" y="-0.59375" style="font-size: 8px; font-family: 'Times New Roman'; fill: #262626">−</tspan>
        <tspan x="4.511719" y="-0.59375" style="font-size: 8px; font-family: 'Times New Roman'; fill: #262626">4</tspan>
       </text>
      </g>
     </g>
    </g>
    <g id="ytick_2">
     <g id="line2d_21">
      <g>
       <use ns3:href="#m779bc72676" x="25.78" y="174.626221" style="fill: #262626; stroke: #262626; stroke-width: 0.5" />
      </g>
     </g>
     <g id="line2d_22">
      <g>
       <use ns3:href="#m07c471da1e" x="421.2" y="174.626221" style="fill: #262626; stroke: #262626; stroke-width: 0.5" />
      </g>
     </g>
     <g id="text_12">
      
      <g style="fill: #262626" transform="translate(13.72 177.403721)">
       <text>
        <tspan x="0" y="-0.59375" style="font-size: 8px; font-family: 'Times New Roman'; fill: #262626">−</tspan>
        <tspan x="4.511719" y="-0.59375" style="font-size: 8px; font-family: 'Times New Roman'; fill: #262626">3</tspan>
       </text>
      </g>
     </g>
    </g>
    <g id="ytick_3">
     <g id="line2d_23">
      <g>
       <use ns3:href="#m779bc72676" x="25.78" y="124.965232" style="fill: #262626; stroke: #262626; stroke-width: 0.5" />
      </g>
     </g>
     <g id="line2d_24">
      <g>
       <use ns3:href="#m07c471da1e" x="421.2" y="124.965232" style="fill: #262626; stroke: #262626; stroke-width: 0.5" />
      </g>
     </g>
     <g id="text_13">
      
      <g style="fill: #262626" transform="translate(13.72 127.742732)">
       <text>
        <tspan x="0" y="-0.59375" style="font-size: 8px; font-family: 'Times New Roman'; fill: #262626">−</tspan>
        <tspan x="4.511719" y="-0.59375" style="font-size: 8px; font-family: 'Times New Roman'; fill: #262626">2</tspan>
       </text>
      </g>
     </g>
    </g>
    <g id="ytick_4">
     <g id="line2d_25">
      <g>
       <use ns3:href="#m779bc72676" x="25.78" y="75.304242" style="fill: #262626; stroke: #262626; stroke-width: 0.5" />
      </g>
     </g>
     <g id="line2d_26">
      <g>
       <use ns3:href="#m07c471da1e" x="421.2" y="75.304242" style="fill: #262626; stroke: #262626; stroke-width: 0.5" />
      </g>
     </g>
     <g id="text_14">
      
      <g style="fill: #262626" transform="translate(13.72 78.081742)">
       <text>
        <tspan x="0" y="-0.59375" style="font-size: 8px; font-family: 'Times New Roman'; fill: #262626">−</tspan>
        <tspan x="4.511719" y="-0.59375" style="font-size: 8px; font-family: 'Times New Roman'; fill: #262626">1</tspan>
       </text>
      </g>
     </g>
    </g>
    <g id="ytick_5">
     <g id="line2d_27">
      <g>
       <use ns3:href="#m779bc72676" x="25.78" y="25.643253" style="fill: #262626; stroke: #262626; stroke-width: 0.5" />
      </g>
     </g>
     <g id="line2d_28">
      <g>
       <use ns3:href="#m07c471da1e" x="421.2" y="25.643253" style="fill: #262626; stroke: #262626; stroke-width: 0.5" />
      </g>
     </g>
     <g id="text_15">
      
      <g style="fill: #262626" transform="translate(18.28 28.420753)">
       <text>
        <tspan x="0" y="-0.59375" style="font-size: 8px; font-family: 'Times New Roman'; fill: #262626">0</tspan>
       </text>
      </g>
     </g>
    </g>
    <g id="text_16">
     
     <g style="fill: #1a1a1a" transform="translate(7.74 199.348284) rotate(-90)">
      <text>
       <tspan x="0" y="-0.75" style="font-size: 9px; font-family: 'Times New Roman'; fill: #1a1a1a">E</tspan>
       <tspan x="5.497559" y="-0.75" style="font-size: 9px; font-family: 'Times New Roman'; fill: #1a1a1a">l</tspan>
       <tspan x="7.998047" y="-0.75" style="font-size: 9px; font-family: 'Times New Roman'; fill: #1a1a1a">e</tspan>
       <tspan x="11.992676" y="-0.75" style="font-size: 9px; font-family: 'Times New Roman'; fill: #1a1a1a">v</tspan>
       <tspan x="16.492676" y="-0.75" style="font-size: 9px; font-family: 'Times New Roman'; fill: #1a1a1a">a</tspan>
       <tspan x="20.487305" y="-0.75" style="font-size: 9px; font-family: 'Times New Roman'; fill: #1a1a1a">t</tspan>
       <tspan x="22.987793" y="-0.75" style="font-size: 9px; font-family: 'Times New Roman'; fill: #1a1a1a">i</tspan>
       <tspan x="25.488281" y="-0.75" style="font-size: 9px; font-family: 'Times New Roman'; fill: #1a1a1a">o</tspan>
       <tspan x="29.988281" y="-0.75" style="font-size: 9px; font-family: 'Times New Roman'; fill: #1a1a1a">n</tspan>
       <tspan x="34.488281" y="-0.75" style="font-size: 9px; font-family: 'Times New Roman'; fill: #1a1a1a">,</tspan>
       <tspan x="36.738281" y="-0.75" style="font-size: 9px; font-family: 'Times New Roman'; fill: #1a1a1a"> </tspan>
       <tspan x="43.171875" y="-0.75" style="font-size: 9px; font-family: 'Times New Roman'; fill: #1a1a1a"> </tspan>
       <tspan x="45.421875" y="-0.75" style="font-size: 9px; font-family: 'Times New Roman'; fill: #1a1a1a">[</tspan>
       <tspan x="48.418945" y="-0.75" style="font-size: 9px; font-family: 'Times New Roman'; fill: #1a1a1a">m</tspan>
       <tspan x="55.419434" y="-0.75" style="font-size: 9px; font-family: 'Times New Roman'; fill: #1a1a1a">]</tspan>
       <tspan x="58.416504" y="-0.75" style="font-size: 9px; font-family: 'Times New Roman'; fill: #1a1a1a"> </tspan>
       <tspan x="60.666504" y="-0.75" style="font-size: 9px; font-family: 'Times New Roman'; fill: #1a1a1a">(</tspan>
       <tspan x="63.663574" y="-0.75" style="font-size: 9px; font-family: 'Times New Roman'; fill: #1a1a1a">+</tspan>
       <tspan x="68.739258" y="-0.75" style="font-size: 9px; font-family: 'Times New Roman'; fill: #1a1a1a"> </tspan>
       <tspan x="70.989258" y="-0.75" style="font-size: 9px; font-family: 'Times New Roman'; fill: #1a1a1a">a</tspan>
       <tspan x="74.983887" y="-0.75" style="font-size: 9px; font-family: 'Times New Roman'; fill: #1a1a1a">b</tspan>
       <tspan x="79.483887" y="-0.75" style="font-size: 9px; font-family: 'Times New Roman'; fill: #1a1a1a">o</tspan>
       <tspan x="83.983887" y="-0.75" style="font-size: 9px; font-family: 'Times New Roman'; fill: #1a1a1a">v</tspan>
       <tspan x="88.483887" y="-0.75" style="font-size: 9px; font-family: 'Times New Roman'; fill: #1a1a1a">e</tspan>
       <tspan x="92.478516" y="-0.75" style="font-size: 9px; font-family: 'Times New Roman'; fill: #1a1a1a"> </tspan>
       <tspan x="94.728516" y="-0.75" style="font-size: 9px; font-family: 'Times New Roman'; fill: #1a1a1a">s</tspan>
       <tspan x="98.230957" y="-0.75" style="font-size: 9px; font-family: 'Times New Roman'; fill: #1a1a1a">e</tspan>
       <tspan x="102.225586" y="-0.75" style="font-size: 9px; font-family: 'Times New Roman'; fill: #1a1a1a">a</tspan>
       <tspan x="106.220215" y="-0.75" style="font-size: 9px; font-family: 'Times New Roman'; fill: #1a1a1a">b</tspan>
       <tspan x="110.720215" y="-0.75" style="font-size: 9px; font-family: 'Times New Roman'; fill: #1a1a1a">e</tspan>
       <tspan x="114.714844" y="-0.75" style="font-size: 9px; font-family: 'Times New Roman'; fill: #1a1a1a">d</tspan>
       <tspan x="119.214844" y="-0.75" style="font-size: 9px; font-family: 'Times New Roman'; fill: #1a1a1a">)</tspan>
       <tspan x="38.988281" y="-0.75" style="font-size: 9px; font-family: 'cmmi10'; fill: #1a1a1a">z</tspan>
      </text>
     </g>
    </g>
   </g>
   <g id="line2d_29">
    <path d="M 43.753636 26.403221  L 46.749242 25.643253  L 49.744848 27.51358  L 52.740455 27.98859  L 55.736061 25.643253  L 58.731667 25.643253  L 61.727273 25.988266  L 64.722879 25.643253  L 67.718485 25.654592  L 70.714091 25.643253  L 73.709697 27.926426  L 76.705303 27.709722  L 79.700909 25.989563  L 82.696515 28.686733  L 85.692121 27.129871  L 88.687727 25.643253  L 91.683333 27.126665  L 94.678939 25.643253  L 97.674545 28.789952  L 100.670152 26.76664  L 103.665758 26.785867  L 106.661364 25.996357  L 109.65697 31.271084  L 112.652576 28.526929  L 115.648182 28.672771  L 118.643788 29.864771  L 121.639394 33.270337  L 124.635 34.304492  L 127.630606 36.144477  L 130.626212 38.223365  L 133.621818 44.855935  L 136.617424 41.304228  L 139.61303 44.247946  L 142.608636 47.176649  L 145.604242 54.912814  L 148.599848 60.915514  L 151.595455 63.130474  L 154.591061 67.223596  L 157.586667 73.76867  L 160.582273 84.552139  L 163.577879 92.511019  L 166.573485 100.331448  L 169.569091 106.202416  L 172.564697 117.809693  L 175.560303 127.343186  L 178.555909 137.778635  L 181.551515 149.84827  L 184.547121 158.845544  L 187.542727 170.616465  L 190.538333 179.639857  L 193.533939 190.490548  L 196.529545 201.252851  L 199.525152 205.442794  L 202.520758 216.958419  L 205.516364 224.449021  L 208.51197 230.93641  L 211.507576 237.666796  L 214.503182 246.707519  L 217.498788 244.225821  L 220.494394 250.833316  L 223.49 244.939056  L 226.485606 247.597496  L 229.481212 246.779846  L 232.476818 244.451125  L 235.472424 240.115998  L 238.46803 234.492696  L 241.463636 224.751078  L 244.459242 216.604136  L 247.454848 211.191381  L 250.450455 199.210313  L 253.446061 186.605058  L 256.441667 176.658047  L 259.437273 166.647644  L 262.432879 159.52482  L 265.428485 148.03812  L 268.424091 138.95013  L 271.419697 125.99256  L 274.415303 117.626887  L 277.410909 109.408282  L 280.406515 98.214647  L 283.402121 91.799678  L 286.397727 81.29309  L 289.393333 74.914417  L 292.388939 68.361872  L 295.384545 60.444082  L 298.380152 59.321396  L 301.375758 52.217757  L 304.371364 49.228311  L 307.36697 46.713588  L 310.362576 43.422135  L 313.358182 41.190302  L 316.353788 36.909071  L 319.349394 34.068571  L 322.345 33.199132  L 325.340606 27.758852  L 328.336212 27.145884  L 331.331818 26.452002  L 334.327424 26.43442  L 337.32303 29.228112  L 340.318636 25.643253  L 343.314242 26.305893  L 346.309848 30.116656  L 349.305455 25.724095  L 352.301061 28.217219  L 355.296667 25.643253  L 358.292273 25.643253  L 361.287879 25.643253  L 364.283485 25.643253  L 367.279091 27.912132  L 370.274697 25.643253  L 373.270303 26.821533  L 376.265909 26.306476  L 379.261515 25.643253  L 382.257121 25.643253  L 385.252727 25.849933  L 388.248333 25.643253  L 391.243939 26.234985  L 394.239545 25.707381  L 397.235152 29.627469  L 400.230758 25.643253  L 403.226364 25.643253  " clip-path="url(#pf08c49ee5d)" style="fill: none; stroke: #78cea3; stroke-width: 0.9; stroke-linecap: square" />
   </g>
   <g id="line2d_30">
    <path d="M 43.753636 26.090482  L 46.749242 26.192516  L 49.744848 29.022489  L 52.740455 27.723016  L 55.736061 26.538084  L 58.731667 29.288965  L 61.727273 25.643253  L 64.722879 25.643253  L 67.718485 25.643253  L 70.714091 25.643253  L 73.709697 25.643253  L 76.705303 27.304472  L 79.700909 25.643253  L 82.696515 25.643253  L 85.692121 25.643253  L 88.687727 26.690155  L 91.683333 28.077652  L 94.678939 31.063345  L 97.674545 33.47925  L 100.670152 27.448384  L 103.665758 25.643253  L 106.661364 25.643253  L 109.65697 27.920918  L 112.652576 25.657717  L 115.648182 27.158704  L 118.643788 27.294158  L 121.639394 29.216981  L 124.635 33.114736  L 127.630606 31.929632  L 130.626212 32.411358  L 133.621818 31.717367  L 136.617424 31.857454  L 139.61303 36.803399  L 142.608636 40.165552  L 145.604242 47.293588  L 148.599848 46.169644  L 151.595455 51.584876  L 154.591061 51.57374  L 157.586667 53.919513  L 160.582273 58.896067  L 163.577879 64.300757  L 166.573485 76.561826  L 169.569091 74.757629  L 172.564697 84.714579  L 175.560303 86.500918  L 178.555909 97.391646  L 181.551515 102.535862  L 184.547121 107.790282  L 187.542727 114.698665  L 190.538333 119.733082  L 193.533939 128.875831  L 196.529545 132.806355  L 199.525152 136.726602  L 202.520758 142.004513  L 205.516364 150.499894  L 208.51197 158.289251  L 211.507576 158.391377  L 214.503182 160.59007  L 217.498788 163.697621  L 220.494394 167.508383  L 223.49 165.238761  L 226.485606 163.245163  L 229.481212 165.73487  L 232.476818 161.949278  L 235.472424 161.807468  L 238.46803 154.823269  L 241.463636 147.030932  L 244.459242 141.780489  L 247.454848 143.869177  L 250.450455 138.216049  L 253.446061 127.322456  L 256.441667 120.407479  L 259.437273 118.428718  L 262.432879 105.430373  L 265.428485 99.358359  L 268.424091 96.675916  L 271.419697 87.763107  L 274.415303 82.619851  L 277.410909 76.391336  L 280.406515 72.114944  L 283.402121 69.596376  L 286.397727 61.517426  L 289.393333 58.460719  L 292.388939 47.722836  L 295.384545 49.023715  L 298.380152 43.752383  L 301.375758 39.877358  L 304.371364 38.118601  L 307.36697 37.181281  L 310.362576 38.290006  L 313.358182 30.995448  L 316.353788 32.881316  L 319.349394 30.337456  L 322.345 29.654225  L 325.340606 32.056469  L 328.336212 30.150192  L 331.331818 31.510882  L 334.327424 27.292644  L 337.32303 25.643253  L 340.318636 26.359152  L 343.314242 27.241958  L 346.309848 26.857826  L 349.305455 25.643253  L 352.301061 26.330054  L 355.296667 26.563244  L 358.292273 32.162697  L 361.287879 30.506252  L 364.283485 25.643253  L 367.279091 25.643253  L 370.274697 25.643253  L 373.270303 25.643253  L 376.265909 26.472284  L 379.261515 28.670461  L 382.257121 25.643253  L 385.252727 25.643253  L 388.248333 25.643253  L 391.243939 25.643253  L 394.239545 25.643253  L 397.235152 25.643253  L 400.230758 25.643253  L 403.226364 25.643253  " clip-path="url(#pf08c49ee5d)" style="fill: none; stroke: #44829b; stroke-width: 0.9; stroke-linecap: square" />
   </g>
   <g id="line2d_31">
    <path d="M 43.753636 25.643253  L 46.749242 25.643253  L 49.744848 30.935815  L 52.740455 25.643253  L 55.736061 25.643253  L 58.731667 30.220161  L 61.727273 32.878742  L 64.722879 25.643253  L 67.718485 25.643253  L 70.714091 26.549683  L 73.709697 30.015362  L 76.705303 25.643253  L 79.700909 25.643253  L 82.696515 27.769008  L 85.692121 26.983414  L 88.687727 25.643253  L 91.683333 25.765192  L 94.678939 25.643253  L 97.674545 25.824226  L 100.670152 25.979684  L 103.665758 27.501051  L 106.661364 25.899457  L 109.65697 28.887867  L 112.652576 30.771781  L 115.648182 29.303654  L 118.643788 30.593388  L 121.639394 30.819507  L 124.635 31.846521  L 127.630606 31.4327  L 130.626212 35.637414  L 133.621818 36.517577  L 136.617424 44.176792  L 139.61303 45.451265  L 142.608636 45.444556  L 145.604242 45.940587  L 148.599848 48.856254  L 151.595455 58.817046  L 154.591061 61.228867  L 157.586667 66.973588  L 160.582273 67.146105  L 163.577879 79.963912  L 166.573485 85.443214  L 169.569091 88.655324  L 172.564697 97.744411  L 175.560303 107.426233  L 178.555909 115.047425  L 181.551515 122.550751  L 184.547121 131.503961  L 187.542727 139.64753  L 190.538333 149.085115  L 193.533939 160.600558  L 196.529545 158.503776  L 199.525152 171.789327  L 202.520758 179.768683  L 205.516364 186.357202  L 208.51197 190.223389  L 211.507576 191.446614  L 214.503182 200.339484  L 217.498788 206.518324  L 220.494394 200.063223  L 223.49 206.567742  L 226.485606 203.056132  L 229.481212 202.076957  L 232.476818 196.910656  L 235.472424 194.978169  L 238.46803 194.374946  L 241.463636 187.068996  L 244.459242 183.631809  L 247.454848 175.30101  L 250.450455 165.96719  L 253.446061 161.277047  L 256.441667 149.796337  L 259.437273 142.329138  L 262.432879 131.024527  L 265.428485 123.441463  L 268.424091 113.185409  L 271.419697 109.228596  L 274.415303 95.989445  L 277.410909 93.355193  L 280.406515 83.84147  L 283.402121 80.569301  L 286.397727 73.342443  L 289.393333 70.302123  L 292.388939 62.390997  L 295.384545 51.955926  L 298.380152 51.452178  L 301.375758 44.925144  L 304.371364 43.199566  L 307.36697 45.297002  L 310.362576 40.56238  L 313.358182 35.023666  L 316.353788 32.334433  L 319.349394 33.305763  L 322.345 28.825532  L 325.340606 29.021045  L 328.336212 30.494694  L 331.331818 31.786412  L 334.327424 29.768742  L 337.32303 25.643253  L 340.318636 28.034119  L 343.314242 27.103425  L 346.309848 27.668847  L 349.305455 30.428752  L 352.301061 25.643253  L 355.296667 25.643253  L 358.292273 27.455628  L 361.287879 25.643253  L 364.283485 29.503695  L 367.279091 26.703783  L 370.274697 27.853502  L 373.270303 25.643253  L 376.265909 27.722199  L 379.261515 28.338767  L 382.257121 26.252197  L 385.252727 26.247345  L 388.248333 26.330289  L 391.243939 25.643253  L 394.239545 25.643253  L 397.235152 25.643253  L 400.230758 26.599097  L 403.226364 28.128538  " clip-path="url(#pf08c49ee5d)" style="fill: none; stroke: #3e3666; stroke-width: 0.9; stroke-linecap: square" />
   </g>
   <g id="line2d_32">
    <path d="M 25.78 25.643253  L 421.2 25.643253  " clip-path="url(#pf08c49ee5d)" style="fill: none; stroke-dasharray: 1.85,0.8; stroke-dashoffset: 0; stroke: #333333; stroke-width: 0.5" />
   </g>
   <g id="patch_3">
    <path d="M 25.78 262.092819  L 25.78 14.38375  " style="fill: none; stroke: #262626; stroke-width: 0.6; stroke-linejoin: miter; stroke-linecap: square" />
   </g>
   <g id="patch_4">
    <path d="M 421.2 262.092819  L 421.2 14.38375  " style="fill: none; stroke: #262626; stroke-width: 0.6; stroke-linejoin: miter; stroke-linecap: square" />
   </g>
   <g id="patch_5">
    <path d="M 25.78 262.092819  L 421.2 262.092819  " style="fill: none; stroke: #262626; stroke-width: 0.6; stroke-linejoin: miter; stroke-linecap: square" />
   </g>
   <g id="patch_6">
    <path d="M 25.78 14.38375  L 421.2 14.38375  " style="fill: none; stroke: #262626; stroke-width: 0.6; stroke-linejoin: miter; stroke-linecap: square" />
   </g>
   <g id="text_17">
    <text style="font-weight: 700; font-size: 9px; font-family: 'Times New Roman', 'DejaVu Serif', 'Nimbus Roman', 'Liberation Serif', serif; text-anchor: start" x="33.6884" y="32.740141" transform="rotate(-0 33.6884 32.740141)">(a)</text>
   </g>
   <g id="text_18">
    <text style="font-size: 10px; font-family: 'Times New Roman', 'DejaVu Serif', 'Nimbus Roman', 'Liberation Serif', serif; text-anchor: middle" x="223.49" y="8.38375" transform="rotate(-0 223.49 8.38375)">Example scour profiles (synthetic)</text>
   </g>
   <g id="legend_1">
    <g id="text_19">
     <text style="font-size: 9px; font-family: 'Times New Roman', 'DejaVu Serif', 'Nimbus Roman', 'Liberation Serif', serif; text-anchor: start" x="51.504844" y="223.787038" transform="rotate(-0 51.504844 223.787038)">test_id</text>
    </g>
    <g id="line2d_33">
     <path d="M 32.98 230.929069  L 40.18 230.929069  L 47.38 230.929069  " style="fill: none; stroke: #78cea3; stroke-width: 0.9; stroke-linecap: square" />
    </g>
    <g id="text_20">
     <text style="font-size: 8px; font-family: 'Times New Roman', 'DejaVu Serif', 'Nimbus Roman', 'Liberation Serif', serif; text-anchor: start" x="51.38" y="233.729069" transform="rotate(-0 51.38 233.729069)">monopile</text>
    </g>
    <g id="line2d_34">
     <path d="M 32.98 240.640319  L 40.18 240.640319  L 47.38 240.640319  " style="fill: none; stroke: #44829b; stroke-width: 0.9; stroke-linecap: square" />
    </g>
    <g id="text_21">
     <text style="font-size: 8px; font-family: 'Times New Roman', 'DejaVu Serif', 'Nimbus Roman', 'Liberation Serif', serif; text-anchor: start" x="51.38" y="243.440319" transform="rotate(-0 51.38 243.440319)">tripod_center</text>
    </g>
    <g id="line2d_35">
     <path d="M 32.98 250.366569  L 40.18 250.366569  L 47.38 250.366569  " style="fill: none; stroke: #3e3666; stroke-width: 0.9; stroke-linecap: square" />
    </g>
    <g id="text_22">
     <text style="font-size: 8px; font-family: 'Times New Roman', 'DejaVu Serif', 'Nimbus Roman', 'Liberation Serif', serif; text-anchor: start" x="51.38" y="253.166569" transform="rotate(-0 51.38 253.166569)">tripod_leg</text>
    </g>
   </g>
  </g>
 </g>
 <defs>
  <clipPath id="pf08c49ee5d">
   <rect x="25.78" y="14.38375" width="395.42" height="247.709069" />
  </clipPath>
 </defs>
</svg>